%TF.GenerationSoftware,KiCad,Pcbnew,(5.1.6)-1*%
%TF.CreationDate,2020-07-04T15:59:08+08:00*%
%TF.ProjectId,24RF_Remote_Control,32345246-5f52-4656-9d6f-74655f436f6e,rev?*%
%TF.SameCoordinates,Original*%
%TF.FileFunction,Copper,L2,Inr*%
%TF.FilePolarity,Positive*%
%FSLAX46Y46*%
G04 Gerber Fmt 4.6, Leading zero omitted, Abs format (unit mm)*
G04 Created by KiCad (PCBNEW (5.1.6)-1) date 2020-07-04 15:59:08*
%MOMM*%
%LPD*%
G01*
G04 APERTURE LIST*
%TA.AperFunction,ViaPad*%
%ADD10C,0.600000*%
%TD*%
%TA.AperFunction,ViaPad*%
%ADD11C,0.500000*%
%TD*%
%TA.AperFunction,ViaPad*%
%ADD12C,0.550000*%
%TD*%
%TA.AperFunction,ViaPad*%
%ADD13C,0.250000*%
%TD*%
%TA.AperFunction,Conductor*%
%ADD14C,0.254000*%
%TD*%
G04 APERTURE END LIST*
D10*
%TO.N,GND*%
%TO.C,U1*%
X140504260Y-79791340D03*
X139404260Y-79791340D03*
X139954260Y-79241340D03*
X140504260Y-78691340D03*
X139404260Y-78691340D03*
%TD*%
D11*
%TO.N,GND*%
%TO.C,U4*%
X145091200Y-91704200D03*
X146366200Y-91704200D03*
X147641200Y-91704200D03*
X148916200Y-91704200D03*
X150191200Y-91704200D03*
X145091200Y-90429200D03*
X146366200Y-90429200D03*
X147641200Y-90429200D03*
X148916200Y-90429200D03*
X150191200Y-90429200D03*
X145091200Y-89154200D03*
X146366200Y-89154200D03*
X147641200Y-89154200D03*
X148916200Y-89154200D03*
X150191200Y-89154200D03*
X145091200Y-87879200D03*
X146366200Y-87879200D03*
X147641200Y-87879200D03*
X148916200Y-87879200D03*
X150191200Y-87879200D03*
X145091200Y-86604200D03*
X146366200Y-86604200D03*
X147641200Y-86604200D03*
X148916200Y-86604200D03*
X150191200Y-86604200D03*
%TD*%
D12*
%TO.N,GND*%
X149886260Y-81540940D03*
X151915720Y-81764460D03*
X143848680Y-106676780D03*
X153559100Y-103689740D03*
X160031020Y-102821060D03*
X151919455Y-97892265D03*
X138626440Y-72193740D03*
X141113100Y-72201360D03*
X142238320Y-72252160D03*
X143498160Y-72269940D03*
X145172040Y-75884360D03*
X147607880Y-72635700D03*
X148357180Y-72605220D03*
X149896420Y-72605220D03*
X152644700Y-72650940D03*
X159215680Y-73727920D03*
X153040940Y-78978080D03*
X148778820Y-76704780D03*
X147336100Y-82473120D03*
X151915720Y-82480740D03*
X156998260Y-85328080D03*
X142573600Y-76537140D03*
X132223100Y-86887640D03*
X144257620Y-96679340D03*
X132703160Y-84990260D03*
X130130140Y-80545260D03*
X130107280Y-85803060D03*
X130130140Y-75985960D03*
X132703160Y-77085780D03*
X154288080Y-93174140D03*
X133107020Y-75823400D03*
X136688420Y-73621220D03*
X133932520Y-70169360D03*
X130823560Y-70504640D03*
X139302080Y-84886100D03*
X141580460Y-84835320D03*
X133038440Y-97187340D03*
X143988380Y-82633140D03*
X135271100Y-79313360D03*
X137328500Y-75305240D03*
X140805760Y-76801300D03*
X145260920Y-94017420D03*
D13*
X133597240Y-91827940D03*
D12*
X152606600Y-81083740D03*
X153306600Y-81083740D03*
X154006600Y-81083740D03*
X152606600Y-81783740D03*
X153306600Y-81783740D03*
X154006600Y-81783740D03*
X152606600Y-82483740D03*
X153306600Y-82483740D03*
X154006600Y-82483740D03*
X155222800Y-87075620D03*
X155222800Y-90062620D03*
X154788460Y-88576740D03*
X155222800Y-89112680D03*
X155222800Y-87939200D03*
X159528100Y-105162940D03*
X161207040Y-107377820D03*
X158885480Y-103961520D03*
X132863180Y-100283600D03*
X137071960Y-97956960D03*
X159312200Y-92810920D03*
X156673140Y-96488840D03*
X157704380Y-96501520D03*
X158516206Y-96522727D03*
X131649060Y-100725560D03*
X133388960Y-74266380D03*
X135537800Y-73600900D03*
X138997280Y-90115980D03*
X155210100Y-85640500D03*
%TO.N,Net-(C1-Pad2)*%
X136896700Y-80872920D03*
%TO.N,+3V3*%
X135888320Y-67875740D03*
X158260640Y-108444620D03*
X153543860Y-113336660D03*
X133528660Y-69501340D03*
X152687880Y-99902600D03*
X161069880Y-100311540D03*
X131646520Y-97553100D03*
X134107780Y-93397660D03*
X161704860Y-74827720D03*
X151682040Y-115442320D03*
X155954320Y-110910960D03*
X149146702Y-72582359D03*
X150732080Y-72595060D03*
X158242860Y-85363640D03*
X152703120Y-92602640D03*
X158374940Y-93184300D03*
X152703120Y-84025060D03*
X141511880Y-86425360D03*
X136530940Y-82358820D03*
X144237300Y-93186840D03*
X136917787Y-75932789D03*
X137088320Y-67875740D03*
X138288320Y-67875740D03*
X135888320Y-68575740D03*
X137088320Y-68575740D03*
X138288320Y-68575740D03*
X155565700Y-107634360D03*
X154003600Y-98932320D03*
X130033620Y-105457580D03*
X138402940Y-91956160D03*
%TO.N,/ADC_BATT*%
X157384340Y-94266340D03*
%TO.N,/BUTTON__LEFT*%
X145685100Y-94883560D03*
%TO.N,/BUTTON_RIGHT*%
X159880579Y-95466341D03*
%TO.N,Net-(J1-Pad2)*%
X134211920Y-85932600D03*
X134161120Y-81744140D03*
%TO.N,Net-(J1-Pad3)*%
X133998560Y-80913560D03*
X133434680Y-84578402D03*
%TO.N,/SWDCLK*%
X140546548Y-85333028D03*
X138771220Y-85988500D03*
%TO.N,/RF_SCK*%
X143269560Y-91406300D03*
X141602260Y-91962560D03*
%TO.N,/OLED_FLASH_SCK*%
X144861059Y-83474961D03*
X145141540Y-72582360D03*
X146266760Y-71398720D03*
X144757925Y-81812795D03*
%TO.N,/Buzzer*%
X145741970Y-95631403D03*
%TO.N,/JY_Y*%
X148263200Y-108254120D03*
%TO.N,/JY_X*%
X150917500Y-96041780D03*
%TO.N,Net-(S1-Pad2)*%
X135062820Y-87832520D03*
%TO.N,/OLED_FLASH_MISO*%
X145922779Y-84536681D03*
X158692440Y-83039540D03*
%TO.N,/USER_LED*%
X148946460Y-106831720D03*
%TO.N,/CHARGE*%
X136916523Y-76693454D03*
X143792176Y-83387500D03*
%TO.N,/PGOOD*%
X137739980Y-74558480D03*
X153140000Y-70758640D03*
X161872520Y-94360320D03*
%TD*%
D14*
%TO.N,+3V3*%
G36*
X139484960Y-68015440D02*
G01*
X139487400Y-68040216D01*
X139494627Y-68064041D01*
X139506363Y-68085997D01*
X139522157Y-68105243D01*
X139541403Y-68121037D01*
X139563359Y-68132773D01*
X139587184Y-68140000D01*
X139611960Y-68142440D01*
X152101140Y-68142440D01*
X152125916Y-68140000D01*
X152149741Y-68132773D01*
X152171697Y-68121037D01*
X152190943Y-68105243D01*
X152206737Y-68085997D01*
X152218473Y-68064041D01*
X152225700Y-68040216D01*
X152228140Y-68015440D01*
X152228140Y-67075640D01*
X159745885Y-67075640D01*
X159594805Y-67226720D01*
X159418829Y-67490087D01*
X159297615Y-67782724D01*
X159235820Y-68093386D01*
X159235820Y-68410134D01*
X159297615Y-68720796D01*
X159418829Y-69013433D01*
X159594805Y-69276800D01*
X159818780Y-69500775D01*
X160082147Y-69676751D01*
X160374784Y-69797965D01*
X160685446Y-69859760D01*
X161002194Y-69859760D01*
X161312856Y-69797965D01*
X161605493Y-69676751D01*
X161868860Y-69500775D01*
X161994932Y-69374703D01*
X162012524Y-93589828D01*
X161949639Y-93577320D01*
X161795401Y-93577320D01*
X161644127Y-93607410D01*
X161501630Y-93666434D01*
X161373386Y-93752124D01*
X161264324Y-93861186D01*
X161178634Y-93989430D01*
X161119610Y-94131927D01*
X161089520Y-94283201D01*
X161089520Y-94437439D01*
X161119610Y-94588713D01*
X161178634Y-94731210D01*
X161264324Y-94859454D01*
X161373386Y-94968516D01*
X161501630Y-95054206D01*
X161644127Y-95113230D01*
X161795401Y-95143320D01*
X161949639Y-95143320D01*
X162013643Y-95130589D01*
X162026894Y-113370839D01*
X161869280Y-113213225D01*
X161605913Y-113037249D01*
X161313276Y-112916035D01*
X161002614Y-112854240D01*
X160685866Y-112854240D01*
X160375204Y-112916035D01*
X160082567Y-113037249D01*
X159819200Y-113213225D01*
X159595225Y-113437200D01*
X159419249Y-113700567D01*
X159298035Y-113993204D01*
X159236240Y-114303866D01*
X159236240Y-114620614D01*
X159298035Y-114931276D01*
X159419249Y-115223913D01*
X159595225Y-115487280D01*
X159750925Y-115642980D01*
X150945440Y-115642980D01*
X150945440Y-107309240D01*
X150944600Y-107300701D01*
X160424040Y-107300701D01*
X160424040Y-107454939D01*
X160454130Y-107606213D01*
X160513154Y-107748710D01*
X160598844Y-107876954D01*
X160707906Y-107986016D01*
X160836150Y-108071706D01*
X160978647Y-108130730D01*
X161129921Y-108160820D01*
X161284159Y-108160820D01*
X161435433Y-108130730D01*
X161577930Y-108071706D01*
X161706174Y-107986016D01*
X161815236Y-107876954D01*
X161900926Y-107748710D01*
X161959950Y-107606213D01*
X161990040Y-107454939D01*
X161990040Y-107300701D01*
X161959950Y-107149427D01*
X161900926Y-107006930D01*
X161815236Y-106878686D01*
X161706174Y-106769624D01*
X161577930Y-106683934D01*
X161435433Y-106624910D01*
X161284159Y-106594820D01*
X161129921Y-106594820D01*
X160978647Y-106624910D01*
X160836150Y-106683934D01*
X160707906Y-106769624D01*
X160598844Y-106878686D01*
X160513154Y-107006930D01*
X160454130Y-107149427D01*
X160424040Y-107300701D01*
X150944600Y-107300701D01*
X150943000Y-107284464D01*
X150935773Y-107260639D01*
X150924037Y-107238683D01*
X150908243Y-107219437D01*
X150888997Y-107203643D01*
X150867041Y-107191907D01*
X150843216Y-107184680D01*
X150818440Y-107182240D01*
X149648784Y-107182240D01*
X149699370Y-107060113D01*
X149729460Y-106908839D01*
X149729460Y-106754601D01*
X149699370Y-106603327D01*
X149640346Y-106460830D01*
X149554656Y-106332586D01*
X149445594Y-106223524D01*
X149317350Y-106137834D01*
X149174853Y-106078810D01*
X149023579Y-106048720D01*
X148869341Y-106048720D01*
X148718067Y-106078810D01*
X148575570Y-106137834D01*
X148447326Y-106223524D01*
X148338264Y-106332586D01*
X148252574Y-106460830D01*
X148193550Y-106603327D01*
X148163460Y-106754601D01*
X148163460Y-106908839D01*
X148193550Y-107060113D01*
X148244136Y-107182240D01*
X144450550Y-107182240D01*
X144456876Y-107175914D01*
X144542566Y-107047670D01*
X144601590Y-106905173D01*
X144631680Y-106753899D01*
X144631680Y-106599661D01*
X144601590Y-106448387D01*
X144542566Y-106305890D01*
X144456876Y-106177646D01*
X144347814Y-106068584D01*
X144219570Y-105982894D01*
X144077073Y-105923870D01*
X143925799Y-105893780D01*
X143771561Y-105893780D01*
X143620287Y-105923870D01*
X143477790Y-105982894D01*
X143349546Y-106068584D01*
X143240484Y-106177646D01*
X143154794Y-106305890D01*
X143095770Y-106448387D01*
X143065680Y-106599661D01*
X143065680Y-106753899D01*
X143095770Y-106905173D01*
X143154794Y-107047670D01*
X143240484Y-107175914D01*
X143246810Y-107182240D01*
X129700898Y-107182240D01*
X129698306Y-103612621D01*
X152776100Y-103612621D01*
X152776100Y-103766859D01*
X152806190Y-103918133D01*
X152865214Y-104060630D01*
X152950904Y-104188874D01*
X153059966Y-104297936D01*
X153188210Y-104383626D01*
X153330707Y-104442650D01*
X153481981Y-104472740D01*
X153636219Y-104472740D01*
X153787493Y-104442650D01*
X153929990Y-104383626D01*
X154058234Y-104297936D01*
X154167296Y-104188874D01*
X154252986Y-104060630D01*
X154312010Y-103918133D01*
X154318719Y-103884401D01*
X158102480Y-103884401D01*
X158102480Y-104038639D01*
X158132570Y-104189913D01*
X158191594Y-104332410D01*
X158277284Y-104460654D01*
X158386346Y-104569716D01*
X158514590Y-104655406D01*
X158657087Y-104714430D01*
X158808361Y-104744520D01*
X158865973Y-104744520D01*
X158834214Y-104792050D01*
X158775190Y-104934547D01*
X158745100Y-105085821D01*
X158745100Y-105240059D01*
X158775190Y-105391333D01*
X158834214Y-105533830D01*
X158919904Y-105662074D01*
X159028966Y-105771136D01*
X159157210Y-105856826D01*
X159299707Y-105915850D01*
X159450981Y-105945940D01*
X159605219Y-105945940D01*
X159756493Y-105915850D01*
X159898990Y-105856826D01*
X160027234Y-105771136D01*
X160136296Y-105662074D01*
X160221986Y-105533830D01*
X160281010Y-105391333D01*
X160311100Y-105240059D01*
X160311100Y-105085821D01*
X160281010Y-104934547D01*
X160221986Y-104792050D01*
X160136296Y-104663806D01*
X160027234Y-104554744D01*
X159898990Y-104469054D01*
X159756493Y-104410030D01*
X159605219Y-104379940D01*
X159547607Y-104379940D01*
X159579366Y-104332410D01*
X159638390Y-104189913D01*
X159668480Y-104038639D01*
X159668480Y-103884401D01*
X159638390Y-103733127D01*
X159579366Y-103590630D01*
X159493676Y-103462386D01*
X159384614Y-103353324D01*
X159256370Y-103267634D01*
X159113873Y-103208610D01*
X158962599Y-103178520D01*
X158808361Y-103178520D01*
X158657087Y-103208610D01*
X158514590Y-103267634D01*
X158386346Y-103353324D01*
X158277284Y-103462386D01*
X158191594Y-103590630D01*
X158132570Y-103733127D01*
X158102480Y-103884401D01*
X154318719Y-103884401D01*
X154342100Y-103766859D01*
X154342100Y-103612621D01*
X154312010Y-103461347D01*
X154252986Y-103318850D01*
X154167296Y-103190606D01*
X154058234Y-103081544D01*
X153929990Y-102995854D01*
X153787493Y-102936830D01*
X153636219Y-102906740D01*
X153481981Y-102906740D01*
X153330707Y-102936830D01*
X153188210Y-102995854D01*
X153059966Y-103081544D01*
X152950904Y-103190606D01*
X152865214Y-103318850D01*
X152806190Y-103461347D01*
X152776100Y-103612621D01*
X129698306Y-103612621D01*
X129697675Y-102743941D01*
X159248020Y-102743941D01*
X159248020Y-102898179D01*
X159278110Y-103049453D01*
X159337134Y-103191950D01*
X159422824Y-103320194D01*
X159531886Y-103429256D01*
X159660130Y-103514946D01*
X159802627Y-103573970D01*
X159953901Y-103604060D01*
X160108139Y-103604060D01*
X160259413Y-103573970D01*
X160401910Y-103514946D01*
X160530154Y-103429256D01*
X160639216Y-103320194D01*
X160724906Y-103191950D01*
X160783930Y-103049453D01*
X160814020Y-102898179D01*
X160814020Y-102743941D01*
X160783930Y-102592667D01*
X160724906Y-102450170D01*
X160639216Y-102321926D01*
X160530154Y-102212864D01*
X160401910Y-102127174D01*
X160259413Y-102068150D01*
X160108139Y-102038060D01*
X159953901Y-102038060D01*
X159802627Y-102068150D01*
X159660130Y-102127174D01*
X159531886Y-102212864D01*
X159422824Y-102321926D01*
X159337134Y-102450170D01*
X159278110Y-102592667D01*
X159248020Y-102743941D01*
X129697675Y-102743941D01*
X129696152Y-100648441D01*
X130866060Y-100648441D01*
X130866060Y-100802679D01*
X130896150Y-100953953D01*
X130955174Y-101096450D01*
X131040864Y-101224694D01*
X131149926Y-101333756D01*
X131278170Y-101419446D01*
X131420667Y-101478470D01*
X131571941Y-101508560D01*
X131726179Y-101508560D01*
X131877453Y-101478470D01*
X132019950Y-101419446D01*
X132148194Y-101333756D01*
X132257256Y-101224694D01*
X132342946Y-101096450D01*
X132401970Y-100953953D01*
X132408434Y-100921455D01*
X132492290Y-100977486D01*
X132634787Y-101036510D01*
X132786061Y-101066600D01*
X132940299Y-101066600D01*
X133091573Y-101036510D01*
X133234070Y-100977486D01*
X133362314Y-100891796D01*
X133471376Y-100782734D01*
X133557066Y-100654490D01*
X133616090Y-100511993D01*
X133646180Y-100360719D01*
X133646180Y-100206481D01*
X133616090Y-100055207D01*
X133557066Y-99912710D01*
X133471376Y-99784466D01*
X133362314Y-99675404D01*
X133234070Y-99589714D01*
X133091573Y-99530690D01*
X132940299Y-99500600D01*
X132786061Y-99500600D01*
X132634787Y-99530690D01*
X132492290Y-99589714D01*
X132364046Y-99675404D01*
X132254984Y-99784466D01*
X132169294Y-99912710D01*
X132110270Y-100055207D01*
X132103806Y-100087705D01*
X132019950Y-100031674D01*
X131877453Y-99972650D01*
X131726179Y-99942560D01*
X131571941Y-99942560D01*
X131420667Y-99972650D01*
X131278170Y-100031674D01*
X131149926Y-100117364D01*
X131040864Y-100226426D01*
X130955174Y-100354670D01*
X130896150Y-100497167D01*
X130866060Y-100648441D01*
X129696152Y-100648441D01*
X129693582Y-97110221D01*
X132255440Y-97110221D01*
X132255440Y-97264459D01*
X132285530Y-97415733D01*
X132344554Y-97558230D01*
X132430244Y-97686474D01*
X132539306Y-97795536D01*
X132667550Y-97881226D01*
X132810047Y-97940250D01*
X132961321Y-97970340D01*
X133115559Y-97970340D01*
X133266833Y-97940250D01*
X133409330Y-97881226D01*
X133411402Y-97879841D01*
X136288960Y-97879841D01*
X136288960Y-98034079D01*
X136319050Y-98185353D01*
X136378074Y-98327850D01*
X136463764Y-98456094D01*
X136572826Y-98565156D01*
X136701070Y-98650846D01*
X136843567Y-98709870D01*
X136994841Y-98739960D01*
X137149079Y-98739960D01*
X137300353Y-98709870D01*
X137442850Y-98650846D01*
X137571094Y-98565156D01*
X137680156Y-98456094D01*
X137765846Y-98327850D01*
X137824870Y-98185353D01*
X137854960Y-98034079D01*
X137854960Y-97879841D01*
X137842092Y-97815146D01*
X151136455Y-97815146D01*
X151136455Y-97969384D01*
X151166545Y-98120658D01*
X151225569Y-98263155D01*
X151311259Y-98391399D01*
X151420321Y-98500461D01*
X151548565Y-98586151D01*
X151691062Y-98645175D01*
X151842336Y-98675265D01*
X151996574Y-98675265D01*
X152147848Y-98645175D01*
X152290345Y-98586151D01*
X152418589Y-98500461D01*
X152527651Y-98391399D01*
X152613341Y-98263155D01*
X152672365Y-98120658D01*
X152702455Y-97969384D01*
X152702455Y-97815146D01*
X152672365Y-97663872D01*
X152613341Y-97521375D01*
X152527651Y-97393131D01*
X152418589Y-97284069D01*
X152290345Y-97198379D01*
X152147848Y-97139355D01*
X151996574Y-97109265D01*
X151842336Y-97109265D01*
X151691062Y-97139355D01*
X151548565Y-97198379D01*
X151420321Y-97284069D01*
X151311259Y-97393131D01*
X151225569Y-97521375D01*
X151166545Y-97663872D01*
X151136455Y-97815146D01*
X137842092Y-97815146D01*
X137824870Y-97728567D01*
X137765846Y-97586070D01*
X137680156Y-97457826D01*
X137571094Y-97348764D01*
X137442850Y-97263074D01*
X137300353Y-97204050D01*
X137149079Y-97173960D01*
X136994841Y-97173960D01*
X136843567Y-97204050D01*
X136701070Y-97263074D01*
X136572826Y-97348764D01*
X136463764Y-97457826D01*
X136378074Y-97586070D01*
X136319050Y-97728567D01*
X136288960Y-97879841D01*
X133411402Y-97879841D01*
X133537574Y-97795536D01*
X133646636Y-97686474D01*
X133732326Y-97558230D01*
X133791350Y-97415733D01*
X133821440Y-97264459D01*
X133821440Y-97110221D01*
X133791350Y-96958947D01*
X133732326Y-96816450D01*
X133646636Y-96688206D01*
X133560651Y-96602221D01*
X143474620Y-96602221D01*
X143474620Y-96756459D01*
X143504710Y-96907733D01*
X143563734Y-97050230D01*
X143649424Y-97178474D01*
X143758486Y-97287536D01*
X143886730Y-97373226D01*
X144029227Y-97432250D01*
X144180501Y-97462340D01*
X144334739Y-97462340D01*
X144486013Y-97432250D01*
X144628510Y-97373226D01*
X144756754Y-97287536D01*
X144865816Y-97178474D01*
X144951506Y-97050230D01*
X145010530Y-96907733D01*
X145040620Y-96756459D01*
X145040620Y-96602221D01*
X145010530Y-96450947D01*
X144951506Y-96308450D01*
X144865816Y-96180206D01*
X144756754Y-96071144D01*
X144628510Y-95985454D01*
X144486013Y-95926430D01*
X144334739Y-95896340D01*
X144180501Y-95896340D01*
X144029227Y-95926430D01*
X143886730Y-95985454D01*
X143758486Y-96071144D01*
X143649424Y-96180206D01*
X143563734Y-96308450D01*
X143504710Y-96450947D01*
X143474620Y-96602221D01*
X133560651Y-96602221D01*
X133537574Y-96579144D01*
X133409330Y-96493454D01*
X133266833Y-96434430D01*
X133115559Y-96404340D01*
X132961321Y-96404340D01*
X132810047Y-96434430D01*
X132667550Y-96493454D01*
X132539306Y-96579144D01*
X132430244Y-96688206D01*
X132344554Y-96816450D01*
X132285530Y-96958947D01*
X132255440Y-97110221D01*
X129693582Y-97110221D01*
X129692215Y-95229818D01*
X129731398Y-95222024D01*
X129905743Y-95149808D01*
X130062649Y-95044967D01*
X130196087Y-94911529D01*
X130300928Y-94754623D01*
X130373144Y-94580278D01*
X130409960Y-94395195D01*
X130409960Y-94206485D01*
X130373144Y-94021402D01*
X130339551Y-93940301D01*
X144477920Y-93940301D01*
X144477920Y-94094539D01*
X144508010Y-94245813D01*
X144567034Y-94388310D01*
X144652724Y-94516554D01*
X144761786Y-94625616D01*
X144890030Y-94711306D01*
X144918664Y-94723167D01*
X144902100Y-94806441D01*
X144902100Y-94960679D01*
X144932190Y-95111953D01*
X144991214Y-95254450D01*
X145027871Y-95309311D01*
X144989060Y-95403010D01*
X144958970Y-95554284D01*
X144958970Y-95708522D01*
X144989060Y-95859796D01*
X145048084Y-96002293D01*
X145133774Y-96130537D01*
X145242836Y-96239599D01*
X145371080Y-96325289D01*
X145513577Y-96384313D01*
X145664851Y-96414403D01*
X145819089Y-96414403D01*
X145970363Y-96384313D01*
X146112860Y-96325289D01*
X146241104Y-96239599D01*
X146350166Y-96130537D01*
X146435856Y-96002293D01*
X146451443Y-95964661D01*
X150134500Y-95964661D01*
X150134500Y-96118899D01*
X150164590Y-96270173D01*
X150223614Y-96412670D01*
X150309304Y-96540914D01*
X150418366Y-96649976D01*
X150546610Y-96735666D01*
X150689107Y-96794690D01*
X150840381Y-96824780D01*
X150994619Y-96824780D01*
X151145893Y-96794690D01*
X151288390Y-96735666D01*
X151416634Y-96649976D01*
X151525696Y-96540914D01*
X151611386Y-96412670D01*
X151611779Y-96411721D01*
X155890140Y-96411721D01*
X155890140Y-96565959D01*
X155920230Y-96717233D01*
X155979254Y-96859730D01*
X156064944Y-96987974D01*
X156174006Y-97097036D01*
X156302250Y-97182726D01*
X156444747Y-97241750D01*
X156596021Y-97271840D01*
X156750259Y-97271840D01*
X156901533Y-97241750D01*
X157044030Y-97182726D01*
X157172274Y-97097036D01*
X157182420Y-97086890D01*
X157205246Y-97109716D01*
X157333490Y-97195406D01*
X157475987Y-97254430D01*
X157627261Y-97284520D01*
X157781499Y-97284520D01*
X157932773Y-97254430D01*
X158075270Y-97195406D01*
X158094424Y-97182608D01*
X158145316Y-97216613D01*
X158287813Y-97275637D01*
X158439087Y-97305727D01*
X158593325Y-97305727D01*
X158744599Y-97275637D01*
X158887096Y-97216613D01*
X159015340Y-97130923D01*
X159124402Y-97021861D01*
X159210092Y-96893617D01*
X159269116Y-96751120D01*
X159299206Y-96599846D01*
X159299206Y-96445608D01*
X159269116Y-96294334D01*
X159210092Y-96151837D01*
X159124402Y-96023593D01*
X159015340Y-95914531D01*
X158887096Y-95828841D01*
X158744599Y-95769817D01*
X158593325Y-95739727D01*
X158439087Y-95739727D01*
X158287813Y-95769817D01*
X158145316Y-95828841D01*
X158126162Y-95841639D01*
X158075270Y-95807634D01*
X157932773Y-95748610D01*
X157781499Y-95718520D01*
X157627261Y-95718520D01*
X157475987Y-95748610D01*
X157333490Y-95807634D01*
X157205246Y-95893324D01*
X157195100Y-95903470D01*
X157172274Y-95880644D01*
X157044030Y-95794954D01*
X156901533Y-95735930D01*
X156750259Y-95705840D01*
X156596021Y-95705840D01*
X156444747Y-95735930D01*
X156302250Y-95794954D01*
X156174006Y-95880644D01*
X156064944Y-95989706D01*
X155979254Y-96117950D01*
X155920230Y-96260447D01*
X155890140Y-96411721D01*
X151611779Y-96411721D01*
X151670410Y-96270173D01*
X151700500Y-96118899D01*
X151700500Y-95964661D01*
X151670410Y-95813387D01*
X151611386Y-95670890D01*
X151525696Y-95542646D01*
X151416634Y-95433584D01*
X151350242Y-95389222D01*
X159097579Y-95389222D01*
X159097579Y-95543460D01*
X159127669Y-95694734D01*
X159186693Y-95837231D01*
X159272383Y-95965475D01*
X159381445Y-96074537D01*
X159509689Y-96160227D01*
X159652186Y-96219251D01*
X159803460Y-96249341D01*
X159957698Y-96249341D01*
X160108972Y-96219251D01*
X160251469Y-96160227D01*
X160379713Y-96074537D01*
X160488775Y-95965475D01*
X160574465Y-95837231D01*
X160633489Y-95694734D01*
X160663579Y-95543460D01*
X160663579Y-95389222D01*
X160633489Y-95237948D01*
X160574465Y-95095451D01*
X160488775Y-94967207D01*
X160379713Y-94858145D01*
X160251469Y-94772455D01*
X160108972Y-94713431D01*
X159957698Y-94683341D01*
X159803460Y-94683341D01*
X159652186Y-94713431D01*
X159509689Y-94772455D01*
X159381445Y-94858145D01*
X159272383Y-94967207D01*
X159186693Y-95095451D01*
X159127669Y-95237948D01*
X159097579Y-95389222D01*
X151350242Y-95389222D01*
X151288390Y-95347894D01*
X151145893Y-95288870D01*
X150994619Y-95258780D01*
X150840381Y-95258780D01*
X150689107Y-95288870D01*
X150546610Y-95347894D01*
X150418366Y-95433584D01*
X150309304Y-95542646D01*
X150223614Y-95670890D01*
X150164590Y-95813387D01*
X150134500Y-95964661D01*
X146451443Y-95964661D01*
X146494880Y-95859796D01*
X146524970Y-95708522D01*
X146524970Y-95554284D01*
X146494880Y-95403010D01*
X146435856Y-95260513D01*
X146399199Y-95205652D01*
X146438010Y-95111953D01*
X146468100Y-94960679D01*
X146468100Y-94806441D01*
X146438010Y-94655167D01*
X146378986Y-94512670D01*
X146293296Y-94384426D01*
X146184234Y-94275364D01*
X146055990Y-94189674D01*
X146054897Y-94189221D01*
X156601340Y-94189221D01*
X156601340Y-94343459D01*
X156631430Y-94494733D01*
X156690454Y-94637230D01*
X156776144Y-94765474D01*
X156885206Y-94874536D01*
X157013450Y-94960226D01*
X157155947Y-95019250D01*
X157307221Y-95049340D01*
X157461459Y-95049340D01*
X157612733Y-95019250D01*
X157755230Y-94960226D01*
X157883474Y-94874536D01*
X157992536Y-94765474D01*
X158078226Y-94637230D01*
X158137250Y-94494733D01*
X158167340Y-94343459D01*
X158167340Y-94189221D01*
X158137250Y-94037947D01*
X158078226Y-93895450D01*
X157992536Y-93767206D01*
X157883474Y-93658144D01*
X157755230Y-93572454D01*
X157612733Y-93513430D01*
X157461459Y-93483340D01*
X157307221Y-93483340D01*
X157155947Y-93513430D01*
X157013450Y-93572454D01*
X156885206Y-93658144D01*
X156776144Y-93767206D01*
X156690454Y-93895450D01*
X156631430Y-94037947D01*
X156601340Y-94189221D01*
X146054897Y-94189221D01*
X146027356Y-94177813D01*
X146043920Y-94094539D01*
X146043920Y-93940301D01*
X146013830Y-93789027D01*
X145954806Y-93646530D01*
X145869116Y-93518286D01*
X145760054Y-93409224D01*
X145631810Y-93323534D01*
X145489313Y-93264510D01*
X145338039Y-93234420D01*
X145183801Y-93234420D01*
X145032527Y-93264510D01*
X144890030Y-93323534D01*
X144761786Y-93409224D01*
X144652724Y-93518286D01*
X144567034Y-93646530D01*
X144508010Y-93789027D01*
X144477920Y-93940301D01*
X130339551Y-93940301D01*
X130300928Y-93847057D01*
X130196087Y-93690151D01*
X130062649Y-93556713D01*
X129905743Y-93451872D01*
X129731398Y-93379656D01*
X129690865Y-93371593D01*
X129690666Y-93097021D01*
X153505080Y-93097021D01*
X153505080Y-93251259D01*
X153535170Y-93402533D01*
X153594194Y-93545030D01*
X153679884Y-93673274D01*
X153788946Y-93782336D01*
X153917190Y-93868026D01*
X154059687Y-93927050D01*
X154210961Y-93957140D01*
X154365199Y-93957140D01*
X154516473Y-93927050D01*
X154658970Y-93868026D01*
X154787214Y-93782336D01*
X154896276Y-93673274D01*
X154981966Y-93545030D01*
X155040990Y-93402533D01*
X155071080Y-93251259D01*
X155071080Y-93097021D01*
X155040990Y-92945747D01*
X154981966Y-92803250D01*
X154935562Y-92733801D01*
X158529200Y-92733801D01*
X158529200Y-92888039D01*
X158559290Y-93039313D01*
X158618314Y-93181810D01*
X158704004Y-93310054D01*
X158813066Y-93419116D01*
X158941310Y-93504806D01*
X159083807Y-93563830D01*
X159235081Y-93593920D01*
X159389319Y-93593920D01*
X159540593Y-93563830D01*
X159683090Y-93504806D01*
X159811334Y-93419116D01*
X159920396Y-93310054D01*
X160006086Y-93181810D01*
X160065110Y-93039313D01*
X160095200Y-92888039D01*
X160095200Y-92733801D01*
X160065110Y-92582527D01*
X160006086Y-92440030D01*
X159920396Y-92311786D01*
X159811334Y-92202724D01*
X159683090Y-92117034D01*
X159540593Y-92058010D01*
X159389319Y-92027920D01*
X159235081Y-92027920D01*
X159083807Y-92058010D01*
X158941310Y-92117034D01*
X158813066Y-92202724D01*
X158704004Y-92311786D01*
X158618314Y-92440030D01*
X158559290Y-92582527D01*
X158529200Y-92733801D01*
X154935562Y-92733801D01*
X154896276Y-92675006D01*
X154787214Y-92565944D01*
X154658970Y-92480254D01*
X154516473Y-92421230D01*
X154365199Y-92391140D01*
X154210961Y-92391140D01*
X154059687Y-92421230D01*
X153917190Y-92480254D01*
X153788946Y-92565944D01*
X153679884Y-92675006D01*
X153594194Y-92803250D01*
X153535170Y-92945747D01*
X153505080Y-93097021D01*
X129690666Y-93097021D01*
X129689699Y-91765595D01*
X132964240Y-91765595D01*
X132964240Y-91890285D01*
X132988566Y-92012579D01*
X133036283Y-92127778D01*
X133105557Y-92231454D01*
X133193726Y-92319623D01*
X133297402Y-92388897D01*
X133412601Y-92436614D01*
X133534895Y-92460940D01*
X133659585Y-92460940D01*
X133781879Y-92436614D01*
X133897078Y-92388897D01*
X134000754Y-92319623D01*
X134088923Y-92231454D01*
X134158197Y-92127778D01*
X134205914Y-92012579D01*
X134230240Y-91890285D01*
X134230240Y-91885441D01*
X140819260Y-91885441D01*
X140819260Y-92039679D01*
X140849350Y-92190953D01*
X140908374Y-92333450D01*
X140994064Y-92461694D01*
X141103126Y-92570756D01*
X141231370Y-92656446D01*
X141373867Y-92715470D01*
X141525141Y-92745560D01*
X141679379Y-92745560D01*
X141830653Y-92715470D01*
X141973150Y-92656446D01*
X142101394Y-92570756D01*
X142210456Y-92461694D01*
X142296146Y-92333450D01*
X142355170Y-92190953D01*
X142385260Y-92039679D01*
X142385260Y-91885441D01*
X142355170Y-91734167D01*
X142296146Y-91591670D01*
X142210456Y-91463426D01*
X142101394Y-91354364D01*
X142063706Y-91329181D01*
X142486560Y-91329181D01*
X142486560Y-91483419D01*
X142516650Y-91634693D01*
X142575674Y-91777190D01*
X142661364Y-91905434D01*
X142770426Y-92014496D01*
X142898670Y-92100186D01*
X143041167Y-92159210D01*
X143192441Y-92189300D01*
X143346679Y-92189300D01*
X143497953Y-92159210D01*
X143640450Y-92100186D01*
X143768694Y-92014496D01*
X143877756Y-91905434D01*
X143963446Y-91777190D01*
X144022470Y-91634693D01*
X144052560Y-91483419D01*
X144052560Y-91329181D01*
X144022470Y-91177907D01*
X143963446Y-91035410D01*
X143877756Y-90907166D01*
X143768694Y-90798104D01*
X143640450Y-90712414D01*
X143497953Y-90653390D01*
X143346679Y-90623300D01*
X143192441Y-90623300D01*
X143041167Y-90653390D01*
X142898670Y-90712414D01*
X142770426Y-90798104D01*
X142661364Y-90907166D01*
X142575674Y-91035410D01*
X142516650Y-91177907D01*
X142486560Y-91329181D01*
X142063706Y-91329181D01*
X141973150Y-91268674D01*
X141830653Y-91209650D01*
X141679379Y-91179560D01*
X141525141Y-91179560D01*
X141373867Y-91209650D01*
X141231370Y-91268674D01*
X141103126Y-91354364D01*
X140994064Y-91463426D01*
X140908374Y-91591670D01*
X140849350Y-91734167D01*
X140819260Y-91885441D01*
X134230240Y-91885441D01*
X134230240Y-91765595D01*
X134205914Y-91643301D01*
X134158197Y-91528102D01*
X134088923Y-91424426D01*
X134000754Y-91336257D01*
X133897078Y-91266983D01*
X133781879Y-91219266D01*
X133659585Y-91194940D01*
X133534895Y-91194940D01*
X133412601Y-91219266D01*
X133297402Y-91266983D01*
X133193726Y-91336257D01*
X133105557Y-91424426D01*
X133036283Y-91528102D01*
X132988566Y-91643301D01*
X132964240Y-91765595D01*
X129689699Y-91765595D01*
X129688445Y-90038861D01*
X138214280Y-90038861D01*
X138214280Y-90193099D01*
X138244370Y-90344373D01*
X138303394Y-90486870D01*
X138389084Y-90615114D01*
X138498146Y-90724176D01*
X138626390Y-90809866D01*
X138768887Y-90868890D01*
X138920161Y-90898980D01*
X139074399Y-90898980D01*
X139225673Y-90868890D01*
X139368170Y-90809866D01*
X139496414Y-90724176D01*
X139605476Y-90615114D01*
X139691166Y-90486870D01*
X139750190Y-90344373D01*
X139780280Y-90193099D01*
X139780280Y-90038861D01*
X139750190Y-89887587D01*
X139691166Y-89745090D01*
X139605476Y-89616846D01*
X139496414Y-89507784D01*
X139368170Y-89422094D01*
X139225673Y-89363070D01*
X139074399Y-89332980D01*
X138920161Y-89332980D01*
X138768887Y-89363070D01*
X138626390Y-89422094D01*
X138498146Y-89507784D01*
X138389084Y-89616846D01*
X138303394Y-89745090D01*
X138244370Y-89887587D01*
X138214280Y-90038861D01*
X129688445Y-90038861D01*
X129687276Y-88430801D01*
X129731398Y-88422024D01*
X129905743Y-88349808D01*
X130062649Y-88244967D01*
X130196087Y-88111529D01*
X130300928Y-87954623D01*
X130373144Y-87780278D01*
X130378092Y-87755401D01*
X134279820Y-87755401D01*
X134279820Y-87909639D01*
X134309910Y-88060913D01*
X134368934Y-88203410D01*
X134454624Y-88331654D01*
X134563686Y-88440716D01*
X134691930Y-88526406D01*
X134834427Y-88585430D01*
X134985701Y-88615520D01*
X135139939Y-88615520D01*
X135291213Y-88585430D01*
X135433710Y-88526406D01*
X135561954Y-88440716D01*
X135671016Y-88331654D01*
X135756706Y-88203410D01*
X135815730Y-88060913D01*
X135845820Y-87909639D01*
X135845820Y-87755401D01*
X135815730Y-87604127D01*
X135756706Y-87461630D01*
X135671016Y-87333386D01*
X135561954Y-87224324D01*
X135433710Y-87138634D01*
X135291213Y-87079610D01*
X135139939Y-87049520D01*
X134985701Y-87049520D01*
X134834427Y-87079610D01*
X134691930Y-87138634D01*
X134563686Y-87224324D01*
X134454624Y-87333386D01*
X134368934Y-87461630D01*
X134309910Y-87604127D01*
X134279820Y-87755401D01*
X130378092Y-87755401D01*
X130409960Y-87595195D01*
X130409960Y-87406485D01*
X130373144Y-87221402D01*
X130300928Y-87047057D01*
X130196087Y-86890151D01*
X130116457Y-86810521D01*
X131440100Y-86810521D01*
X131440100Y-86964759D01*
X131470190Y-87116033D01*
X131529214Y-87258530D01*
X131614904Y-87386774D01*
X131723966Y-87495836D01*
X131852210Y-87581526D01*
X131994707Y-87640550D01*
X132145981Y-87670640D01*
X132300219Y-87670640D01*
X132451493Y-87640550D01*
X132593990Y-87581526D01*
X132722234Y-87495836D01*
X132831296Y-87386774D01*
X132916986Y-87258530D01*
X132976010Y-87116033D01*
X133006100Y-86964759D01*
X133006100Y-86810521D01*
X132976010Y-86659247D01*
X132916986Y-86516750D01*
X132831296Y-86388506D01*
X132722234Y-86279444D01*
X132593990Y-86193754D01*
X132451493Y-86134730D01*
X132300219Y-86104640D01*
X132145981Y-86104640D01*
X131994707Y-86134730D01*
X131852210Y-86193754D01*
X131723966Y-86279444D01*
X131614904Y-86388506D01*
X131529214Y-86516750D01*
X131470190Y-86659247D01*
X131440100Y-86810521D01*
X130116457Y-86810521D01*
X130062649Y-86756713D01*
X129905743Y-86651872D01*
X129731398Y-86579656D01*
X129685925Y-86570611D01*
X129685847Y-86463174D01*
X129736390Y-86496946D01*
X129878887Y-86555970D01*
X130030161Y-86586060D01*
X130184399Y-86586060D01*
X130335673Y-86555970D01*
X130478170Y-86496946D01*
X130606414Y-86411256D01*
X130715476Y-86302194D01*
X130801166Y-86173950D01*
X130860190Y-86031453D01*
X130890280Y-85880179D01*
X130890280Y-85725941D01*
X130860190Y-85574667D01*
X130801166Y-85432170D01*
X130715476Y-85303926D01*
X130606414Y-85194864D01*
X130478170Y-85109174D01*
X130335673Y-85050150D01*
X130184399Y-85020060D01*
X130030161Y-85020060D01*
X129878887Y-85050150D01*
X129736390Y-85109174D01*
X129684888Y-85143587D01*
X129684721Y-84913141D01*
X131920160Y-84913141D01*
X131920160Y-85067379D01*
X131950250Y-85218653D01*
X132009274Y-85361150D01*
X132094964Y-85489394D01*
X132204026Y-85598456D01*
X132332270Y-85684146D01*
X132474767Y-85743170D01*
X132626041Y-85773260D01*
X132780279Y-85773260D01*
X132931553Y-85743170D01*
X133074050Y-85684146D01*
X133202294Y-85598456D01*
X133311356Y-85489394D01*
X133396878Y-85361402D01*
X133511799Y-85361402D01*
X133663073Y-85331312D01*
X133766666Y-85288403D01*
X133712786Y-85324404D01*
X133603724Y-85433466D01*
X133518034Y-85561710D01*
X133459010Y-85704207D01*
X133428920Y-85855481D01*
X133428920Y-86009719D01*
X133459010Y-86160993D01*
X133518034Y-86303490D01*
X133603724Y-86431734D01*
X133712786Y-86540796D01*
X133841030Y-86626486D01*
X133983527Y-86685510D01*
X134134801Y-86715600D01*
X134289039Y-86715600D01*
X134440313Y-86685510D01*
X134582810Y-86626486D01*
X134711054Y-86540796D01*
X134820116Y-86431734D01*
X134905806Y-86303490D01*
X134964830Y-86160993D01*
X134994920Y-86009719D01*
X134994920Y-85911381D01*
X137988220Y-85911381D01*
X137988220Y-86065619D01*
X138018310Y-86216893D01*
X138077334Y-86359390D01*
X138163024Y-86487634D01*
X138272086Y-86596696D01*
X138400330Y-86682386D01*
X138542827Y-86741410D01*
X138694101Y-86771500D01*
X138848339Y-86771500D01*
X138999613Y-86741410D01*
X139142110Y-86682386D01*
X139270354Y-86596696D01*
X139337507Y-86529543D01*
X144333200Y-86529543D01*
X144333200Y-86678857D01*
X144362329Y-86825301D01*
X144419469Y-86963248D01*
X144502423Y-87087397D01*
X144608003Y-87192977D01*
X144680922Y-87241700D01*
X144608003Y-87290423D01*
X144502423Y-87396003D01*
X144419469Y-87520152D01*
X144362329Y-87658099D01*
X144333200Y-87804543D01*
X144333200Y-87953857D01*
X144362329Y-88100301D01*
X144419469Y-88238248D01*
X144502423Y-88362397D01*
X144608003Y-88467977D01*
X144680922Y-88516700D01*
X144608003Y-88565423D01*
X144502423Y-88671003D01*
X144419469Y-88795152D01*
X144362329Y-88933099D01*
X144333200Y-89079543D01*
X144333200Y-89228857D01*
X144362329Y-89375301D01*
X144419469Y-89513248D01*
X144502423Y-89637397D01*
X144608003Y-89742977D01*
X144680922Y-89791700D01*
X144608003Y-89840423D01*
X144502423Y-89946003D01*
X144419469Y-90070152D01*
X144362329Y-90208099D01*
X144333200Y-90354543D01*
X144333200Y-90503857D01*
X144362329Y-90650301D01*
X144419469Y-90788248D01*
X144502423Y-90912397D01*
X144608003Y-91017977D01*
X144680922Y-91066700D01*
X144608003Y-91115423D01*
X144502423Y-91221003D01*
X144419469Y-91345152D01*
X144362329Y-91483099D01*
X144333200Y-91629543D01*
X144333200Y-91778857D01*
X144362329Y-91925301D01*
X144419469Y-92063248D01*
X144502423Y-92187397D01*
X144608003Y-92292977D01*
X144732152Y-92375931D01*
X144870099Y-92433071D01*
X145016543Y-92462200D01*
X145165857Y-92462200D01*
X145312301Y-92433071D01*
X145450248Y-92375931D01*
X145574397Y-92292977D01*
X145679977Y-92187397D01*
X145728700Y-92114478D01*
X145777423Y-92187397D01*
X145883003Y-92292977D01*
X146007152Y-92375931D01*
X146145099Y-92433071D01*
X146291543Y-92462200D01*
X146440857Y-92462200D01*
X146587301Y-92433071D01*
X146725248Y-92375931D01*
X146849397Y-92292977D01*
X146954977Y-92187397D01*
X147003700Y-92114478D01*
X147052423Y-92187397D01*
X147158003Y-92292977D01*
X147282152Y-92375931D01*
X147420099Y-92433071D01*
X147566543Y-92462200D01*
X147715857Y-92462200D01*
X147862301Y-92433071D01*
X148000248Y-92375931D01*
X148124397Y-92292977D01*
X148229977Y-92187397D01*
X148278700Y-92114478D01*
X148327423Y-92187397D01*
X148433003Y-92292977D01*
X148557152Y-92375931D01*
X148695099Y-92433071D01*
X148841543Y-92462200D01*
X148990857Y-92462200D01*
X149137301Y-92433071D01*
X149275248Y-92375931D01*
X149399397Y-92292977D01*
X149504977Y-92187397D01*
X149553700Y-92114478D01*
X149602423Y-92187397D01*
X149708003Y-92292977D01*
X149832152Y-92375931D01*
X149970099Y-92433071D01*
X150116543Y-92462200D01*
X150265857Y-92462200D01*
X150412301Y-92433071D01*
X150550248Y-92375931D01*
X150674397Y-92292977D01*
X150779977Y-92187397D01*
X150862931Y-92063248D01*
X150920071Y-91925301D01*
X150949200Y-91778857D01*
X150949200Y-91629543D01*
X150920071Y-91483099D01*
X150862931Y-91345152D01*
X150779977Y-91221003D01*
X150674397Y-91115423D01*
X150601478Y-91066700D01*
X150674397Y-91017977D01*
X150779977Y-90912397D01*
X150862931Y-90788248D01*
X150920071Y-90650301D01*
X150949200Y-90503857D01*
X150949200Y-90354543D01*
X150920071Y-90208099D01*
X150862931Y-90070152D01*
X150779977Y-89946003D01*
X150674397Y-89840423D01*
X150601478Y-89791700D01*
X150674397Y-89742977D01*
X150779977Y-89637397D01*
X150862931Y-89513248D01*
X150920071Y-89375301D01*
X150949200Y-89228857D01*
X150949200Y-89079543D01*
X150920071Y-88933099D01*
X150862931Y-88795152D01*
X150779977Y-88671003D01*
X150674397Y-88565423D01*
X150601478Y-88516700D01*
X150627038Y-88499621D01*
X154005460Y-88499621D01*
X154005460Y-88653859D01*
X154035550Y-88805133D01*
X154094574Y-88947630D01*
X154180264Y-89075874D01*
X154289326Y-89184936D01*
X154417570Y-89270626D01*
X154459317Y-89287918D01*
X154469890Y-89341073D01*
X154528914Y-89483570D01*
X154598458Y-89587650D01*
X154528914Y-89691730D01*
X154469890Y-89834227D01*
X154439800Y-89985501D01*
X154439800Y-90139739D01*
X154469890Y-90291013D01*
X154528914Y-90433510D01*
X154614604Y-90561754D01*
X154723666Y-90670816D01*
X154851910Y-90756506D01*
X154994407Y-90815530D01*
X155145681Y-90845620D01*
X155299919Y-90845620D01*
X155451193Y-90815530D01*
X155593690Y-90756506D01*
X155721934Y-90670816D01*
X155830996Y-90561754D01*
X155916686Y-90433510D01*
X155975710Y-90291013D01*
X156005800Y-90139739D01*
X156005800Y-89985501D01*
X155975710Y-89834227D01*
X155916686Y-89691730D01*
X155847142Y-89587650D01*
X155916686Y-89483570D01*
X155975710Y-89341073D01*
X156005800Y-89189799D01*
X156005800Y-89035561D01*
X155975710Y-88884287D01*
X155916686Y-88741790D01*
X155830996Y-88613546D01*
X155743390Y-88525940D01*
X155830996Y-88438334D01*
X155916686Y-88310090D01*
X155975710Y-88167593D01*
X156005800Y-88016319D01*
X156005800Y-87862081D01*
X155975710Y-87710807D01*
X155916686Y-87568310D01*
X155875994Y-87507410D01*
X155916686Y-87446510D01*
X155975710Y-87304013D01*
X156005800Y-87152739D01*
X156005800Y-86998501D01*
X155975710Y-86847227D01*
X155916686Y-86704730D01*
X155830996Y-86576486D01*
X155721934Y-86467424D01*
X155593690Y-86381734D01*
X155530186Y-86355430D01*
X155580990Y-86334386D01*
X155709234Y-86248696D01*
X155818296Y-86139634D01*
X155903986Y-86011390D01*
X155963010Y-85868893D01*
X155993100Y-85717619D01*
X155993100Y-85563381D01*
X155963010Y-85412107D01*
X155903986Y-85269610D01*
X155891526Y-85250961D01*
X156215260Y-85250961D01*
X156215260Y-85405199D01*
X156245350Y-85556473D01*
X156304374Y-85698970D01*
X156390064Y-85827214D01*
X156499126Y-85936276D01*
X156627370Y-86021966D01*
X156769867Y-86080990D01*
X156921141Y-86111080D01*
X157075379Y-86111080D01*
X157226653Y-86080990D01*
X157369150Y-86021966D01*
X157497394Y-85936276D01*
X157606456Y-85827214D01*
X157692146Y-85698970D01*
X157751170Y-85556473D01*
X157781260Y-85405199D01*
X157781260Y-85250961D01*
X157751170Y-85099687D01*
X157692146Y-84957190D01*
X157606456Y-84828946D01*
X157497394Y-84719884D01*
X157369150Y-84634194D01*
X157226653Y-84575170D01*
X157075379Y-84545080D01*
X156921141Y-84545080D01*
X156769867Y-84575170D01*
X156627370Y-84634194D01*
X156499126Y-84719884D01*
X156390064Y-84828946D01*
X156304374Y-84957190D01*
X156245350Y-85099687D01*
X156215260Y-85250961D01*
X155891526Y-85250961D01*
X155818296Y-85141366D01*
X155709234Y-85032304D01*
X155580990Y-84946614D01*
X155438493Y-84887590D01*
X155287219Y-84857500D01*
X155132981Y-84857500D01*
X154981707Y-84887590D01*
X154839210Y-84946614D01*
X154710966Y-85032304D01*
X154601904Y-85141366D01*
X154516214Y-85269610D01*
X154457190Y-85412107D01*
X154427100Y-85563381D01*
X154427100Y-85717619D01*
X154457190Y-85868893D01*
X154516214Y-86011390D01*
X154601904Y-86139634D01*
X154710966Y-86248696D01*
X154839210Y-86334386D01*
X154902714Y-86360690D01*
X154851910Y-86381734D01*
X154723666Y-86467424D01*
X154614604Y-86576486D01*
X154528914Y-86704730D01*
X154469890Y-86847227D01*
X154439800Y-86998501D01*
X154439800Y-87152739D01*
X154469890Y-87304013D01*
X154528914Y-87446510D01*
X154569606Y-87507410D01*
X154528914Y-87568310D01*
X154469890Y-87710807D01*
X154439800Y-87862081D01*
X154439800Y-87873646D01*
X154417570Y-87882854D01*
X154289326Y-87968544D01*
X154180264Y-88077606D01*
X154094574Y-88205850D01*
X154035550Y-88348347D01*
X154005460Y-88499621D01*
X150627038Y-88499621D01*
X150674397Y-88467977D01*
X150779977Y-88362397D01*
X150862931Y-88238248D01*
X150920071Y-88100301D01*
X150949200Y-87953857D01*
X150949200Y-87804543D01*
X150920071Y-87658099D01*
X150862931Y-87520152D01*
X150779977Y-87396003D01*
X150674397Y-87290423D01*
X150601478Y-87241700D01*
X150674397Y-87192977D01*
X150779977Y-87087397D01*
X150862931Y-86963248D01*
X150920071Y-86825301D01*
X150949200Y-86678857D01*
X150949200Y-86529543D01*
X150920071Y-86383099D01*
X150862931Y-86245152D01*
X150779977Y-86121003D01*
X150674397Y-86015423D01*
X150550248Y-85932469D01*
X150412301Y-85875329D01*
X150265857Y-85846200D01*
X150116543Y-85846200D01*
X149970099Y-85875329D01*
X149832152Y-85932469D01*
X149708003Y-86015423D01*
X149602423Y-86121003D01*
X149553700Y-86193922D01*
X149504977Y-86121003D01*
X149399397Y-86015423D01*
X149275248Y-85932469D01*
X149137301Y-85875329D01*
X148990857Y-85846200D01*
X148841543Y-85846200D01*
X148695099Y-85875329D01*
X148557152Y-85932469D01*
X148433003Y-86015423D01*
X148327423Y-86121003D01*
X148278700Y-86193922D01*
X148229977Y-86121003D01*
X148124397Y-86015423D01*
X148000248Y-85932469D01*
X147862301Y-85875329D01*
X147715857Y-85846200D01*
X147566543Y-85846200D01*
X147420099Y-85875329D01*
X147282152Y-85932469D01*
X147158003Y-86015423D01*
X147052423Y-86121003D01*
X147003700Y-86193922D01*
X146954977Y-86121003D01*
X146849397Y-86015423D01*
X146725248Y-85932469D01*
X146587301Y-85875329D01*
X146440857Y-85846200D01*
X146291543Y-85846200D01*
X146145099Y-85875329D01*
X146007152Y-85932469D01*
X145883003Y-86015423D01*
X145777423Y-86121003D01*
X145728700Y-86193922D01*
X145679977Y-86121003D01*
X145574397Y-86015423D01*
X145450248Y-85932469D01*
X145312301Y-85875329D01*
X145165857Y-85846200D01*
X145016543Y-85846200D01*
X144870099Y-85875329D01*
X144732152Y-85932469D01*
X144608003Y-86015423D01*
X144502423Y-86121003D01*
X144419469Y-86245152D01*
X144362329Y-86383099D01*
X144333200Y-86529543D01*
X139337507Y-86529543D01*
X139379416Y-86487634D01*
X139465106Y-86359390D01*
X139524130Y-86216893D01*
X139554220Y-86065619D01*
X139554220Y-85911381D01*
X139524130Y-85760107D01*
X139478271Y-85649394D01*
X139530473Y-85639010D01*
X139672970Y-85579986D01*
X139782741Y-85506639D01*
X139793638Y-85561421D01*
X139852662Y-85703918D01*
X139938352Y-85832162D01*
X140047414Y-85941224D01*
X140175658Y-86026914D01*
X140318155Y-86085938D01*
X140469429Y-86116028D01*
X140623667Y-86116028D01*
X140774941Y-86085938D01*
X140917438Y-86026914D01*
X141045682Y-85941224D01*
X141154744Y-85832162D01*
X141240434Y-85703918D01*
X141297684Y-85565704D01*
X141352067Y-85588230D01*
X141503341Y-85618320D01*
X141657579Y-85618320D01*
X141808853Y-85588230D01*
X141951350Y-85529206D01*
X142079594Y-85443516D01*
X142188656Y-85334454D01*
X142274346Y-85206210D01*
X142333370Y-85063713D01*
X142363460Y-84912439D01*
X142363460Y-84758201D01*
X142333370Y-84606927D01*
X142274346Y-84464430D01*
X142188656Y-84336186D01*
X142079594Y-84227124D01*
X141951350Y-84141434D01*
X141808853Y-84082410D01*
X141657579Y-84052320D01*
X141503341Y-84052320D01*
X141352067Y-84082410D01*
X141209570Y-84141434D01*
X141081326Y-84227124D01*
X140972264Y-84336186D01*
X140886574Y-84464430D01*
X140829324Y-84602644D01*
X140774941Y-84580118D01*
X140623667Y-84550028D01*
X140469429Y-84550028D01*
X140318155Y-84580118D01*
X140175658Y-84639142D01*
X140065887Y-84712489D01*
X140054990Y-84657707D01*
X139995966Y-84515210D01*
X139910276Y-84386966D01*
X139801214Y-84277904D01*
X139672970Y-84192214D01*
X139530473Y-84133190D01*
X139379199Y-84103100D01*
X139224961Y-84103100D01*
X139073687Y-84133190D01*
X138931190Y-84192214D01*
X138802946Y-84277904D01*
X138693884Y-84386966D01*
X138608194Y-84515210D01*
X138549170Y-84657707D01*
X138519080Y-84808981D01*
X138519080Y-84963219D01*
X138549170Y-85114493D01*
X138595029Y-85225206D01*
X138542827Y-85235590D01*
X138400330Y-85294614D01*
X138272086Y-85380304D01*
X138163024Y-85489366D01*
X138077334Y-85617610D01*
X138018310Y-85760107D01*
X137988220Y-85911381D01*
X134994920Y-85911381D01*
X134994920Y-85855481D01*
X134964830Y-85704207D01*
X134905806Y-85561710D01*
X134820116Y-85433466D01*
X134711054Y-85324404D01*
X134582810Y-85238714D01*
X134440313Y-85179690D01*
X134289039Y-85149600D01*
X134134801Y-85149600D01*
X133983527Y-85179690D01*
X133879934Y-85222599D01*
X133933814Y-85186598D01*
X134042876Y-85077536D01*
X134128566Y-84949292D01*
X134187590Y-84806795D01*
X134217680Y-84655521D01*
X134217680Y-84501283D01*
X134187590Y-84350009D01*
X134128566Y-84207512D01*
X134042876Y-84079268D01*
X133933814Y-83970206D01*
X133805570Y-83884516D01*
X133663073Y-83825492D01*
X133511799Y-83795402D01*
X133357561Y-83795402D01*
X133206287Y-83825492D01*
X133063790Y-83884516D01*
X132935546Y-83970206D01*
X132826484Y-84079268D01*
X132740962Y-84207260D01*
X132626041Y-84207260D01*
X132474767Y-84237350D01*
X132332270Y-84296374D01*
X132204026Y-84382064D01*
X132094964Y-84491126D01*
X132009274Y-84619370D01*
X131950250Y-84761867D01*
X131920160Y-84913141D01*
X129684721Y-84913141D01*
X129683557Y-83310381D01*
X143009176Y-83310381D01*
X143009176Y-83464619D01*
X143039266Y-83615893D01*
X143098290Y-83758390D01*
X143183980Y-83886634D01*
X143293042Y-83995696D01*
X143421286Y-84081386D01*
X143563783Y-84140410D01*
X143715057Y-84170500D01*
X143869295Y-84170500D01*
X144020569Y-84140410D01*
X144163066Y-84081386D01*
X144281212Y-84002444D01*
X144361925Y-84083157D01*
X144490169Y-84168847D01*
X144632666Y-84227871D01*
X144783940Y-84257961D01*
X144938178Y-84257961D01*
X145089452Y-84227871D01*
X145226732Y-84171008D01*
X145169869Y-84308288D01*
X145139779Y-84459562D01*
X145139779Y-84613800D01*
X145169869Y-84765074D01*
X145228893Y-84907571D01*
X145314583Y-85035815D01*
X145423645Y-85144877D01*
X145551889Y-85230567D01*
X145694386Y-85289591D01*
X145845660Y-85319681D01*
X145999898Y-85319681D01*
X146151172Y-85289591D01*
X146293669Y-85230567D01*
X146421913Y-85144877D01*
X146530975Y-85035815D01*
X146616665Y-84907571D01*
X146675689Y-84765074D01*
X146705779Y-84613800D01*
X146705779Y-84459562D01*
X146675689Y-84308288D01*
X146616665Y-84165791D01*
X146530975Y-84037547D01*
X146421913Y-83928485D01*
X146293669Y-83842795D01*
X146151172Y-83783771D01*
X145999898Y-83753681D01*
X145845660Y-83753681D01*
X145694386Y-83783771D01*
X145557106Y-83840634D01*
X145613969Y-83703354D01*
X145644059Y-83552080D01*
X145644059Y-83397842D01*
X145613969Y-83246568D01*
X145554945Y-83104071D01*
X145469255Y-82975827D01*
X145360193Y-82866765D01*
X145231949Y-82781075D01*
X145089452Y-82722051D01*
X144938178Y-82691961D01*
X144783940Y-82691961D01*
X144771380Y-82694459D01*
X144771380Y-82595795D01*
X144835044Y-82595795D01*
X144986318Y-82565705D01*
X145128815Y-82506681D01*
X145257059Y-82420991D01*
X145282049Y-82396001D01*
X146553100Y-82396001D01*
X146553100Y-82550239D01*
X146583190Y-82701513D01*
X146642214Y-82844010D01*
X146727904Y-82972254D01*
X146836966Y-83081316D01*
X146965210Y-83167006D01*
X147107707Y-83226030D01*
X147258981Y-83256120D01*
X147413219Y-83256120D01*
X147564493Y-83226030D01*
X147706990Y-83167006D01*
X147835234Y-83081316D01*
X147944296Y-82972254D01*
X148029986Y-82844010D01*
X148089010Y-82701513D01*
X148119100Y-82550239D01*
X148119100Y-82396001D01*
X148089010Y-82244727D01*
X148029986Y-82102230D01*
X147944296Y-81973986D01*
X147835234Y-81864924D01*
X147706990Y-81779234D01*
X147564493Y-81720210D01*
X147413219Y-81690120D01*
X147258981Y-81690120D01*
X147107707Y-81720210D01*
X146965210Y-81779234D01*
X146836966Y-81864924D01*
X146727904Y-81973986D01*
X146642214Y-82102230D01*
X146583190Y-82244727D01*
X146553100Y-82396001D01*
X145282049Y-82396001D01*
X145366121Y-82311929D01*
X145451811Y-82183685D01*
X145510835Y-82041188D01*
X145540925Y-81889914D01*
X145540925Y-81735676D01*
X145510835Y-81584402D01*
X145460889Y-81463821D01*
X149103260Y-81463821D01*
X149103260Y-81618059D01*
X149133350Y-81769333D01*
X149192374Y-81911830D01*
X149278064Y-82040074D01*
X149387126Y-82149136D01*
X149515370Y-82234826D01*
X149657867Y-82293850D01*
X149809141Y-82323940D01*
X149963379Y-82323940D01*
X150114653Y-82293850D01*
X150257150Y-82234826D01*
X150385394Y-82149136D01*
X150494456Y-82040074D01*
X150580146Y-81911830D01*
X150639170Y-81769333D01*
X150655479Y-81687341D01*
X151132720Y-81687341D01*
X151132720Y-81841579D01*
X151162810Y-81992853D01*
X151216553Y-82122600D01*
X151162810Y-82252347D01*
X151132720Y-82403621D01*
X151132720Y-82557859D01*
X151162810Y-82709133D01*
X151221834Y-82851630D01*
X151307524Y-82979874D01*
X151416586Y-83088936D01*
X151544830Y-83174626D01*
X151687327Y-83233650D01*
X151838601Y-83263740D01*
X151992839Y-83263740D01*
X152144113Y-83233650D01*
X152257539Y-83186668D01*
X152378207Y-83236650D01*
X152529481Y-83266740D01*
X152683719Y-83266740D01*
X152834993Y-83236650D01*
X152956600Y-83186279D01*
X153078207Y-83236650D01*
X153229481Y-83266740D01*
X153383719Y-83266740D01*
X153534993Y-83236650D01*
X153656600Y-83186279D01*
X153778207Y-83236650D01*
X153929481Y-83266740D01*
X154083719Y-83266740D01*
X154234993Y-83236650D01*
X154377490Y-83177626D01*
X154505734Y-83091936D01*
X154614796Y-82982874D01*
X154628462Y-82962421D01*
X157909440Y-82962421D01*
X157909440Y-83116659D01*
X157939530Y-83267933D01*
X157998554Y-83410430D01*
X158084244Y-83538674D01*
X158193306Y-83647736D01*
X158321550Y-83733426D01*
X158464047Y-83792450D01*
X158615321Y-83822540D01*
X158769559Y-83822540D01*
X158920833Y-83792450D01*
X159063330Y-83733426D01*
X159191574Y-83647736D01*
X159300636Y-83538674D01*
X159386326Y-83410430D01*
X159445350Y-83267933D01*
X159475440Y-83116659D01*
X159475440Y-82962421D01*
X159445350Y-82811147D01*
X159386326Y-82668650D01*
X159300636Y-82540406D01*
X159191574Y-82431344D01*
X159063330Y-82345654D01*
X158920833Y-82286630D01*
X158769559Y-82256540D01*
X158615321Y-82256540D01*
X158464047Y-82286630D01*
X158321550Y-82345654D01*
X158193306Y-82431344D01*
X158084244Y-82540406D01*
X157998554Y-82668650D01*
X157939530Y-82811147D01*
X157909440Y-82962421D01*
X154628462Y-82962421D01*
X154700486Y-82854630D01*
X154759510Y-82712133D01*
X154789600Y-82560859D01*
X154789600Y-82406621D01*
X154759510Y-82255347D01*
X154709139Y-82133740D01*
X154759510Y-82012133D01*
X154789600Y-81860859D01*
X154789600Y-81706621D01*
X154759510Y-81555347D01*
X154709139Y-81433740D01*
X154759510Y-81312133D01*
X154789600Y-81160859D01*
X154789600Y-81006621D01*
X154759510Y-80855347D01*
X154700486Y-80712850D01*
X154614796Y-80584606D01*
X154505734Y-80475544D01*
X154377490Y-80389854D01*
X154234993Y-80330830D01*
X154083719Y-80300740D01*
X153929481Y-80300740D01*
X153778207Y-80330830D01*
X153656600Y-80381201D01*
X153534993Y-80330830D01*
X153383719Y-80300740D01*
X153229481Y-80300740D01*
X153078207Y-80330830D01*
X152956600Y-80381201D01*
X152834993Y-80330830D01*
X152683719Y-80300740D01*
X152529481Y-80300740D01*
X152378207Y-80330830D01*
X152235710Y-80389854D01*
X152107466Y-80475544D01*
X151998404Y-80584606D01*
X151912714Y-80712850D01*
X151853690Y-80855347D01*
X151828193Y-80983530D01*
X151687327Y-81011550D01*
X151544830Y-81070574D01*
X151416586Y-81156264D01*
X151307524Y-81265326D01*
X151221834Y-81393570D01*
X151162810Y-81536067D01*
X151132720Y-81687341D01*
X150655479Y-81687341D01*
X150669260Y-81618059D01*
X150669260Y-81463821D01*
X150639170Y-81312547D01*
X150580146Y-81170050D01*
X150494456Y-81041806D01*
X150385394Y-80932744D01*
X150257150Y-80847054D01*
X150114653Y-80788030D01*
X149963379Y-80757940D01*
X149809141Y-80757940D01*
X149657867Y-80788030D01*
X149515370Y-80847054D01*
X149387126Y-80932744D01*
X149278064Y-81041806D01*
X149192374Y-81170050D01*
X149133350Y-81312547D01*
X149103260Y-81463821D01*
X145460889Y-81463821D01*
X145451811Y-81441905D01*
X145366121Y-81313661D01*
X145257059Y-81204599D01*
X145128815Y-81118909D01*
X144986318Y-81059885D01*
X144835044Y-81029795D01*
X144680806Y-81029795D01*
X144529532Y-81059885D01*
X144387035Y-81118909D01*
X144258791Y-81204599D01*
X144149729Y-81313661D01*
X144064039Y-81441905D01*
X144005015Y-81584402D01*
X143974925Y-81735676D01*
X143974925Y-81850140D01*
X143911261Y-81850140D01*
X143759987Y-81880230D01*
X143617490Y-81939254D01*
X143489246Y-82024944D01*
X143380184Y-82134006D01*
X143294494Y-82262250D01*
X143235470Y-82404747D01*
X143205380Y-82556021D01*
X143205380Y-82710259D01*
X143231379Y-82840967D01*
X143183980Y-82888366D01*
X143098290Y-83016610D01*
X143039266Y-83159107D01*
X143009176Y-83310381D01*
X129683557Y-83310381D01*
X129682014Y-81187538D01*
X129759250Y-81239146D01*
X129901747Y-81298170D01*
X130053021Y-81328260D01*
X130207259Y-81328260D01*
X130358533Y-81298170D01*
X130501030Y-81239146D01*
X130629274Y-81153456D01*
X130738336Y-81044394D01*
X130824026Y-80916150D01*
X130857042Y-80836441D01*
X133215560Y-80836441D01*
X133215560Y-80990679D01*
X133245650Y-81141953D01*
X133304674Y-81284450D01*
X133390364Y-81412694D01*
X133433166Y-81455496D01*
X133408210Y-81515747D01*
X133378120Y-81667021D01*
X133378120Y-81821259D01*
X133408210Y-81972533D01*
X133467234Y-82115030D01*
X133552924Y-82243274D01*
X133661986Y-82352336D01*
X133790230Y-82438026D01*
X133932727Y-82497050D01*
X134084001Y-82527140D01*
X134238239Y-82527140D01*
X134389513Y-82497050D01*
X134532010Y-82438026D01*
X134660254Y-82352336D01*
X134769316Y-82243274D01*
X134855006Y-82115030D01*
X134914030Y-81972533D01*
X134944120Y-81821259D01*
X134944120Y-81667021D01*
X134914030Y-81515747D01*
X134855006Y-81373250D01*
X134769316Y-81245006D01*
X134726514Y-81202204D01*
X134751470Y-81141953D01*
X134781560Y-80990679D01*
X134781560Y-80836441D01*
X134773477Y-80795801D01*
X136113700Y-80795801D01*
X136113700Y-80950039D01*
X136143790Y-81101313D01*
X136202814Y-81243810D01*
X136288504Y-81372054D01*
X136397566Y-81481116D01*
X136525810Y-81566806D01*
X136668307Y-81625830D01*
X136819581Y-81655920D01*
X136973819Y-81655920D01*
X137125093Y-81625830D01*
X137267590Y-81566806D01*
X137395834Y-81481116D01*
X137504896Y-81372054D01*
X137590586Y-81243810D01*
X137649610Y-81101313D01*
X137679700Y-80950039D01*
X137679700Y-80795801D01*
X137649610Y-80644527D01*
X137590586Y-80502030D01*
X137504896Y-80373786D01*
X137395834Y-80264724D01*
X137267590Y-80179034D01*
X137125093Y-80120010D01*
X136973819Y-80089920D01*
X136819581Y-80089920D01*
X136668307Y-80120010D01*
X136525810Y-80179034D01*
X136397566Y-80264724D01*
X136288504Y-80373786D01*
X136202814Y-80502030D01*
X136143790Y-80644527D01*
X136113700Y-80795801D01*
X134773477Y-80795801D01*
X134751470Y-80685167D01*
X134692446Y-80542670D01*
X134606756Y-80414426D01*
X134497694Y-80305364D01*
X134369450Y-80219674D01*
X134226953Y-80160650D01*
X134075679Y-80130560D01*
X133921441Y-80130560D01*
X133770167Y-80160650D01*
X133627670Y-80219674D01*
X133499426Y-80305364D01*
X133390364Y-80414426D01*
X133304674Y-80542670D01*
X133245650Y-80685167D01*
X133215560Y-80836441D01*
X130857042Y-80836441D01*
X130883050Y-80773653D01*
X130913140Y-80622379D01*
X130913140Y-80468141D01*
X130883050Y-80316867D01*
X130824026Y-80174370D01*
X130738336Y-80046126D01*
X130629274Y-79937064D01*
X130501030Y-79851374D01*
X130358533Y-79792350D01*
X130207259Y-79762260D01*
X130053021Y-79762260D01*
X129901747Y-79792350D01*
X129759250Y-79851374D01*
X129681081Y-79903605D01*
X129680597Y-79236241D01*
X134488100Y-79236241D01*
X134488100Y-79390479D01*
X134518190Y-79541753D01*
X134577214Y-79684250D01*
X134662904Y-79812494D01*
X134771966Y-79921556D01*
X134900210Y-80007246D01*
X135042707Y-80066270D01*
X135193981Y-80096360D01*
X135348219Y-80096360D01*
X135499493Y-80066270D01*
X135641990Y-80007246D01*
X135770234Y-79921556D01*
X135879296Y-79812494D01*
X135964986Y-79684250D01*
X136024010Y-79541753D01*
X136054100Y-79390479D01*
X136054100Y-79236241D01*
X136024010Y-79084967D01*
X135964986Y-78942470D01*
X135879296Y-78814226D01*
X135770234Y-78705164D01*
X135641990Y-78619474D01*
X135623365Y-78611759D01*
X138596260Y-78611759D01*
X138596260Y-78770921D01*
X138627311Y-78927025D01*
X138688219Y-79074072D01*
X138776645Y-79206410D01*
X138811575Y-79241340D01*
X138776645Y-79276270D01*
X138688219Y-79408608D01*
X138627311Y-79555655D01*
X138596260Y-79711759D01*
X138596260Y-79870921D01*
X138627311Y-80027025D01*
X138688219Y-80174072D01*
X138776645Y-80306410D01*
X138889190Y-80418955D01*
X139021528Y-80507381D01*
X139168575Y-80568289D01*
X139324679Y-80599340D01*
X139483841Y-80599340D01*
X139639945Y-80568289D01*
X139786992Y-80507381D01*
X139919330Y-80418955D01*
X139954260Y-80384025D01*
X139989190Y-80418955D01*
X140121528Y-80507381D01*
X140268575Y-80568289D01*
X140424679Y-80599340D01*
X140583841Y-80599340D01*
X140739945Y-80568289D01*
X140886992Y-80507381D01*
X141019330Y-80418955D01*
X141131875Y-80306410D01*
X141220301Y-80174072D01*
X141281209Y-80027025D01*
X141312260Y-79870921D01*
X141312260Y-79711759D01*
X141281209Y-79555655D01*
X141220301Y-79408608D01*
X141131875Y-79276270D01*
X141096945Y-79241340D01*
X141131875Y-79206410D01*
X141220301Y-79074072D01*
X141281209Y-78927025D01*
X141286393Y-78900961D01*
X152257940Y-78900961D01*
X152257940Y-79055199D01*
X152288030Y-79206473D01*
X152347054Y-79348970D01*
X152432744Y-79477214D01*
X152541806Y-79586276D01*
X152670050Y-79671966D01*
X152812547Y-79730990D01*
X152963821Y-79761080D01*
X153118059Y-79761080D01*
X153269333Y-79730990D01*
X153411830Y-79671966D01*
X153540074Y-79586276D01*
X153649136Y-79477214D01*
X153734826Y-79348970D01*
X153793850Y-79206473D01*
X153823940Y-79055199D01*
X153823940Y-78900961D01*
X153793850Y-78749687D01*
X153734826Y-78607190D01*
X153649136Y-78478946D01*
X153540074Y-78369884D01*
X153411830Y-78284194D01*
X153269333Y-78225170D01*
X153118059Y-78195080D01*
X152963821Y-78195080D01*
X152812547Y-78225170D01*
X152670050Y-78284194D01*
X152541806Y-78369884D01*
X152432744Y-78478946D01*
X152347054Y-78607190D01*
X152288030Y-78749687D01*
X152257940Y-78900961D01*
X141286393Y-78900961D01*
X141312260Y-78770921D01*
X141312260Y-78611759D01*
X141281209Y-78455655D01*
X141220301Y-78308608D01*
X141131875Y-78176270D01*
X141019330Y-78063725D01*
X140886992Y-77975299D01*
X140739945Y-77914391D01*
X140583841Y-77883340D01*
X140424679Y-77883340D01*
X140268575Y-77914391D01*
X140121528Y-77975299D01*
X139989190Y-78063725D01*
X139954260Y-78098655D01*
X139919330Y-78063725D01*
X139786992Y-77975299D01*
X139639945Y-77914391D01*
X139483841Y-77883340D01*
X139324679Y-77883340D01*
X139168575Y-77914391D01*
X139021528Y-77975299D01*
X138889190Y-78063725D01*
X138776645Y-78176270D01*
X138688219Y-78308608D01*
X138627311Y-78455655D01*
X138596260Y-78611759D01*
X135623365Y-78611759D01*
X135499493Y-78560450D01*
X135348219Y-78530360D01*
X135193981Y-78530360D01*
X135042707Y-78560450D01*
X134900210Y-78619474D01*
X134771966Y-78705164D01*
X134662904Y-78814226D01*
X134577214Y-78942470D01*
X134518190Y-79084967D01*
X134488100Y-79236241D01*
X129680597Y-79236241D01*
X129678978Y-77008661D01*
X131920160Y-77008661D01*
X131920160Y-77162899D01*
X131950250Y-77314173D01*
X132009274Y-77456670D01*
X132094964Y-77584914D01*
X132204026Y-77693976D01*
X132332270Y-77779666D01*
X132474767Y-77838690D01*
X132626041Y-77868780D01*
X132780279Y-77868780D01*
X132931553Y-77838690D01*
X133074050Y-77779666D01*
X133202294Y-77693976D01*
X133311356Y-77584914D01*
X133397046Y-77456670D01*
X133456070Y-77314173D01*
X133486160Y-77162899D01*
X133486160Y-77008661D01*
X133456070Y-76857387D01*
X133397046Y-76714890D01*
X133311356Y-76586646D01*
X133306726Y-76582016D01*
X133335413Y-76576310D01*
X133477910Y-76517286D01*
X133606154Y-76431596D01*
X133715216Y-76322534D01*
X133800906Y-76194290D01*
X133859930Y-76051793D01*
X133890020Y-75900519D01*
X133890020Y-75746281D01*
X133859930Y-75595007D01*
X133800906Y-75452510D01*
X133715216Y-75324266D01*
X133606154Y-75215204D01*
X133477910Y-75129514D01*
X133335413Y-75070490D01*
X133184139Y-75040400D01*
X133029901Y-75040400D01*
X132878627Y-75070490D01*
X132736130Y-75129514D01*
X132607886Y-75215204D01*
X132498824Y-75324266D01*
X132413134Y-75452510D01*
X132354110Y-75595007D01*
X132324020Y-75746281D01*
X132324020Y-75900519D01*
X132354110Y-76051793D01*
X132413134Y-76194290D01*
X132498824Y-76322534D01*
X132503454Y-76327164D01*
X132474767Y-76332870D01*
X132332270Y-76391894D01*
X132204026Y-76477584D01*
X132094964Y-76586646D01*
X132009274Y-76714890D01*
X131950250Y-76857387D01*
X131920160Y-77008661D01*
X129678978Y-77008661D01*
X129678700Y-76626024D01*
X129759250Y-76679846D01*
X129901747Y-76738870D01*
X130053021Y-76768960D01*
X130207259Y-76768960D01*
X130358533Y-76738870D01*
X130501030Y-76679846D01*
X130629274Y-76594156D01*
X130738336Y-76485094D01*
X130824026Y-76356850D01*
X130883050Y-76214353D01*
X130913140Y-76063079D01*
X130913140Y-75908841D01*
X130883050Y-75757567D01*
X130824026Y-75615070D01*
X130738336Y-75486826D01*
X130629274Y-75377764D01*
X130501030Y-75292074D01*
X130358533Y-75233050D01*
X130207259Y-75202960D01*
X130053021Y-75202960D01*
X129901747Y-75233050D01*
X129759250Y-75292074D01*
X129677771Y-75346517D01*
X129676931Y-74189261D01*
X132605960Y-74189261D01*
X132605960Y-74343499D01*
X132636050Y-74494773D01*
X132695074Y-74637270D01*
X132780764Y-74765514D01*
X132889826Y-74874576D01*
X133018070Y-74960266D01*
X133160567Y-75019290D01*
X133311841Y-75049380D01*
X133466079Y-75049380D01*
X133617353Y-75019290D01*
X133759850Y-74960266D01*
X133888094Y-74874576D01*
X133997156Y-74765514D01*
X134082846Y-74637270D01*
X134141870Y-74494773D01*
X134171960Y-74343499D01*
X134171960Y-74189261D01*
X134141870Y-74037987D01*
X134082846Y-73895490D01*
X133997156Y-73767246D01*
X133888094Y-73658184D01*
X133759850Y-73572494D01*
X133642247Y-73523781D01*
X134754800Y-73523781D01*
X134754800Y-73678019D01*
X134784890Y-73829293D01*
X134843914Y-73971790D01*
X134929604Y-74100034D01*
X135038666Y-74209096D01*
X135166910Y-74294786D01*
X135309407Y-74353810D01*
X135460681Y-74383900D01*
X135614919Y-74383900D01*
X135766193Y-74353810D01*
X135908690Y-74294786D01*
X136036934Y-74209096D01*
X136102950Y-74143080D01*
X136189286Y-74229416D01*
X136317530Y-74315106D01*
X136460027Y-74374130D01*
X136611301Y-74404220D01*
X136765539Y-74404220D01*
X136916813Y-74374130D01*
X136983831Y-74346370D01*
X136956980Y-74481361D01*
X136956980Y-74611775D01*
X136829366Y-74697044D01*
X136720304Y-74806106D01*
X136634614Y-74934350D01*
X136575590Y-75076847D01*
X136545500Y-75228121D01*
X136545500Y-75382359D01*
X136575590Y-75533633D01*
X136634614Y-75676130D01*
X136720304Y-75804374D01*
X136828544Y-75912614D01*
X136688130Y-75940544D01*
X136545633Y-75999568D01*
X136417389Y-76085258D01*
X136308327Y-76194320D01*
X136222637Y-76322564D01*
X136163613Y-76465061D01*
X136133523Y-76616335D01*
X136133523Y-76770573D01*
X136163613Y-76921847D01*
X136222637Y-77064344D01*
X136308327Y-77192588D01*
X136417389Y-77301650D01*
X136545633Y-77387340D01*
X136688130Y-77446364D01*
X136839404Y-77476454D01*
X136993642Y-77476454D01*
X137144916Y-77446364D01*
X137287413Y-77387340D01*
X137415657Y-77301650D01*
X137524719Y-77192588D01*
X137610409Y-77064344D01*
X137669433Y-76921847D01*
X137699523Y-76770573D01*
X137699523Y-76724181D01*
X140022760Y-76724181D01*
X140022760Y-76878419D01*
X140052850Y-77029693D01*
X140111874Y-77172190D01*
X140197564Y-77300434D01*
X140306626Y-77409496D01*
X140434870Y-77495186D01*
X140577367Y-77554210D01*
X140728641Y-77584300D01*
X140882879Y-77584300D01*
X141034153Y-77554210D01*
X141176650Y-77495186D01*
X141304894Y-77409496D01*
X141413956Y-77300434D01*
X141499646Y-77172190D01*
X141558670Y-77029693D01*
X141588760Y-76878419D01*
X141588760Y-76724181D01*
X141558670Y-76572907D01*
X141511912Y-76460021D01*
X141790600Y-76460021D01*
X141790600Y-76614259D01*
X141820690Y-76765533D01*
X141879714Y-76908030D01*
X141965404Y-77036274D01*
X142074466Y-77145336D01*
X142202710Y-77231026D01*
X142345207Y-77290050D01*
X142496481Y-77320140D01*
X142650719Y-77320140D01*
X142801993Y-77290050D01*
X142944490Y-77231026D01*
X143072734Y-77145336D01*
X143181796Y-77036274D01*
X143267486Y-76908030D01*
X143326510Y-76765533D01*
X143356600Y-76614259D01*
X143356600Y-76460021D01*
X143326510Y-76308747D01*
X143267486Y-76166250D01*
X143181796Y-76038006D01*
X143072734Y-75928944D01*
X142944490Y-75843254D01*
X142857547Y-75807241D01*
X144389040Y-75807241D01*
X144389040Y-75961479D01*
X144419130Y-76112753D01*
X144478154Y-76255250D01*
X144563844Y-76383494D01*
X144672906Y-76492556D01*
X144801150Y-76578246D01*
X144943647Y-76637270D01*
X145094921Y-76667360D01*
X145249159Y-76667360D01*
X145400433Y-76637270D01*
X145423631Y-76627661D01*
X147995820Y-76627661D01*
X147995820Y-76781899D01*
X148025910Y-76933173D01*
X148084934Y-77075670D01*
X148170624Y-77203914D01*
X148279686Y-77312976D01*
X148407930Y-77398666D01*
X148550427Y-77457690D01*
X148701701Y-77487780D01*
X148855939Y-77487780D01*
X149007213Y-77457690D01*
X149149710Y-77398666D01*
X149277954Y-77312976D01*
X149387016Y-77203914D01*
X149472706Y-77075670D01*
X149531730Y-76933173D01*
X149561820Y-76781899D01*
X149561820Y-76627661D01*
X149531730Y-76476387D01*
X149472706Y-76333890D01*
X149387016Y-76205646D01*
X149277954Y-76096584D01*
X149149710Y-76010894D01*
X149007213Y-75951870D01*
X148855939Y-75921780D01*
X148701701Y-75921780D01*
X148550427Y-75951870D01*
X148407930Y-76010894D01*
X148279686Y-76096584D01*
X148170624Y-76205646D01*
X148084934Y-76333890D01*
X148025910Y-76476387D01*
X147995820Y-76627661D01*
X145423631Y-76627661D01*
X145542930Y-76578246D01*
X145671174Y-76492556D01*
X145780236Y-76383494D01*
X145865926Y-76255250D01*
X145924950Y-76112753D01*
X145955040Y-75961479D01*
X145955040Y-75807241D01*
X145924950Y-75655967D01*
X145865926Y-75513470D01*
X145780236Y-75385226D01*
X145671174Y-75276164D01*
X145542930Y-75190474D01*
X145400433Y-75131450D01*
X145249159Y-75101360D01*
X145094921Y-75101360D01*
X144943647Y-75131450D01*
X144801150Y-75190474D01*
X144672906Y-75276164D01*
X144563844Y-75385226D01*
X144478154Y-75513470D01*
X144419130Y-75655967D01*
X144389040Y-75807241D01*
X142857547Y-75807241D01*
X142801993Y-75784230D01*
X142650719Y-75754140D01*
X142496481Y-75754140D01*
X142345207Y-75784230D01*
X142202710Y-75843254D01*
X142074466Y-75928944D01*
X141965404Y-76038006D01*
X141879714Y-76166250D01*
X141820690Y-76308747D01*
X141790600Y-76460021D01*
X141511912Y-76460021D01*
X141499646Y-76430410D01*
X141413956Y-76302166D01*
X141304894Y-76193104D01*
X141176650Y-76107414D01*
X141034153Y-76048390D01*
X140882879Y-76018300D01*
X140728641Y-76018300D01*
X140577367Y-76048390D01*
X140434870Y-76107414D01*
X140306626Y-76193104D01*
X140197564Y-76302166D01*
X140111874Y-76430410D01*
X140052850Y-76572907D01*
X140022760Y-76724181D01*
X137699523Y-76724181D01*
X137699523Y-76616335D01*
X137669433Y-76465061D01*
X137610409Y-76322564D01*
X137524719Y-76194320D01*
X137416479Y-76086080D01*
X137556893Y-76058150D01*
X137699390Y-75999126D01*
X137827634Y-75913436D01*
X137936696Y-75804374D01*
X138022386Y-75676130D01*
X138081410Y-75533633D01*
X138111500Y-75382359D01*
X138111500Y-75251945D01*
X138239114Y-75166676D01*
X138348176Y-75057614D01*
X138433866Y-74929370D01*
X138492890Y-74786873D01*
X138522980Y-74635599D01*
X138522980Y-74481361D01*
X138492890Y-74330087D01*
X138433866Y-74187590D01*
X138348176Y-74059346D01*
X138239114Y-73950284D01*
X138110870Y-73864594D01*
X137968373Y-73805570D01*
X137817099Y-73775480D01*
X137662861Y-73775480D01*
X137511587Y-73805570D01*
X137444569Y-73833330D01*
X137471420Y-73698339D01*
X137471420Y-73650801D01*
X158432680Y-73650801D01*
X158432680Y-73805039D01*
X158462770Y-73956313D01*
X158521794Y-74098810D01*
X158607484Y-74227054D01*
X158716546Y-74336116D01*
X158844790Y-74421806D01*
X158987287Y-74480830D01*
X159138561Y-74510920D01*
X159292799Y-74510920D01*
X159444073Y-74480830D01*
X159586570Y-74421806D01*
X159714814Y-74336116D01*
X159823876Y-74227054D01*
X159909566Y-74098810D01*
X159968590Y-73956313D01*
X159998680Y-73805039D01*
X159998680Y-73650801D01*
X159968590Y-73499527D01*
X159909566Y-73357030D01*
X159823876Y-73228786D01*
X159714814Y-73119724D01*
X159586570Y-73034034D01*
X159444073Y-72975010D01*
X159292799Y-72944920D01*
X159138561Y-72944920D01*
X158987287Y-72975010D01*
X158844790Y-73034034D01*
X158716546Y-73119724D01*
X158607484Y-73228786D01*
X158521794Y-73357030D01*
X158462770Y-73499527D01*
X158432680Y-73650801D01*
X137471420Y-73650801D01*
X137471420Y-73544101D01*
X137441330Y-73392827D01*
X137382306Y-73250330D01*
X137296616Y-73122086D01*
X137187554Y-73013024D01*
X137059310Y-72927334D01*
X136916813Y-72868310D01*
X136765539Y-72838220D01*
X136611301Y-72838220D01*
X136460027Y-72868310D01*
X136317530Y-72927334D01*
X136189286Y-73013024D01*
X136123270Y-73079040D01*
X136036934Y-72992704D01*
X135908690Y-72907014D01*
X135766193Y-72847990D01*
X135614919Y-72817900D01*
X135460681Y-72817900D01*
X135309407Y-72847990D01*
X135166910Y-72907014D01*
X135038666Y-72992704D01*
X134929604Y-73101766D01*
X134843914Y-73230010D01*
X134784890Y-73372507D01*
X134754800Y-73523781D01*
X133642247Y-73523781D01*
X133617353Y-73513470D01*
X133466079Y-73483380D01*
X133311841Y-73483380D01*
X133160567Y-73513470D01*
X133018070Y-73572494D01*
X132889826Y-73658184D01*
X132780764Y-73767246D01*
X132695074Y-73895490D01*
X132636050Y-74037987D01*
X132605960Y-74189261D01*
X129676931Y-74189261D01*
X129675426Y-72116621D01*
X137843440Y-72116621D01*
X137843440Y-72270859D01*
X137873530Y-72422133D01*
X137932554Y-72564630D01*
X138018244Y-72692874D01*
X138127306Y-72801936D01*
X138255550Y-72887626D01*
X138398047Y-72946650D01*
X138549321Y-72976740D01*
X138703559Y-72976740D01*
X138854833Y-72946650D01*
X138997330Y-72887626D01*
X139125574Y-72801936D01*
X139234636Y-72692874D01*
X139320326Y-72564630D01*
X139379350Y-72422133D01*
X139409440Y-72270859D01*
X139409440Y-72124241D01*
X140330100Y-72124241D01*
X140330100Y-72278479D01*
X140360190Y-72429753D01*
X140419214Y-72572250D01*
X140504904Y-72700494D01*
X140613966Y-72809556D01*
X140742210Y-72895246D01*
X140884707Y-72954270D01*
X141035981Y-72984360D01*
X141190219Y-72984360D01*
X141341493Y-72954270D01*
X141483990Y-72895246D01*
X141612234Y-72809556D01*
X141650310Y-72771480D01*
X141739186Y-72860356D01*
X141867430Y-72946046D01*
X142009927Y-73005070D01*
X142161201Y-73035160D01*
X142315439Y-73035160D01*
X142466713Y-73005070D01*
X142609210Y-72946046D01*
X142737454Y-72860356D01*
X142846516Y-72751294D01*
X142862300Y-72727672D01*
X142889964Y-72769074D01*
X142999026Y-72878136D01*
X143127270Y-72963826D01*
X143269767Y-73022850D01*
X143421041Y-73052940D01*
X143575279Y-73052940D01*
X143726553Y-73022850D01*
X143869050Y-72963826D01*
X143997294Y-72878136D01*
X144106356Y-72769074D01*
X144192046Y-72640830D01*
X144248208Y-72505241D01*
X144358540Y-72505241D01*
X144358540Y-72659479D01*
X144388630Y-72810753D01*
X144447654Y-72953250D01*
X144533344Y-73081494D01*
X144642406Y-73190556D01*
X144770650Y-73276246D01*
X144913147Y-73335270D01*
X145064421Y-73365360D01*
X145218659Y-73365360D01*
X145369933Y-73335270D01*
X145512430Y-73276246D01*
X145640674Y-73190556D01*
X145749736Y-73081494D01*
X145835426Y-72953250D01*
X145894450Y-72810753D01*
X145924540Y-72659479D01*
X145924540Y-72558581D01*
X146824880Y-72558581D01*
X146824880Y-72712819D01*
X146854970Y-72864093D01*
X146913994Y-73006590D01*
X146999684Y-73134834D01*
X147108746Y-73243896D01*
X147236990Y-73329586D01*
X147379487Y-73388610D01*
X147530761Y-73418700D01*
X147684999Y-73418700D01*
X147836273Y-73388610D01*
X147978770Y-73329586D01*
X148009808Y-73308847D01*
X148128787Y-73358130D01*
X148280061Y-73388220D01*
X148434299Y-73388220D01*
X148585573Y-73358130D01*
X148728070Y-73299106D01*
X148856314Y-73213416D01*
X148965376Y-73104354D01*
X149051066Y-72976110D01*
X149110090Y-72833613D01*
X149126800Y-72749605D01*
X149143510Y-72833613D01*
X149202534Y-72976110D01*
X149288224Y-73104354D01*
X149397286Y-73213416D01*
X149525530Y-73299106D01*
X149668027Y-73358130D01*
X149819301Y-73388220D01*
X149973539Y-73388220D01*
X150124813Y-73358130D01*
X150267310Y-73299106D01*
X150395554Y-73213416D01*
X150504616Y-73104354D01*
X150590306Y-72976110D01*
X150649330Y-72833613D01*
X150679420Y-72682339D01*
X150679420Y-72573821D01*
X151861700Y-72573821D01*
X151861700Y-72728059D01*
X151891790Y-72879333D01*
X151950814Y-73021830D01*
X152036504Y-73150074D01*
X152145566Y-73259136D01*
X152273810Y-73344826D01*
X152416307Y-73403850D01*
X152567581Y-73433940D01*
X152721819Y-73433940D01*
X152873093Y-73403850D01*
X153015590Y-73344826D01*
X153143834Y-73259136D01*
X153252896Y-73150074D01*
X153338586Y-73021830D01*
X153397610Y-72879333D01*
X153427700Y-72728059D01*
X153427700Y-72573821D01*
X153397610Y-72422547D01*
X153338586Y-72280050D01*
X153252896Y-72151806D01*
X153143834Y-72042744D01*
X153015590Y-71957054D01*
X152873093Y-71898030D01*
X152721819Y-71867940D01*
X152567581Y-71867940D01*
X152416307Y-71898030D01*
X152273810Y-71957054D01*
X152145566Y-72042744D01*
X152036504Y-72151806D01*
X151950814Y-72280050D01*
X151891790Y-72422547D01*
X151861700Y-72573821D01*
X150679420Y-72573821D01*
X150679420Y-72528101D01*
X150649330Y-72376827D01*
X150590306Y-72234330D01*
X150504616Y-72106086D01*
X150395554Y-71997024D01*
X150267310Y-71911334D01*
X150124813Y-71852310D01*
X149973539Y-71822220D01*
X149819301Y-71822220D01*
X149668027Y-71852310D01*
X149525530Y-71911334D01*
X149397286Y-71997024D01*
X149288224Y-72106086D01*
X149202534Y-72234330D01*
X149143510Y-72376827D01*
X149126800Y-72460835D01*
X149110090Y-72376827D01*
X149051066Y-72234330D01*
X148965376Y-72106086D01*
X148856314Y-71997024D01*
X148728070Y-71911334D01*
X148585573Y-71852310D01*
X148434299Y-71822220D01*
X148280061Y-71822220D01*
X148128787Y-71852310D01*
X147986290Y-71911334D01*
X147955252Y-71932073D01*
X147836273Y-71882790D01*
X147684999Y-71852700D01*
X147530761Y-71852700D01*
X147379487Y-71882790D01*
X147236990Y-71941814D01*
X147108746Y-72027504D01*
X146999684Y-72136566D01*
X146913994Y-72264810D01*
X146854970Y-72407307D01*
X146824880Y-72558581D01*
X145924540Y-72558581D01*
X145924540Y-72505241D01*
X145894450Y-72353967D01*
X145835426Y-72211470D01*
X145749736Y-72083226D01*
X145640674Y-71974164D01*
X145512430Y-71888474D01*
X145369933Y-71829450D01*
X145218659Y-71799360D01*
X145064421Y-71799360D01*
X144913147Y-71829450D01*
X144770650Y-71888474D01*
X144642406Y-71974164D01*
X144533344Y-72083226D01*
X144447654Y-72211470D01*
X144388630Y-72353967D01*
X144358540Y-72505241D01*
X144248208Y-72505241D01*
X144251070Y-72498333D01*
X144281160Y-72347059D01*
X144281160Y-72192821D01*
X144251070Y-72041547D01*
X144192046Y-71899050D01*
X144106356Y-71770806D01*
X143997294Y-71661744D01*
X143869050Y-71576054D01*
X143726553Y-71517030D01*
X143575279Y-71486940D01*
X143421041Y-71486940D01*
X143269767Y-71517030D01*
X143127270Y-71576054D01*
X142999026Y-71661744D01*
X142889964Y-71770806D01*
X142874180Y-71794428D01*
X142846516Y-71753026D01*
X142737454Y-71643964D01*
X142609210Y-71558274D01*
X142466713Y-71499250D01*
X142315439Y-71469160D01*
X142161201Y-71469160D01*
X142009927Y-71499250D01*
X141867430Y-71558274D01*
X141739186Y-71643964D01*
X141701110Y-71682040D01*
X141612234Y-71593164D01*
X141483990Y-71507474D01*
X141341493Y-71448450D01*
X141190219Y-71418360D01*
X141035981Y-71418360D01*
X140884707Y-71448450D01*
X140742210Y-71507474D01*
X140613966Y-71593164D01*
X140504904Y-71702226D01*
X140419214Y-71830470D01*
X140360190Y-71972967D01*
X140330100Y-72124241D01*
X139409440Y-72124241D01*
X139409440Y-72116621D01*
X139379350Y-71965347D01*
X139320326Y-71822850D01*
X139234636Y-71694606D01*
X139125574Y-71585544D01*
X138997330Y-71499854D01*
X138854833Y-71440830D01*
X138703559Y-71410740D01*
X138549321Y-71410740D01*
X138398047Y-71440830D01*
X138255550Y-71499854D01*
X138127306Y-71585544D01*
X138018244Y-71694606D01*
X137932554Y-71822850D01*
X137873530Y-71965347D01*
X137843440Y-72116621D01*
X129675426Y-72116621D01*
X129674849Y-71321601D01*
X145483760Y-71321601D01*
X145483760Y-71475839D01*
X145513850Y-71627113D01*
X145572874Y-71769610D01*
X145658564Y-71897854D01*
X145767626Y-72006916D01*
X145895870Y-72092606D01*
X146038367Y-72151630D01*
X146189641Y-72181720D01*
X146343879Y-72181720D01*
X146495153Y-72151630D01*
X146637650Y-72092606D01*
X146765894Y-72006916D01*
X146874956Y-71897854D01*
X146960646Y-71769610D01*
X147019670Y-71627113D01*
X147049760Y-71475839D01*
X147049760Y-71321601D01*
X147019670Y-71170327D01*
X146960646Y-71027830D01*
X146874956Y-70899586D01*
X146765894Y-70790524D01*
X146637650Y-70704834D01*
X146581368Y-70681521D01*
X152357000Y-70681521D01*
X152357000Y-70835759D01*
X152387090Y-70987033D01*
X152446114Y-71129530D01*
X152531804Y-71257774D01*
X152640866Y-71366836D01*
X152769110Y-71452526D01*
X152911607Y-71511550D01*
X153062881Y-71541640D01*
X153217119Y-71541640D01*
X153368393Y-71511550D01*
X153510890Y-71452526D01*
X153639134Y-71366836D01*
X153748196Y-71257774D01*
X153833886Y-71129530D01*
X153892910Y-70987033D01*
X153923000Y-70835759D01*
X153923000Y-70681521D01*
X153892910Y-70530247D01*
X153833886Y-70387750D01*
X153748196Y-70259506D01*
X153639134Y-70150444D01*
X153510890Y-70064754D01*
X153368393Y-70005730D01*
X153217119Y-69975640D01*
X153062881Y-69975640D01*
X152911607Y-70005730D01*
X152769110Y-70064754D01*
X152640866Y-70150444D01*
X152531804Y-70259506D01*
X152446114Y-70387750D01*
X152387090Y-70530247D01*
X152357000Y-70681521D01*
X146581368Y-70681521D01*
X146495153Y-70645810D01*
X146343879Y-70615720D01*
X146189641Y-70615720D01*
X146038367Y-70645810D01*
X145895870Y-70704834D01*
X145767626Y-70790524D01*
X145658564Y-70899586D01*
X145572874Y-71027830D01*
X145513850Y-71170327D01*
X145483760Y-71321601D01*
X129674849Y-71321601D01*
X129674198Y-70427521D01*
X130040560Y-70427521D01*
X130040560Y-70581759D01*
X130070650Y-70733033D01*
X130129674Y-70875530D01*
X130215364Y-71003774D01*
X130324426Y-71112836D01*
X130452670Y-71198526D01*
X130595167Y-71257550D01*
X130746441Y-71287640D01*
X130900679Y-71287640D01*
X131051953Y-71257550D01*
X131194450Y-71198526D01*
X131322694Y-71112836D01*
X131431756Y-71003774D01*
X131517446Y-70875530D01*
X131576470Y-70733033D01*
X131606560Y-70581759D01*
X131606560Y-70427521D01*
X131576470Y-70276247D01*
X131517446Y-70133750D01*
X131489711Y-70092241D01*
X133149520Y-70092241D01*
X133149520Y-70246479D01*
X133179610Y-70397753D01*
X133238634Y-70540250D01*
X133324324Y-70668494D01*
X133433386Y-70777556D01*
X133561630Y-70863246D01*
X133704127Y-70922270D01*
X133855401Y-70952360D01*
X134009639Y-70952360D01*
X134160913Y-70922270D01*
X134303410Y-70863246D01*
X134431654Y-70777556D01*
X134540716Y-70668494D01*
X134626406Y-70540250D01*
X134685430Y-70397753D01*
X134715520Y-70246479D01*
X134715520Y-70092241D01*
X134685430Y-69940967D01*
X134626406Y-69798470D01*
X134540716Y-69670226D01*
X134431654Y-69561164D01*
X134303410Y-69475474D01*
X134160913Y-69416450D01*
X134009639Y-69386360D01*
X133855401Y-69386360D01*
X133704127Y-69416450D01*
X133561630Y-69475474D01*
X133433386Y-69561164D01*
X133324324Y-69670226D01*
X133238634Y-69798470D01*
X133179610Y-69940967D01*
X133149520Y-70092241D01*
X131489711Y-70092241D01*
X131431756Y-70005506D01*
X131322694Y-69896444D01*
X131194450Y-69810754D01*
X131051953Y-69751730D01*
X130900679Y-69721640D01*
X130746441Y-69721640D01*
X130595167Y-69751730D01*
X130452670Y-69810754D01*
X130324426Y-69896444D01*
X130215364Y-70005506D01*
X130129674Y-70133750D01*
X130070650Y-70276247D01*
X130040560Y-70427521D01*
X129674198Y-70427521D01*
X129671762Y-67075640D01*
X139484960Y-67075640D01*
X139484960Y-68015440D01*
G37*
X139484960Y-68015440D02*
X139487400Y-68040216D01*
X139494627Y-68064041D01*
X139506363Y-68085997D01*
X139522157Y-68105243D01*
X139541403Y-68121037D01*
X139563359Y-68132773D01*
X139587184Y-68140000D01*
X139611960Y-68142440D01*
X152101140Y-68142440D01*
X152125916Y-68140000D01*
X152149741Y-68132773D01*
X152171697Y-68121037D01*
X152190943Y-68105243D01*
X152206737Y-68085997D01*
X152218473Y-68064041D01*
X152225700Y-68040216D01*
X152228140Y-68015440D01*
X152228140Y-67075640D01*
X159745885Y-67075640D01*
X159594805Y-67226720D01*
X159418829Y-67490087D01*
X159297615Y-67782724D01*
X159235820Y-68093386D01*
X159235820Y-68410134D01*
X159297615Y-68720796D01*
X159418829Y-69013433D01*
X159594805Y-69276800D01*
X159818780Y-69500775D01*
X160082147Y-69676751D01*
X160374784Y-69797965D01*
X160685446Y-69859760D01*
X161002194Y-69859760D01*
X161312856Y-69797965D01*
X161605493Y-69676751D01*
X161868860Y-69500775D01*
X161994932Y-69374703D01*
X162012524Y-93589828D01*
X161949639Y-93577320D01*
X161795401Y-93577320D01*
X161644127Y-93607410D01*
X161501630Y-93666434D01*
X161373386Y-93752124D01*
X161264324Y-93861186D01*
X161178634Y-93989430D01*
X161119610Y-94131927D01*
X161089520Y-94283201D01*
X161089520Y-94437439D01*
X161119610Y-94588713D01*
X161178634Y-94731210D01*
X161264324Y-94859454D01*
X161373386Y-94968516D01*
X161501630Y-95054206D01*
X161644127Y-95113230D01*
X161795401Y-95143320D01*
X161949639Y-95143320D01*
X162013643Y-95130589D01*
X162026894Y-113370839D01*
X161869280Y-113213225D01*
X161605913Y-113037249D01*
X161313276Y-112916035D01*
X161002614Y-112854240D01*
X160685866Y-112854240D01*
X160375204Y-112916035D01*
X160082567Y-113037249D01*
X159819200Y-113213225D01*
X159595225Y-113437200D01*
X159419249Y-113700567D01*
X159298035Y-113993204D01*
X159236240Y-114303866D01*
X159236240Y-114620614D01*
X159298035Y-114931276D01*
X159419249Y-115223913D01*
X159595225Y-115487280D01*
X159750925Y-115642980D01*
X150945440Y-115642980D01*
X150945440Y-107309240D01*
X150944600Y-107300701D01*
X160424040Y-107300701D01*
X160424040Y-107454939D01*
X160454130Y-107606213D01*
X160513154Y-107748710D01*
X160598844Y-107876954D01*
X160707906Y-107986016D01*
X160836150Y-108071706D01*
X160978647Y-108130730D01*
X161129921Y-108160820D01*
X161284159Y-108160820D01*
X161435433Y-108130730D01*
X161577930Y-108071706D01*
X161706174Y-107986016D01*
X161815236Y-107876954D01*
X161900926Y-107748710D01*
X161959950Y-107606213D01*
X161990040Y-107454939D01*
X161990040Y-107300701D01*
X161959950Y-107149427D01*
X161900926Y-107006930D01*
X161815236Y-106878686D01*
X161706174Y-106769624D01*
X161577930Y-106683934D01*
X161435433Y-106624910D01*
X161284159Y-106594820D01*
X161129921Y-106594820D01*
X160978647Y-106624910D01*
X160836150Y-106683934D01*
X160707906Y-106769624D01*
X160598844Y-106878686D01*
X160513154Y-107006930D01*
X160454130Y-107149427D01*
X160424040Y-107300701D01*
X150944600Y-107300701D01*
X150943000Y-107284464D01*
X150935773Y-107260639D01*
X150924037Y-107238683D01*
X150908243Y-107219437D01*
X150888997Y-107203643D01*
X150867041Y-107191907D01*
X150843216Y-107184680D01*
X150818440Y-107182240D01*
X149648784Y-107182240D01*
X149699370Y-107060113D01*
X149729460Y-106908839D01*
X149729460Y-106754601D01*
X149699370Y-106603327D01*
X149640346Y-106460830D01*
X149554656Y-106332586D01*
X149445594Y-106223524D01*
X149317350Y-106137834D01*
X149174853Y-106078810D01*
X149023579Y-106048720D01*
X148869341Y-106048720D01*
X148718067Y-106078810D01*
X148575570Y-106137834D01*
X148447326Y-106223524D01*
X148338264Y-106332586D01*
X148252574Y-106460830D01*
X148193550Y-106603327D01*
X148163460Y-106754601D01*
X148163460Y-106908839D01*
X148193550Y-107060113D01*
X148244136Y-107182240D01*
X144450550Y-107182240D01*
X144456876Y-107175914D01*
X144542566Y-107047670D01*
X144601590Y-106905173D01*
X144631680Y-106753899D01*
X144631680Y-106599661D01*
X144601590Y-106448387D01*
X144542566Y-106305890D01*
X144456876Y-106177646D01*
X144347814Y-106068584D01*
X144219570Y-105982894D01*
X144077073Y-105923870D01*
X143925799Y-105893780D01*
X143771561Y-105893780D01*
X143620287Y-105923870D01*
X143477790Y-105982894D01*
X143349546Y-106068584D01*
X143240484Y-106177646D01*
X143154794Y-106305890D01*
X143095770Y-106448387D01*
X143065680Y-106599661D01*
X143065680Y-106753899D01*
X143095770Y-106905173D01*
X143154794Y-107047670D01*
X143240484Y-107175914D01*
X143246810Y-107182240D01*
X129700898Y-107182240D01*
X129698306Y-103612621D01*
X152776100Y-103612621D01*
X152776100Y-103766859D01*
X152806190Y-103918133D01*
X152865214Y-104060630D01*
X152950904Y-104188874D01*
X153059966Y-104297936D01*
X153188210Y-104383626D01*
X153330707Y-104442650D01*
X153481981Y-104472740D01*
X153636219Y-104472740D01*
X153787493Y-104442650D01*
X153929990Y-104383626D01*
X154058234Y-104297936D01*
X154167296Y-104188874D01*
X154252986Y-104060630D01*
X154312010Y-103918133D01*
X154318719Y-103884401D01*
X158102480Y-103884401D01*
X158102480Y-104038639D01*
X158132570Y-104189913D01*
X158191594Y-104332410D01*
X158277284Y-104460654D01*
X158386346Y-104569716D01*
X158514590Y-104655406D01*
X158657087Y-104714430D01*
X158808361Y-104744520D01*
X158865973Y-104744520D01*
X158834214Y-104792050D01*
X158775190Y-104934547D01*
X158745100Y-105085821D01*
X158745100Y-105240059D01*
X158775190Y-105391333D01*
X158834214Y-105533830D01*
X158919904Y-105662074D01*
X159028966Y-105771136D01*
X159157210Y-105856826D01*
X159299707Y-105915850D01*
X159450981Y-105945940D01*
X159605219Y-105945940D01*
X159756493Y-105915850D01*
X159898990Y-105856826D01*
X160027234Y-105771136D01*
X160136296Y-105662074D01*
X160221986Y-105533830D01*
X160281010Y-105391333D01*
X160311100Y-105240059D01*
X160311100Y-105085821D01*
X160281010Y-104934547D01*
X160221986Y-104792050D01*
X160136296Y-104663806D01*
X160027234Y-104554744D01*
X159898990Y-104469054D01*
X159756493Y-104410030D01*
X159605219Y-104379940D01*
X159547607Y-104379940D01*
X159579366Y-104332410D01*
X159638390Y-104189913D01*
X159668480Y-104038639D01*
X159668480Y-103884401D01*
X159638390Y-103733127D01*
X159579366Y-103590630D01*
X159493676Y-103462386D01*
X159384614Y-103353324D01*
X159256370Y-103267634D01*
X159113873Y-103208610D01*
X158962599Y-103178520D01*
X158808361Y-103178520D01*
X158657087Y-103208610D01*
X158514590Y-103267634D01*
X158386346Y-103353324D01*
X158277284Y-103462386D01*
X158191594Y-103590630D01*
X158132570Y-103733127D01*
X158102480Y-103884401D01*
X154318719Y-103884401D01*
X154342100Y-103766859D01*
X154342100Y-103612621D01*
X154312010Y-103461347D01*
X154252986Y-103318850D01*
X154167296Y-103190606D01*
X154058234Y-103081544D01*
X153929990Y-102995854D01*
X153787493Y-102936830D01*
X153636219Y-102906740D01*
X153481981Y-102906740D01*
X153330707Y-102936830D01*
X153188210Y-102995854D01*
X153059966Y-103081544D01*
X152950904Y-103190606D01*
X152865214Y-103318850D01*
X152806190Y-103461347D01*
X152776100Y-103612621D01*
X129698306Y-103612621D01*
X129697675Y-102743941D01*
X159248020Y-102743941D01*
X159248020Y-102898179D01*
X159278110Y-103049453D01*
X159337134Y-103191950D01*
X159422824Y-103320194D01*
X159531886Y-103429256D01*
X159660130Y-103514946D01*
X159802627Y-103573970D01*
X159953901Y-103604060D01*
X160108139Y-103604060D01*
X160259413Y-103573970D01*
X160401910Y-103514946D01*
X160530154Y-103429256D01*
X160639216Y-103320194D01*
X160724906Y-103191950D01*
X160783930Y-103049453D01*
X160814020Y-102898179D01*
X160814020Y-102743941D01*
X160783930Y-102592667D01*
X160724906Y-102450170D01*
X160639216Y-102321926D01*
X160530154Y-102212864D01*
X160401910Y-102127174D01*
X160259413Y-102068150D01*
X160108139Y-102038060D01*
X159953901Y-102038060D01*
X159802627Y-102068150D01*
X159660130Y-102127174D01*
X159531886Y-102212864D01*
X159422824Y-102321926D01*
X159337134Y-102450170D01*
X159278110Y-102592667D01*
X159248020Y-102743941D01*
X129697675Y-102743941D01*
X129696152Y-100648441D01*
X130866060Y-100648441D01*
X130866060Y-100802679D01*
X130896150Y-100953953D01*
X130955174Y-101096450D01*
X131040864Y-101224694D01*
X131149926Y-101333756D01*
X131278170Y-101419446D01*
X131420667Y-101478470D01*
X131571941Y-101508560D01*
X131726179Y-101508560D01*
X131877453Y-101478470D01*
X132019950Y-101419446D01*
X132148194Y-101333756D01*
X132257256Y-101224694D01*
X132342946Y-101096450D01*
X132401970Y-100953953D01*
X132408434Y-100921455D01*
X132492290Y-100977486D01*
X132634787Y-101036510D01*
X132786061Y-101066600D01*
X132940299Y-101066600D01*
X133091573Y-101036510D01*
X133234070Y-100977486D01*
X133362314Y-100891796D01*
X133471376Y-100782734D01*
X133557066Y-100654490D01*
X133616090Y-100511993D01*
X133646180Y-100360719D01*
X133646180Y-100206481D01*
X133616090Y-100055207D01*
X133557066Y-99912710D01*
X133471376Y-99784466D01*
X133362314Y-99675404D01*
X133234070Y-99589714D01*
X133091573Y-99530690D01*
X132940299Y-99500600D01*
X132786061Y-99500600D01*
X132634787Y-99530690D01*
X132492290Y-99589714D01*
X132364046Y-99675404D01*
X132254984Y-99784466D01*
X132169294Y-99912710D01*
X132110270Y-100055207D01*
X132103806Y-100087705D01*
X132019950Y-100031674D01*
X131877453Y-99972650D01*
X131726179Y-99942560D01*
X131571941Y-99942560D01*
X131420667Y-99972650D01*
X131278170Y-100031674D01*
X131149926Y-100117364D01*
X131040864Y-100226426D01*
X130955174Y-100354670D01*
X130896150Y-100497167D01*
X130866060Y-100648441D01*
X129696152Y-100648441D01*
X129693582Y-97110221D01*
X132255440Y-97110221D01*
X132255440Y-97264459D01*
X132285530Y-97415733D01*
X132344554Y-97558230D01*
X132430244Y-97686474D01*
X132539306Y-97795536D01*
X132667550Y-97881226D01*
X132810047Y-97940250D01*
X132961321Y-97970340D01*
X133115559Y-97970340D01*
X133266833Y-97940250D01*
X133409330Y-97881226D01*
X133411402Y-97879841D01*
X136288960Y-97879841D01*
X136288960Y-98034079D01*
X136319050Y-98185353D01*
X136378074Y-98327850D01*
X136463764Y-98456094D01*
X136572826Y-98565156D01*
X136701070Y-98650846D01*
X136843567Y-98709870D01*
X136994841Y-98739960D01*
X137149079Y-98739960D01*
X137300353Y-98709870D01*
X137442850Y-98650846D01*
X137571094Y-98565156D01*
X137680156Y-98456094D01*
X137765846Y-98327850D01*
X137824870Y-98185353D01*
X137854960Y-98034079D01*
X137854960Y-97879841D01*
X137842092Y-97815146D01*
X151136455Y-97815146D01*
X151136455Y-97969384D01*
X151166545Y-98120658D01*
X151225569Y-98263155D01*
X151311259Y-98391399D01*
X151420321Y-98500461D01*
X151548565Y-98586151D01*
X151691062Y-98645175D01*
X151842336Y-98675265D01*
X151996574Y-98675265D01*
X152147848Y-98645175D01*
X152290345Y-98586151D01*
X152418589Y-98500461D01*
X152527651Y-98391399D01*
X152613341Y-98263155D01*
X152672365Y-98120658D01*
X152702455Y-97969384D01*
X152702455Y-97815146D01*
X152672365Y-97663872D01*
X152613341Y-97521375D01*
X152527651Y-97393131D01*
X152418589Y-97284069D01*
X152290345Y-97198379D01*
X152147848Y-97139355D01*
X151996574Y-97109265D01*
X151842336Y-97109265D01*
X151691062Y-97139355D01*
X151548565Y-97198379D01*
X151420321Y-97284069D01*
X151311259Y-97393131D01*
X151225569Y-97521375D01*
X151166545Y-97663872D01*
X151136455Y-97815146D01*
X137842092Y-97815146D01*
X137824870Y-97728567D01*
X137765846Y-97586070D01*
X137680156Y-97457826D01*
X137571094Y-97348764D01*
X137442850Y-97263074D01*
X137300353Y-97204050D01*
X137149079Y-97173960D01*
X136994841Y-97173960D01*
X136843567Y-97204050D01*
X136701070Y-97263074D01*
X136572826Y-97348764D01*
X136463764Y-97457826D01*
X136378074Y-97586070D01*
X136319050Y-97728567D01*
X136288960Y-97879841D01*
X133411402Y-97879841D01*
X133537574Y-97795536D01*
X133646636Y-97686474D01*
X133732326Y-97558230D01*
X133791350Y-97415733D01*
X133821440Y-97264459D01*
X133821440Y-97110221D01*
X133791350Y-96958947D01*
X133732326Y-96816450D01*
X133646636Y-96688206D01*
X133560651Y-96602221D01*
X143474620Y-96602221D01*
X143474620Y-96756459D01*
X143504710Y-96907733D01*
X143563734Y-97050230D01*
X143649424Y-97178474D01*
X143758486Y-97287536D01*
X143886730Y-97373226D01*
X144029227Y-97432250D01*
X144180501Y-97462340D01*
X144334739Y-97462340D01*
X144486013Y-97432250D01*
X144628510Y-97373226D01*
X144756754Y-97287536D01*
X144865816Y-97178474D01*
X144951506Y-97050230D01*
X145010530Y-96907733D01*
X145040620Y-96756459D01*
X145040620Y-96602221D01*
X145010530Y-96450947D01*
X144951506Y-96308450D01*
X144865816Y-96180206D01*
X144756754Y-96071144D01*
X144628510Y-95985454D01*
X144486013Y-95926430D01*
X144334739Y-95896340D01*
X144180501Y-95896340D01*
X144029227Y-95926430D01*
X143886730Y-95985454D01*
X143758486Y-96071144D01*
X143649424Y-96180206D01*
X143563734Y-96308450D01*
X143504710Y-96450947D01*
X143474620Y-96602221D01*
X133560651Y-96602221D01*
X133537574Y-96579144D01*
X133409330Y-96493454D01*
X133266833Y-96434430D01*
X133115559Y-96404340D01*
X132961321Y-96404340D01*
X132810047Y-96434430D01*
X132667550Y-96493454D01*
X132539306Y-96579144D01*
X132430244Y-96688206D01*
X132344554Y-96816450D01*
X132285530Y-96958947D01*
X132255440Y-97110221D01*
X129693582Y-97110221D01*
X129692215Y-95229818D01*
X129731398Y-95222024D01*
X129905743Y-95149808D01*
X130062649Y-95044967D01*
X130196087Y-94911529D01*
X130300928Y-94754623D01*
X130373144Y-94580278D01*
X130409960Y-94395195D01*
X130409960Y-94206485D01*
X130373144Y-94021402D01*
X130339551Y-93940301D01*
X144477920Y-93940301D01*
X144477920Y-94094539D01*
X144508010Y-94245813D01*
X144567034Y-94388310D01*
X144652724Y-94516554D01*
X144761786Y-94625616D01*
X144890030Y-94711306D01*
X144918664Y-94723167D01*
X144902100Y-94806441D01*
X144902100Y-94960679D01*
X144932190Y-95111953D01*
X144991214Y-95254450D01*
X145027871Y-95309311D01*
X144989060Y-95403010D01*
X144958970Y-95554284D01*
X144958970Y-95708522D01*
X144989060Y-95859796D01*
X145048084Y-96002293D01*
X145133774Y-96130537D01*
X145242836Y-96239599D01*
X145371080Y-96325289D01*
X145513577Y-96384313D01*
X145664851Y-96414403D01*
X145819089Y-96414403D01*
X145970363Y-96384313D01*
X146112860Y-96325289D01*
X146241104Y-96239599D01*
X146350166Y-96130537D01*
X146435856Y-96002293D01*
X146451443Y-95964661D01*
X150134500Y-95964661D01*
X150134500Y-96118899D01*
X150164590Y-96270173D01*
X150223614Y-96412670D01*
X150309304Y-96540914D01*
X150418366Y-96649976D01*
X150546610Y-96735666D01*
X150689107Y-96794690D01*
X150840381Y-96824780D01*
X150994619Y-96824780D01*
X151145893Y-96794690D01*
X151288390Y-96735666D01*
X151416634Y-96649976D01*
X151525696Y-96540914D01*
X151611386Y-96412670D01*
X151611779Y-96411721D01*
X155890140Y-96411721D01*
X155890140Y-96565959D01*
X155920230Y-96717233D01*
X155979254Y-96859730D01*
X156064944Y-96987974D01*
X156174006Y-97097036D01*
X156302250Y-97182726D01*
X156444747Y-97241750D01*
X156596021Y-97271840D01*
X156750259Y-97271840D01*
X156901533Y-97241750D01*
X157044030Y-97182726D01*
X157172274Y-97097036D01*
X157182420Y-97086890D01*
X157205246Y-97109716D01*
X157333490Y-97195406D01*
X157475987Y-97254430D01*
X157627261Y-97284520D01*
X157781499Y-97284520D01*
X157932773Y-97254430D01*
X158075270Y-97195406D01*
X158094424Y-97182608D01*
X158145316Y-97216613D01*
X158287813Y-97275637D01*
X158439087Y-97305727D01*
X158593325Y-97305727D01*
X158744599Y-97275637D01*
X158887096Y-97216613D01*
X159015340Y-97130923D01*
X159124402Y-97021861D01*
X159210092Y-96893617D01*
X159269116Y-96751120D01*
X159299206Y-96599846D01*
X159299206Y-96445608D01*
X159269116Y-96294334D01*
X159210092Y-96151837D01*
X159124402Y-96023593D01*
X159015340Y-95914531D01*
X158887096Y-95828841D01*
X158744599Y-95769817D01*
X158593325Y-95739727D01*
X158439087Y-95739727D01*
X158287813Y-95769817D01*
X158145316Y-95828841D01*
X158126162Y-95841639D01*
X158075270Y-95807634D01*
X157932773Y-95748610D01*
X157781499Y-95718520D01*
X157627261Y-95718520D01*
X157475987Y-95748610D01*
X157333490Y-95807634D01*
X157205246Y-95893324D01*
X157195100Y-95903470D01*
X157172274Y-95880644D01*
X157044030Y-95794954D01*
X156901533Y-95735930D01*
X156750259Y-95705840D01*
X156596021Y-95705840D01*
X156444747Y-95735930D01*
X156302250Y-95794954D01*
X156174006Y-95880644D01*
X156064944Y-95989706D01*
X155979254Y-96117950D01*
X155920230Y-96260447D01*
X155890140Y-96411721D01*
X151611779Y-96411721D01*
X151670410Y-96270173D01*
X151700500Y-96118899D01*
X151700500Y-95964661D01*
X151670410Y-95813387D01*
X151611386Y-95670890D01*
X151525696Y-95542646D01*
X151416634Y-95433584D01*
X151350242Y-95389222D01*
X159097579Y-95389222D01*
X159097579Y-95543460D01*
X159127669Y-95694734D01*
X159186693Y-95837231D01*
X159272383Y-95965475D01*
X159381445Y-96074537D01*
X159509689Y-96160227D01*
X159652186Y-96219251D01*
X159803460Y-96249341D01*
X159957698Y-96249341D01*
X160108972Y-96219251D01*
X160251469Y-96160227D01*
X160379713Y-96074537D01*
X160488775Y-95965475D01*
X160574465Y-95837231D01*
X160633489Y-95694734D01*
X160663579Y-95543460D01*
X160663579Y-95389222D01*
X160633489Y-95237948D01*
X160574465Y-95095451D01*
X160488775Y-94967207D01*
X160379713Y-94858145D01*
X160251469Y-94772455D01*
X160108972Y-94713431D01*
X159957698Y-94683341D01*
X159803460Y-94683341D01*
X159652186Y-94713431D01*
X159509689Y-94772455D01*
X159381445Y-94858145D01*
X159272383Y-94967207D01*
X159186693Y-95095451D01*
X159127669Y-95237948D01*
X159097579Y-95389222D01*
X151350242Y-95389222D01*
X151288390Y-95347894D01*
X151145893Y-95288870D01*
X150994619Y-95258780D01*
X150840381Y-95258780D01*
X150689107Y-95288870D01*
X150546610Y-95347894D01*
X150418366Y-95433584D01*
X150309304Y-95542646D01*
X150223614Y-95670890D01*
X150164590Y-95813387D01*
X150134500Y-95964661D01*
X146451443Y-95964661D01*
X146494880Y-95859796D01*
X146524970Y-95708522D01*
X146524970Y-95554284D01*
X146494880Y-95403010D01*
X146435856Y-95260513D01*
X146399199Y-95205652D01*
X146438010Y-95111953D01*
X146468100Y-94960679D01*
X146468100Y-94806441D01*
X146438010Y-94655167D01*
X146378986Y-94512670D01*
X146293296Y-94384426D01*
X146184234Y-94275364D01*
X146055990Y-94189674D01*
X146054897Y-94189221D01*
X156601340Y-94189221D01*
X156601340Y-94343459D01*
X156631430Y-94494733D01*
X156690454Y-94637230D01*
X156776144Y-94765474D01*
X156885206Y-94874536D01*
X157013450Y-94960226D01*
X157155947Y-95019250D01*
X157307221Y-95049340D01*
X157461459Y-95049340D01*
X157612733Y-95019250D01*
X157755230Y-94960226D01*
X157883474Y-94874536D01*
X157992536Y-94765474D01*
X158078226Y-94637230D01*
X158137250Y-94494733D01*
X158167340Y-94343459D01*
X158167340Y-94189221D01*
X158137250Y-94037947D01*
X158078226Y-93895450D01*
X157992536Y-93767206D01*
X157883474Y-93658144D01*
X157755230Y-93572454D01*
X157612733Y-93513430D01*
X157461459Y-93483340D01*
X157307221Y-93483340D01*
X157155947Y-93513430D01*
X157013450Y-93572454D01*
X156885206Y-93658144D01*
X156776144Y-93767206D01*
X156690454Y-93895450D01*
X156631430Y-94037947D01*
X156601340Y-94189221D01*
X146054897Y-94189221D01*
X146027356Y-94177813D01*
X146043920Y-94094539D01*
X146043920Y-93940301D01*
X146013830Y-93789027D01*
X145954806Y-93646530D01*
X145869116Y-93518286D01*
X145760054Y-93409224D01*
X145631810Y-93323534D01*
X145489313Y-93264510D01*
X145338039Y-93234420D01*
X145183801Y-93234420D01*
X145032527Y-93264510D01*
X144890030Y-93323534D01*
X144761786Y-93409224D01*
X144652724Y-93518286D01*
X144567034Y-93646530D01*
X144508010Y-93789027D01*
X144477920Y-93940301D01*
X130339551Y-93940301D01*
X130300928Y-93847057D01*
X130196087Y-93690151D01*
X130062649Y-93556713D01*
X129905743Y-93451872D01*
X129731398Y-93379656D01*
X129690865Y-93371593D01*
X129690666Y-93097021D01*
X153505080Y-93097021D01*
X153505080Y-93251259D01*
X153535170Y-93402533D01*
X153594194Y-93545030D01*
X153679884Y-93673274D01*
X153788946Y-93782336D01*
X153917190Y-93868026D01*
X154059687Y-93927050D01*
X154210961Y-93957140D01*
X154365199Y-93957140D01*
X154516473Y-93927050D01*
X154658970Y-93868026D01*
X154787214Y-93782336D01*
X154896276Y-93673274D01*
X154981966Y-93545030D01*
X155040990Y-93402533D01*
X155071080Y-93251259D01*
X155071080Y-93097021D01*
X155040990Y-92945747D01*
X154981966Y-92803250D01*
X154935562Y-92733801D01*
X158529200Y-92733801D01*
X158529200Y-92888039D01*
X158559290Y-93039313D01*
X158618314Y-93181810D01*
X158704004Y-93310054D01*
X158813066Y-93419116D01*
X158941310Y-93504806D01*
X159083807Y-93563830D01*
X159235081Y-93593920D01*
X159389319Y-93593920D01*
X159540593Y-93563830D01*
X159683090Y-93504806D01*
X159811334Y-93419116D01*
X159920396Y-93310054D01*
X160006086Y-93181810D01*
X160065110Y-93039313D01*
X160095200Y-92888039D01*
X160095200Y-92733801D01*
X160065110Y-92582527D01*
X160006086Y-92440030D01*
X159920396Y-92311786D01*
X159811334Y-92202724D01*
X159683090Y-92117034D01*
X159540593Y-92058010D01*
X159389319Y-92027920D01*
X159235081Y-92027920D01*
X159083807Y-92058010D01*
X158941310Y-92117034D01*
X158813066Y-92202724D01*
X158704004Y-92311786D01*
X158618314Y-92440030D01*
X158559290Y-92582527D01*
X158529200Y-92733801D01*
X154935562Y-92733801D01*
X154896276Y-92675006D01*
X154787214Y-92565944D01*
X154658970Y-92480254D01*
X154516473Y-92421230D01*
X154365199Y-92391140D01*
X154210961Y-92391140D01*
X154059687Y-92421230D01*
X153917190Y-92480254D01*
X153788946Y-92565944D01*
X153679884Y-92675006D01*
X153594194Y-92803250D01*
X153535170Y-92945747D01*
X153505080Y-93097021D01*
X129690666Y-93097021D01*
X129689699Y-91765595D01*
X132964240Y-91765595D01*
X132964240Y-91890285D01*
X132988566Y-92012579D01*
X133036283Y-92127778D01*
X133105557Y-92231454D01*
X133193726Y-92319623D01*
X133297402Y-92388897D01*
X133412601Y-92436614D01*
X133534895Y-92460940D01*
X133659585Y-92460940D01*
X133781879Y-92436614D01*
X133897078Y-92388897D01*
X134000754Y-92319623D01*
X134088923Y-92231454D01*
X134158197Y-92127778D01*
X134205914Y-92012579D01*
X134230240Y-91890285D01*
X134230240Y-91885441D01*
X140819260Y-91885441D01*
X140819260Y-92039679D01*
X140849350Y-92190953D01*
X140908374Y-92333450D01*
X140994064Y-92461694D01*
X141103126Y-92570756D01*
X141231370Y-92656446D01*
X141373867Y-92715470D01*
X141525141Y-92745560D01*
X141679379Y-92745560D01*
X141830653Y-92715470D01*
X141973150Y-92656446D01*
X142101394Y-92570756D01*
X142210456Y-92461694D01*
X142296146Y-92333450D01*
X142355170Y-92190953D01*
X142385260Y-92039679D01*
X142385260Y-91885441D01*
X142355170Y-91734167D01*
X142296146Y-91591670D01*
X142210456Y-91463426D01*
X142101394Y-91354364D01*
X142063706Y-91329181D01*
X142486560Y-91329181D01*
X142486560Y-91483419D01*
X142516650Y-91634693D01*
X142575674Y-91777190D01*
X142661364Y-91905434D01*
X142770426Y-92014496D01*
X142898670Y-92100186D01*
X143041167Y-92159210D01*
X143192441Y-92189300D01*
X143346679Y-92189300D01*
X143497953Y-92159210D01*
X143640450Y-92100186D01*
X143768694Y-92014496D01*
X143877756Y-91905434D01*
X143963446Y-91777190D01*
X144022470Y-91634693D01*
X144052560Y-91483419D01*
X144052560Y-91329181D01*
X144022470Y-91177907D01*
X143963446Y-91035410D01*
X143877756Y-90907166D01*
X143768694Y-90798104D01*
X143640450Y-90712414D01*
X143497953Y-90653390D01*
X143346679Y-90623300D01*
X143192441Y-90623300D01*
X143041167Y-90653390D01*
X142898670Y-90712414D01*
X142770426Y-90798104D01*
X142661364Y-90907166D01*
X142575674Y-91035410D01*
X142516650Y-91177907D01*
X142486560Y-91329181D01*
X142063706Y-91329181D01*
X141973150Y-91268674D01*
X141830653Y-91209650D01*
X141679379Y-91179560D01*
X141525141Y-91179560D01*
X141373867Y-91209650D01*
X141231370Y-91268674D01*
X141103126Y-91354364D01*
X140994064Y-91463426D01*
X140908374Y-91591670D01*
X140849350Y-91734167D01*
X140819260Y-91885441D01*
X134230240Y-91885441D01*
X134230240Y-91765595D01*
X134205914Y-91643301D01*
X134158197Y-91528102D01*
X134088923Y-91424426D01*
X134000754Y-91336257D01*
X133897078Y-91266983D01*
X133781879Y-91219266D01*
X133659585Y-91194940D01*
X133534895Y-91194940D01*
X133412601Y-91219266D01*
X133297402Y-91266983D01*
X133193726Y-91336257D01*
X133105557Y-91424426D01*
X133036283Y-91528102D01*
X132988566Y-91643301D01*
X132964240Y-91765595D01*
X129689699Y-91765595D01*
X129688445Y-90038861D01*
X138214280Y-90038861D01*
X138214280Y-90193099D01*
X138244370Y-90344373D01*
X138303394Y-90486870D01*
X138389084Y-90615114D01*
X138498146Y-90724176D01*
X138626390Y-90809866D01*
X138768887Y-90868890D01*
X138920161Y-90898980D01*
X139074399Y-90898980D01*
X139225673Y-90868890D01*
X139368170Y-90809866D01*
X139496414Y-90724176D01*
X139605476Y-90615114D01*
X139691166Y-90486870D01*
X139750190Y-90344373D01*
X139780280Y-90193099D01*
X139780280Y-90038861D01*
X139750190Y-89887587D01*
X139691166Y-89745090D01*
X139605476Y-89616846D01*
X139496414Y-89507784D01*
X139368170Y-89422094D01*
X139225673Y-89363070D01*
X139074399Y-89332980D01*
X138920161Y-89332980D01*
X138768887Y-89363070D01*
X138626390Y-89422094D01*
X138498146Y-89507784D01*
X138389084Y-89616846D01*
X138303394Y-89745090D01*
X138244370Y-89887587D01*
X138214280Y-90038861D01*
X129688445Y-90038861D01*
X129687276Y-88430801D01*
X129731398Y-88422024D01*
X129905743Y-88349808D01*
X130062649Y-88244967D01*
X130196087Y-88111529D01*
X130300928Y-87954623D01*
X130373144Y-87780278D01*
X130378092Y-87755401D01*
X134279820Y-87755401D01*
X134279820Y-87909639D01*
X134309910Y-88060913D01*
X134368934Y-88203410D01*
X134454624Y-88331654D01*
X134563686Y-88440716D01*
X134691930Y-88526406D01*
X134834427Y-88585430D01*
X134985701Y-88615520D01*
X135139939Y-88615520D01*
X135291213Y-88585430D01*
X135433710Y-88526406D01*
X135561954Y-88440716D01*
X135671016Y-88331654D01*
X135756706Y-88203410D01*
X135815730Y-88060913D01*
X135845820Y-87909639D01*
X135845820Y-87755401D01*
X135815730Y-87604127D01*
X135756706Y-87461630D01*
X135671016Y-87333386D01*
X135561954Y-87224324D01*
X135433710Y-87138634D01*
X135291213Y-87079610D01*
X135139939Y-87049520D01*
X134985701Y-87049520D01*
X134834427Y-87079610D01*
X134691930Y-87138634D01*
X134563686Y-87224324D01*
X134454624Y-87333386D01*
X134368934Y-87461630D01*
X134309910Y-87604127D01*
X134279820Y-87755401D01*
X130378092Y-87755401D01*
X130409960Y-87595195D01*
X130409960Y-87406485D01*
X130373144Y-87221402D01*
X130300928Y-87047057D01*
X130196087Y-86890151D01*
X130116457Y-86810521D01*
X131440100Y-86810521D01*
X131440100Y-86964759D01*
X131470190Y-87116033D01*
X131529214Y-87258530D01*
X131614904Y-87386774D01*
X131723966Y-87495836D01*
X131852210Y-87581526D01*
X131994707Y-87640550D01*
X132145981Y-87670640D01*
X132300219Y-87670640D01*
X132451493Y-87640550D01*
X132593990Y-87581526D01*
X132722234Y-87495836D01*
X132831296Y-87386774D01*
X132916986Y-87258530D01*
X132976010Y-87116033D01*
X133006100Y-86964759D01*
X133006100Y-86810521D01*
X132976010Y-86659247D01*
X132916986Y-86516750D01*
X132831296Y-86388506D01*
X132722234Y-86279444D01*
X132593990Y-86193754D01*
X132451493Y-86134730D01*
X132300219Y-86104640D01*
X132145981Y-86104640D01*
X131994707Y-86134730D01*
X131852210Y-86193754D01*
X131723966Y-86279444D01*
X131614904Y-86388506D01*
X131529214Y-86516750D01*
X131470190Y-86659247D01*
X131440100Y-86810521D01*
X130116457Y-86810521D01*
X130062649Y-86756713D01*
X129905743Y-86651872D01*
X129731398Y-86579656D01*
X129685925Y-86570611D01*
X129685847Y-86463174D01*
X129736390Y-86496946D01*
X129878887Y-86555970D01*
X130030161Y-86586060D01*
X130184399Y-86586060D01*
X130335673Y-86555970D01*
X130478170Y-86496946D01*
X130606414Y-86411256D01*
X130715476Y-86302194D01*
X130801166Y-86173950D01*
X130860190Y-86031453D01*
X130890280Y-85880179D01*
X130890280Y-85725941D01*
X130860190Y-85574667D01*
X130801166Y-85432170D01*
X130715476Y-85303926D01*
X130606414Y-85194864D01*
X130478170Y-85109174D01*
X130335673Y-85050150D01*
X130184399Y-85020060D01*
X130030161Y-85020060D01*
X129878887Y-85050150D01*
X129736390Y-85109174D01*
X129684888Y-85143587D01*
X129684721Y-84913141D01*
X131920160Y-84913141D01*
X131920160Y-85067379D01*
X131950250Y-85218653D01*
X132009274Y-85361150D01*
X132094964Y-85489394D01*
X132204026Y-85598456D01*
X132332270Y-85684146D01*
X132474767Y-85743170D01*
X132626041Y-85773260D01*
X132780279Y-85773260D01*
X132931553Y-85743170D01*
X133074050Y-85684146D01*
X133202294Y-85598456D01*
X133311356Y-85489394D01*
X133396878Y-85361402D01*
X133511799Y-85361402D01*
X133663073Y-85331312D01*
X133766666Y-85288403D01*
X133712786Y-85324404D01*
X133603724Y-85433466D01*
X133518034Y-85561710D01*
X133459010Y-85704207D01*
X133428920Y-85855481D01*
X133428920Y-86009719D01*
X133459010Y-86160993D01*
X133518034Y-86303490D01*
X133603724Y-86431734D01*
X133712786Y-86540796D01*
X133841030Y-86626486D01*
X133983527Y-86685510D01*
X134134801Y-86715600D01*
X134289039Y-86715600D01*
X134440313Y-86685510D01*
X134582810Y-86626486D01*
X134711054Y-86540796D01*
X134820116Y-86431734D01*
X134905806Y-86303490D01*
X134964830Y-86160993D01*
X134994920Y-86009719D01*
X134994920Y-85911381D01*
X137988220Y-85911381D01*
X137988220Y-86065619D01*
X138018310Y-86216893D01*
X138077334Y-86359390D01*
X138163024Y-86487634D01*
X138272086Y-86596696D01*
X138400330Y-86682386D01*
X138542827Y-86741410D01*
X138694101Y-86771500D01*
X138848339Y-86771500D01*
X138999613Y-86741410D01*
X139142110Y-86682386D01*
X139270354Y-86596696D01*
X139337507Y-86529543D01*
X144333200Y-86529543D01*
X144333200Y-86678857D01*
X144362329Y-86825301D01*
X144419469Y-86963248D01*
X144502423Y-87087397D01*
X144608003Y-87192977D01*
X144680922Y-87241700D01*
X144608003Y-87290423D01*
X144502423Y-87396003D01*
X144419469Y-87520152D01*
X144362329Y-87658099D01*
X144333200Y-87804543D01*
X144333200Y-87953857D01*
X144362329Y-88100301D01*
X144419469Y-88238248D01*
X144502423Y-88362397D01*
X144608003Y-88467977D01*
X144680922Y-88516700D01*
X144608003Y-88565423D01*
X144502423Y-88671003D01*
X144419469Y-88795152D01*
X144362329Y-88933099D01*
X144333200Y-89079543D01*
X144333200Y-89228857D01*
X144362329Y-89375301D01*
X144419469Y-89513248D01*
X144502423Y-89637397D01*
X144608003Y-89742977D01*
X144680922Y-89791700D01*
X144608003Y-89840423D01*
X144502423Y-89946003D01*
X144419469Y-90070152D01*
X144362329Y-90208099D01*
X144333200Y-90354543D01*
X144333200Y-90503857D01*
X144362329Y-90650301D01*
X144419469Y-90788248D01*
X144502423Y-90912397D01*
X144608003Y-91017977D01*
X144680922Y-91066700D01*
X144608003Y-91115423D01*
X144502423Y-91221003D01*
X144419469Y-91345152D01*
X144362329Y-91483099D01*
X144333200Y-91629543D01*
X144333200Y-91778857D01*
X144362329Y-91925301D01*
X144419469Y-92063248D01*
X144502423Y-92187397D01*
X144608003Y-92292977D01*
X144732152Y-92375931D01*
X144870099Y-92433071D01*
X145016543Y-92462200D01*
X145165857Y-92462200D01*
X145312301Y-92433071D01*
X145450248Y-92375931D01*
X145574397Y-92292977D01*
X145679977Y-92187397D01*
X145728700Y-92114478D01*
X145777423Y-92187397D01*
X145883003Y-92292977D01*
X146007152Y-92375931D01*
X146145099Y-92433071D01*
X146291543Y-92462200D01*
X146440857Y-92462200D01*
X146587301Y-92433071D01*
X146725248Y-92375931D01*
X146849397Y-92292977D01*
X146954977Y-92187397D01*
X147003700Y-92114478D01*
X147052423Y-92187397D01*
X147158003Y-92292977D01*
X147282152Y-92375931D01*
X147420099Y-92433071D01*
X147566543Y-92462200D01*
X147715857Y-92462200D01*
X147862301Y-92433071D01*
X148000248Y-92375931D01*
X148124397Y-92292977D01*
X148229977Y-92187397D01*
X148278700Y-92114478D01*
X148327423Y-92187397D01*
X148433003Y-92292977D01*
X148557152Y-92375931D01*
X148695099Y-92433071D01*
X148841543Y-92462200D01*
X148990857Y-92462200D01*
X149137301Y-92433071D01*
X149275248Y-92375931D01*
X149399397Y-92292977D01*
X149504977Y-92187397D01*
X149553700Y-92114478D01*
X149602423Y-92187397D01*
X149708003Y-92292977D01*
X149832152Y-92375931D01*
X149970099Y-92433071D01*
X150116543Y-92462200D01*
X150265857Y-92462200D01*
X150412301Y-92433071D01*
X150550248Y-92375931D01*
X150674397Y-92292977D01*
X150779977Y-92187397D01*
X150862931Y-92063248D01*
X150920071Y-91925301D01*
X150949200Y-91778857D01*
X150949200Y-91629543D01*
X150920071Y-91483099D01*
X150862931Y-91345152D01*
X150779977Y-91221003D01*
X150674397Y-91115423D01*
X150601478Y-91066700D01*
X150674397Y-91017977D01*
X150779977Y-90912397D01*
X150862931Y-90788248D01*
X150920071Y-90650301D01*
X150949200Y-90503857D01*
X150949200Y-90354543D01*
X150920071Y-90208099D01*
X150862931Y-90070152D01*
X150779977Y-89946003D01*
X150674397Y-89840423D01*
X150601478Y-89791700D01*
X150674397Y-89742977D01*
X150779977Y-89637397D01*
X150862931Y-89513248D01*
X150920071Y-89375301D01*
X150949200Y-89228857D01*
X150949200Y-89079543D01*
X150920071Y-88933099D01*
X150862931Y-88795152D01*
X150779977Y-88671003D01*
X150674397Y-88565423D01*
X150601478Y-88516700D01*
X150627038Y-88499621D01*
X154005460Y-88499621D01*
X154005460Y-88653859D01*
X154035550Y-88805133D01*
X154094574Y-88947630D01*
X154180264Y-89075874D01*
X154289326Y-89184936D01*
X154417570Y-89270626D01*
X154459317Y-89287918D01*
X154469890Y-89341073D01*
X154528914Y-89483570D01*
X154598458Y-89587650D01*
X154528914Y-89691730D01*
X154469890Y-89834227D01*
X154439800Y-89985501D01*
X154439800Y-90139739D01*
X154469890Y-90291013D01*
X154528914Y-90433510D01*
X154614604Y-90561754D01*
X154723666Y-90670816D01*
X154851910Y-90756506D01*
X154994407Y-90815530D01*
X155145681Y-90845620D01*
X155299919Y-90845620D01*
X155451193Y-90815530D01*
X155593690Y-90756506D01*
X155721934Y-90670816D01*
X155830996Y-90561754D01*
X155916686Y-90433510D01*
X155975710Y-90291013D01*
X156005800Y-90139739D01*
X156005800Y-89985501D01*
X155975710Y-89834227D01*
X155916686Y-89691730D01*
X155847142Y-89587650D01*
X155916686Y-89483570D01*
X155975710Y-89341073D01*
X156005800Y-89189799D01*
X156005800Y-89035561D01*
X155975710Y-88884287D01*
X155916686Y-88741790D01*
X155830996Y-88613546D01*
X155743390Y-88525940D01*
X155830996Y-88438334D01*
X155916686Y-88310090D01*
X155975710Y-88167593D01*
X156005800Y-88016319D01*
X156005800Y-87862081D01*
X155975710Y-87710807D01*
X155916686Y-87568310D01*
X155875994Y-87507410D01*
X155916686Y-87446510D01*
X155975710Y-87304013D01*
X156005800Y-87152739D01*
X156005800Y-86998501D01*
X155975710Y-86847227D01*
X155916686Y-86704730D01*
X155830996Y-86576486D01*
X155721934Y-86467424D01*
X155593690Y-86381734D01*
X155530186Y-86355430D01*
X155580990Y-86334386D01*
X155709234Y-86248696D01*
X155818296Y-86139634D01*
X155903986Y-86011390D01*
X155963010Y-85868893D01*
X155993100Y-85717619D01*
X155993100Y-85563381D01*
X155963010Y-85412107D01*
X155903986Y-85269610D01*
X155891526Y-85250961D01*
X156215260Y-85250961D01*
X156215260Y-85405199D01*
X156245350Y-85556473D01*
X156304374Y-85698970D01*
X156390064Y-85827214D01*
X156499126Y-85936276D01*
X156627370Y-86021966D01*
X156769867Y-86080990D01*
X156921141Y-86111080D01*
X157075379Y-86111080D01*
X157226653Y-86080990D01*
X157369150Y-86021966D01*
X157497394Y-85936276D01*
X157606456Y-85827214D01*
X157692146Y-85698970D01*
X157751170Y-85556473D01*
X157781260Y-85405199D01*
X157781260Y-85250961D01*
X157751170Y-85099687D01*
X157692146Y-84957190D01*
X157606456Y-84828946D01*
X157497394Y-84719884D01*
X157369150Y-84634194D01*
X157226653Y-84575170D01*
X157075379Y-84545080D01*
X156921141Y-84545080D01*
X156769867Y-84575170D01*
X156627370Y-84634194D01*
X156499126Y-84719884D01*
X156390064Y-84828946D01*
X156304374Y-84957190D01*
X156245350Y-85099687D01*
X156215260Y-85250961D01*
X155891526Y-85250961D01*
X155818296Y-85141366D01*
X155709234Y-85032304D01*
X155580990Y-84946614D01*
X155438493Y-84887590D01*
X155287219Y-84857500D01*
X155132981Y-84857500D01*
X154981707Y-84887590D01*
X154839210Y-84946614D01*
X154710966Y-85032304D01*
X154601904Y-85141366D01*
X154516214Y-85269610D01*
X154457190Y-85412107D01*
X154427100Y-85563381D01*
X154427100Y-85717619D01*
X154457190Y-85868893D01*
X154516214Y-86011390D01*
X154601904Y-86139634D01*
X154710966Y-86248696D01*
X154839210Y-86334386D01*
X154902714Y-86360690D01*
X154851910Y-86381734D01*
X154723666Y-86467424D01*
X154614604Y-86576486D01*
X154528914Y-86704730D01*
X154469890Y-86847227D01*
X154439800Y-86998501D01*
X154439800Y-87152739D01*
X154469890Y-87304013D01*
X154528914Y-87446510D01*
X154569606Y-87507410D01*
X154528914Y-87568310D01*
X154469890Y-87710807D01*
X154439800Y-87862081D01*
X154439800Y-87873646D01*
X154417570Y-87882854D01*
X154289326Y-87968544D01*
X154180264Y-88077606D01*
X154094574Y-88205850D01*
X154035550Y-88348347D01*
X154005460Y-88499621D01*
X150627038Y-88499621D01*
X150674397Y-88467977D01*
X150779977Y-88362397D01*
X150862931Y-88238248D01*
X150920071Y-88100301D01*
X150949200Y-87953857D01*
X150949200Y-87804543D01*
X150920071Y-87658099D01*
X150862931Y-87520152D01*
X150779977Y-87396003D01*
X150674397Y-87290423D01*
X150601478Y-87241700D01*
X150674397Y-87192977D01*
X150779977Y-87087397D01*
X150862931Y-86963248D01*
X150920071Y-86825301D01*
X150949200Y-86678857D01*
X150949200Y-86529543D01*
X150920071Y-86383099D01*
X150862931Y-86245152D01*
X150779977Y-86121003D01*
X150674397Y-86015423D01*
X150550248Y-85932469D01*
X150412301Y-85875329D01*
X150265857Y-85846200D01*
X150116543Y-85846200D01*
X149970099Y-85875329D01*
X149832152Y-85932469D01*
X149708003Y-86015423D01*
X149602423Y-86121003D01*
X149553700Y-86193922D01*
X149504977Y-86121003D01*
X149399397Y-86015423D01*
X149275248Y-85932469D01*
X149137301Y-85875329D01*
X148990857Y-85846200D01*
X148841543Y-85846200D01*
X148695099Y-85875329D01*
X148557152Y-85932469D01*
X148433003Y-86015423D01*
X148327423Y-86121003D01*
X148278700Y-86193922D01*
X148229977Y-86121003D01*
X148124397Y-86015423D01*
X148000248Y-85932469D01*
X147862301Y-85875329D01*
X147715857Y-85846200D01*
X147566543Y-85846200D01*
X147420099Y-85875329D01*
X147282152Y-85932469D01*
X147158003Y-86015423D01*
X147052423Y-86121003D01*
X147003700Y-86193922D01*
X146954977Y-86121003D01*
X146849397Y-86015423D01*
X146725248Y-85932469D01*
X146587301Y-85875329D01*
X146440857Y-85846200D01*
X146291543Y-85846200D01*
X146145099Y-85875329D01*
X146007152Y-85932469D01*
X145883003Y-86015423D01*
X145777423Y-86121003D01*
X145728700Y-86193922D01*
X145679977Y-86121003D01*
X145574397Y-86015423D01*
X145450248Y-85932469D01*
X145312301Y-85875329D01*
X145165857Y-85846200D01*
X145016543Y-85846200D01*
X144870099Y-85875329D01*
X144732152Y-85932469D01*
X144608003Y-86015423D01*
X144502423Y-86121003D01*
X144419469Y-86245152D01*
X144362329Y-86383099D01*
X144333200Y-86529543D01*
X139337507Y-86529543D01*
X139379416Y-86487634D01*
X139465106Y-86359390D01*
X139524130Y-86216893D01*
X139554220Y-86065619D01*
X139554220Y-85911381D01*
X139524130Y-85760107D01*
X139478271Y-85649394D01*
X139530473Y-85639010D01*
X139672970Y-85579986D01*
X139782741Y-85506639D01*
X139793638Y-85561421D01*
X139852662Y-85703918D01*
X139938352Y-85832162D01*
X140047414Y-85941224D01*
X140175658Y-86026914D01*
X140318155Y-86085938D01*
X140469429Y-86116028D01*
X140623667Y-86116028D01*
X140774941Y-86085938D01*
X140917438Y-86026914D01*
X141045682Y-85941224D01*
X141154744Y-85832162D01*
X141240434Y-85703918D01*
X141297684Y-85565704D01*
X141352067Y-85588230D01*
X141503341Y-85618320D01*
X141657579Y-85618320D01*
X141808853Y-85588230D01*
X141951350Y-85529206D01*
X142079594Y-85443516D01*
X142188656Y-85334454D01*
X142274346Y-85206210D01*
X142333370Y-85063713D01*
X142363460Y-84912439D01*
X142363460Y-84758201D01*
X142333370Y-84606927D01*
X142274346Y-84464430D01*
X142188656Y-84336186D01*
X142079594Y-84227124D01*
X141951350Y-84141434D01*
X141808853Y-84082410D01*
X141657579Y-84052320D01*
X141503341Y-84052320D01*
X141352067Y-84082410D01*
X141209570Y-84141434D01*
X141081326Y-84227124D01*
X140972264Y-84336186D01*
X140886574Y-84464430D01*
X140829324Y-84602644D01*
X140774941Y-84580118D01*
X140623667Y-84550028D01*
X140469429Y-84550028D01*
X140318155Y-84580118D01*
X140175658Y-84639142D01*
X140065887Y-84712489D01*
X140054990Y-84657707D01*
X139995966Y-84515210D01*
X139910276Y-84386966D01*
X139801214Y-84277904D01*
X139672970Y-84192214D01*
X139530473Y-84133190D01*
X139379199Y-84103100D01*
X139224961Y-84103100D01*
X139073687Y-84133190D01*
X138931190Y-84192214D01*
X138802946Y-84277904D01*
X138693884Y-84386966D01*
X138608194Y-84515210D01*
X138549170Y-84657707D01*
X138519080Y-84808981D01*
X138519080Y-84963219D01*
X138549170Y-85114493D01*
X138595029Y-85225206D01*
X138542827Y-85235590D01*
X138400330Y-85294614D01*
X138272086Y-85380304D01*
X138163024Y-85489366D01*
X138077334Y-85617610D01*
X138018310Y-85760107D01*
X137988220Y-85911381D01*
X134994920Y-85911381D01*
X134994920Y-85855481D01*
X134964830Y-85704207D01*
X134905806Y-85561710D01*
X134820116Y-85433466D01*
X134711054Y-85324404D01*
X134582810Y-85238714D01*
X134440313Y-85179690D01*
X134289039Y-85149600D01*
X134134801Y-85149600D01*
X133983527Y-85179690D01*
X133879934Y-85222599D01*
X133933814Y-85186598D01*
X134042876Y-85077536D01*
X134128566Y-84949292D01*
X134187590Y-84806795D01*
X134217680Y-84655521D01*
X134217680Y-84501283D01*
X134187590Y-84350009D01*
X134128566Y-84207512D01*
X134042876Y-84079268D01*
X133933814Y-83970206D01*
X133805570Y-83884516D01*
X133663073Y-83825492D01*
X133511799Y-83795402D01*
X133357561Y-83795402D01*
X133206287Y-83825492D01*
X133063790Y-83884516D01*
X132935546Y-83970206D01*
X132826484Y-84079268D01*
X132740962Y-84207260D01*
X132626041Y-84207260D01*
X132474767Y-84237350D01*
X132332270Y-84296374D01*
X132204026Y-84382064D01*
X132094964Y-84491126D01*
X132009274Y-84619370D01*
X131950250Y-84761867D01*
X131920160Y-84913141D01*
X129684721Y-84913141D01*
X129683557Y-83310381D01*
X143009176Y-83310381D01*
X143009176Y-83464619D01*
X143039266Y-83615893D01*
X143098290Y-83758390D01*
X143183980Y-83886634D01*
X143293042Y-83995696D01*
X143421286Y-84081386D01*
X143563783Y-84140410D01*
X143715057Y-84170500D01*
X143869295Y-84170500D01*
X144020569Y-84140410D01*
X144163066Y-84081386D01*
X144281212Y-84002444D01*
X144361925Y-84083157D01*
X144490169Y-84168847D01*
X144632666Y-84227871D01*
X144783940Y-84257961D01*
X144938178Y-84257961D01*
X145089452Y-84227871D01*
X145226732Y-84171008D01*
X145169869Y-84308288D01*
X145139779Y-84459562D01*
X145139779Y-84613800D01*
X145169869Y-84765074D01*
X145228893Y-84907571D01*
X145314583Y-85035815D01*
X145423645Y-85144877D01*
X145551889Y-85230567D01*
X145694386Y-85289591D01*
X145845660Y-85319681D01*
X145999898Y-85319681D01*
X146151172Y-85289591D01*
X146293669Y-85230567D01*
X146421913Y-85144877D01*
X146530975Y-85035815D01*
X146616665Y-84907571D01*
X146675689Y-84765074D01*
X146705779Y-84613800D01*
X146705779Y-84459562D01*
X146675689Y-84308288D01*
X146616665Y-84165791D01*
X146530975Y-84037547D01*
X146421913Y-83928485D01*
X146293669Y-83842795D01*
X146151172Y-83783771D01*
X145999898Y-83753681D01*
X145845660Y-83753681D01*
X145694386Y-83783771D01*
X145557106Y-83840634D01*
X145613969Y-83703354D01*
X145644059Y-83552080D01*
X145644059Y-83397842D01*
X145613969Y-83246568D01*
X145554945Y-83104071D01*
X145469255Y-82975827D01*
X145360193Y-82866765D01*
X145231949Y-82781075D01*
X145089452Y-82722051D01*
X144938178Y-82691961D01*
X144783940Y-82691961D01*
X144771380Y-82694459D01*
X144771380Y-82595795D01*
X144835044Y-82595795D01*
X144986318Y-82565705D01*
X145128815Y-82506681D01*
X145257059Y-82420991D01*
X145282049Y-82396001D01*
X146553100Y-82396001D01*
X146553100Y-82550239D01*
X146583190Y-82701513D01*
X146642214Y-82844010D01*
X146727904Y-82972254D01*
X146836966Y-83081316D01*
X146965210Y-83167006D01*
X147107707Y-83226030D01*
X147258981Y-83256120D01*
X147413219Y-83256120D01*
X147564493Y-83226030D01*
X147706990Y-83167006D01*
X147835234Y-83081316D01*
X147944296Y-82972254D01*
X148029986Y-82844010D01*
X148089010Y-82701513D01*
X148119100Y-82550239D01*
X148119100Y-82396001D01*
X148089010Y-82244727D01*
X148029986Y-82102230D01*
X147944296Y-81973986D01*
X147835234Y-81864924D01*
X147706990Y-81779234D01*
X147564493Y-81720210D01*
X147413219Y-81690120D01*
X147258981Y-81690120D01*
X147107707Y-81720210D01*
X146965210Y-81779234D01*
X146836966Y-81864924D01*
X146727904Y-81973986D01*
X146642214Y-82102230D01*
X146583190Y-82244727D01*
X146553100Y-82396001D01*
X145282049Y-82396001D01*
X145366121Y-82311929D01*
X145451811Y-82183685D01*
X145510835Y-82041188D01*
X145540925Y-81889914D01*
X145540925Y-81735676D01*
X145510835Y-81584402D01*
X145460889Y-81463821D01*
X149103260Y-81463821D01*
X149103260Y-81618059D01*
X149133350Y-81769333D01*
X149192374Y-81911830D01*
X149278064Y-82040074D01*
X149387126Y-82149136D01*
X149515370Y-82234826D01*
X149657867Y-82293850D01*
X149809141Y-82323940D01*
X149963379Y-82323940D01*
X150114653Y-82293850D01*
X150257150Y-82234826D01*
X150385394Y-82149136D01*
X150494456Y-82040074D01*
X150580146Y-81911830D01*
X150639170Y-81769333D01*
X150655479Y-81687341D01*
X151132720Y-81687341D01*
X151132720Y-81841579D01*
X151162810Y-81992853D01*
X151216553Y-82122600D01*
X151162810Y-82252347D01*
X151132720Y-82403621D01*
X151132720Y-82557859D01*
X151162810Y-82709133D01*
X151221834Y-82851630D01*
X151307524Y-82979874D01*
X151416586Y-83088936D01*
X151544830Y-83174626D01*
X151687327Y-83233650D01*
X151838601Y-83263740D01*
X151992839Y-83263740D01*
X152144113Y-83233650D01*
X152257539Y-83186668D01*
X152378207Y-83236650D01*
X152529481Y-83266740D01*
X152683719Y-83266740D01*
X152834993Y-83236650D01*
X152956600Y-83186279D01*
X153078207Y-83236650D01*
X153229481Y-83266740D01*
X153383719Y-83266740D01*
X153534993Y-83236650D01*
X153656600Y-83186279D01*
X153778207Y-83236650D01*
X153929481Y-83266740D01*
X154083719Y-83266740D01*
X154234993Y-83236650D01*
X154377490Y-83177626D01*
X154505734Y-83091936D01*
X154614796Y-82982874D01*
X154628462Y-82962421D01*
X157909440Y-82962421D01*
X157909440Y-83116659D01*
X157939530Y-83267933D01*
X157998554Y-83410430D01*
X158084244Y-83538674D01*
X158193306Y-83647736D01*
X158321550Y-83733426D01*
X158464047Y-83792450D01*
X158615321Y-83822540D01*
X158769559Y-83822540D01*
X158920833Y-83792450D01*
X159063330Y-83733426D01*
X159191574Y-83647736D01*
X159300636Y-83538674D01*
X159386326Y-83410430D01*
X159445350Y-83267933D01*
X159475440Y-83116659D01*
X159475440Y-82962421D01*
X159445350Y-82811147D01*
X159386326Y-82668650D01*
X159300636Y-82540406D01*
X159191574Y-82431344D01*
X159063330Y-82345654D01*
X158920833Y-82286630D01*
X158769559Y-82256540D01*
X158615321Y-82256540D01*
X158464047Y-82286630D01*
X158321550Y-82345654D01*
X158193306Y-82431344D01*
X158084244Y-82540406D01*
X157998554Y-82668650D01*
X157939530Y-82811147D01*
X157909440Y-82962421D01*
X154628462Y-82962421D01*
X154700486Y-82854630D01*
X154759510Y-82712133D01*
X154789600Y-82560859D01*
X154789600Y-82406621D01*
X154759510Y-82255347D01*
X154709139Y-82133740D01*
X154759510Y-82012133D01*
X154789600Y-81860859D01*
X154789600Y-81706621D01*
X154759510Y-81555347D01*
X154709139Y-81433740D01*
X154759510Y-81312133D01*
X154789600Y-81160859D01*
X154789600Y-81006621D01*
X154759510Y-80855347D01*
X154700486Y-80712850D01*
X154614796Y-80584606D01*
X154505734Y-80475544D01*
X154377490Y-80389854D01*
X154234993Y-80330830D01*
X154083719Y-80300740D01*
X153929481Y-80300740D01*
X153778207Y-80330830D01*
X153656600Y-80381201D01*
X153534993Y-80330830D01*
X153383719Y-80300740D01*
X153229481Y-80300740D01*
X153078207Y-80330830D01*
X152956600Y-80381201D01*
X152834993Y-80330830D01*
X152683719Y-80300740D01*
X152529481Y-80300740D01*
X152378207Y-80330830D01*
X152235710Y-80389854D01*
X152107466Y-80475544D01*
X151998404Y-80584606D01*
X151912714Y-80712850D01*
X151853690Y-80855347D01*
X151828193Y-80983530D01*
X151687327Y-81011550D01*
X151544830Y-81070574D01*
X151416586Y-81156264D01*
X151307524Y-81265326D01*
X151221834Y-81393570D01*
X151162810Y-81536067D01*
X151132720Y-81687341D01*
X150655479Y-81687341D01*
X150669260Y-81618059D01*
X150669260Y-81463821D01*
X150639170Y-81312547D01*
X150580146Y-81170050D01*
X150494456Y-81041806D01*
X150385394Y-80932744D01*
X150257150Y-80847054D01*
X150114653Y-80788030D01*
X149963379Y-80757940D01*
X149809141Y-80757940D01*
X149657867Y-80788030D01*
X149515370Y-80847054D01*
X149387126Y-80932744D01*
X149278064Y-81041806D01*
X149192374Y-81170050D01*
X149133350Y-81312547D01*
X149103260Y-81463821D01*
X145460889Y-81463821D01*
X145451811Y-81441905D01*
X145366121Y-81313661D01*
X145257059Y-81204599D01*
X145128815Y-81118909D01*
X144986318Y-81059885D01*
X144835044Y-81029795D01*
X144680806Y-81029795D01*
X144529532Y-81059885D01*
X144387035Y-81118909D01*
X144258791Y-81204599D01*
X144149729Y-81313661D01*
X144064039Y-81441905D01*
X144005015Y-81584402D01*
X143974925Y-81735676D01*
X143974925Y-81850140D01*
X143911261Y-81850140D01*
X143759987Y-81880230D01*
X143617490Y-81939254D01*
X143489246Y-82024944D01*
X143380184Y-82134006D01*
X143294494Y-82262250D01*
X143235470Y-82404747D01*
X143205380Y-82556021D01*
X143205380Y-82710259D01*
X143231379Y-82840967D01*
X143183980Y-82888366D01*
X143098290Y-83016610D01*
X143039266Y-83159107D01*
X143009176Y-83310381D01*
X129683557Y-83310381D01*
X129682014Y-81187538D01*
X129759250Y-81239146D01*
X129901747Y-81298170D01*
X130053021Y-81328260D01*
X130207259Y-81328260D01*
X130358533Y-81298170D01*
X130501030Y-81239146D01*
X130629274Y-81153456D01*
X130738336Y-81044394D01*
X130824026Y-80916150D01*
X130857042Y-80836441D01*
X133215560Y-80836441D01*
X133215560Y-80990679D01*
X133245650Y-81141953D01*
X133304674Y-81284450D01*
X133390364Y-81412694D01*
X133433166Y-81455496D01*
X133408210Y-81515747D01*
X133378120Y-81667021D01*
X133378120Y-81821259D01*
X133408210Y-81972533D01*
X133467234Y-82115030D01*
X133552924Y-82243274D01*
X133661986Y-82352336D01*
X133790230Y-82438026D01*
X133932727Y-82497050D01*
X134084001Y-82527140D01*
X134238239Y-82527140D01*
X134389513Y-82497050D01*
X134532010Y-82438026D01*
X134660254Y-82352336D01*
X134769316Y-82243274D01*
X134855006Y-82115030D01*
X134914030Y-81972533D01*
X134944120Y-81821259D01*
X134944120Y-81667021D01*
X134914030Y-81515747D01*
X134855006Y-81373250D01*
X134769316Y-81245006D01*
X134726514Y-81202204D01*
X134751470Y-81141953D01*
X134781560Y-80990679D01*
X134781560Y-80836441D01*
X134773477Y-80795801D01*
X136113700Y-80795801D01*
X136113700Y-80950039D01*
X136143790Y-81101313D01*
X136202814Y-81243810D01*
X136288504Y-81372054D01*
X136397566Y-81481116D01*
X136525810Y-81566806D01*
X136668307Y-81625830D01*
X136819581Y-81655920D01*
X136973819Y-81655920D01*
X137125093Y-81625830D01*
X137267590Y-81566806D01*
X137395834Y-81481116D01*
X137504896Y-81372054D01*
X137590586Y-81243810D01*
X137649610Y-81101313D01*
X137679700Y-80950039D01*
X137679700Y-80795801D01*
X137649610Y-80644527D01*
X137590586Y-80502030D01*
X137504896Y-80373786D01*
X137395834Y-80264724D01*
X137267590Y-80179034D01*
X137125093Y-80120010D01*
X136973819Y-80089920D01*
X136819581Y-80089920D01*
X136668307Y-80120010D01*
X136525810Y-80179034D01*
X136397566Y-80264724D01*
X136288504Y-80373786D01*
X136202814Y-80502030D01*
X136143790Y-80644527D01*
X136113700Y-80795801D01*
X134773477Y-80795801D01*
X134751470Y-80685167D01*
X134692446Y-80542670D01*
X134606756Y-80414426D01*
X134497694Y-80305364D01*
X134369450Y-80219674D01*
X134226953Y-80160650D01*
X134075679Y-80130560D01*
X133921441Y-80130560D01*
X133770167Y-80160650D01*
X133627670Y-80219674D01*
X133499426Y-80305364D01*
X133390364Y-80414426D01*
X133304674Y-80542670D01*
X133245650Y-80685167D01*
X133215560Y-80836441D01*
X130857042Y-80836441D01*
X130883050Y-80773653D01*
X130913140Y-80622379D01*
X130913140Y-80468141D01*
X130883050Y-80316867D01*
X130824026Y-80174370D01*
X130738336Y-80046126D01*
X130629274Y-79937064D01*
X130501030Y-79851374D01*
X130358533Y-79792350D01*
X130207259Y-79762260D01*
X130053021Y-79762260D01*
X129901747Y-79792350D01*
X129759250Y-79851374D01*
X129681081Y-79903605D01*
X129680597Y-79236241D01*
X134488100Y-79236241D01*
X134488100Y-79390479D01*
X134518190Y-79541753D01*
X134577214Y-79684250D01*
X134662904Y-79812494D01*
X134771966Y-79921556D01*
X134900210Y-80007246D01*
X135042707Y-80066270D01*
X135193981Y-80096360D01*
X135348219Y-80096360D01*
X135499493Y-80066270D01*
X135641990Y-80007246D01*
X135770234Y-79921556D01*
X135879296Y-79812494D01*
X135964986Y-79684250D01*
X136024010Y-79541753D01*
X136054100Y-79390479D01*
X136054100Y-79236241D01*
X136024010Y-79084967D01*
X135964986Y-78942470D01*
X135879296Y-78814226D01*
X135770234Y-78705164D01*
X135641990Y-78619474D01*
X135623365Y-78611759D01*
X138596260Y-78611759D01*
X138596260Y-78770921D01*
X138627311Y-78927025D01*
X138688219Y-79074072D01*
X138776645Y-79206410D01*
X138811575Y-79241340D01*
X138776645Y-79276270D01*
X138688219Y-79408608D01*
X138627311Y-79555655D01*
X138596260Y-79711759D01*
X138596260Y-79870921D01*
X138627311Y-80027025D01*
X138688219Y-80174072D01*
X138776645Y-80306410D01*
X138889190Y-80418955D01*
X139021528Y-80507381D01*
X139168575Y-80568289D01*
X139324679Y-80599340D01*
X139483841Y-80599340D01*
X139639945Y-80568289D01*
X139786992Y-80507381D01*
X139919330Y-80418955D01*
X139954260Y-80384025D01*
X139989190Y-80418955D01*
X140121528Y-80507381D01*
X140268575Y-80568289D01*
X140424679Y-80599340D01*
X140583841Y-80599340D01*
X140739945Y-80568289D01*
X140886992Y-80507381D01*
X141019330Y-80418955D01*
X141131875Y-80306410D01*
X141220301Y-80174072D01*
X141281209Y-80027025D01*
X141312260Y-79870921D01*
X141312260Y-79711759D01*
X141281209Y-79555655D01*
X141220301Y-79408608D01*
X141131875Y-79276270D01*
X141096945Y-79241340D01*
X141131875Y-79206410D01*
X141220301Y-79074072D01*
X141281209Y-78927025D01*
X141286393Y-78900961D01*
X152257940Y-78900961D01*
X152257940Y-79055199D01*
X152288030Y-79206473D01*
X152347054Y-79348970D01*
X152432744Y-79477214D01*
X152541806Y-79586276D01*
X152670050Y-79671966D01*
X152812547Y-79730990D01*
X152963821Y-79761080D01*
X153118059Y-79761080D01*
X153269333Y-79730990D01*
X153411830Y-79671966D01*
X153540074Y-79586276D01*
X153649136Y-79477214D01*
X153734826Y-79348970D01*
X153793850Y-79206473D01*
X153823940Y-79055199D01*
X153823940Y-78900961D01*
X153793850Y-78749687D01*
X153734826Y-78607190D01*
X153649136Y-78478946D01*
X153540074Y-78369884D01*
X153411830Y-78284194D01*
X153269333Y-78225170D01*
X153118059Y-78195080D01*
X152963821Y-78195080D01*
X152812547Y-78225170D01*
X152670050Y-78284194D01*
X152541806Y-78369884D01*
X152432744Y-78478946D01*
X152347054Y-78607190D01*
X152288030Y-78749687D01*
X152257940Y-78900961D01*
X141286393Y-78900961D01*
X141312260Y-78770921D01*
X141312260Y-78611759D01*
X141281209Y-78455655D01*
X141220301Y-78308608D01*
X141131875Y-78176270D01*
X141019330Y-78063725D01*
X140886992Y-77975299D01*
X140739945Y-77914391D01*
X140583841Y-77883340D01*
X140424679Y-77883340D01*
X140268575Y-77914391D01*
X140121528Y-77975299D01*
X139989190Y-78063725D01*
X139954260Y-78098655D01*
X139919330Y-78063725D01*
X139786992Y-77975299D01*
X139639945Y-77914391D01*
X139483841Y-77883340D01*
X139324679Y-77883340D01*
X139168575Y-77914391D01*
X139021528Y-77975299D01*
X138889190Y-78063725D01*
X138776645Y-78176270D01*
X138688219Y-78308608D01*
X138627311Y-78455655D01*
X138596260Y-78611759D01*
X135623365Y-78611759D01*
X135499493Y-78560450D01*
X135348219Y-78530360D01*
X135193981Y-78530360D01*
X135042707Y-78560450D01*
X134900210Y-78619474D01*
X134771966Y-78705164D01*
X134662904Y-78814226D01*
X134577214Y-78942470D01*
X134518190Y-79084967D01*
X134488100Y-79236241D01*
X129680597Y-79236241D01*
X129678978Y-77008661D01*
X131920160Y-77008661D01*
X131920160Y-77162899D01*
X131950250Y-77314173D01*
X132009274Y-77456670D01*
X132094964Y-77584914D01*
X132204026Y-77693976D01*
X132332270Y-77779666D01*
X132474767Y-77838690D01*
X132626041Y-77868780D01*
X132780279Y-77868780D01*
X132931553Y-77838690D01*
X133074050Y-77779666D01*
X133202294Y-77693976D01*
X133311356Y-77584914D01*
X133397046Y-77456670D01*
X133456070Y-77314173D01*
X133486160Y-77162899D01*
X133486160Y-77008661D01*
X133456070Y-76857387D01*
X133397046Y-76714890D01*
X133311356Y-76586646D01*
X133306726Y-76582016D01*
X133335413Y-76576310D01*
X133477910Y-76517286D01*
X133606154Y-76431596D01*
X133715216Y-76322534D01*
X133800906Y-76194290D01*
X133859930Y-76051793D01*
X133890020Y-75900519D01*
X133890020Y-75746281D01*
X133859930Y-75595007D01*
X133800906Y-75452510D01*
X133715216Y-75324266D01*
X133606154Y-75215204D01*
X133477910Y-75129514D01*
X133335413Y-75070490D01*
X133184139Y-75040400D01*
X133029901Y-75040400D01*
X132878627Y-75070490D01*
X132736130Y-75129514D01*
X132607886Y-75215204D01*
X132498824Y-75324266D01*
X132413134Y-75452510D01*
X132354110Y-75595007D01*
X132324020Y-75746281D01*
X132324020Y-75900519D01*
X132354110Y-76051793D01*
X132413134Y-76194290D01*
X132498824Y-76322534D01*
X132503454Y-76327164D01*
X132474767Y-76332870D01*
X132332270Y-76391894D01*
X132204026Y-76477584D01*
X132094964Y-76586646D01*
X132009274Y-76714890D01*
X131950250Y-76857387D01*
X131920160Y-77008661D01*
X129678978Y-77008661D01*
X129678700Y-76626024D01*
X129759250Y-76679846D01*
X129901747Y-76738870D01*
X130053021Y-76768960D01*
X130207259Y-76768960D01*
X130358533Y-76738870D01*
X130501030Y-76679846D01*
X130629274Y-76594156D01*
X130738336Y-76485094D01*
X130824026Y-76356850D01*
X130883050Y-76214353D01*
X130913140Y-76063079D01*
X130913140Y-75908841D01*
X130883050Y-75757567D01*
X130824026Y-75615070D01*
X130738336Y-75486826D01*
X130629274Y-75377764D01*
X130501030Y-75292074D01*
X130358533Y-75233050D01*
X130207259Y-75202960D01*
X130053021Y-75202960D01*
X129901747Y-75233050D01*
X129759250Y-75292074D01*
X129677771Y-75346517D01*
X129676931Y-74189261D01*
X132605960Y-74189261D01*
X132605960Y-74343499D01*
X132636050Y-74494773D01*
X132695074Y-74637270D01*
X132780764Y-74765514D01*
X132889826Y-74874576D01*
X133018070Y-74960266D01*
X133160567Y-75019290D01*
X133311841Y-75049380D01*
X133466079Y-75049380D01*
X133617353Y-75019290D01*
X133759850Y-74960266D01*
X133888094Y-74874576D01*
X133997156Y-74765514D01*
X134082846Y-74637270D01*
X134141870Y-74494773D01*
X134171960Y-74343499D01*
X134171960Y-74189261D01*
X134141870Y-74037987D01*
X134082846Y-73895490D01*
X133997156Y-73767246D01*
X133888094Y-73658184D01*
X133759850Y-73572494D01*
X133642247Y-73523781D01*
X134754800Y-73523781D01*
X134754800Y-73678019D01*
X134784890Y-73829293D01*
X134843914Y-73971790D01*
X134929604Y-74100034D01*
X135038666Y-74209096D01*
X135166910Y-74294786D01*
X135309407Y-74353810D01*
X135460681Y-74383900D01*
X135614919Y-74383900D01*
X135766193Y-74353810D01*
X135908690Y-74294786D01*
X136036934Y-74209096D01*
X136102950Y-74143080D01*
X136189286Y-74229416D01*
X136317530Y-74315106D01*
X136460027Y-74374130D01*
X136611301Y-74404220D01*
X136765539Y-74404220D01*
X136916813Y-74374130D01*
X136983831Y-74346370D01*
X136956980Y-74481361D01*
X136956980Y-74611775D01*
X136829366Y-74697044D01*
X136720304Y-74806106D01*
X136634614Y-74934350D01*
X136575590Y-75076847D01*
X136545500Y-75228121D01*
X136545500Y-75382359D01*
X136575590Y-75533633D01*
X136634614Y-75676130D01*
X136720304Y-75804374D01*
X136828544Y-75912614D01*
X136688130Y-75940544D01*
X136545633Y-75999568D01*
X136417389Y-76085258D01*
X136308327Y-76194320D01*
X136222637Y-76322564D01*
X136163613Y-76465061D01*
X136133523Y-76616335D01*
X136133523Y-76770573D01*
X136163613Y-76921847D01*
X136222637Y-77064344D01*
X136308327Y-77192588D01*
X136417389Y-77301650D01*
X136545633Y-77387340D01*
X136688130Y-77446364D01*
X136839404Y-77476454D01*
X136993642Y-77476454D01*
X137144916Y-77446364D01*
X137287413Y-77387340D01*
X137415657Y-77301650D01*
X137524719Y-77192588D01*
X137610409Y-77064344D01*
X137669433Y-76921847D01*
X137699523Y-76770573D01*
X137699523Y-76724181D01*
X140022760Y-76724181D01*
X140022760Y-76878419D01*
X140052850Y-77029693D01*
X140111874Y-77172190D01*
X140197564Y-77300434D01*
X140306626Y-77409496D01*
X140434870Y-77495186D01*
X140577367Y-77554210D01*
X140728641Y-77584300D01*
X140882879Y-77584300D01*
X141034153Y-77554210D01*
X141176650Y-77495186D01*
X141304894Y-77409496D01*
X141413956Y-77300434D01*
X141499646Y-77172190D01*
X141558670Y-77029693D01*
X141588760Y-76878419D01*
X141588760Y-76724181D01*
X141558670Y-76572907D01*
X141511912Y-76460021D01*
X141790600Y-76460021D01*
X141790600Y-76614259D01*
X141820690Y-76765533D01*
X141879714Y-76908030D01*
X141965404Y-77036274D01*
X142074466Y-77145336D01*
X142202710Y-77231026D01*
X142345207Y-77290050D01*
X142496481Y-77320140D01*
X142650719Y-77320140D01*
X142801993Y-77290050D01*
X142944490Y-77231026D01*
X143072734Y-77145336D01*
X143181796Y-77036274D01*
X143267486Y-76908030D01*
X143326510Y-76765533D01*
X143356600Y-76614259D01*
X143356600Y-76460021D01*
X143326510Y-76308747D01*
X143267486Y-76166250D01*
X143181796Y-76038006D01*
X143072734Y-75928944D01*
X142944490Y-75843254D01*
X142857547Y-75807241D01*
X144389040Y-75807241D01*
X144389040Y-75961479D01*
X144419130Y-76112753D01*
X144478154Y-76255250D01*
X144563844Y-76383494D01*
X144672906Y-76492556D01*
X144801150Y-76578246D01*
X144943647Y-76637270D01*
X145094921Y-76667360D01*
X145249159Y-76667360D01*
X145400433Y-76637270D01*
X145423631Y-76627661D01*
X147995820Y-76627661D01*
X147995820Y-76781899D01*
X148025910Y-76933173D01*
X148084934Y-77075670D01*
X148170624Y-77203914D01*
X148279686Y-77312976D01*
X148407930Y-77398666D01*
X148550427Y-77457690D01*
X148701701Y-77487780D01*
X148855939Y-77487780D01*
X149007213Y-77457690D01*
X149149710Y-77398666D01*
X149277954Y-77312976D01*
X149387016Y-77203914D01*
X149472706Y-77075670D01*
X149531730Y-76933173D01*
X149561820Y-76781899D01*
X149561820Y-76627661D01*
X149531730Y-76476387D01*
X149472706Y-76333890D01*
X149387016Y-76205646D01*
X149277954Y-76096584D01*
X149149710Y-76010894D01*
X149007213Y-75951870D01*
X148855939Y-75921780D01*
X148701701Y-75921780D01*
X148550427Y-75951870D01*
X148407930Y-76010894D01*
X148279686Y-76096584D01*
X148170624Y-76205646D01*
X148084934Y-76333890D01*
X148025910Y-76476387D01*
X147995820Y-76627661D01*
X145423631Y-76627661D01*
X145542930Y-76578246D01*
X145671174Y-76492556D01*
X145780236Y-76383494D01*
X145865926Y-76255250D01*
X145924950Y-76112753D01*
X145955040Y-75961479D01*
X145955040Y-75807241D01*
X145924950Y-75655967D01*
X145865926Y-75513470D01*
X145780236Y-75385226D01*
X145671174Y-75276164D01*
X145542930Y-75190474D01*
X145400433Y-75131450D01*
X145249159Y-75101360D01*
X145094921Y-75101360D01*
X144943647Y-75131450D01*
X144801150Y-75190474D01*
X144672906Y-75276164D01*
X144563844Y-75385226D01*
X144478154Y-75513470D01*
X144419130Y-75655967D01*
X144389040Y-75807241D01*
X142857547Y-75807241D01*
X142801993Y-75784230D01*
X142650719Y-75754140D01*
X142496481Y-75754140D01*
X142345207Y-75784230D01*
X142202710Y-75843254D01*
X142074466Y-75928944D01*
X141965404Y-76038006D01*
X141879714Y-76166250D01*
X141820690Y-76308747D01*
X141790600Y-76460021D01*
X141511912Y-76460021D01*
X141499646Y-76430410D01*
X141413956Y-76302166D01*
X141304894Y-76193104D01*
X141176650Y-76107414D01*
X141034153Y-76048390D01*
X140882879Y-76018300D01*
X140728641Y-76018300D01*
X140577367Y-76048390D01*
X140434870Y-76107414D01*
X140306626Y-76193104D01*
X140197564Y-76302166D01*
X140111874Y-76430410D01*
X140052850Y-76572907D01*
X140022760Y-76724181D01*
X137699523Y-76724181D01*
X137699523Y-76616335D01*
X137669433Y-76465061D01*
X137610409Y-76322564D01*
X137524719Y-76194320D01*
X137416479Y-76086080D01*
X137556893Y-76058150D01*
X137699390Y-75999126D01*
X137827634Y-75913436D01*
X137936696Y-75804374D01*
X138022386Y-75676130D01*
X138081410Y-75533633D01*
X138111500Y-75382359D01*
X138111500Y-75251945D01*
X138239114Y-75166676D01*
X138348176Y-75057614D01*
X138433866Y-74929370D01*
X138492890Y-74786873D01*
X138522980Y-74635599D01*
X138522980Y-74481361D01*
X138492890Y-74330087D01*
X138433866Y-74187590D01*
X138348176Y-74059346D01*
X138239114Y-73950284D01*
X138110870Y-73864594D01*
X137968373Y-73805570D01*
X137817099Y-73775480D01*
X137662861Y-73775480D01*
X137511587Y-73805570D01*
X137444569Y-73833330D01*
X137471420Y-73698339D01*
X137471420Y-73650801D01*
X158432680Y-73650801D01*
X158432680Y-73805039D01*
X158462770Y-73956313D01*
X158521794Y-74098810D01*
X158607484Y-74227054D01*
X158716546Y-74336116D01*
X158844790Y-74421806D01*
X158987287Y-74480830D01*
X159138561Y-74510920D01*
X159292799Y-74510920D01*
X159444073Y-74480830D01*
X159586570Y-74421806D01*
X159714814Y-74336116D01*
X159823876Y-74227054D01*
X159909566Y-74098810D01*
X159968590Y-73956313D01*
X159998680Y-73805039D01*
X159998680Y-73650801D01*
X159968590Y-73499527D01*
X159909566Y-73357030D01*
X159823876Y-73228786D01*
X159714814Y-73119724D01*
X159586570Y-73034034D01*
X159444073Y-72975010D01*
X159292799Y-72944920D01*
X159138561Y-72944920D01*
X158987287Y-72975010D01*
X158844790Y-73034034D01*
X158716546Y-73119724D01*
X158607484Y-73228786D01*
X158521794Y-73357030D01*
X158462770Y-73499527D01*
X158432680Y-73650801D01*
X137471420Y-73650801D01*
X137471420Y-73544101D01*
X137441330Y-73392827D01*
X137382306Y-73250330D01*
X137296616Y-73122086D01*
X137187554Y-73013024D01*
X137059310Y-72927334D01*
X136916813Y-72868310D01*
X136765539Y-72838220D01*
X136611301Y-72838220D01*
X136460027Y-72868310D01*
X136317530Y-72927334D01*
X136189286Y-73013024D01*
X136123270Y-73079040D01*
X136036934Y-72992704D01*
X135908690Y-72907014D01*
X135766193Y-72847990D01*
X135614919Y-72817900D01*
X135460681Y-72817900D01*
X135309407Y-72847990D01*
X135166910Y-72907014D01*
X135038666Y-72992704D01*
X134929604Y-73101766D01*
X134843914Y-73230010D01*
X134784890Y-73372507D01*
X134754800Y-73523781D01*
X133642247Y-73523781D01*
X133617353Y-73513470D01*
X133466079Y-73483380D01*
X133311841Y-73483380D01*
X133160567Y-73513470D01*
X133018070Y-73572494D01*
X132889826Y-73658184D01*
X132780764Y-73767246D01*
X132695074Y-73895490D01*
X132636050Y-74037987D01*
X132605960Y-74189261D01*
X129676931Y-74189261D01*
X129675426Y-72116621D01*
X137843440Y-72116621D01*
X137843440Y-72270859D01*
X137873530Y-72422133D01*
X137932554Y-72564630D01*
X138018244Y-72692874D01*
X138127306Y-72801936D01*
X138255550Y-72887626D01*
X138398047Y-72946650D01*
X138549321Y-72976740D01*
X138703559Y-72976740D01*
X138854833Y-72946650D01*
X138997330Y-72887626D01*
X139125574Y-72801936D01*
X139234636Y-72692874D01*
X139320326Y-72564630D01*
X139379350Y-72422133D01*
X139409440Y-72270859D01*
X139409440Y-72124241D01*
X140330100Y-72124241D01*
X140330100Y-72278479D01*
X140360190Y-72429753D01*
X140419214Y-72572250D01*
X140504904Y-72700494D01*
X140613966Y-72809556D01*
X140742210Y-72895246D01*
X140884707Y-72954270D01*
X141035981Y-72984360D01*
X141190219Y-72984360D01*
X141341493Y-72954270D01*
X141483990Y-72895246D01*
X141612234Y-72809556D01*
X141650310Y-72771480D01*
X141739186Y-72860356D01*
X141867430Y-72946046D01*
X142009927Y-73005070D01*
X142161201Y-73035160D01*
X142315439Y-73035160D01*
X142466713Y-73005070D01*
X142609210Y-72946046D01*
X142737454Y-72860356D01*
X142846516Y-72751294D01*
X142862300Y-72727672D01*
X142889964Y-72769074D01*
X142999026Y-72878136D01*
X143127270Y-72963826D01*
X143269767Y-73022850D01*
X143421041Y-73052940D01*
X143575279Y-73052940D01*
X143726553Y-73022850D01*
X143869050Y-72963826D01*
X143997294Y-72878136D01*
X144106356Y-72769074D01*
X144192046Y-72640830D01*
X144248208Y-72505241D01*
X144358540Y-72505241D01*
X144358540Y-72659479D01*
X144388630Y-72810753D01*
X144447654Y-72953250D01*
X144533344Y-73081494D01*
X144642406Y-73190556D01*
X144770650Y-73276246D01*
X144913147Y-73335270D01*
X145064421Y-73365360D01*
X145218659Y-73365360D01*
X145369933Y-73335270D01*
X145512430Y-73276246D01*
X145640674Y-73190556D01*
X145749736Y-73081494D01*
X145835426Y-72953250D01*
X145894450Y-72810753D01*
X145924540Y-72659479D01*
X145924540Y-72558581D01*
X146824880Y-72558581D01*
X146824880Y-72712819D01*
X146854970Y-72864093D01*
X146913994Y-73006590D01*
X146999684Y-73134834D01*
X147108746Y-73243896D01*
X147236990Y-73329586D01*
X147379487Y-73388610D01*
X147530761Y-73418700D01*
X147684999Y-73418700D01*
X147836273Y-73388610D01*
X147978770Y-73329586D01*
X148009808Y-73308847D01*
X148128787Y-73358130D01*
X148280061Y-73388220D01*
X148434299Y-73388220D01*
X148585573Y-73358130D01*
X148728070Y-73299106D01*
X148856314Y-73213416D01*
X148965376Y-73104354D01*
X149051066Y-72976110D01*
X149110090Y-72833613D01*
X149126800Y-72749605D01*
X149143510Y-72833613D01*
X149202534Y-72976110D01*
X149288224Y-73104354D01*
X149397286Y-73213416D01*
X149525530Y-73299106D01*
X149668027Y-73358130D01*
X149819301Y-73388220D01*
X149973539Y-73388220D01*
X150124813Y-73358130D01*
X150267310Y-73299106D01*
X150395554Y-73213416D01*
X150504616Y-73104354D01*
X150590306Y-72976110D01*
X150649330Y-72833613D01*
X150679420Y-72682339D01*
X150679420Y-72573821D01*
X151861700Y-72573821D01*
X151861700Y-72728059D01*
X151891790Y-72879333D01*
X151950814Y-73021830D01*
X152036504Y-73150074D01*
X152145566Y-73259136D01*
X152273810Y-73344826D01*
X152416307Y-73403850D01*
X152567581Y-73433940D01*
X152721819Y-73433940D01*
X152873093Y-73403850D01*
X153015590Y-73344826D01*
X153143834Y-73259136D01*
X153252896Y-73150074D01*
X153338586Y-73021830D01*
X153397610Y-72879333D01*
X153427700Y-72728059D01*
X153427700Y-72573821D01*
X153397610Y-72422547D01*
X153338586Y-72280050D01*
X153252896Y-72151806D01*
X153143834Y-72042744D01*
X153015590Y-71957054D01*
X152873093Y-71898030D01*
X152721819Y-71867940D01*
X152567581Y-71867940D01*
X152416307Y-71898030D01*
X152273810Y-71957054D01*
X152145566Y-72042744D01*
X152036504Y-72151806D01*
X151950814Y-72280050D01*
X151891790Y-72422547D01*
X151861700Y-72573821D01*
X150679420Y-72573821D01*
X150679420Y-72528101D01*
X150649330Y-72376827D01*
X150590306Y-72234330D01*
X150504616Y-72106086D01*
X150395554Y-71997024D01*
X150267310Y-71911334D01*
X150124813Y-71852310D01*
X149973539Y-71822220D01*
X149819301Y-71822220D01*
X149668027Y-71852310D01*
X149525530Y-71911334D01*
X149397286Y-71997024D01*
X149288224Y-72106086D01*
X149202534Y-72234330D01*
X149143510Y-72376827D01*
X149126800Y-72460835D01*
X149110090Y-72376827D01*
X149051066Y-72234330D01*
X148965376Y-72106086D01*
X148856314Y-71997024D01*
X148728070Y-71911334D01*
X148585573Y-71852310D01*
X148434299Y-71822220D01*
X148280061Y-71822220D01*
X148128787Y-71852310D01*
X147986290Y-71911334D01*
X147955252Y-71932073D01*
X147836273Y-71882790D01*
X147684999Y-71852700D01*
X147530761Y-71852700D01*
X147379487Y-71882790D01*
X147236990Y-71941814D01*
X147108746Y-72027504D01*
X146999684Y-72136566D01*
X146913994Y-72264810D01*
X146854970Y-72407307D01*
X146824880Y-72558581D01*
X145924540Y-72558581D01*
X145924540Y-72505241D01*
X145894450Y-72353967D01*
X145835426Y-72211470D01*
X145749736Y-72083226D01*
X145640674Y-71974164D01*
X145512430Y-71888474D01*
X145369933Y-71829450D01*
X145218659Y-71799360D01*
X145064421Y-71799360D01*
X144913147Y-71829450D01*
X144770650Y-71888474D01*
X144642406Y-71974164D01*
X144533344Y-72083226D01*
X144447654Y-72211470D01*
X144388630Y-72353967D01*
X144358540Y-72505241D01*
X144248208Y-72505241D01*
X144251070Y-72498333D01*
X144281160Y-72347059D01*
X144281160Y-72192821D01*
X144251070Y-72041547D01*
X144192046Y-71899050D01*
X144106356Y-71770806D01*
X143997294Y-71661744D01*
X143869050Y-71576054D01*
X143726553Y-71517030D01*
X143575279Y-71486940D01*
X143421041Y-71486940D01*
X143269767Y-71517030D01*
X143127270Y-71576054D01*
X142999026Y-71661744D01*
X142889964Y-71770806D01*
X142874180Y-71794428D01*
X142846516Y-71753026D01*
X142737454Y-71643964D01*
X142609210Y-71558274D01*
X142466713Y-71499250D01*
X142315439Y-71469160D01*
X142161201Y-71469160D01*
X142009927Y-71499250D01*
X141867430Y-71558274D01*
X141739186Y-71643964D01*
X141701110Y-71682040D01*
X141612234Y-71593164D01*
X141483990Y-71507474D01*
X141341493Y-71448450D01*
X141190219Y-71418360D01*
X141035981Y-71418360D01*
X140884707Y-71448450D01*
X140742210Y-71507474D01*
X140613966Y-71593164D01*
X140504904Y-71702226D01*
X140419214Y-71830470D01*
X140360190Y-71972967D01*
X140330100Y-72124241D01*
X139409440Y-72124241D01*
X139409440Y-72116621D01*
X139379350Y-71965347D01*
X139320326Y-71822850D01*
X139234636Y-71694606D01*
X139125574Y-71585544D01*
X138997330Y-71499854D01*
X138854833Y-71440830D01*
X138703559Y-71410740D01*
X138549321Y-71410740D01*
X138398047Y-71440830D01*
X138255550Y-71499854D01*
X138127306Y-71585544D01*
X138018244Y-71694606D01*
X137932554Y-71822850D01*
X137873530Y-71965347D01*
X137843440Y-72116621D01*
X129675426Y-72116621D01*
X129674849Y-71321601D01*
X145483760Y-71321601D01*
X145483760Y-71475839D01*
X145513850Y-71627113D01*
X145572874Y-71769610D01*
X145658564Y-71897854D01*
X145767626Y-72006916D01*
X145895870Y-72092606D01*
X146038367Y-72151630D01*
X146189641Y-72181720D01*
X146343879Y-72181720D01*
X146495153Y-72151630D01*
X146637650Y-72092606D01*
X146765894Y-72006916D01*
X146874956Y-71897854D01*
X146960646Y-71769610D01*
X147019670Y-71627113D01*
X147049760Y-71475839D01*
X147049760Y-71321601D01*
X147019670Y-71170327D01*
X146960646Y-71027830D01*
X146874956Y-70899586D01*
X146765894Y-70790524D01*
X146637650Y-70704834D01*
X146581368Y-70681521D01*
X152357000Y-70681521D01*
X152357000Y-70835759D01*
X152387090Y-70987033D01*
X152446114Y-71129530D01*
X152531804Y-71257774D01*
X152640866Y-71366836D01*
X152769110Y-71452526D01*
X152911607Y-71511550D01*
X153062881Y-71541640D01*
X153217119Y-71541640D01*
X153368393Y-71511550D01*
X153510890Y-71452526D01*
X153639134Y-71366836D01*
X153748196Y-71257774D01*
X153833886Y-71129530D01*
X153892910Y-70987033D01*
X153923000Y-70835759D01*
X153923000Y-70681521D01*
X153892910Y-70530247D01*
X153833886Y-70387750D01*
X153748196Y-70259506D01*
X153639134Y-70150444D01*
X153510890Y-70064754D01*
X153368393Y-70005730D01*
X153217119Y-69975640D01*
X153062881Y-69975640D01*
X152911607Y-70005730D01*
X152769110Y-70064754D01*
X152640866Y-70150444D01*
X152531804Y-70259506D01*
X152446114Y-70387750D01*
X152387090Y-70530247D01*
X152357000Y-70681521D01*
X146581368Y-70681521D01*
X146495153Y-70645810D01*
X146343879Y-70615720D01*
X146189641Y-70615720D01*
X146038367Y-70645810D01*
X145895870Y-70704834D01*
X145767626Y-70790524D01*
X145658564Y-70899586D01*
X145572874Y-71027830D01*
X145513850Y-71170327D01*
X145483760Y-71321601D01*
X129674849Y-71321601D01*
X129674198Y-70427521D01*
X130040560Y-70427521D01*
X130040560Y-70581759D01*
X130070650Y-70733033D01*
X130129674Y-70875530D01*
X130215364Y-71003774D01*
X130324426Y-71112836D01*
X130452670Y-71198526D01*
X130595167Y-71257550D01*
X130746441Y-71287640D01*
X130900679Y-71287640D01*
X131051953Y-71257550D01*
X131194450Y-71198526D01*
X131322694Y-71112836D01*
X131431756Y-71003774D01*
X131517446Y-70875530D01*
X131576470Y-70733033D01*
X131606560Y-70581759D01*
X131606560Y-70427521D01*
X131576470Y-70276247D01*
X131517446Y-70133750D01*
X131489711Y-70092241D01*
X133149520Y-70092241D01*
X133149520Y-70246479D01*
X133179610Y-70397753D01*
X133238634Y-70540250D01*
X133324324Y-70668494D01*
X133433386Y-70777556D01*
X133561630Y-70863246D01*
X133704127Y-70922270D01*
X133855401Y-70952360D01*
X134009639Y-70952360D01*
X134160913Y-70922270D01*
X134303410Y-70863246D01*
X134431654Y-70777556D01*
X134540716Y-70668494D01*
X134626406Y-70540250D01*
X134685430Y-70397753D01*
X134715520Y-70246479D01*
X134715520Y-70092241D01*
X134685430Y-69940967D01*
X134626406Y-69798470D01*
X134540716Y-69670226D01*
X134431654Y-69561164D01*
X134303410Y-69475474D01*
X134160913Y-69416450D01*
X134009639Y-69386360D01*
X133855401Y-69386360D01*
X133704127Y-69416450D01*
X133561630Y-69475474D01*
X133433386Y-69561164D01*
X133324324Y-69670226D01*
X133238634Y-69798470D01*
X133179610Y-69940967D01*
X133149520Y-70092241D01*
X131489711Y-70092241D01*
X131431756Y-70005506D01*
X131322694Y-69896444D01*
X131194450Y-69810754D01*
X131051953Y-69751730D01*
X130900679Y-69721640D01*
X130746441Y-69721640D01*
X130595167Y-69751730D01*
X130452670Y-69810754D01*
X130324426Y-69896444D01*
X130215364Y-70005506D01*
X130129674Y-70133750D01*
X130070650Y-70276247D01*
X130040560Y-70427521D01*
X129674198Y-70427521D01*
X129671762Y-67075640D01*
X139484960Y-67075640D01*
X139484960Y-68015440D01*
%TD*%
M02*
