%TF.GenerationSoftware,KiCad,Pcbnew,(5.1.6)-1*%
%TF.CreationDate,2020-07-04T15:59:08+08:00*%
%TF.ProjectId,24RF_Remote_Control,32345246-5f52-4656-9d6f-74655f436f6e,rev?*%
%TF.SameCoordinates,Original*%
%TF.FileFunction,Legend,Bot*%
%TF.FilePolarity,Positive*%
%FSLAX46Y46*%
G04 Gerber Fmt 4.6, Leading zero omitted, Abs format (unit mm)*
G04 Created by KiCad (PCBNEW (5.1.6)-1) date 2020-07-04 15:59:08*
%MOMM*%
%LPD*%
G01*
G04 APERTURE LIST*
%ADD10C,0.010000*%
%ADD11C,0.120000*%
%ADD12C,0.152400*%
%ADD13C,0.150000*%
G04 APERTURE END LIST*
D10*
%TO.C,REF\u002A\u002A*%
G36*
X139806506Y-92967458D02*
G01*
X139773981Y-92980036D01*
X139724407Y-93005012D01*
X139653226Y-93044176D01*
X139647684Y-93047288D01*
X139582126Y-93084776D01*
X139526802Y-93117619D01*
X139487145Y-93142505D01*
X139468588Y-93156120D01*
X139468069Y-93156787D01*
X139472552Y-93175690D01*
X139493114Y-93217905D01*
X139528417Y-93281132D01*
X139577120Y-93363072D01*
X139637882Y-93461422D01*
X139709364Y-93573885D01*
X139727155Y-93601465D01*
X139773507Y-93677999D01*
X139807258Y-93743856D01*
X139825447Y-93793082D01*
X139827314Y-93802807D01*
X139826485Y-93845612D01*
X139817206Y-93913509D01*
X139800632Y-94002143D01*
X139777920Y-94107159D01*
X139750227Y-94224202D01*
X139718710Y-94348916D01*
X139684525Y-94476945D01*
X139648829Y-94603934D01*
X139612779Y-94725528D01*
X139577532Y-94837372D01*
X139544244Y-94935110D01*
X139514072Y-95014387D01*
X139493039Y-95061422D01*
X139468263Y-95111525D01*
X139444870Y-95159468D01*
X139443603Y-95162093D01*
X139404901Y-95210520D01*
X139348416Y-95243128D01*
X139282661Y-95258754D01*
X139216149Y-95256237D01*
X139157395Y-95234414D01*
X139124342Y-95205682D01*
X139076741Y-95126883D01*
X139041861Y-95028678D01*
X139022723Y-94921079D01*
X139020012Y-94860080D01*
X139030930Y-94746235D01*
X139062976Y-94651960D01*
X139117874Y-94572679D01*
X139134993Y-94555033D01*
X139185939Y-94505535D01*
X139189437Y-94155662D01*
X139192936Y-93805789D01*
X139103782Y-93670831D01*
X139061946Y-93609745D01*
X139021655Y-93554793D01*
X138988657Y-93513636D01*
X138974474Y-93498492D01*
X138934319Y-93461110D01*
X138879935Y-93490398D01*
X138845561Y-93511384D01*
X138826754Y-93527678D01*
X138825551Y-93530607D01*
X138812697Y-93543028D01*
X138790704Y-93552277D01*
X138769450Y-93560613D01*
X138736906Y-93576449D01*
X138690278Y-93601333D01*
X138626771Y-93636809D01*
X138543592Y-93684423D01*
X138437947Y-93745722D01*
X138380538Y-93779232D01*
X138313006Y-93819371D01*
X138268715Y-93847959D01*
X138243745Y-93868339D01*
X138234177Y-93883853D01*
X138236092Y-93897846D01*
X138237689Y-93901096D01*
X138253224Y-93921566D01*
X138286464Y-93959965D01*
X138333538Y-94011996D01*
X138390572Y-94073366D01*
X138439900Y-94125390D01*
X138553570Y-94248867D01*
X138642495Y-94355891D01*
X138707466Y-94447540D01*
X138749279Y-94524888D01*
X138763383Y-94564166D01*
X138769208Y-94598549D01*
X138775225Y-94657199D01*
X138780904Y-94733417D01*
X138785716Y-94820502D01*
X138787981Y-94875568D01*
X138791141Y-94970764D01*
X138792531Y-95040362D01*
X138791742Y-95089709D01*
X138788365Y-95124154D01*
X138781992Y-95149043D01*
X138772213Y-95169725D01*
X138764533Y-95182353D01*
X138720179Y-95231026D01*
X138663026Y-95264945D01*
X138602892Y-95279738D01*
X138557827Y-95274386D01*
X138517024Y-95251230D01*
X138465876Y-95209762D01*
X138411558Y-95157212D01*
X138361243Y-95100816D01*
X138322106Y-95047805D01*
X138307695Y-95022189D01*
X138286109Y-94987114D01*
X138246847Y-94933689D01*
X138193498Y-94866089D01*
X138129648Y-94788490D01*
X138058885Y-94705068D01*
X137984796Y-94619998D01*
X137910968Y-94537455D01*
X137840989Y-94461616D01*
X137778445Y-94396656D01*
X137729340Y-94348969D01*
X137674821Y-94301332D01*
X137628958Y-94266208D01*
X137596789Y-94247249D01*
X137586111Y-94245164D01*
X137569747Y-94253574D01*
X137528929Y-94276146D01*
X137466014Y-94311524D01*
X137383356Y-94358354D01*
X137283311Y-94415281D01*
X137168234Y-94480949D01*
X137040481Y-94554003D01*
X136902406Y-94633088D01*
X136756366Y-94716848D01*
X136604716Y-94803929D01*
X136449810Y-94892976D01*
X136294005Y-94982632D01*
X136139656Y-95071543D01*
X135989118Y-95158354D01*
X135844746Y-95241709D01*
X135708896Y-95320254D01*
X135583923Y-95392633D01*
X135472183Y-95457490D01*
X135376030Y-95513471D01*
X135297821Y-95559220D01*
X135239911Y-95593383D01*
X135204654Y-95614604D01*
X135194435Y-95621263D01*
X135208198Y-95622580D01*
X135251496Y-95623859D01*
X135322886Y-95625096D01*
X135420927Y-95626283D01*
X135544178Y-95627415D01*
X135691197Y-95628486D01*
X135860543Y-95629489D01*
X136050774Y-95630419D01*
X136260449Y-95631268D01*
X136488127Y-95632032D01*
X136732365Y-95632703D01*
X136991723Y-95633276D01*
X137264759Y-95633744D01*
X137550032Y-95634102D01*
X137846100Y-95634342D01*
X138151521Y-95634459D01*
X138279676Y-95634471D01*
X141379630Y-95634471D01*
X141158547Y-95251147D01*
X141111744Y-95169980D01*
X141051498Y-95065466D01*
X140979822Y-94941101D01*
X140898731Y-94800382D01*
X140810238Y-94646803D01*
X140716360Y-94483862D01*
X140619109Y-94315054D01*
X140520500Y-94143875D01*
X140422547Y-93973821D01*
X140397775Y-93930812D01*
X140307448Y-93774157D01*
X140221311Y-93625103D01*
X140140658Y-93485868D01*
X140066784Y-93358671D01*
X140000983Y-93245732D01*
X139944550Y-93149268D01*
X139898779Y-93071500D01*
X139864965Y-93014646D01*
X139844402Y-92980925D01*
X139838647Y-92972340D01*
X139826542Y-92965489D01*
X139806506Y-92967458D01*
G37*
X139806506Y-92967458D02*
X139773981Y-92980036D01*
X139724407Y-93005012D01*
X139653226Y-93044176D01*
X139647684Y-93047288D01*
X139582126Y-93084776D01*
X139526802Y-93117619D01*
X139487145Y-93142505D01*
X139468588Y-93156120D01*
X139468069Y-93156787D01*
X139472552Y-93175690D01*
X139493114Y-93217905D01*
X139528417Y-93281132D01*
X139577120Y-93363072D01*
X139637882Y-93461422D01*
X139709364Y-93573885D01*
X139727155Y-93601465D01*
X139773507Y-93677999D01*
X139807258Y-93743856D01*
X139825447Y-93793082D01*
X139827314Y-93802807D01*
X139826485Y-93845612D01*
X139817206Y-93913509D01*
X139800632Y-94002143D01*
X139777920Y-94107159D01*
X139750227Y-94224202D01*
X139718710Y-94348916D01*
X139684525Y-94476945D01*
X139648829Y-94603934D01*
X139612779Y-94725528D01*
X139577532Y-94837372D01*
X139544244Y-94935110D01*
X139514072Y-95014387D01*
X139493039Y-95061422D01*
X139468263Y-95111525D01*
X139444870Y-95159468D01*
X139443603Y-95162093D01*
X139404901Y-95210520D01*
X139348416Y-95243128D01*
X139282661Y-95258754D01*
X139216149Y-95256237D01*
X139157395Y-95234414D01*
X139124342Y-95205682D01*
X139076741Y-95126883D01*
X139041861Y-95028678D01*
X139022723Y-94921079D01*
X139020012Y-94860080D01*
X139030930Y-94746235D01*
X139062976Y-94651960D01*
X139117874Y-94572679D01*
X139134993Y-94555033D01*
X139185939Y-94505535D01*
X139189437Y-94155662D01*
X139192936Y-93805789D01*
X139103782Y-93670831D01*
X139061946Y-93609745D01*
X139021655Y-93554793D01*
X138988657Y-93513636D01*
X138974474Y-93498492D01*
X138934319Y-93461110D01*
X138879935Y-93490398D01*
X138845561Y-93511384D01*
X138826754Y-93527678D01*
X138825551Y-93530607D01*
X138812697Y-93543028D01*
X138790704Y-93552277D01*
X138769450Y-93560613D01*
X138736906Y-93576449D01*
X138690278Y-93601333D01*
X138626771Y-93636809D01*
X138543592Y-93684423D01*
X138437947Y-93745722D01*
X138380538Y-93779232D01*
X138313006Y-93819371D01*
X138268715Y-93847959D01*
X138243745Y-93868339D01*
X138234177Y-93883853D01*
X138236092Y-93897846D01*
X138237689Y-93901096D01*
X138253224Y-93921566D01*
X138286464Y-93959965D01*
X138333538Y-94011996D01*
X138390572Y-94073366D01*
X138439900Y-94125390D01*
X138553570Y-94248867D01*
X138642495Y-94355891D01*
X138707466Y-94447540D01*
X138749279Y-94524888D01*
X138763383Y-94564166D01*
X138769208Y-94598549D01*
X138775225Y-94657199D01*
X138780904Y-94733417D01*
X138785716Y-94820502D01*
X138787981Y-94875568D01*
X138791141Y-94970764D01*
X138792531Y-95040362D01*
X138791742Y-95089709D01*
X138788365Y-95124154D01*
X138781992Y-95149043D01*
X138772213Y-95169725D01*
X138764533Y-95182353D01*
X138720179Y-95231026D01*
X138663026Y-95264945D01*
X138602892Y-95279738D01*
X138557827Y-95274386D01*
X138517024Y-95251230D01*
X138465876Y-95209762D01*
X138411558Y-95157212D01*
X138361243Y-95100816D01*
X138322106Y-95047805D01*
X138307695Y-95022189D01*
X138286109Y-94987114D01*
X138246847Y-94933689D01*
X138193498Y-94866089D01*
X138129648Y-94788490D01*
X138058885Y-94705068D01*
X137984796Y-94619998D01*
X137910968Y-94537455D01*
X137840989Y-94461616D01*
X137778445Y-94396656D01*
X137729340Y-94348969D01*
X137674821Y-94301332D01*
X137628958Y-94266208D01*
X137596789Y-94247249D01*
X137586111Y-94245164D01*
X137569747Y-94253574D01*
X137528929Y-94276146D01*
X137466014Y-94311524D01*
X137383356Y-94358354D01*
X137283311Y-94415281D01*
X137168234Y-94480949D01*
X137040481Y-94554003D01*
X136902406Y-94633088D01*
X136756366Y-94716848D01*
X136604716Y-94803929D01*
X136449810Y-94892976D01*
X136294005Y-94982632D01*
X136139656Y-95071543D01*
X135989118Y-95158354D01*
X135844746Y-95241709D01*
X135708896Y-95320254D01*
X135583923Y-95392633D01*
X135472183Y-95457490D01*
X135376030Y-95513471D01*
X135297821Y-95559220D01*
X135239911Y-95593383D01*
X135204654Y-95614604D01*
X135194435Y-95621263D01*
X135208198Y-95622580D01*
X135251496Y-95623859D01*
X135322886Y-95625096D01*
X135420927Y-95626283D01*
X135544178Y-95627415D01*
X135691197Y-95628486D01*
X135860543Y-95629489D01*
X136050774Y-95630419D01*
X136260449Y-95631268D01*
X136488127Y-95632032D01*
X136732365Y-95632703D01*
X136991723Y-95633276D01*
X137264759Y-95633744D01*
X137550032Y-95634102D01*
X137846100Y-95634342D01*
X138151521Y-95634459D01*
X138279676Y-95634471D01*
X141379630Y-95634471D01*
X141158547Y-95251147D01*
X141111744Y-95169980D01*
X141051498Y-95065466D01*
X140979822Y-94941101D01*
X140898731Y-94800382D01*
X140810238Y-94646803D01*
X140716360Y-94483862D01*
X140619109Y-94315054D01*
X140520500Y-94143875D01*
X140422547Y-93973821D01*
X140397775Y-93930812D01*
X140307448Y-93774157D01*
X140221311Y-93625103D01*
X140140658Y-93485868D01*
X140066784Y-93358671D01*
X140000983Y-93245732D01*
X139944550Y-93149268D01*
X139898779Y-93071500D01*
X139864965Y-93014646D01*
X139844402Y-92980925D01*
X139838647Y-92972340D01*
X139826542Y-92965489D01*
X139806506Y-92967458D01*
G36*
X136141072Y-92910919D02*
G01*
X136129692Y-92929993D01*
X136104112Y-92973721D01*
X136065598Y-93039919D01*
X136015414Y-93126402D01*
X135954825Y-93230985D01*
X135885097Y-93351483D01*
X135807493Y-93485712D01*
X135723280Y-93631487D01*
X135633721Y-93786623D01*
X135541602Y-93946300D01*
X135447524Y-94109417D01*
X135357198Y-94266009D01*
X135271935Y-94413806D01*
X135193043Y-94550540D01*
X135121831Y-94673942D01*
X135059609Y-94781744D01*
X135007687Y-94871677D01*
X134967372Y-94941473D01*
X134939976Y-94988864D01*
X134927093Y-95011086D01*
X134906093Y-95048630D01*
X134894675Y-95072131D01*
X134894049Y-95076220D01*
X134907964Y-95068542D01*
X134946659Y-95046503D01*
X135008113Y-95011271D01*
X135090302Y-94964011D01*
X135191204Y-94905889D01*
X135308795Y-94838071D01*
X135441054Y-94761724D01*
X135585958Y-94678014D01*
X135741483Y-94588106D01*
X135905608Y-94493167D01*
X135968051Y-94457032D01*
X136135113Y-94360383D01*
X136294526Y-94268238D01*
X136444245Y-94181775D01*
X136582224Y-94102171D01*
X136706415Y-94030605D01*
X136814773Y-93968255D01*
X136905252Y-93916298D01*
X136975804Y-93875913D01*
X137024385Y-93848278D01*
X137048946Y-93834572D01*
X137051515Y-93833274D01*
X137044031Y-93821520D01*
X137017986Y-93790095D01*
X136976041Y-93741894D01*
X136920854Y-93679810D01*
X136855083Y-93606739D01*
X136781388Y-93525576D01*
X136702427Y-93439216D01*
X136620860Y-93350553D01*
X136539346Y-93262482D01*
X136460543Y-93177899D01*
X136387110Y-93099697D01*
X136321707Y-93030772D01*
X136266992Y-92974019D01*
X136225623Y-92932332D01*
X136211436Y-92918663D01*
X136164420Y-92874501D01*
X136141072Y-92910919D01*
G37*
X136141072Y-92910919D02*
X136129692Y-92929993D01*
X136104112Y-92973721D01*
X136065598Y-93039919D01*
X136015414Y-93126402D01*
X135954825Y-93230985D01*
X135885097Y-93351483D01*
X135807493Y-93485712D01*
X135723280Y-93631487D01*
X135633721Y-93786623D01*
X135541602Y-93946300D01*
X135447524Y-94109417D01*
X135357198Y-94266009D01*
X135271935Y-94413806D01*
X135193043Y-94550540D01*
X135121831Y-94673942D01*
X135059609Y-94781744D01*
X135007687Y-94871677D01*
X134967372Y-94941473D01*
X134939976Y-94988864D01*
X134927093Y-95011086D01*
X134906093Y-95048630D01*
X134894675Y-95072131D01*
X134894049Y-95076220D01*
X134907964Y-95068542D01*
X134946659Y-95046503D01*
X135008113Y-95011271D01*
X135090302Y-94964011D01*
X135191204Y-94905889D01*
X135308795Y-94838071D01*
X135441054Y-94761724D01*
X135585958Y-94678014D01*
X135741483Y-94588106D01*
X135905608Y-94493167D01*
X135968051Y-94457032D01*
X136135113Y-94360383D01*
X136294526Y-94268238D01*
X136444245Y-94181775D01*
X136582224Y-94102171D01*
X136706415Y-94030605D01*
X136814773Y-93968255D01*
X136905252Y-93916298D01*
X136975804Y-93875913D01*
X137024385Y-93848278D01*
X137048946Y-93834572D01*
X137051515Y-93833274D01*
X137044031Y-93821520D01*
X137017986Y-93790095D01*
X136976041Y-93741894D01*
X136920854Y-93679810D01*
X136855083Y-93606739D01*
X136781388Y-93525576D01*
X136702427Y-93439216D01*
X136620860Y-93350553D01*
X136539346Y-93262482D01*
X136460543Y-93177899D01*
X136387110Y-93099697D01*
X136321707Y-93030772D01*
X136266992Y-92974019D01*
X136225623Y-92932332D01*
X136211436Y-92918663D01*
X136164420Y-92874501D01*
X136141072Y-92910919D01*
G36*
X137964557Y-89762135D02*
G01*
X137941535Y-89799545D01*
X137906066Y-89858814D01*
X137859604Y-89937418D01*
X137803604Y-90032838D01*
X137739519Y-90142550D01*
X137668804Y-90264034D01*
X137592913Y-90394768D01*
X137513301Y-90532230D01*
X137431422Y-90673898D01*
X137348730Y-90817251D01*
X137266679Y-90959767D01*
X137186724Y-91098924D01*
X137110319Y-91232201D01*
X137038918Y-91357076D01*
X136973976Y-91471027D01*
X136916947Y-91571533D01*
X136869285Y-91656072D01*
X136832445Y-91722122D01*
X136807880Y-91767162D01*
X136797046Y-91788670D01*
X136796649Y-91790014D01*
X136810099Y-91808265D01*
X136847486Y-91836182D01*
X136904365Y-91871025D01*
X136976288Y-91910054D01*
X137051585Y-91947143D01*
X137154040Y-91992117D01*
X137261783Y-92032526D01*
X137378527Y-92069269D01*
X137507982Y-92103242D01*
X137653860Y-92135344D01*
X137819874Y-92166473D01*
X138009734Y-92197527D01*
X138206131Y-92226445D01*
X138376766Y-92252100D01*
X138520055Y-92277498D01*
X138639592Y-92303902D01*
X138738970Y-92332573D01*
X138821782Y-92364773D01*
X138891622Y-92401765D01*
X138952082Y-92444812D01*
X139006755Y-92495175D01*
X139024386Y-92513883D01*
X139062600Y-92557439D01*
X139090868Y-92592982D01*
X139103982Y-92613883D01*
X139104332Y-92615597D01*
X139108920Y-92626106D01*
X139124842Y-92626224D01*
X139155334Y-92614554D01*
X139203632Y-92589696D01*
X139272973Y-92550252D01*
X139321161Y-92521887D01*
X139393017Y-92477547D01*
X139448858Y-92439579D01*
X139484933Y-92410716D01*
X139497487Y-92393688D01*
X139497479Y-92393564D01*
X139489694Y-92377337D01*
X139467708Y-92336700D01*
X139432797Y-92273867D01*
X139386237Y-92191052D01*
X139329305Y-92090472D01*
X139263277Y-91974340D01*
X139189428Y-91844871D01*
X139109036Y-91704280D01*
X139023376Y-91554782D01*
X138933724Y-91398592D01*
X138841357Y-91237924D01*
X138747551Y-91074993D01*
X138653582Y-90912013D01*
X138560726Y-90751200D01*
X138470260Y-90594768D01*
X138383459Y-90444933D01*
X138301600Y-90303908D01*
X138225959Y-90173909D01*
X138157813Y-90057149D01*
X138098437Y-89955845D01*
X138049107Y-89872211D01*
X138011100Y-89808462D01*
X137985693Y-89766811D01*
X137974160Y-89749475D01*
X137973677Y-89749105D01*
X137964557Y-89762135D01*
G37*
X137964557Y-89762135D02*
X137941535Y-89799545D01*
X137906066Y-89858814D01*
X137859604Y-89937418D01*
X137803604Y-90032838D01*
X137739519Y-90142550D01*
X137668804Y-90264034D01*
X137592913Y-90394768D01*
X137513301Y-90532230D01*
X137431422Y-90673898D01*
X137348730Y-90817251D01*
X137266679Y-90959767D01*
X137186724Y-91098924D01*
X137110319Y-91232201D01*
X137038918Y-91357076D01*
X136973976Y-91471027D01*
X136916947Y-91571533D01*
X136869285Y-91656072D01*
X136832445Y-91722122D01*
X136807880Y-91767162D01*
X136797046Y-91788670D01*
X136796649Y-91790014D01*
X136810099Y-91808265D01*
X136847486Y-91836182D01*
X136904365Y-91871025D01*
X136976288Y-91910054D01*
X137051585Y-91947143D01*
X137154040Y-91992117D01*
X137261783Y-92032526D01*
X137378527Y-92069269D01*
X137507982Y-92103242D01*
X137653860Y-92135344D01*
X137819874Y-92166473D01*
X138009734Y-92197527D01*
X138206131Y-92226445D01*
X138376766Y-92252100D01*
X138520055Y-92277498D01*
X138639592Y-92303902D01*
X138738970Y-92332573D01*
X138821782Y-92364773D01*
X138891622Y-92401765D01*
X138952082Y-92444812D01*
X139006755Y-92495175D01*
X139024386Y-92513883D01*
X139062600Y-92557439D01*
X139090868Y-92592982D01*
X139103982Y-92613883D01*
X139104332Y-92615597D01*
X139108920Y-92626106D01*
X139124842Y-92626224D01*
X139155334Y-92614554D01*
X139203632Y-92589696D01*
X139272973Y-92550252D01*
X139321161Y-92521887D01*
X139393017Y-92477547D01*
X139448858Y-92439579D01*
X139484933Y-92410716D01*
X139497487Y-92393688D01*
X139497479Y-92393564D01*
X139489694Y-92377337D01*
X139467708Y-92336700D01*
X139432797Y-92273867D01*
X139386237Y-92191052D01*
X139329305Y-92090472D01*
X139263277Y-91974340D01*
X139189428Y-91844871D01*
X139109036Y-91704280D01*
X139023376Y-91554782D01*
X138933724Y-91398592D01*
X138841357Y-91237924D01*
X138747551Y-91074993D01*
X138653582Y-90912013D01*
X138560726Y-90751200D01*
X138470260Y-90594768D01*
X138383459Y-90444933D01*
X138301600Y-90303908D01*
X138225959Y-90173909D01*
X138157813Y-90057149D01*
X138098437Y-89955845D01*
X138049107Y-89872211D01*
X138011100Y-89808462D01*
X137985693Y-89766811D01*
X137974160Y-89749475D01*
X137973677Y-89749105D01*
X137964557Y-89762135D01*
D11*
%TO.C,U4*%
X144506200Y-85544200D02*
X144031200Y-85544200D01*
X144031200Y-85544200D02*
X144031200Y-86019200D01*
X150776200Y-92764200D02*
X151251200Y-92764200D01*
X151251200Y-92764200D02*
X151251200Y-92289200D01*
X144506200Y-92764200D02*
X144031200Y-92764200D01*
X144031200Y-92764200D02*
X144031200Y-92289200D01*
X150776200Y-85544200D02*
X151251200Y-85544200D01*
D12*
%TO.C,U7*%
X155713020Y-84568620D02*
X155713020Y-76212020D01*
X155713020Y-76212020D02*
X156459780Y-76212020D01*
X162063020Y-76212020D02*
X162063020Y-84568620D01*
X162063020Y-84568620D02*
X161316260Y-84568620D01*
X160269780Y-84568620D02*
X160046260Y-84568620D01*
X158999780Y-84568620D02*
X158776260Y-84568620D01*
X157729780Y-84568620D02*
X157506260Y-84568620D01*
X156459780Y-84568620D02*
X155713020Y-84568620D01*
X157506260Y-76212020D02*
X157729780Y-76212020D01*
X158776260Y-76212020D02*
X158999780Y-76212020D01*
X160046260Y-76212020D02*
X160269780Y-76212020D01*
X161316260Y-76212020D02*
X162063020Y-76212020D01*
X162037620Y-85013120D02*
G75*
G03*
X162037620Y-85013120I-76200J0D01*
G01*
D11*
%TO.C,J4*%
X138208000Y-73489040D02*
X136718000Y-73489040D01*
X136718000Y-73489040D02*
X136718000Y-72149040D01*
X153528000Y-73489040D02*
X155018000Y-73489040D01*
X155018000Y-73489040D02*
X155018000Y-72149040D01*
X136718000Y-69429040D02*
X136718000Y-67689040D01*
X136718000Y-67689040D02*
X155018000Y-67689040D01*
X155018000Y-67689040D02*
X155018000Y-69429040D01*
X138208000Y-73489040D02*
X138208000Y-74689040D01*
%TO.C,C7*%
X154189239Y-97393620D02*
X153863681Y-97393620D01*
X154189239Y-98413620D02*
X153863681Y-98413620D01*
%TO.C,C8*%
X157561921Y-98406000D02*
X157887479Y-98406000D01*
X157561921Y-97386000D02*
X157887479Y-97386000D01*
%TO.C,C9*%
X157676621Y-104647680D02*
X158002179Y-104647680D01*
X157676621Y-105667680D02*
X158002179Y-105667680D01*
%TO.C,C10*%
X160165719Y-74321160D02*
X159840161Y-74321160D01*
X160165719Y-75341160D02*
X159840161Y-75341160D01*
%TO.C,C11*%
X160543560Y-101264259D02*
X160543560Y-100938701D01*
X159523560Y-101264259D02*
X159523560Y-100938701D01*
%TO.C,C12*%
X148989700Y-76571821D02*
X148989700Y-76897379D01*
X150009700Y-76571821D02*
X150009700Y-76897379D01*
%TO.C,C13*%
X150503160Y-76897379D02*
X150503160Y-76571821D01*
X151523160Y-76897379D02*
X151523160Y-76571821D01*
%TO.C,C14*%
X148495860Y-76571821D02*
X148495860Y-76897379D01*
X147475860Y-76571821D02*
X147475860Y-76897379D01*
%TO.C,C15*%
X139619640Y-76564201D02*
X139619640Y-76889759D01*
X140639640Y-76564201D02*
X140639640Y-76889759D01*
%TO.C,C16*%
X139123260Y-76564201D02*
X139123260Y-76889759D01*
X138103260Y-76564201D02*
X138103260Y-76889759D01*
%TO.C,C17*%
X130148180Y-102231720D02*
X130148180Y-98021720D01*
X130148180Y-98021720D02*
X133168180Y-98021720D01*
X133168180Y-98021720D02*
X133168180Y-102231720D01*
%TO.C,C18*%
X153512840Y-76895499D02*
X153512840Y-76569941D01*
X152492840Y-76895499D02*
X152492840Y-76569941D01*
%TO.C,C24*%
X156339860Y-92218881D02*
X156339860Y-92544439D01*
X155319860Y-92218881D02*
X155319860Y-92544439D01*
%TO.C,C27*%
X153659519Y-85130500D02*
X153333961Y-85130500D01*
X153659519Y-86150500D02*
X153333961Y-86150500D01*
%TO.C,C29*%
X143760320Y-95069199D02*
X143760320Y-94743641D01*
X144780320Y-95069199D02*
X144780320Y-94743641D01*
%TO.C,C31*%
X142042940Y-85468381D02*
X142042940Y-85793939D01*
X143062940Y-85468381D02*
X143062940Y-85793939D01*
%TO.C,C32*%
X151214140Y-83082501D02*
X151214140Y-83408059D01*
X150194140Y-83082501D02*
X150194140Y-83408059D01*
%TO.C,C33*%
X153669679Y-91112600D02*
X153344121Y-91112600D01*
X153669679Y-92132600D02*
X153344121Y-92132600D01*
%TO.C,J1*%
X133039020Y-77093400D02*
X133039020Y-77473400D01*
X128989020Y-77093400D02*
X128729020Y-77093400D01*
X133039020Y-77093400D02*
X131269020Y-77093400D01*
X133039020Y-84713400D02*
X133039020Y-84333400D01*
X131269020Y-84713400D02*
X133039020Y-84713400D01*
X128729020Y-84713400D02*
X128989020Y-84713400D01*
%TO.C,J2*%
X130720060Y-67880160D02*
X131870060Y-67880160D01*
X131870060Y-67880160D02*
X131870060Y-68930160D01*
X131870060Y-68930160D02*
X132860060Y-68930160D01*
X130720060Y-75100160D02*
X131870060Y-75100160D01*
X131870060Y-75100160D02*
X131870060Y-74050160D01*
X128750060Y-69050160D02*
X128750060Y-73930160D01*
%TO.C,J3*%
X136438460Y-97597240D02*
X136438460Y-98167240D01*
X136438460Y-99687240D02*
X136438460Y-100257240D01*
X136438460Y-97597240D02*
X145388460Y-97597240D01*
X145388460Y-97597240D02*
X145388460Y-98619710D01*
X145388460Y-99234770D02*
X145388460Y-100257240D01*
X136438460Y-100257240D02*
X145388460Y-100257240D01*
X135043460Y-100257240D02*
X135803460Y-100257240D01*
X135043460Y-98927240D02*
X135043460Y-100257240D01*
X133448880Y-98924700D02*
X133448880Y-116924700D01*
X147004880Y-116924700D02*
X133448880Y-116924700D01*
X147004880Y-98924700D02*
X147004880Y-116924700D01*
X134329336Y-114225921D02*
G75*
G03*
X136006661Y-116145899I1725584J-185159D01*
G01*
X134826384Y-114271373D02*
G75*
G03*
X136034601Y-115648059I1223456J-144787D01*
G01*
X135369765Y-114288472D02*
G75*
G03*
X136060000Y-115112120I690235J-122608D01*
G01*
X136002551Y-114319041D02*
G75*
G03*
X136006661Y-114317101I44749J-89499D01*
G01*
%TO.C,R8*%
X135816481Y-82771160D02*
X136142039Y-82771160D01*
X135816481Y-83791160D02*
X136142039Y-83791160D01*
%TO.C,R9*%
X136142039Y-85316160D02*
X135816481Y-85316160D01*
X136142039Y-84296160D02*
X135816481Y-84296160D01*
%TO.C,R10*%
X136142039Y-85821160D02*
X135816481Y-85821160D01*
X136142039Y-86841160D02*
X135816481Y-86841160D01*
%TO.C,R11*%
X156073160Y-106072479D02*
X156073160Y-105746921D01*
X155053160Y-106072479D02*
X155053160Y-105746921D01*
%TO.C,R12*%
X156826080Y-92544439D02*
X156826080Y-92218881D01*
X157846080Y-92544439D02*
X157846080Y-92218881D01*
%TO.C,R13*%
X153180100Y-101972481D02*
X153180100Y-102298039D01*
X152160100Y-101972481D02*
X152160100Y-102298039D01*
%TO.C,R14*%
X148891020Y-83418939D02*
X148891020Y-83093381D01*
X147871020Y-83418939D02*
X147871020Y-83093381D01*
%TO.C,R19*%
X142155560Y-76564201D02*
X142155560Y-76889759D01*
X141135560Y-76564201D02*
X141135560Y-76889759D01*
%TO.C,S1*%
X131351960Y-87700840D02*
X131351960Y-86300840D01*
X131351960Y-86300840D02*
X127551960Y-86300840D01*
X127551960Y-95500840D02*
X131351960Y-95500840D01*
X131351960Y-95500840D02*
X131351960Y-94100840D01*
X131351960Y-89100840D02*
X131351960Y-90200840D01*
X131351960Y-90200840D02*
X131351960Y-90200840D01*
X131351960Y-91600840D02*
X131351960Y-92700840D01*
X131351960Y-92700840D02*
X131351960Y-92700840D01*
X127551960Y-86300840D02*
X127551960Y-88000840D01*
X127551960Y-88000840D02*
X127251960Y-88000840D01*
X127251960Y-88000840D02*
X127251960Y-88800840D01*
X127251960Y-88800840D02*
X127551960Y-88800840D01*
X127551960Y-88800840D02*
X127551960Y-90500840D01*
X127551960Y-90500840D02*
X127251960Y-90500840D01*
X127251960Y-90500840D02*
X127251960Y-91300840D01*
X127251960Y-91300840D02*
X127551960Y-91300840D01*
X127551960Y-91300840D02*
X127551960Y-93000840D01*
X127551960Y-93000840D02*
X127251960Y-93000840D01*
X127251960Y-93000840D02*
X127251960Y-93800840D01*
X127251960Y-93800840D02*
X127551960Y-93800840D01*
X127551960Y-93800840D02*
X127551960Y-95500840D01*
X127551960Y-95500840D02*
X127551960Y-95500840D01*
X125651960Y-92900840D02*
X126151960Y-92900840D01*
X126151960Y-92900840D02*
X126151960Y-92900840D01*
X125651960Y-92900840D02*
X125651960Y-92400840D01*
X125651960Y-92400840D02*
X125651960Y-92400840D01*
X125651960Y-88900840D02*
X125651960Y-89400840D01*
X125651960Y-89400840D02*
X125651960Y-89400840D01*
X125651960Y-88900840D02*
X126151960Y-88900840D01*
X126151960Y-88900840D02*
X126151960Y-88900840D01*
X126451960Y-88900840D02*
X126951960Y-88900840D01*
X126951960Y-88900840D02*
X126951960Y-88900840D01*
X126451960Y-92900840D02*
X126951960Y-92900840D01*
X126951960Y-92900840D02*
X126951960Y-92900840D01*
X125651960Y-92100840D02*
X125651960Y-91600840D01*
X125651960Y-91600840D02*
X125651960Y-91600840D01*
X125651960Y-89700840D02*
X125651960Y-90200840D01*
X125651960Y-90200840D02*
X125651960Y-90200840D01*
X125651960Y-90500840D02*
X125651960Y-91300840D01*
X125651960Y-91300840D02*
X125651960Y-91300840D01*
%TO.C,U5*%
X157943800Y-103676980D02*
X158418800Y-103676980D01*
X158418800Y-103676980D02*
X158418800Y-103201980D01*
X154673800Y-99456980D02*
X154198800Y-99456980D01*
X154198800Y-99456980D02*
X154198800Y-99931980D01*
X157943800Y-99456980D02*
X158418800Y-99456980D01*
X158418800Y-99456980D02*
X158418800Y-99931980D01*
X154673800Y-103676980D02*
X154198800Y-103676980D01*
%TO.C,Y2*%
X154451740Y-90380520D02*
X154451740Y-89580520D01*
X152051740Y-90380520D02*
X154051740Y-90380520D01*
X152051740Y-89580520D02*
X152051740Y-90380520D01*
X152051740Y-86780520D02*
X152051740Y-87780520D01*
X154051740Y-86780520D02*
X152051740Y-86780520D01*
X154451740Y-87780520D02*
X154451740Y-86780520D01*
X154451740Y-87780520D02*
X154851740Y-87780520D01*
X152051740Y-86580520D02*
X154051740Y-86580520D01*
X154051740Y-90380520D02*
X154451740Y-90380520D01*
X154051740Y-86780520D02*
X154451740Y-86780520D01*
X154051740Y-86580520D02*
X154451740Y-86580520D01*
D12*
%TO.C,U3*%
X134725780Y-80181340D02*
X136283780Y-80181340D01*
X136283780Y-82189340D02*
X134725780Y-82189340D01*
%TO.C,U4*%
D13*
X151501604Y-93434240D02*
X151501604Y-94243764D01*
X151453985Y-94339002D01*
X151406366Y-94386621D01*
X151311128Y-94434240D01*
X151120652Y-94434240D01*
X151025414Y-94386621D01*
X150977795Y-94339002D01*
X150930176Y-94243764D01*
X150930176Y-93434240D01*
X150025414Y-93767574D02*
X150025414Y-94434240D01*
X150263509Y-93386621D02*
X150501604Y-94100907D01*
X149882557Y-94100907D01*
%TO.C,U7*%
D11*
X155689844Y-74471636D02*
X156337463Y-74471636D01*
X156413654Y-74509731D01*
X156451749Y-74547826D01*
X156489844Y-74624017D01*
X156489844Y-74776398D01*
X156451749Y-74852588D01*
X156413654Y-74890683D01*
X156337463Y-74928779D01*
X155689844Y-74928779D01*
X155689844Y-75233540D02*
X155689844Y-75766874D01*
X156489844Y-75424017D01*
%TO.C,J4*%
X137193846Y-74003544D02*
X137193846Y-74574973D01*
X137231941Y-74689259D01*
X137308132Y-74765449D01*
X137422418Y-74803544D01*
X137498608Y-74803544D01*
X136470037Y-74270211D02*
X136470037Y-74803544D01*
X136660513Y-73965449D02*
X136850989Y-74536878D01*
X136355751Y-74536878D01*
%TO.C,C7*%
X154137373Y-97006754D02*
X154175468Y-97044849D01*
X154289754Y-97082944D01*
X154365944Y-97082944D01*
X154480230Y-97044849D01*
X154556420Y-96968659D01*
X154594516Y-96892468D01*
X154632611Y-96740087D01*
X154632611Y-96625801D01*
X154594516Y-96473420D01*
X154556420Y-96397230D01*
X154480230Y-96321040D01*
X154365944Y-96282944D01*
X154289754Y-96282944D01*
X154175468Y-96321040D01*
X154137373Y-96359135D01*
X153870706Y-96282944D02*
X153337373Y-96282944D01*
X153680230Y-97082944D01*
%TO.C,C8*%
X160057673Y-98255374D02*
X160095768Y-98293469D01*
X160210054Y-98331564D01*
X160286244Y-98331564D01*
X160400530Y-98293469D01*
X160476720Y-98217279D01*
X160514816Y-98141088D01*
X160552911Y-97988707D01*
X160552911Y-97874421D01*
X160514816Y-97722040D01*
X160476720Y-97645850D01*
X160400530Y-97569660D01*
X160286244Y-97531564D01*
X160210054Y-97531564D01*
X160095768Y-97569660D01*
X160057673Y-97607755D01*
X159600530Y-97874421D02*
X159676720Y-97836326D01*
X159714816Y-97798231D01*
X159752911Y-97722040D01*
X159752911Y-97683945D01*
X159714816Y-97607755D01*
X159676720Y-97569660D01*
X159600530Y-97531564D01*
X159448149Y-97531564D01*
X159371959Y-97569660D01*
X159333863Y-97607755D01*
X159295768Y-97683945D01*
X159295768Y-97722040D01*
X159333863Y-97798231D01*
X159371959Y-97836326D01*
X159448149Y-97874421D01*
X159600530Y-97874421D01*
X159676720Y-97912517D01*
X159714816Y-97950612D01*
X159752911Y-98026802D01*
X159752911Y-98179183D01*
X159714816Y-98255374D01*
X159676720Y-98293469D01*
X159600530Y-98331564D01*
X159448149Y-98331564D01*
X159371959Y-98293469D01*
X159333863Y-98255374D01*
X159295768Y-98179183D01*
X159295768Y-98026802D01*
X159333863Y-97950612D01*
X159371959Y-97912517D01*
X159448149Y-97874421D01*
%TO.C,C9*%
X158061273Y-106716874D02*
X158099368Y-106754969D01*
X158213654Y-106793064D01*
X158289844Y-106793064D01*
X158404130Y-106754969D01*
X158480320Y-106678779D01*
X158518416Y-106602588D01*
X158556511Y-106450207D01*
X158556511Y-106335921D01*
X158518416Y-106183540D01*
X158480320Y-106107350D01*
X158404130Y-106031160D01*
X158289844Y-105993064D01*
X158213654Y-105993064D01*
X158099368Y-106031160D01*
X158061273Y-106069255D01*
X157680320Y-106793064D02*
X157527940Y-106793064D01*
X157451749Y-106754969D01*
X157413654Y-106716874D01*
X157337463Y-106602588D01*
X157299368Y-106450207D01*
X157299368Y-106145445D01*
X157337463Y-106069255D01*
X157375559Y-106031160D01*
X157451749Y-105993064D01*
X157604130Y-105993064D01*
X157680320Y-106031160D01*
X157718416Y-106069255D01*
X157756511Y-106145445D01*
X157756511Y-106335921D01*
X157718416Y-106412112D01*
X157680320Y-106450207D01*
X157604130Y-106488302D01*
X157451749Y-106488302D01*
X157375559Y-106450207D01*
X157337463Y-106412112D01*
X157299368Y-106335921D01*
%TO.C,C10*%
X160527385Y-73928154D02*
X160565480Y-73966249D01*
X160679766Y-74004344D01*
X160755957Y-74004344D01*
X160870242Y-73966249D01*
X160946433Y-73890059D01*
X160984528Y-73813868D01*
X161022623Y-73661487D01*
X161022623Y-73547201D01*
X160984528Y-73394820D01*
X160946433Y-73318630D01*
X160870242Y-73242440D01*
X160755957Y-73204344D01*
X160679766Y-73204344D01*
X160565480Y-73242440D01*
X160527385Y-73280535D01*
X159765480Y-74004344D02*
X160222623Y-74004344D01*
X159994052Y-74004344D02*
X159994052Y-73204344D01*
X160070242Y-73318630D01*
X160146433Y-73394820D01*
X160222623Y-73432916D01*
X159270242Y-73204344D02*
X159194052Y-73204344D01*
X159117861Y-73242440D01*
X159079766Y-73280535D01*
X159041671Y-73356725D01*
X159003576Y-73509106D01*
X159003576Y-73699582D01*
X159041671Y-73851963D01*
X159079766Y-73928154D01*
X159117861Y-73966249D01*
X159194052Y-74004344D01*
X159270242Y-74004344D01*
X159346433Y-73966249D01*
X159384528Y-73928154D01*
X159422623Y-73851963D01*
X159460719Y-73699582D01*
X159460719Y-73509106D01*
X159422623Y-73356725D01*
X159384528Y-73280535D01*
X159346433Y-73242440D01*
X159270242Y-73204344D01*
%TO.C,C11*%
X161576354Y-100602614D02*
X161614449Y-100564519D01*
X161652544Y-100450233D01*
X161652544Y-100374042D01*
X161614449Y-100259757D01*
X161538259Y-100183566D01*
X161462068Y-100145471D01*
X161309687Y-100107376D01*
X161195401Y-100107376D01*
X161043020Y-100145471D01*
X160966830Y-100183566D01*
X160890640Y-100259757D01*
X160852544Y-100374042D01*
X160852544Y-100450233D01*
X160890640Y-100564519D01*
X160928735Y-100602614D01*
X161652544Y-101364519D02*
X161652544Y-100907376D01*
X161652544Y-101135947D02*
X160852544Y-101135947D01*
X160966830Y-101059757D01*
X161043020Y-100983566D01*
X161081116Y-100907376D01*
X161652544Y-102126423D02*
X161652544Y-101669280D01*
X161652544Y-101897852D02*
X160852544Y-101897852D01*
X160966830Y-101821661D01*
X161043020Y-101745471D01*
X161081116Y-101669280D01*
%TO.C,C12*%
X149813834Y-78801614D02*
X149851929Y-78763519D01*
X149890024Y-78649233D01*
X149890024Y-78573042D01*
X149851929Y-78458757D01*
X149775739Y-78382566D01*
X149699548Y-78344471D01*
X149547167Y-78306376D01*
X149432881Y-78306376D01*
X149280500Y-78344471D01*
X149204310Y-78382566D01*
X149128120Y-78458757D01*
X149090024Y-78573042D01*
X149090024Y-78649233D01*
X149128120Y-78763519D01*
X149166215Y-78801614D01*
X149890024Y-79563519D02*
X149890024Y-79106376D01*
X149890024Y-79334947D02*
X149090024Y-79334947D01*
X149204310Y-79258757D01*
X149280500Y-79182566D01*
X149318596Y-79106376D01*
X149166215Y-79868280D02*
X149128120Y-79906376D01*
X149090024Y-79982566D01*
X149090024Y-80173042D01*
X149128120Y-80249233D01*
X149166215Y-80287328D01*
X149242405Y-80325423D01*
X149318596Y-80325423D01*
X149432881Y-80287328D01*
X149890024Y-79830185D01*
X149890024Y-80325423D01*
%TO.C,C13*%
X151337834Y-78781294D02*
X151375929Y-78743199D01*
X151414024Y-78628913D01*
X151414024Y-78552722D01*
X151375929Y-78438437D01*
X151299739Y-78362246D01*
X151223548Y-78324151D01*
X151071167Y-78286056D01*
X150956881Y-78286056D01*
X150804500Y-78324151D01*
X150728310Y-78362246D01*
X150652120Y-78438437D01*
X150614024Y-78552722D01*
X150614024Y-78628913D01*
X150652120Y-78743199D01*
X150690215Y-78781294D01*
X151414024Y-79543199D02*
X151414024Y-79086056D01*
X151414024Y-79314627D02*
X150614024Y-79314627D01*
X150728310Y-79238437D01*
X150804500Y-79162246D01*
X150842596Y-79086056D01*
X150614024Y-79809865D02*
X150614024Y-80305103D01*
X150918786Y-80038437D01*
X150918786Y-80152722D01*
X150956881Y-80228913D01*
X150994977Y-80267008D01*
X151071167Y-80305103D01*
X151261643Y-80305103D01*
X151337834Y-80267008D01*
X151375929Y-80228913D01*
X151414024Y-80152722D01*
X151414024Y-79924151D01*
X151375929Y-79847960D01*
X151337834Y-79809865D01*
%TO.C,C14*%
X148320314Y-78801614D02*
X148358409Y-78763519D01*
X148396504Y-78649233D01*
X148396504Y-78573042D01*
X148358409Y-78458757D01*
X148282219Y-78382566D01*
X148206028Y-78344471D01*
X148053647Y-78306376D01*
X147939361Y-78306376D01*
X147786980Y-78344471D01*
X147710790Y-78382566D01*
X147634600Y-78458757D01*
X147596504Y-78573042D01*
X147596504Y-78649233D01*
X147634600Y-78763519D01*
X147672695Y-78801614D01*
X148396504Y-79563519D02*
X148396504Y-79106376D01*
X148396504Y-79334947D02*
X147596504Y-79334947D01*
X147710790Y-79258757D01*
X147786980Y-79182566D01*
X147825076Y-79106376D01*
X147863171Y-80249233D02*
X148396504Y-80249233D01*
X147558409Y-80058757D02*
X148129838Y-79868280D01*
X148129838Y-80363519D01*
%TO.C,C15*%
X140425994Y-78788914D02*
X140464089Y-78750819D01*
X140502184Y-78636533D01*
X140502184Y-78560342D01*
X140464089Y-78446057D01*
X140387899Y-78369866D01*
X140311708Y-78331771D01*
X140159327Y-78293676D01*
X140045041Y-78293676D01*
X139892660Y-78331771D01*
X139816470Y-78369866D01*
X139740280Y-78446057D01*
X139702184Y-78560342D01*
X139702184Y-78636533D01*
X139740280Y-78750819D01*
X139778375Y-78788914D01*
X140502184Y-79550819D02*
X140502184Y-79093676D01*
X140502184Y-79322247D02*
X139702184Y-79322247D01*
X139816470Y-79246057D01*
X139892660Y-79169866D01*
X139930756Y-79093676D01*
X139702184Y-80274628D02*
X139702184Y-79893676D01*
X140083137Y-79855580D01*
X140045041Y-79893676D01*
X140006946Y-79969866D01*
X140006946Y-80160342D01*
X140045041Y-80236533D01*
X140083137Y-80274628D01*
X140159327Y-80312723D01*
X140349803Y-80312723D01*
X140425994Y-80274628D01*
X140464089Y-80236533D01*
X140502184Y-80160342D01*
X140502184Y-79969866D01*
X140464089Y-79893676D01*
X140425994Y-79855580D01*
%TO.C,C16*%
X138899454Y-78788914D02*
X138937549Y-78750819D01*
X138975644Y-78636533D01*
X138975644Y-78560342D01*
X138937549Y-78446057D01*
X138861359Y-78369866D01*
X138785168Y-78331771D01*
X138632787Y-78293676D01*
X138518501Y-78293676D01*
X138366120Y-78331771D01*
X138289930Y-78369866D01*
X138213740Y-78446057D01*
X138175644Y-78560342D01*
X138175644Y-78636533D01*
X138213740Y-78750819D01*
X138251835Y-78788914D01*
X138975644Y-79550819D02*
X138975644Y-79093676D01*
X138975644Y-79322247D02*
X138175644Y-79322247D01*
X138289930Y-79246057D01*
X138366120Y-79169866D01*
X138404216Y-79093676D01*
X138175644Y-80236533D02*
X138175644Y-80084152D01*
X138213740Y-80007961D01*
X138251835Y-79969866D01*
X138366120Y-79893676D01*
X138518501Y-79855580D01*
X138823263Y-79855580D01*
X138899454Y-79893676D01*
X138937549Y-79931771D01*
X138975644Y-80007961D01*
X138975644Y-80160342D01*
X138937549Y-80236533D01*
X138899454Y-80274628D01*
X138823263Y-80312723D01*
X138632787Y-80312723D01*
X138556597Y-80274628D01*
X138518501Y-80236533D01*
X138480406Y-80160342D01*
X138480406Y-80007961D01*
X138518501Y-79931771D01*
X138556597Y-79893676D01*
X138632787Y-79855580D01*
%TO.C,C17*%
X129593894Y-99967434D02*
X129631989Y-99929339D01*
X129670084Y-99815053D01*
X129670084Y-99738862D01*
X129631989Y-99624577D01*
X129555799Y-99548386D01*
X129479608Y-99510291D01*
X129327227Y-99472196D01*
X129212941Y-99472196D01*
X129060560Y-99510291D01*
X128984370Y-99548386D01*
X128908180Y-99624577D01*
X128870084Y-99738862D01*
X128870084Y-99815053D01*
X128908180Y-99929339D01*
X128946275Y-99967434D01*
X129670084Y-100729339D02*
X129670084Y-100272196D01*
X129670084Y-100500767D02*
X128870084Y-100500767D01*
X128984370Y-100424577D01*
X129060560Y-100348386D01*
X129098656Y-100272196D01*
X128870084Y-100996005D02*
X128870084Y-101529339D01*
X129670084Y-101186481D01*
%TO.C,C18*%
X153362214Y-78801614D02*
X153400309Y-78763519D01*
X153438404Y-78649233D01*
X153438404Y-78573042D01*
X153400309Y-78458757D01*
X153324119Y-78382566D01*
X153247928Y-78344471D01*
X153095547Y-78306376D01*
X152981261Y-78306376D01*
X152828880Y-78344471D01*
X152752690Y-78382566D01*
X152676500Y-78458757D01*
X152638404Y-78573042D01*
X152638404Y-78649233D01*
X152676500Y-78763519D01*
X152714595Y-78801614D01*
X153438404Y-79563519D02*
X153438404Y-79106376D01*
X153438404Y-79334947D02*
X152638404Y-79334947D01*
X152752690Y-79258757D01*
X152828880Y-79182566D01*
X152866976Y-79106376D01*
X152981261Y-80020661D02*
X152943166Y-79944471D01*
X152905071Y-79906376D01*
X152828880Y-79868280D01*
X152790785Y-79868280D01*
X152714595Y-79906376D01*
X152676500Y-79944471D01*
X152638404Y-80020661D01*
X152638404Y-80173042D01*
X152676500Y-80249233D01*
X152714595Y-80287328D01*
X152790785Y-80325423D01*
X152828880Y-80325423D01*
X152905071Y-80287328D01*
X152943166Y-80249233D01*
X152981261Y-80173042D01*
X152981261Y-80020661D01*
X153019357Y-79944471D01*
X153057452Y-79906376D01*
X153133642Y-79868280D01*
X153286023Y-79868280D01*
X153362214Y-79906376D01*
X153400309Y-79944471D01*
X153438404Y-80020661D01*
X153438404Y-80173042D01*
X153400309Y-80249233D01*
X153362214Y-80287328D01*
X153286023Y-80325423D01*
X153133642Y-80325423D01*
X153057452Y-80287328D01*
X153019357Y-80249233D01*
X152981261Y-80173042D01*
%TO.C,C24*%
X156128274Y-94453094D02*
X156166369Y-94414999D01*
X156204464Y-94300713D01*
X156204464Y-94224522D01*
X156166369Y-94110237D01*
X156090179Y-94034046D01*
X156013988Y-93995951D01*
X155861607Y-93957856D01*
X155747321Y-93957856D01*
X155594940Y-93995951D01*
X155518750Y-94034046D01*
X155442560Y-94110237D01*
X155404464Y-94224522D01*
X155404464Y-94300713D01*
X155442560Y-94414999D01*
X155480655Y-94453094D01*
X155480655Y-94757856D02*
X155442560Y-94795951D01*
X155404464Y-94872141D01*
X155404464Y-95062618D01*
X155442560Y-95138808D01*
X155480655Y-95176903D01*
X155556845Y-95214999D01*
X155633036Y-95214999D01*
X155747321Y-95176903D01*
X156204464Y-94719760D01*
X156204464Y-95214999D01*
X155671131Y-95900713D02*
X156204464Y-95900713D01*
X155366369Y-95710237D02*
X155937798Y-95519760D01*
X155937798Y-96014999D01*
%TO.C,C27*%
X156611025Y-85988934D02*
X156649120Y-86027029D01*
X156763406Y-86065124D01*
X156839597Y-86065124D01*
X156953882Y-86027029D01*
X157030073Y-85950839D01*
X157068168Y-85874648D01*
X157106263Y-85722267D01*
X157106263Y-85607981D01*
X157068168Y-85455600D01*
X157030073Y-85379410D01*
X156953882Y-85303220D01*
X156839597Y-85265124D01*
X156763406Y-85265124D01*
X156649120Y-85303220D01*
X156611025Y-85341315D01*
X156306263Y-85341315D02*
X156268168Y-85303220D01*
X156191978Y-85265124D01*
X156001501Y-85265124D01*
X155925311Y-85303220D01*
X155887216Y-85341315D01*
X155849120Y-85417505D01*
X155849120Y-85493696D01*
X155887216Y-85607981D01*
X156344359Y-86065124D01*
X155849120Y-86065124D01*
X155582454Y-85265124D02*
X155049120Y-85265124D01*
X155391978Y-86065124D01*
%TO.C,C29*%
X143336834Y-94338794D02*
X143374929Y-94300699D01*
X143413024Y-94186413D01*
X143413024Y-94110222D01*
X143374929Y-93995937D01*
X143298739Y-93919746D01*
X143222548Y-93881651D01*
X143070167Y-93843556D01*
X142955881Y-93843556D01*
X142803500Y-93881651D01*
X142727310Y-93919746D01*
X142651120Y-93995937D01*
X142613024Y-94110222D01*
X142613024Y-94186413D01*
X142651120Y-94300699D01*
X142689215Y-94338794D01*
X142689215Y-94643556D02*
X142651120Y-94681651D01*
X142613024Y-94757841D01*
X142613024Y-94948318D01*
X142651120Y-95024508D01*
X142689215Y-95062603D01*
X142765405Y-95100699D01*
X142841596Y-95100699D01*
X142955881Y-95062603D01*
X143413024Y-94605460D01*
X143413024Y-95100699D01*
X143413024Y-95481651D02*
X143413024Y-95634032D01*
X143374929Y-95710222D01*
X143336834Y-95748318D01*
X143222548Y-95824508D01*
X143070167Y-95862603D01*
X142765405Y-95862603D01*
X142689215Y-95824508D01*
X142651120Y-95786413D01*
X142613024Y-95710222D01*
X142613024Y-95557841D01*
X142651120Y-95481651D01*
X142689215Y-95443556D01*
X142765405Y-95405460D01*
X142955881Y-95405460D01*
X143032072Y-95443556D01*
X143070167Y-95481651D01*
X143108262Y-95557841D01*
X143108262Y-95710222D01*
X143070167Y-95786413D01*
X143032072Y-95824508D01*
X142955881Y-95862603D01*
%TO.C,C31*%
X142880994Y-82550234D02*
X142919089Y-82512139D01*
X142957184Y-82397853D01*
X142957184Y-82321662D01*
X142919089Y-82207377D01*
X142842899Y-82131186D01*
X142766708Y-82093091D01*
X142614327Y-82054996D01*
X142500041Y-82054996D01*
X142347660Y-82093091D01*
X142271470Y-82131186D01*
X142195280Y-82207377D01*
X142157184Y-82321662D01*
X142157184Y-82397853D01*
X142195280Y-82512139D01*
X142233375Y-82550234D01*
X142157184Y-82816900D02*
X142157184Y-83312139D01*
X142461946Y-83045472D01*
X142461946Y-83159758D01*
X142500041Y-83235948D01*
X142538137Y-83274043D01*
X142614327Y-83312139D01*
X142804803Y-83312139D01*
X142880994Y-83274043D01*
X142919089Y-83235948D01*
X142957184Y-83159758D01*
X142957184Y-82931186D01*
X142919089Y-82854996D01*
X142880994Y-82816900D01*
X142957184Y-84074043D02*
X142957184Y-83616900D01*
X142957184Y-83845472D02*
X142157184Y-83845472D01*
X142271470Y-83769281D01*
X142347660Y-83693091D01*
X142385756Y-83616900D01*
%TO.C,C32*%
X152214854Y-82755994D02*
X152252949Y-82717899D01*
X152291044Y-82603613D01*
X152291044Y-82527422D01*
X152252949Y-82413137D01*
X152176759Y-82336946D01*
X152100568Y-82298851D01*
X151948187Y-82260756D01*
X151833901Y-82260756D01*
X151681520Y-82298851D01*
X151605330Y-82336946D01*
X151529140Y-82413137D01*
X151491044Y-82527422D01*
X151491044Y-82603613D01*
X151529140Y-82717899D01*
X151567235Y-82755994D01*
X151491044Y-83022660D02*
X151491044Y-83517899D01*
X151795806Y-83251232D01*
X151795806Y-83365518D01*
X151833901Y-83441708D01*
X151871997Y-83479803D01*
X151948187Y-83517899D01*
X152138663Y-83517899D01*
X152214854Y-83479803D01*
X152252949Y-83441708D01*
X152291044Y-83365518D01*
X152291044Y-83136946D01*
X152252949Y-83060756D01*
X152214854Y-83022660D01*
X151567235Y-83822660D02*
X151529140Y-83860756D01*
X151491044Y-83936946D01*
X151491044Y-84127422D01*
X151529140Y-84203613D01*
X151567235Y-84241708D01*
X151643425Y-84279803D01*
X151719616Y-84279803D01*
X151833901Y-84241708D01*
X152291044Y-83784565D01*
X152291044Y-84279803D01*
%TO.C,C33*%
X154047985Y-93170294D02*
X154086080Y-93208389D01*
X154200366Y-93246484D01*
X154276557Y-93246484D01*
X154390842Y-93208389D01*
X154467033Y-93132199D01*
X154505128Y-93056008D01*
X154543223Y-92903627D01*
X154543223Y-92789341D01*
X154505128Y-92636960D01*
X154467033Y-92560770D01*
X154390842Y-92484580D01*
X154276557Y-92446484D01*
X154200366Y-92446484D01*
X154086080Y-92484580D01*
X154047985Y-92522675D01*
X153781319Y-92446484D02*
X153286080Y-92446484D01*
X153552747Y-92751246D01*
X153438461Y-92751246D01*
X153362271Y-92789341D01*
X153324176Y-92827437D01*
X153286080Y-92903627D01*
X153286080Y-93094103D01*
X153324176Y-93170294D01*
X153362271Y-93208389D01*
X153438461Y-93246484D01*
X153667033Y-93246484D01*
X153743223Y-93208389D01*
X153781319Y-93170294D01*
X153019414Y-92446484D02*
X152524176Y-92446484D01*
X152790842Y-92751246D01*
X152676557Y-92751246D01*
X152600366Y-92789341D01*
X152562271Y-92827437D01*
X152524176Y-92903627D01*
X152524176Y-93094103D01*
X152562271Y-93170294D01*
X152600366Y-93208389D01*
X152676557Y-93246484D01*
X152905128Y-93246484D01*
X152981319Y-93208389D01*
X153019414Y-93170294D01*
%TO.C,J1*%
X132780684Y-85264613D02*
X133352113Y-85264613D01*
X133466399Y-85226518D01*
X133542589Y-85150327D01*
X133580684Y-85036041D01*
X133580684Y-84959851D01*
X133580684Y-86064613D02*
X133580684Y-85607470D01*
X133580684Y-85836041D02*
X132780684Y-85836041D01*
X132894970Y-85759851D01*
X132971160Y-85683660D01*
X133009256Y-85607470D01*
%TO.C,J2*%
X132414924Y-74977193D02*
X132986353Y-74977193D01*
X133100639Y-74939098D01*
X133176829Y-74862907D01*
X133214924Y-74748621D01*
X133214924Y-74672431D01*
X132491115Y-75320050D02*
X132453020Y-75358145D01*
X132414924Y-75434336D01*
X132414924Y-75624812D01*
X132453020Y-75701002D01*
X132491115Y-75739098D01*
X132567305Y-75777193D01*
X132643496Y-75777193D01*
X132757781Y-75739098D01*
X133214924Y-75281955D01*
X133214924Y-75777193D01*
%TO.C,J3*%
X134416586Y-97699204D02*
X134416586Y-98270633D01*
X134454681Y-98384919D01*
X134530872Y-98461109D01*
X134645158Y-98499204D01*
X134721348Y-98499204D01*
X134111824Y-97699204D02*
X133616586Y-97699204D01*
X133883253Y-98003966D01*
X133768967Y-98003966D01*
X133692777Y-98042061D01*
X133654681Y-98080157D01*
X133616586Y-98156347D01*
X133616586Y-98346823D01*
X133654681Y-98423014D01*
X133692777Y-98461109D01*
X133768967Y-98499204D01*
X133997539Y-98499204D01*
X134073729Y-98461109D01*
X134111824Y-98423014D01*
%TO.C,R8*%
X138490033Y-83691324D02*
X138756700Y-83310372D01*
X138947176Y-83691324D02*
X138947176Y-82891324D01*
X138642414Y-82891324D01*
X138566223Y-82929420D01*
X138528128Y-82967515D01*
X138490033Y-83043705D01*
X138490033Y-83157991D01*
X138528128Y-83234181D01*
X138566223Y-83272277D01*
X138642414Y-83310372D01*
X138947176Y-83310372D01*
X138032890Y-83234181D02*
X138109080Y-83196086D01*
X138147176Y-83157991D01*
X138185271Y-83081800D01*
X138185271Y-83043705D01*
X138147176Y-82967515D01*
X138109080Y-82929420D01*
X138032890Y-82891324D01*
X137880509Y-82891324D01*
X137804319Y-82929420D01*
X137766223Y-82967515D01*
X137728128Y-83043705D01*
X137728128Y-83081800D01*
X137766223Y-83157991D01*
X137804319Y-83196086D01*
X137880509Y-83234181D01*
X138032890Y-83234181D01*
X138109080Y-83272277D01*
X138147176Y-83310372D01*
X138185271Y-83386562D01*
X138185271Y-83538943D01*
X138147176Y-83615134D01*
X138109080Y-83653229D01*
X138032890Y-83691324D01*
X137880509Y-83691324D01*
X137804319Y-83653229D01*
X137766223Y-83615134D01*
X137728128Y-83538943D01*
X137728128Y-83386562D01*
X137766223Y-83310372D01*
X137804319Y-83272277D01*
X137880509Y-83234181D01*
%TO.C,R9*%
X138400213Y-85216264D02*
X138666880Y-84835312D01*
X138857356Y-85216264D02*
X138857356Y-84416264D01*
X138552594Y-84416264D01*
X138476403Y-84454360D01*
X138438308Y-84492455D01*
X138400213Y-84568645D01*
X138400213Y-84682931D01*
X138438308Y-84759121D01*
X138476403Y-84797217D01*
X138552594Y-84835312D01*
X138857356Y-84835312D01*
X138019260Y-85216264D02*
X137866880Y-85216264D01*
X137790689Y-85178169D01*
X137752594Y-85140074D01*
X137676403Y-85025788D01*
X137638308Y-84873407D01*
X137638308Y-84568645D01*
X137676403Y-84492455D01*
X137714499Y-84454360D01*
X137790689Y-84416264D01*
X137943070Y-84416264D01*
X138019260Y-84454360D01*
X138057356Y-84492455D01*
X138095451Y-84568645D01*
X138095451Y-84759121D01*
X138057356Y-84835312D01*
X138019260Y-84873407D01*
X137943070Y-84911502D01*
X137790689Y-84911502D01*
X137714499Y-84873407D01*
X137676403Y-84835312D01*
X137638308Y-84759121D01*
%TO.C,R10*%
X139150385Y-86718464D02*
X139417052Y-86337512D01*
X139607528Y-86718464D02*
X139607528Y-85918464D01*
X139302766Y-85918464D01*
X139226576Y-85956560D01*
X139188480Y-85994655D01*
X139150385Y-86070845D01*
X139150385Y-86185131D01*
X139188480Y-86261321D01*
X139226576Y-86299417D01*
X139302766Y-86337512D01*
X139607528Y-86337512D01*
X138388480Y-86718464D02*
X138845623Y-86718464D01*
X138617052Y-86718464D02*
X138617052Y-85918464D01*
X138693242Y-86032750D01*
X138769433Y-86108940D01*
X138845623Y-86147036D01*
X137893242Y-85918464D02*
X137817052Y-85918464D01*
X137740861Y-85956560D01*
X137702766Y-85994655D01*
X137664671Y-86070845D01*
X137626576Y-86223226D01*
X137626576Y-86413702D01*
X137664671Y-86566083D01*
X137702766Y-86642274D01*
X137740861Y-86680369D01*
X137817052Y-86718464D01*
X137893242Y-86718464D01*
X137969433Y-86680369D01*
X138007528Y-86642274D01*
X138045623Y-86566083D01*
X138083719Y-86413702D01*
X138083719Y-86223226D01*
X138045623Y-86070845D01*
X138007528Y-85994655D01*
X137969433Y-85956560D01*
X137893242Y-85918464D01*
%TO.C,R11*%
X154677924Y-105494474D02*
X154296972Y-105227807D01*
X154677924Y-105037331D02*
X153877924Y-105037331D01*
X153877924Y-105342093D01*
X153916020Y-105418283D01*
X153954115Y-105456379D01*
X154030305Y-105494474D01*
X154144591Y-105494474D01*
X154220781Y-105456379D01*
X154258877Y-105418283D01*
X154296972Y-105342093D01*
X154296972Y-105037331D01*
X154677924Y-106256379D02*
X154677924Y-105799236D01*
X154677924Y-106027807D02*
X153877924Y-106027807D01*
X153992210Y-105951617D01*
X154068400Y-105875426D01*
X154106496Y-105799236D01*
X154677924Y-107018283D02*
X154677924Y-106561140D01*
X154677924Y-106789712D02*
X153877924Y-106789712D01*
X153992210Y-106713521D01*
X154068400Y-106637331D01*
X154106496Y-106561140D01*
%TO.C,R12*%
X157736084Y-94417534D02*
X157355132Y-94150867D01*
X157736084Y-93960391D02*
X156936084Y-93960391D01*
X156936084Y-94265153D01*
X156974180Y-94341343D01*
X157012275Y-94379439D01*
X157088465Y-94417534D01*
X157202751Y-94417534D01*
X157278941Y-94379439D01*
X157317037Y-94341343D01*
X157355132Y-94265153D01*
X157355132Y-93960391D01*
X157736084Y-95179439D02*
X157736084Y-94722296D01*
X157736084Y-94950867D02*
X156936084Y-94950867D01*
X157050370Y-94874677D01*
X157126560Y-94798486D01*
X157164656Y-94722296D01*
X157012275Y-95484200D02*
X156974180Y-95522296D01*
X156936084Y-95598486D01*
X156936084Y-95788962D01*
X156974180Y-95865153D01*
X157012275Y-95903248D01*
X157088465Y-95941343D01*
X157164656Y-95941343D01*
X157278941Y-95903248D01*
X157736084Y-95446105D01*
X157736084Y-95941343D01*
%TO.C,R13*%
X151833284Y-101657054D02*
X151452332Y-101390387D01*
X151833284Y-101199911D02*
X151033284Y-101199911D01*
X151033284Y-101504673D01*
X151071380Y-101580863D01*
X151109475Y-101618959D01*
X151185665Y-101657054D01*
X151299951Y-101657054D01*
X151376141Y-101618959D01*
X151414237Y-101580863D01*
X151452332Y-101504673D01*
X151452332Y-101199911D01*
X151833284Y-102418959D02*
X151833284Y-101961816D01*
X151833284Y-102190387D02*
X151033284Y-102190387D01*
X151147570Y-102114197D01*
X151223760Y-102038006D01*
X151261856Y-101961816D01*
X151033284Y-102685625D02*
X151033284Y-103180863D01*
X151338046Y-102914197D01*
X151338046Y-103028482D01*
X151376141Y-103104673D01*
X151414237Y-103142768D01*
X151490427Y-103180863D01*
X151680903Y-103180863D01*
X151757094Y-103142768D01*
X151795189Y-103104673D01*
X151833284Y-103028482D01*
X151833284Y-102799911D01*
X151795189Y-102723720D01*
X151757094Y-102685625D01*
%TO.C,R14*%
X147514844Y-82841874D02*
X147133892Y-82575207D01*
X147514844Y-82384731D02*
X146714844Y-82384731D01*
X146714844Y-82689493D01*
X146752940Y-82765683D01*
X146791035Y-82803779D01*
X146867225Y-82841874D01*
X146981511Y-82841874D01*
X147057701Y-82803779D01*
X147095797Y-82765683D01*
X147133892Y-82689493D01*
X147133892Y-82384731D01*
X147514844Y-83603779D02*
X147514844Y-83146636D01*
X147514844Y-83375207D02*
X146714844Y-83375207D01*
X146829130Y-83299017D01*
X146905320Y-83222826D01*
X146943416Y-83146636D01*
X146981511Y-84289493D02*
X147514844Y-84289493D01*
X146676749Y-84099017D02*
X147248178Y-83908540D01*
X147248178Y-84403779D01*
%TO.C,R19*%
X142046504Y-78753354D02*
X141665552Y-78486687D01*
X142046504Y-78296211D02*
X141246504Y-78296211D01*
X141246504Y-78600973D01*
X141284600Y-78677163D01*
X141322695Y-78715259D01*
X141398885Y-78753354D01*
X141513171Y-78753354D01*
X141589361Y-78715259D01*
X141627457Y-78677163D01*
X141665552Y-78600973D01*
X141665552Y-78296211D01*
X142046504Y-79515259D02*
X142046504Y-79058116D01*
X142046504Y-79286687D02*
X141246504Y-79286687D01*
X141360790Y-79210497D01*
X141436980Y-79134306D01*
X141475076Y-79058116D01*
X142046504Y-79896211D02*
X142046504Y-80048592D01*
X142008409Y-80124782D01*
X141970314Y-80162878D01*
X141856028Y-80239068D01*
X141703647Y-80277163D01*
X141398885Y-80277163D01*
X141322695Y-80239068D01*
X141284600Y-80200973D01*
X141246504Y-80124782D01*
X141246504Y-79972401D01*
X141284600Y-79896211D01*
X141322695Y-79858116D01*
X141398885Y-79820020D01*
X141589361Y-79820020D01*
X141665552Y-79858116D01*
X141703647Y-79896211D01*
X141741742Y-79972401D01*
X141741742Y-80124782D01*
X141703647Y-80200973D01*
X141665552Y-80239068D01*
X141589361Y-80277163D01*
%TO.C,S1*%
X133001749Y-94796636D02*
X133039844Y-94910921D01*
X133039844Y-95101398D01*
X133001749Y-95177588D01*
X132963654Y-95215683D01*
X132887463Y-95253779D01*
X132811273Y-95253779D01*
X132735082Y-95215683D01*
X132696987Y-95177588D01*
X132658892Y-95101398D01*
X132620797Y-94949017D01*
X132582701Y-94872826D01*
X132544606Y-94834731D01*
X132468416Y-94796636D01*
X132392225Y-94796636D01*
X132316035Y-94834731D01*
X132277940Y-94872826D01*
X132239844Y-94949017D01*
X132239844Y-95139493D01*
X132277940Y-95253779D01*
X133039844Y-96015683D02*
X133039844Y-95558540D01*
X133039844Y-95787112D02*
X132239844Y-95787112D01*
X132354130Y-95710921D01*
X132430320Y-95634731D01*
X132468416Y-95558540D01*
%TO.C,U5*%
X160287463Y-103343064D02*
X160287463Y-103990683D01*
X160249368Y-104066874D01*
X160211273Y-104104969D01*
X160135082Y-104143064D01*
X159982701Y-104143064D01*
X159906511Y-104104969D01*
X159868416Y-104066874D01*
X159830320Y-103990683D01*
X159830320Y-103343064D01*
X159068416Y-103343064D02*
X159449368Y-103343064D01*
X159487463Y-103724017D01*
X159449368Y-103685921D01*
X159373178Y-103647826D01*
X159182701Y-103647826D01*
X159106511Y-103685921D01*
X159068416Y-103724017D01*
X159030320Y-103800207D01*
X159030320Y-103990683D01*
X159068416Y-104066874D01*
X159106511Y-104104969D01*
X159182701Y-104143064D01*
X159373178Y-104143064D01*
X159449368Y-104104969D01*
X159487463Y-104066874D01*
%TO.C,Y2*%
X155048812Y-88320247D02*
X155429764Y-88320247D01*
X154629764Y-88053580D02*
X155048812Y-88320247D01*
X154629764Y-88586914D01*
X154705955Y-88815485D02*
X154667860Y-88853580D01*
X154629764Y-88929771D01*
X154629764Y-89120247D01*
X154667860Y-89196438D01*
X154705955Y-89234533D01*
X154782145Y-89272628D01*
X154858336Y-89272628D01*
X154972621Y-89234533D01*
X155429764Y-88777390D01*
X155429764Y-89272628D01*
%TO.C,U3*%
D13*
X137794263Y-81404164D02*
X137794263Y-82051783D01*
X137756168Y-82127974D01*
X137718073Y-82166069D01*
X137641882Y-82204164D01*
X137489501Y-82204164D01*
X137413311Y-82166069D01*
X137375216Y-82127974D01*
X137337120Y-82051783D01*
X137337120Y-81404164D01*
X137032359Y-81404164D02*
X136537120Y-81404164D01*
X136803787Y-81708926D01*
X136689501Y-81708926D01*
X136613311Y-81747021D01*
X136575216Y-81785117D01*
X136537120Y-81861307D01*
X136537120Y-82051783D01*
X136575216Y-82127974D01*
X136613311Y-82166069D01*
X136689501Y-82204164D01*
X136918073Y-82204164D01*
X136994263Y-82166069D01*
X137032359Y-82127974D01*
%TD*%
M02*
