%TF.GenerationSoftware,KiCad,Pcbnew,(5.1.6)-1*%
%TF.CreationDate,2020-07-04T15:59:08+08:00*%
%TF.ProjectId,24RF_Remote_Control,32345246-5f52-4656-9d6f-74655f436f6e,rev?*%
%TF.SameCoordinates,Original*%
%TF.FileFunction,Copper,L3,Inr*%
%TF.FilePolarity,Positive*%
%FSLAX46Y46*%
G04 Gerber Fmt 4.6, Leading zero omitted, Abs format (unit mm)*
G04 Created by KiCad (PCBNEW (5.1.6)-1) date 2020-07-04 15:59:08*
%MOMM*%
%LPD*%
G01*
G04 APERTURE LIST*
%TA.AperFunction,ViaPad*%
%ADD10C,0.600000*%
%TD*%
%TA.AperFunction,ViaPad*%
%ADD11C,0.500000*%
%TD*%
%TA.AperFunction,ViaPad*%
%ADD12C,0.550000*%
%TD*%
%TA.AperFunction,ViaPad*%
%ADD13C,0.250000*%
%TD*%
%TA.AperFunction,Conductor*%
%ADD14C,0.100000*%
%TD*%
G04 APERTURE END LIST*
D10*
%TO.N,GND*%
%TO.C,U1*%
X140504260Y-79791340D03*
X139404260Y-79791340D03*
X139954260Y-79241340D03*
X140504260Y-78691340D03*
X139404260Y-78691340D03*
%TD*%
D11*
%TO.N,GND*%
%TO.C,U4*%
X145091200Y-91704200D03*
X146366200Y-91704200D03*
X147641200Y-91704200D03*
X148916200Y-91704200D03*
X150191200Y-91704200D03*
X145091200Y-90429200D03*
X146366200Y-90429200D03*
X147641200Y-90429200D03*
X148916200Y-90429200D03*
X150191200Y-90429200D03*
X145091200Y-89154200D03*
X146366200Y-89154200D03*
X147641200Y-89154200D03*
X148916200Y-89154200D03*
X150191200Y-89154200D03*
X145091200Y-87879200D03*
X146366200Y-87879200D03*
X147641200Y-87879200D03*
X148916200Y-87879200D03*
X150191200Y-87879200D03*
X145091200Y-86604200D03*
X146366200Y-86604200D03*
X147641200Y-86604200D03*
X148916200Y-86604200D03*
X150191200Y-86604200D03*
%TD*%
D12*
%TO.N,GND*%
X149886260Y-81540940D03*
X151915720Y-81764460D03*
X143848680Y-106676780D03*
X153559100Y-103689740D03*
X160031020Y-102821060D03*
X151919455Y-97892265D03*
X138626440Y-72193740D03*
X141113100Y-72201360D03*
X142238320Y-72252160D03*
X143498160Y-72269940D03*
X145172040Y-75884360D03*
X147607880Y-72635700D03*
X148357180Y-72605220D03*
X149896420Y-72605220D03*
X152644700Y-72650940D03*
X159215680Y-73727920D03*
X153040940Y-78978080D03*
X148778820Y-76704780D03*
X147336100Y-82473120D03*
X151915720Y-82480740D03*
X156998260Y-85328080D03*
X142573600Y-76537140D03*
X132223100Y-86887640D03*
X144257620Y-96679340D03*
X132703160Y-84990260D03*
X130130140Y-80545260D03*
X130107280Y-85803060D03*
X130130140Y-75985960D03*
X132703160Y-77085780D03*
X154288080Y-93174140D03*
X133107020Y-75823400D03*
X136688420Y-73621220D03*
X133932520Y-70169360D03*
X130823560Y-70504640D03*
X139302080Y-84886100D03*
X141580460Y-84835320D03*
X133038440Y-97187340D03*
X143988380Y-82633140D03*
X135271100Y-79313360D03*
X137328500Y-75305240D03*
X140805760Y-76801300D03*
X145260920Y-94017420D03*
D13*
X133597240Y-91827940D03*
D12*
X152606600Y-81083740D03*
X153306600Y-81083740D03*
X154006600Y-81083740D03*
X152606600Y-81783740D03*
X153306600Y-81783740D03*
X154006600Y-81783740D03*
X152606600Y-82483740D03*
X153306600Y-82483740D03*
X154006600Y-82483740D03*
X155222800Y-87075620D03*
X155222800Y-90062620D03*
X154788460Y-88576740D03*
X155222800Y-89112680D03*
X155222800Y-87939200D03*
X159528100Y-105162940D03*
X161207040Y-107377820D03*
X158885480Y-103961520D03*
X132863180Y-100283600D03*
X137071960Y-97956960D03*
X159312200Y-92810920D03*
X156673140Y-96488840D03*
X157704380Y-96501520D03*
X158516206Y-96522727D03*
X131649060Y-100725560D03*
X133388960Y-74266380D03*
X135537800Y-73600900D03*
X138997280Y-90115980D03*
X155210100Y-85640500D03*
%TO.N,Net-(C1-Pad2)*%
X136896700Y-80872920D03*
%TO.N,+3V3*%
X135888320Y-67875740D03*
X158260640Y-108444620D03*
X153543860Y-113336660D03*
X133528660Y-69501340D03*
X152687880Y-99902600D03*
X161069880Y-100311540D03*
X131646520Y-97553100D03*
X134107780Y-93397660D03*
X161704860Y-74827720D03*
X151682040Y-115442320D03*
X155954320Y-110910960D03*
X149146702Y-72582359D03*
X150732080Y-72595060D03*
X158242860Y-85363640D03*
X152703120Y-92602640D03*
X158374940Y-93184300D03*
X152703120Y-84025060D03*
X141511880Y-86425360D03*
X136530940Y-82358820D03*
X144237300Y-93186840D03*
X136917787Y-75932789D03*
X137088320Y-67875740D03*
X138288320Y-67875740D03*
X135888320Y-68575740D03*
X137088320Y-68575740D03*
X138288320Y-68575740D03*
X155565700Y-107634360D03*
X154003600Y-98932320D03*
X130033620Y-105457580D03*
X138402940Y-91956160D03*
%TO.N,/ADC_BATT*%
X157384340Y-94266340D03*
%TO.N,/BUTTON__LEFT*%
X145685100Y-94883560D03*
%TO.N,/BUTTON_RIGHT*%
X159880579Y-95466341D03*
%TO.N,Net-(J1-Pad2)*%
X134211920Y-85932600D03*
X134161120Y-81744140D03*
%TO.N,Net-(J1-Pad3)*%
X133998560Y-80913560D03*
X133434680Y-84578402D03*
%TO.N,/SWDCLK*%
X140546548Y-85333028D03*
X138771220Y-85988500D03*
%TO.N,/RF_SCK*%
X143269560Y-91406300D03*
X141602260Y-91962560D03*
%TO.N,/OLED_FLASH_SCK*%
X144861059Y-83474961D03*
X145141540Y-72582360D03*
X146266760Y-71398720D03*
X144757925Y-81812795D03*
%TO.N,/Buzzer*%
X145741970Y-95631403D03*
%TO.N,/JY_Y*%
X148263200Y-108254120D03*
%TO.N,/JY_X*%
X150917500Y-96041780D03*
%TO.N,Net-(S1-Pad2)*%
X135062820Y-87832520D03*
%TO.N,/OLED_FLASH_MISO*%
X145922779Y-84536681D03*
X158692440Y-83039540D03*
%TO.N,/USER_LED*%
X148946460Y-106831720D03*
%TO.N,/CHARGE*%
X136916523Y-76693454D03*
X143792176Y-83387500D03*
%TO.N,/PGOOD*%
X137739980Y-74558480D03*
X153140000Y-70758640D03*
X161872520Y-94360320D03*
%TD*%
D14*
%TO.N,GND*%
G36*
X139561960Y-68015440D02*
G01*
X139562921Y-68025195D01*
X139565766Y-68034574D01*
X139570387Y-68043219D01*
X139576605Y-68050795D01*
X139584181Y-68057013D01*
X139592826Y-68061634D01*
X139602205Y-68064479D01*
X139611960Y-68065440D01*
X152101140Y-68065440D01*
X152110895Y-68064479D01*
X152120274Y-68061634D01*
X152128919Y-68057013D01*
X152136495Y-68050795D01*
X152142713Y-68043219D01*
X152147334Y-68034574D01*
X152150179Y-68025195D01*
X152151140Y-68015440D01*
X152151140Y-66955460D01*
X160029943Y-66955460D01*
X159868502Y-67063331D01*
X159655391Y-67276442D01*
X159487952Y-67527033D01*
X159372617Y-67805475D01*
X159313820Y-68101068D01*
X159313820Y-68402452D01*
X159372617Y-68698045D01*
X159487952Y-68976487D01*
X159655391Y-69227078D01*
X159868502Y-69440189D01*
X160119093Y-69607628D01*
X160397535Y-69722963D01*
X160693128Y-69781760D01*
X160994512Y-69781760D01*
X161290105Y-69722963D01*
X161568547Y-69607628D01*
X161819138Y-69440189D01*
X162032249Y-69227078D01*
X162109829Y-69110971D01*
X162109829Y-74250416D01*
X162038803Y-74202957D01*
X161910501Y-74149813D01*
X161774296Y-74122720D01*
X161635424Y-74122720D01*
X161499219Y-74149813D01*
X161370917Y-74202957D01*
X161255449Y-74280111D01*
X161157251Y-74378309D01*
X161080097Y-74493777D01*
X161026953Y-74622079D01*
X160999860Y-74758284D01*
X160999860Y-74897156D01*
X161026953Y-75033361D01*
X161080097Y-75161663D01*
X161157251Y-75277131D01*
X161255449Y-75375329D01*
X161370917Y-75452483D01*
X161499219Y-75505627D01*
X161635424Y-75532720D01*
X161774296Y-75532720D01*
X161910501Y-75505627D01*
X162038803Y-75452483D01*
X162109829Y-75405024D01*
X162109829Y-93695530D01*
X162078161Y-93682413D01*
X161941956Y-93655320D01*
X161803084Y-93655320D01*
X161666879Y-93682413D01*
X161538577Y-93735557D01*
X161423109Y-93812711D01*
X161324911Y-93910909D01*
X161247757Y-94026377D01*
X161194613Y-94154679D01*
X161167520Y-94290884D01*
X161167520Y-94429756D01*
X161194613Y-94565961D01*
X161247757Y-94694263D01*
X161324911Y-94809731D01*
X161423109Y-94907929D01*
X161538577Y-94985083D01*
X161666879Y-95038227D01*
X161803084Y-95065320D01*
X161941956Y-95065320D01*
X162078161Y-95038227D01*
X162109829Y-95025110D01*
X162109829Y-113602400D01*
X162032669Y-113486922D01*
X161819558Y-113273811D01*
X161568967Y-113106372D01*
X161290525Y-112991037D01*
X160994932Y-112932240D01*
X160693548Y-112932240D01*
X160397955Y-112991037D01*
X160119513Y-113106372D01*
X159868922Y-113273811D01*
X159655811Y-113486922D01*
X159488372Y-113737513D01*
X159373037Y-114015955D01*
X159314240Y-114311548D01*
X159314240Y-114612932D01*
X159373037Y-114908525D01*
X159488372Y-115186967D01*
X159655811Y-115437558D01*
X159868922Y-115650669D01*
X159976455Y-115722520D01*
X152329064Y-115722520D01*
X152359947Y-115647961D01*
X152387040Y-115511756D01*
X152387040Y-115372884D01*
X152359947Y-115236679D01*
X152306803Y-115108377D01*
X152229649Y-114992909D01*
X152131451Y-114894711D01*
X152015983Y-114817557D01*
X151887681Y-114764413D01*
X151751476Y-114737320D01*
X151612604Y-114737320D01*
X151476399Y-114764413D01*
X151348097Y-114817557D01*
X151232629Y-114894711D01*
X151134431Y-114992909D01*
X151057277Y-115108377D01*
X151004133Y-115236679D01*
X150977040Y-115372884D01*
X150977040Y-115511756D01*
X151004133Y-115647961D01*
X151035016Y-115722520D01*
X150868440Y-115722520D01*
X150868440Y-113267224D01*
X152838860Y-113267224D01*
X152838860Y-113406096D01*
X152865953Y-113542301D01*
X152919097Y-113670603D01*
X152996251Y-113786071D01*
X153094449Y-113884269D01*
X153209917Y-113961423D01*
X153338219Y-114014567D01*
X153474424Y-114041660D01*
X153613296Y-114041660D01*
X153749501Y-114014567D01*
X153877803Y-113961423D01*
X153993271Y-113884269D01*
X154091469Y-113786071D01*
X154168623Y-113670603D01*
X154221767Y-113542301D01*
X154248860Y-113406096D01*
X154248860Y-113267224D01*
X154221767Y-113131019D01*
X154168623Y-113002717D01*
X154091469Y-112887249D01*
X153993271Y-112789051D01*
X153877803Y-112711897D01*
X153749501Y-112658753D01*
X153613296Y-112631660D01*
X153474424Y-112631660D01*
X153338219Y-112658753D01*
X153209917Y-112711897D01*
X153094449Y-112789051D01*
X152996251Y-112887249D01*
X152919097Y-113002717D01*
X152865953Y-113131019D01*
X152838860Y-113267224D01*
X150868440Y-113267224D01*
X150868440Y-110841524D01*
X155249320Y-110841524D01*
X155249320Y-110980396D01*
X155276413Y-111116601D01*
X155329557Y-111244903D01*
X155406711Y-111360371D01*
X155504909Y-111458569D01*
X155620377Y-111535723D01*
X155748679Y-111588867D01*
X155884884Y-111615960D01*
X156023756Y-111615960D01*
X156159961Y-111588867D01*
X156288263Y-111535723D01*
X156403731Y-111458569D01*
X156501929Y-111360371D01*
X156579083Y-111244903D01*
X156632227Y-111116601D01*
X156659320Y-110980396D01*
X156659320Y-110841524D01*
X156632227Y-110705319D01*
X156579083Y-110577017D01*
X156501929Y-110461549D01*
X156403731Y-110363351D01*
X156288263Y-110286197D01*
X156159961Y-110233053D01*
X156023756Y-110205960D01*
X155884884Y-110205960D01*
X155748679Y-110233053D01*
X155620377Y-110286197D01*
X155504909Y-110363351D01*
X155406711Y-110461549D01*
X155329557Y-110577017D01*
X155276413Y-110705319D01*
X155249320Y-110841524D01*
X150868440Y-110841524D01*
X150868440Y-108375184D01*
X157555640Y-108375184D01*
X157555640Y-108514056D01*
X157582733Y-108650261D01*
X157635877Y-108778563D01*
X157713031Y-108894031D01*
X157811229Y-108992229D01*
X157926697Y-109069383D01*
X158054999Y-109122527D01*
X158191204Y-109149620D01*
X158330076Y-109149620D01*
X158466281Y-109122527D01*
X158594583Y-109069383D01*
X158710051Y-108992229D01*
X158808249Y-108894031D01*
X158885403Y-108778563D01*
X158938547Y-108650261D01*
X158965640Y-108514056D01*
X158965640Y-108375184D01*
X158938547Y-108238979D01*
X158885403Y-108110677D01*
X158808249Y-107995209D01*
X158710051Y-107897011D01*
X158594583Y-107819857D01*
X158466281Y-107766713D01*
X158330076Y-107739620D01*
X158191204Y-107739620D01*
X158054999Y-107766713D01*
X157926697Y-107819857D01*
X157811229Y-107897011D01*
X157713031Y-107995209D01*
X157635877Y-108110677D01*
X157582733Y-108238979D01*
X157555640Y-108375184D01*
X150868440Y-108375184D01*
X150868440Y-107564924D01*
X154860700Y-107564924D01*
X154860700Y-107703796D01*
X154887793Y-107840001D01*
X154940937Y-107968303D01*
X155018091Y-108083771D01*
X155116289Y-108181969D01*
X155231757Y-108259123D01*
X155360059Y-108312267D01*
X155496264Y-108339360D01*
X155635136Y-108339360D01*
X155771341Y-108312267D01*
X155899643Y-108259123D01*
X156015111Y-108181969D01*
X156113309Y-108083771D01*
X156190463Y-107968303D01*
X156243607Y-107840001D01*
X156270700Y-107703796D01*
X156270700Y-107564924D01*
X156243607Y-107428719D01*
X156190463Y-107300417D01*
X156113309Y-107184949D01*
X156015111Y-107086751D01*
X155899643Y-107009597D01*
X155771341Y-106956453D01*
X155635136Y-106929360D01*
X155496264Y-106929360D01*
X155360059Y-106956453D01*
X155231757Y-107009597D01*
X155116289Y-107086751D01*
X155018091Y-107184949D01*
X154940937Y-107300417D01*
X154887793Y-107428719D01*
X154860700Y-107564924D01*
X150868440Y-107564924D01*
X150868440Y-107309240D01*
X150867479Y-107299485D01*
X150864634Y-107290106D01*
X150860013Y-107281461D01*
X150853795Y-107273885D01*
X150846219Y-107267667D01*
X150837574Y-107263046D01*
X150828195Y-107260201D01*
X150818440Y-107259240D01*
X149508696Y-107259240D01*
X149571223Y-107165663D01*
X149624367Y-107037361D01*
X149651460Y-106901156D01*
X149651460Y-106762284D01*
X149624367Y-106626079D01*
X149571223Y-106497777D01*
X149494069Y-106382309D01*
X149395871Y-106284111D01*
X149280403Y-106206957D01*
X149152101Y-106153813D01*
X149015896Y-106126720D01*
X148877024Y-106126720D01*
X148740819Y-106153813D01*
X148612517Y-106206957D01*
X148497049Y-106284111D01*
X148398851Y-106382309D01*
X148321697Y-106497777D01*
X148268553Y-106626079D01*
X148241460Y-106762284D01*
X148241460Y-106901156D01*
X148268553Y-107037361D01*
X148321697Y-107165663D01*
X148384224Y-107259240D01*
X129634329Y-107259240D01*
X129634329Y-106038678D01*
X129699677Y-106082343D01*
X129827979Y-106135487D01*
X129964184Y-106162580D01*
X130103056Y-106162580D01*
X130239261Y-106135487D01*
X130367563Y-106082343D01*
X130483031Y-106005189D01*
X130581229Y-105906991D01*
X130658383Y-105791523D01*
X130711527Y-105663221D01*
X130738620Y-105527016D01*
X130738620Y-105388144D01*
X130711527Y-105251939D01*
X130658383Y-105123637D01*
X130581229Y-105008169D01*
X130483031Y-104909971D01*
X130367563Y-104832817D01*
X130239261Y-104779673D01*
X130103056Y-104752580D01*
X129964184Y-104752580D01*
X129827979Y-104779673D01*
X129699677Y-104832817D01*
X129634329Y-104876482D01*
X129634329Y-99833164D01*
X151982880Y-99833164D01*
X151982880Y-99972036D01*
X152009973Y-100108241D01*
X152063117Y-100236543D01*
X152140271Y-100352011D01*
X152238469Y-100450209D01*
X152353937Y-100527363D01*
X152482239Y-100580507D01*
X152618444Y-100607600D01*
X152757316Y-100607600D01*
X152893521Y-100580507D01*
X153021823Y-100527363D01*
X153137291Y-100450209D01*
X153235489Y-100352011D01*
X153308927Y-100242104D01*
X160364880Y-100242104D01*
X160364880Y-100380976D01*
X160391973Y-100517181D01*
X160445117Y-100645483D01*
X160522271Y-100760951D01*
X160620469Y-100859149D01*
X160735937Y-100936303D01*
X160864239Y-100989447D01*
X161000444Y-101016540D01*
X161139316Y-101016540D01*
X161275521Y-100989447D01*
X161403823Y-100936303D01*
X161519291Y-100859149D01*
X161617489Y-100760951D01*
X161694643Y-100645483D01*
X161747787Y-100517181D01*
X161774880Y-100380976D01*
X161774880Y-100242104D01*
X161747787Y-100105899D01*
X161694643Y-99977597D01*
X161617489Y-99862129D01*
X161519291Y-99763931D01*
X161403823Y-99686777D01*
X161275521Y-99633633D01*
X161139316Y-99606540D01*
X161000444Y-99606540D01*
X160864239Y-99633633D01*
X160735937Y-99686777D01*
X160620469Y-99763931D01*
X160522271Y-99862129D01*
X160445117Y-99977597D01*
X160391973Y-100105899D01*
X160364880Y-100242104D01*
X153308927Y-100242104D01*
X153312643Y-100236543D01*
X153365787Y-100108241D01*
X153392880Y-99972036D01*
X153392880Y-99833164D01*
X153365787Y-99696959D01*
X153312643Y-99568657D01*
X153235489Y-99453189D01*
X153137291Y-99354991D01*
X153021823Y-99277837D01*
X152893521Y-99224693D01*
X152757316Y-99197600D01*
X152618444Y-99197600D01*
X152482239Y-99224693D01*
X152353937Y-99277837D01*
X152238469Y-99354991D01*
X152140271Y-99453189D01*
X152063117Y-99568657D01*
X152009973Y-99696959D01*
X151982880Y-99833164D01*
X129634329Y-99833164D01*
X129634329Y-98862884D01*
X153298600Y-98862884D01*
X153298600Y-99001756D01*
X153325693Y-99137961D01*
X153378837Y-99266263D01*
X153455991Y-99381731D01*
X153554189Y-99479929D01*
X153669657Y-99557083D01*
X153797959Y-99610227D01*
X153934164Y-99637320D01*
X154073036Y-99637320D01*
X154209241Y-99610227D01*
X154337543Y-99557083D01*
X154453011Y-99479929D01*
X154551209Y-99381731D01*
X154628363Y-99266263D01*
X154681507Y-99137961D01*
X154708600Y-99001756D01*
X154708600Y-98862884D01*
X154681507Y-98726679D01*
X154628363Y-98598377D01*
X154551209Y-98482909D01*
X154453011Y-98384711D01*
X154337543Y-98307557D01*
X154209241Y-98254413D01*
X154073036Y-98227320D01*
X153934164Y-98227320D01*
X153797959Y-98254413D01*
X153669657Y-98307557D01*
X153554189Y-98384711D01*
X153455991Y-98482909D01*
X153378837Y-98598377D01*
X153325693Y-98726679D01*
X153298600Y-98862884D01*
X129634329Y-98862884D01*
X129634329Y-97483664D01*
X130941520Y-97483664D01*
X130941520Y-97622536D01*
X130968613Y-97758741D01*
X131021757Y-97887043D01*
X131098911Y-98002511D01*
X131197109Y-98100709D01*
X131312577Y-98177863D01*
X131440879Y-98231007D01*
X131577084Y-98258100D01*
X131715956Y-98258100D01*
X131852161Y-98231007D01*
X131980463Y-98177863D01*
X132095931Y-98100709D01*
X132194129Y-98002511D01*
X132271283Y-97887043D01*
X132324427Y-97758741D01*
X132351520Y-97622536D01*
X132351520Y-97483664D01*
X132324427Y-97347459D01*
X132271283Y-97219157D01*
X132194129Y-97103689D01*
X132095931Y-97005491D01*
X131980463Y-96928337D01*
X131852161Y-96875193D01*
X131715956Y-96848100D01*
X131577084Y-96848100D01*
X131440879Y-96875193D01*
X131312577Y-96928337D01*
X131197109Y-97005491D01*
X131098911Y-97103689D01*
X131021757Y-97219157D01*
X130968613Y-97347459D01*
X130941520Y-97483664D01*
X129634329Y-97483664D01*
X129634329Y-95161805D01*
X129708647Y-95147022D01*
X129868796Y-95080686D01*
X130012927Y-94984381D01*
X130135501Y-94861807D01*
X130167361Y-94814124D01*
X144980100Y-94814124D01*
X144980100Y-94952996D01*
X145007193Y-95089201D01*
X145060337Y-95217503D01*
X145115889Y-95300642D01*
X145064063Y-95425762D01*
X145036970Y-95561967D01*
X145036970Y-95700839D01*
X145064063Y-95837044D01*
X145117207Y-95965346D01*
X145194361Y-96080814D01*
X145292559Y-96179012D01*
X145408027Y-96256166D01*
X145536329Y-96309310D01*
X145672534Y-96336403D01*
X145811406Y-96336403D01*
X145947611Y-96309310D01*
X146075913Y-96256166D01*
X146191381Y-96179012D01*
X146289579Y-96080814D01*
X146362057Y-95972344D01*
X150212500Y-95972344D01*
X150212500Y-96111216D01*
X150239593Y-96247421D01*
X150292737Y-96375723D01*
X150369891Y-96491191D01*
X150468089Y-96589389D01*
X150583557Y-96666543D01*
X150711859Y-96719687D01*
X150848064Y-96746780D01*
X150986936Y-96746780D01*
X151123141Y-96719687D01*
X151251443Y-96666543D01*
X151366911Y-96589389D01*
X151465109Y-96491191D01*
X151542263Y-96375723D01*
X151595407Y-96247421D01*
X151622500Y-96111216D01*
X151622500Y-95972344D01*
X151595407Y-95836139D01*
X151542263Y-95707837D01*
X151465109Y-95592369D01*
X151366911Y-95494171D01*
X151251443Y-95417017D01*
X151202888Y-95396905D01*
X159175579Y-95396905D01*
X159175579Y-95535777D01*
X159202672Y-95671982D01*
X159255816Y-95800284D01*
X159332970Y-95915752D01*
X159431168Y-96013950D01*
X159546636Y-96091104D01*
X159674938Y-96144248D01*
X159811143Y-96171341D01*
X159950015Y-96171341D01*
X160086220Y-96144248D01*
X160214522Y-96091104D01*
X160329990Y-96013950D01*
X160428188Y-95915752D01*
X160505342Y-95800284D01*
X160558486Y-95671982D01*
X160585579Y-95535777D01*
X160585579Y-95396905D01*
X160558486Y-95260700D01*
X160505342Y-95132398D01*
X160428188Y-95016930D01*
X160329990Y-94918732D01*
X160214522Y-94841578D01*
X160086220Y-94788434D01*
X159950015Y-94761341D01*
X159811143Y-94761341D01*
X159674938Y-94788434D01*
X159546636Y-94841578D01*
X159431168Y-94918732D01*
X159332970Y-95016930D01*
X159255816Y-95132398D01*
X159202672Y-95260700D01*
X159175579Y-95396905D01*
X151202888Y-95396905D01*
X151123141Y-95363873D01*
X150986936Y-95336780D01*
X150848064Y-95336780D01*
X150711859Y-95363873D01*
X150583557Y-95417017D01*
X150468089Y-95494171D01*
X150369891Y-95592369D01*
X150292737Y-95707837D01*
X150239593Y-95836139D01*
X150212500Y-95972344D01*
X146362057Y-95972344D01*
X146366733Y-95965346D01*
X146419877Y-95837044D01*
X146446970Y-95700839D01*
X146446970Y-95561967D01*
X146419877Y-95425762D01*
X146366733Y-95297460D01*
X146311181Y-95214321D01*
X146363007Y-95089201D01*
X146390100Y-94952996D01*
X146390100Y-94814124D01*
X146363007Y-94677919D01*
X146309863Y-94549617D01*
X146232709Y-94434149D01*
X146134511Y-94335951D01*
X146019043Y-94258797D01*
X145890741Y-94205653D01*
X145846758Y-94196904D01*
X156679340Y-94196904D01*
X156679340Y-94335776D01*
X156706433Y-94471981D01*
X156759577Y-94600283D01*
X156836731Y-94715751D01*
X156934929Y-94813949D01*
X157050397Y-94891103D01*
X157178699Y-94944247D01*
X157314904Y-94971340D01*
X157453776Y-94971340D01*
X157589981Y-94944247D01*
X157718283Y-94891103D01*
X157833751Y-94813949D01*
X157931949Y-94715751D01*
X158009103Y-94600283D01*
X158062247Y-94471981D01*
X158089340Y-94335776D01*
X158089340Y-94196904D01*
X158062247Y-94060699D01*
X158009103Y-93932397D01*
X157931949Y-93816929D01*
X157833751Y-93718731D01*
X157718283Y-93641577D01*
X157589981Y-93588433D01*
X157453776Y-93561340D01*
X157314904Y-93561340D01*
X157178699Y-93588433D01*
X157050397Y-93641577D01*
X156934929Y-93718731D01*
X156836731Y-93816929D01*
X156759577Y-93932397D01*
X156706433Y-94060699D01*
X156679340Y-94196904D01*
X145846758Y-94196904D01*
X145754536Y-94178560D01*
X145615664Y-94178560D01*
X145479459Y-94205653D01*
X145351157Y-94258797D01*
X145235689Y-94335951D01*
X145137491Y-94434149D01*
X145060337Y-94549617D01*
X145007193Y-94677919D01*
X144980100Y-94814124D01*
X130167361Y-94814124D01*
X130231806Y-94717676D01*
X130298142Y-94557527D01*
X130331960Y-94387512D01*
X130331960Y-94214168D01*
X130298142Y-94044153D01*
X130231806Y-93884004D01*
X130135501Y-93739873D01*
X130012927Y-93617299D01*
X129868796Y-93520994D01*
X129708647Y-93454658D01*
X129634329Y-93439875D01*
X129634329Y-93328224D01*
X133402780Y-93328224D01*
X133402780Y-93467096D01*
X133429873Y-93603301D01*
X133483017Y-93731603D01*
X133560171Y-93847071D01*
X133658369Y-93945269D01*
X133773837Y-94022423D01*
X133902139Y-94075567D01*
X134038344Y-94102660D01*
X134177216Y-94102660D01*
X134313421Y-94075567D01*
X134441723Y-94022423D01*
X134557191Y-93945269D01*
X134655389Y-93847071D01*
X134732543Y-93731603D01*
X134785687Y-93603301D01*
X134812780Y-93467096D01*
X134812780Y-93328224D01*
X134785687Y-93192019D01*
X134754781Y-93117404D01*
X143532300Y-93117404D01*
X143532300Y-93256276D01*
X143559393Y-93392481D01*
X143612537Y-93520783D01*
X143689691Y-93636251D01*
X143787889Y-93734449D01*
X143903357Y-93811603D01*
X144031659Y-93864747D01*
X144167864Y-93891840D01*
X144306736Y-93891840D01*
X144442941Y-93864747D01*
X144571243Y-93811603D01*
X144686711Y-93734449D01*
X144784909Y-93636251D01*
X144862063Y-93520783D01*
X144915207Y-93392481D01*
X144942300Y-93256276D01*
X144942300Y-93117404D01*
X144915207Y-92981199D01*
X144862063Y-92852897D01*
X144784909Y-92737429D01*
X144686711Y-92639231D01*
X144571243Y-92562077D01*
X144501537Y-92533204D01*
X151998120Y-92533204D01*
X151998120Y-92672076D01*
X152025213Y-92808281D01*
X152078357Y-92936583D01*
X152155511Y-93052051D01*
X152253709Y-93150249D01*
X152369177Y-93227403D01*
X152497479Y-93280547D01*
X152633684Y-93307640D01*
X152772556Y-93307640D01*
X152908761Y-93280547D01*
X153037063Y-93227403D01*
X153152531Y-93150249D01*
X153187916Y-93114864D01*
X157669940Y-93114864D01*
X157669940Y-93253736D01*
X157697033Y-93389941D01*
X157750177Y-93518243D01*
X157827331Y-93633711D01*
X157925529Y-93731909D01*
X158040997Y-93809063D01*
X158169299Y-93862207D01*
X158305504Y-93889300D01*
X158444376Y-93889300D01*
X158580581Y-93862207D01*
X158708883Y-93809063D01*
X158824351Y-93731909D01*
X158922549Y-93633711D01*
X158999703Y-93518243D01*
X159052847Y-93389941D01*
X159079940Y-93253736D01*
X159079940Y-93114864D01*
X159052847Y-92978659D01*
X158999703Y-92850357D01*
X158922549Y-92734889D01*
X158824351Y-92636691D01*
X158708883Y-92559537D01*
X158580581Y-92506393D01*
X158444376Y-92479300D01*
X158305504Y-92479300D01*
X158169299Y-92506393D01*
X158040997Y-92559537D01*
X157925529Y-92636691D01*
X157827331Y-92734889D01*
X157750177Y-92850357D01*
X157697033Y-92978659D01*
X157669940Y-93114864D01*
X153187916Y-93114864D01*
X153250729Y-93052051D01*
X153327883Y-92936583D01*
X153381027Y-92808281D01*
X153408120Y-92672076D01*
X153408120Y-92533204D01*
X153381027Y-92396999D01*
X153327883Y-92268697D01*
X153250729Y-92153229D01*
X153152531Y-92055031D01*
X153037063Y-91977877D01*
X152908761Y-91924733D01*
X152772556Y-91897640D01*
X152633684Y-91897640D01*
X152497479Y-91924733D01*
X152369177Y-91977877D01*
X152253709Y-92055031D01*
X152155511Y-92153229D01*
X152078357Y-92268697D01*
X152025213Y-92396999D01*
X151998120Y-92533204D01*
X144501537Y-92533204D01*
X144442941Y-92508933D01*
X144306736Y-92481840D01*
X144167864Y-92481840D01*
X144031659Y-92508933D01*
X143903357Y-92562077D01*
X143787889Y-92639231D01*
X143689691Y-92737429D01*
X143612537Y-92852897D01*
X143559393Y-92981199D01*
X143532300Y-93117404D01*
X134754781Y-93117404D01*
X134732543Y-93063717D01*
X134655389Y-92948249D01*
X134557191Y-92850051D01*
X134441723Y-92772897D01*
X134313421Y-92719753D01*
X134177216Y-92692660D01*
X134038344Y-92692660D01*
X133902139Y-92719753D01*
X133773837Y-92772897D01*
X133658369Y-92850051D01*
X133560171Y-92948249D01*
X133483017Y-93063717D01*
X133429873Y-93192019D01*
X133402780Y-93328224D01*
X129634329Y-93328224D01*
X129634329Y-91886724D01*
X137697940Y-91886724D01*
X137697940Y-92025596D01*
X137725033Y-92161801D01*
X137778177Y-92290103D01*
X137855331Y-92405571D01*
X137953529Y-92503769D01*
X138068997Y-92580923D01*
X138197299Y-92634067D01*
X138333504Y-92661160D01*
X138472376Y-92661160D01*
X138608581Y-92634067D01*
X138736883Y-92580923D01*
X138852351Y-92503769D01*
X138950549Y-92405571D01*
X139027703Y-92290103D01*
X139080847Y-92161801D01*
X139107940Y-92025596D01*
X139107940Y-91893124D01*
X140897260Y-91893124D01*
X140897260Y-92031996D01*
X140924353Y-92168201D01*
X140977497Y-92296503D01*
X141054651Y-92411971D01*
X141152849Y-92510169D01*
X141268317Y-92587323D01*
X141396619Y-92640467D01*
X141532824Y-92667560D01*
X141671696Y-92667560D01*
X141807901Y-92640467D01*
X141936203Y-92587323D01*
X142051671Y-92510169D01*
X142149869Y-92411971D01*
X142227023Y-92296503D01*
X142280167Y-92168201D01*
X142307260Y-92031996D01*
X142307260Y-91893124D01*
X142280167Y-91756919D01*
X142227023Y-91628617D01*
X142149869Y-91513149D01*
X142051671Y-91414951D01*
X141936203Y-91337797D01*
X141933951Y-91336864D01*
X142564560Y-91336864D01*
X142564560Y-91475736D01*
X142591653Y-91611941D01*
X142644797Y-91740243D01*
X142721951Y-91855711D01*
X142820149Y-91953909D01*
X142935617Y-92031063D01*
X143063919Y-92084207D01*
X143200124Y-92111300D01*
X143338996Y-92111300D01*
X143475201Y-92084207D01*
X143603503Y-92031063D01*
X143718971Y-91953909D01*
X143817169Y-91855711D01*
X143894323Y-91740243D01*
X143947467Y-91611941D01*
X143974560Y-91475736D01*
X143974560Y-91336864D01*
X143947467Y-91200659D01*
X143894323Y-91072357D01*
X143817169Y-90956889D01*
X143718971Y-90858691D01*
X143603503Y-90781537D01*
X143475201Y-90728393D01*
X143338996Y-90701300D01*
X143200124Y-90701300D01*
X143063919Y-90728393D01*
X142935617Y-90781537D01*
X142820149Y-90858691D01*
X142721951Y-90956889D01*
X142644797Y-91072357D01*
X142591653Y-91200659D01*
X142564560Y-91336864D01*
X141933951Y-91336864D01*
X141807901Y-91284653D01*
X141671696Y-91257560D01*
X141532824Y-91257560D01*
X141396619Y-91284653D01*
X141268317Y-91337797D01*
X141152849Y-91414951D01*
X141054651Y-91513149D01*
X140977497Y-91628617D01*
X140924353Y-91756919D01*
X140897260Y-91893124D01*
X139107940Y-91893124D01*
X139107940Y-91886724D01*
X139080847Y-91750519D01*
X139027703Y-91622217D01*
X138950549Y-91506749D01*
X138852351Y-91408551D01*
X138736883Y-91331397D01*
X138608581Y-91278253D01*
X138472376Y-91251160D01*
X138333504Y-91251160D01*
X138197299Y-91278253D01*
X138068997Y-91331397D01*
X137953529Y-91408551D01*
X137855331Y-91506749D01*
X137778177Y-91622217D01*
X137725033Y-91750519D01*
X137697940Y-91886724D01*
X129634329Y-91886724D01*
X129634329Y-88361805D01*
X129708647Y-88347022D01*
X129868796Y-88280686D01*
X130012927Y-88184381D01*
X130135501Y-88061807D01*
X130231806Y-87917676D01*
X130295840Y-87763084D01*
X134357820Y-87763084D01*
X134357820Y-87901956D01*
X134384913Y-88038161D01*
X134438057Y-88166463D01*
X134515211Y-88281931D01*
X134613409Y-88380129D01*
X134728877Y-88457283D01*
X134857179Y-88510427D01*
X134993384Y-88537520D01*
X135132256Y-88537520D01*
X135268461Y-88510427D01*
X135396763Y-88457283D01*
X135512231Y-88380129D01*
X135610429Y-88281931D01*
X135687583Y-88166463D01*
X135740727Y-88038161D01*
X135767820Y-87901956D01*
X135767820Y-87763084D01*
X135740727Y-87626879D01*
X135687583Y-87498577D01*
X135610429Y-87383109D01*
X135512231Y-87284911D01*
X135396763Y-87207757D01*
X135268461Y-87154613D01*
X135132256Y-87127520D01*
X134993384Y-87127520D01*
X134857179Y-87154613D01*
X134728877Y-87207757D01*
X134613409Y-87284911D01*
X134515211Y-87383109D01*
X134438057Y-87498577D01*
X134384913Y-87626879D01*
X134357820Y-87763084D01*
X130295840Y-87763084D01*
X130298142Y-87757527D01*
X130331960Y-87587512D01*
X130331960Y-87414168D01*
X130298142Y-87244153D01*
X130231806Y-87084004D01*
X130135501Y-86939873D01*
X130012927Y-86817299D01*
X129868796Y-86720994D01*
X129708647Y-86654658D01*
X129634329Y-86639875D01*
X129634329Y-85863164D01*
X133506920Y-85863164D01*
X133506920Y-86002036D01*
X133534013Y-86138241D01*
X133587157Y-86266543D01*
X133664311Y-86382011D01*
X133762509Y-86480209D01*
X133877977Y-86557363D01*
X134006279Y-86610507D01*
X134142484Y-86637600D01*
X134281356Y-86637600D01*
X134417561Y-86610507D01*
X134545863Y-86557363D01*
X134661331Y-86480209D01*
X134759529Y-86382011D01*
X134836683Y-86266543D01*
X134889827Y-86138241D01*
X134916920Y-86002036D01*
X134916920Y-85919064D01*
X138066220Y-85919064D01*
X138066220Y-86057936D01*
X138093313Y-86194141D01*
X138146457Y-86322443D01*
X138223611Y-86437911D01*
X138321809Y-86536109D01*
X138437277Y-86613263D01*
X138565579Y-86666407D01*
X138701784Y-86693500D01*
X138840656Y-86693500D01*
X138976861Y-86666407D01*
X139105163Y-86613263D01*
X139220631Y-86536109D01*
X139318829Y-86437911D01*
X139373611Y-86355924D01*
X140806880Y-86355924D01*
X140806880Y-86494796D01*
X140833973Y-86631001D01*
X140887117Y-86759303D01*
X140964271Y-86874771D01*
X141062469Y-86972969D01*
X141177937Y-87050123D01*
X141306239Y-87103267D01*
X141442444Y-87130360D01*
X141581316Y-87130360D01*
X141717521Y-87103267D01*
X141845823Y-87050123D01*
X141961291Y-86972969D01*
X142059489Y-86874771D01*
X142136643Y-86759303D01*
X142189787Y-86631001D01*
X142216880Y-86494796D01*
X142216880Y-86355924D01*
X142189787Y-86219719D01*
X142136643Y-86091417D01*
X142059489Y-85975949D01*
X141961291Y-85877751D01*
X141845823Y-85800597D01*
X141717521Y-85747453D01*
X141581316Y-85720360D01*
X141442444Y-85720360D01*
X141306239Y-85747453D01*
X141177937Y-85800597D01*
X141062469Y-85877751D01*
X140964271Y-85975949D01*
X140887117Y-86091417D01*
X140833973Y-86219719D01*
X140806880Y-86355924D01*
X139373611Y-86355924D01*
X139395983Y-86322443D01*
X139449127Y-86194141D01*
X139476220Y-86057936D01*
X139476220Y-85919064D01*
X139449127Y-85782859D01*
X139395983Y-85654557D01*
X139318829Y-85539089D01*
X139220631Y-85440891D01*
X139105163Y-85363737D01*
X138976861Y-85310593D01*
X138840656Y-85283500D01*
X138701784Y-85283500D01*
X138565579Y-85310593D01*
X138437277Y-85363737D01*
X138321809Y-85440891D01*
X138223611Y-85539089D01*
X138146457Y-85654557D01*
X138093313Y-85782859D01*
X138066220Y-85919064D01*
X134916920Y-85919064D01*
X134916920Y-85863164D01*
X134889827Y-85726959D01*
X134836683Y-85598657D01*
X134759529Y-85483189D01*
X134661331Y-85384991D01*
X134545863Y-85307837D01*
X134439046Y-85263592D01*
X139841548Y-85263592D01*
X139841548Y-85402464D01*
X139868641Y-85538669D01*
X139921785Y-85666971D01*
X139998939Y-85782439D01*
X140097137Y-85880637D01*
X140212605Y-85957791D01*
X140340907Y-86010935D01*
X140477112Y-86038028D01*
X140615984Y-86038028D01*
X140752189Y-86010935D01*
X140880491Y-85957791D01*
X140995959Y-85880637D01*
X141094157Y-85782439D01*
X141171311Y-85666971D01*
X141224455Y-85538669D01*
X141251548Y-85402464D01*
X141251548Y-85294204D01*
X157537860Y-85294204D01*
X157537860Y-85433076D01*
X157564953Y-85569281D01*
X157618097Y-85697583D01*
X157695251Y-85813051D01*
X157793449Y-85911249D01*
X157908917Y-85988403D01*
X158037219Y-86041547D01*
X158173424Y-86068640D01*
X158312296Y-86068640D01*
X158448501Y-86041547D01*
X158576803Y-85988403D01*
X158692271Y-85911249D01*
X158790469Y-85813051D01*
X158867623Y-85697583D01*
X158920767Y-85569281D01*
X158947860Y-85433076D01*
X158947860Y-85294204D01*
X158920767Y-85157999D01*
X158867623Y-85029697D01*
X158790469Y-84914229D01*
X158692271Y-84816031D01*
X158576803Y-84738877D01*
X158448501Y-84685733D01*
X158312296Y-84658640D01*
X158173424Y-84658640D01*
X158037219Y-84685733D01*
X157908917Y-84738877D01*
X157793449Y-84816031D01*
X157695251Y-84914229D01*
X157618097Y-85029697D01*
X157564953Y-85157999D01*
X157537860Y-85294204D01*
X141251548Y-85294204D01*
X141251548Y-85263592D01*
X141224455Y-85127387D01*
X141171311Y-84999085D01*
X141094157Y-84883617D01*
X140995959Y-84785419D01*
X140880491Y-84708265D01*
X140752189Y-84655121D01*
X140615984Y-84628028D01*
X140477112Y-84628028D01*
X140340907Y-84655121D01*
X140212605Y-84708265D01*
X140097137Y-84785419D01*
X139998939Y-84883617D01*
X139921785Y-84999085D01*
X139868641Y-85127387D01*
X139841548Y-85263592D01*
X134439046Y-85263592D01*
X134417561Y-85254693D01*
X134281356Y-85227600D01*
X134142484Y-85227600D01*
X134006279Y-85254693D01*
X133877977Y-85307837D01*
X133762509Y-85384991D01*
X133664311Y-85483189D01*
X133587157Y-85598657D01*
X133534013Y-85726959D01*
X133506920Y-85863164D01*
X129634329Y-85863164D01*
X129634329Y-84508966D01*
X132729680Y-84508966D01*
X132729680Y-84647838D01*
X132756773Y-84784043D01*
X132809917Y-84912345D01*
X132887071Y-85027813D01*
X132985269Y-85126011D01*
X133100737Y-85203165D01*
X133229039Y-85256309D01*
X133365244Y-85283402D01*
X133504116Y-85283402D01*
X133640321Y-85256309D01*
X133768623Y-85203165D01*
X133884091Y-85126011D01*
X133982289Y-85027813D01*
X134059443Y-84912345D01*
X134112587Y-84784043D01*
X134139680Y-84647838D01*
X134139680Y-84508966D01*
X134131382Y-84467245D01*
X145217779Y-84467245D01*
X145217779Y-84606117D01*
X145244872Y-84742322D01*
X145298016Y-84870624D01*
X145375170Y-84986092D01*
X145473368Y-85084290D01*
X145588836Y-85161444D01*
X145717138Y-85214588D01*
X145853343Y-85241681D01*
X145992215Y-85241681D01*
X146128420Y-85214588D01*
X146256722Y-85161444D01*
X146372190Y-85084290D01*
X146470388Y-84986092D01*
X146547542Y-84870624D01*
X146600686Y-84742322D01*
X146627779Y-84606117D01*
X146627779Y-84467245D01*
X146600686Y-84331040D01*
X146547542Y-84202738D01*
X146470388Y-84087270D01*
X146372190Y-83989072D01*
X146322133Y-83955624D01*
X151998120Y-83955624D01*
X151998120Y-84094496D01*
X152025213Y-84230701D01*
X152078357Y-84359003D01*
X152155511Y-84474471D01*
X152253709Y-84572669D01*
X152369177Y-84649823D01*
X152497479Y-84702967D01*
X152633684Y-84730060D01*
X152772556Y-84730060D01*
X152908761Y-84702967D01*
X153037063Y-84649823D01*
X153152531Y-84572669D01*
X153250729Y-84474471D01*
X153327883Y-84359003D01*
X153381027Y-84230701D01*
X153408120Y-84094496D01*
X153408120Y-83955624D01*
X153381027Y-83819419D01*
X153327883Y-83691117D01*
X153250729Y-83575649D01*
X153152531Y-83477451D01*
X153037063Y-83400297D01*
X152908761Y-83347153D01*
X152772556Y-83320060D01*
X152633684Y-83320060D01*
X152497479Y-83347153D01*
X152369177Y-83400297D01*
X152253709Y-83477451D01*
X152155511Y-83575649D01*
X152078357Y-83691117D01*
X152025213Y-83819419D01*
X151998120Y-83955624D01*
X146322133Y-83955624D01*
X146256722Y-83911918D01*
X146128420Y-83858774D01*
X145992215Y-83831681D01*
X145853343Y-83831681D01*
X145717138Y-83858774D01*
X145588836Y-83911918D01*
X145473368Y-83989072D01*
X145375170Y-84087270D01*
X145298016Y-84202738D01*
X145244872Y-84331040D01*
X145217779Y-84467245D01*
X134131382Y-84467245D01*
X134112587Y-84372761D01*
X134059443Y-84244459D01*
X133982289Y-84128991D01*
X133884091Y-84030793D01*
X133768623Y-83953639D01*
X133640321Y-83900495D01*
X133504116Y-83873402D01*
X133365244Y-83873402D01*
X133229039Y-83900495D01*
X133100737Y-83953639D01*
X132985269Y-84030793D01*
X132887071Y-84128991D01*
X132809917Y-84244459D01*
X132756773Y-84372761D01*
X132729680Y-84508966D01*
X129634329Y-84508966D01*
X129634329Y-83318064D01*
X143087176Y-83318064D01*
X143087176Y-83456936D01*
X143114269Y-83593141D01*
X143167413Y-83721443D01*
X143244567Y-83836911D01*
X143342765Y-83935109D01*
X143458233Y-84012263D01*
X143586535Y-84065407D01*
X143722740Y-84092500D01*
X143861612Y-84092500D01*
X143997817Y-84065407D01*
X144126119Y-84012263D01*
X144241587Y-83935109D01*
X144288966Y-83887730D01*
X144313450Y-83924372D01*
X144411648Y-84022570D01*
X144527116Y-84099724D01*
X144655418Y-84152868D01*
X144791623Y-84179961D01*
X144930495Y-84179961D01*
X145066700Y-84152868D01*
X145195002Y-84099724D01*
X145310470Y-84022570D01*
X145408668Y-83924372D01*
X145485822Y-83808904D01*
X145538966Y-83680602D01*
X145566059Y-83544397D01*
X145566059Y-83405525D01*
X145538966Y-83269320D01*
X145485822Y-83141018D01*
X145408668Y-83025550D01*
X145353222Y-82970104D01*
X157987440Y-82970104D01*
X157987440Y-83108976D01*
X158014533Y-83245181D01*
X158067677Y-83373483D01*
X158144831Y-83488951D01*
X158243029Y-83587149D01*
X158358497Y-83664303D01*
X158486799Y-83717447D01*
X158623004Y-83744540D01*
X158761876Y-83744540D01*
X158898081Y-83717447D01*
X159026383Y-83664303D01*
X159141851Y-83587149D01*
X159240049Y-83488951D01*
X159317203Y-83373483D01*
X159370347Y-83245181D01*
X159397440Y-83108976D01*
X159397440Y-82970104D01*
X159370347Y-82833899D01*
X159317203Y-82705597D01*
X159240049Y-82590129D01*
X159141851Y-82491931D01*
X159026383Y-82414777D01*
X158898081Y-82361633D01*
X158761876Y-82334540D01*
X158623004Y-82334540D01*
X158486799Y-82361633D01*
X158358497Y-82414777D01*
X158243029Y-82491931D01*
X158144831Y-82590129D01*
X158067677Y-82705597D01*
X158014533Y-82833899D01*
X157987440Y-82970104D01*
X145353222Y-82970104D01*
X145310470Y-82927352D01*
X145195002Y-82850198D01*
X145066700Y-82797054D01*
X144930495Y-82769961D01*
X144791623Y-82769961D01*
X144655418Y-82797054D01*
X144527116Y-82850198D01*
X144411648Y-82927352D01*
X144364269Y-82974731D01*
X144339785Y-82938089D01*
X144241587Y-82839891D01*
X144126119Y-82762737D01*
X143997817Y-82709593D01*
X143861612Y-82682500D01*
X143722740Y-82682500D01*
X143586535Y-82709593D01*
X143458233Y-82762737D01*
X143342765Y-82839891D01*
X143244567Y-82938089D01*
X143167413Y-83053557D01*
X143114269Y-83181859D01*
X143087176Y-83318064D01*
X129634329Y-83318064D01*
X129634329Y-80844124D01*
X133293560Y-80844124D01*
X133293560Y-80982996D01*
X133320653Y-81119201D01*
X133373797Y-81247503D01*
X133450951Y-81362971D01*
X133525174Y-81437194D01*
X133483213Y-81538499D01*
X133456120Y-81674704D01*
X133456120Y-81813576D01*
X133483213Y-81949781D01*
X133536357Y-82078083D01*
X133613511Y-82193551D01*
X133711709Y-82291749D01*
X133827177Y-82368903D01*
X133955479Y-82422047D01*
X134091684Y-82449140D01*
X134230556Y-82449140D01*
X134366761Y-82422047D01*
X134495063Y-82368903D01*
X134610531Y-82291749D01*
X134612896Y-82289384D01*
X135825940Y-82289384D01*
X135825940Y-82428256D01*
X135853033Y-82564461D01*
X135906177Y-82692763D01*
X135983331Y-82808231D01*
X136081529Y-82906429D01*
X136196997Y-82983583D01*
X136325299Y-83036727D01*
X136461504Y-83063820D01*
X136600376Y-83063820D01*
X136736581Y-83036727D01*
X136864883Y-82983583D01*
X136980351Y-82906429D01*
X137078549Y-82808231D01*
X137155703Y-82692763D01*
X137208847Y-82564461D01*
X137235940Y-82428256D01*
X137235940Y-82289384D01*
X137208847Y-82153179D01*
X137155703Y-82024877D01*
X137078549Y-81909409D01*
X136980351Y-81811211D01*
X136878805Y-81743359D01*
X144052925Y-81743359D01*
X144052925Y-81882231D01*
X144080018Y-82018436D01*
X144133162Y-82146738D01*
X144210316Y-82262206D01*
X144308514Y-82360404D01*
X144423982Y-82437558D01*
X144552284Y-82490702D01*
X144688489Y-82517795D01*
X144827361Y-82517795D01*
X144963566Y-82490702D01*
X145091868Y-82437558D01*
X145207336Y-82360404D01*
X145305534Y-82262206D01*
X145382688Y-82146738D01*
X145435832Y-82018436D01*
X145462925Y-81882231D01*
X145462925Y-81743359D01*
X145435832Y-81607154D01*
X145382688Y-81478852D01*
X145305534Y-81363384D01*
X145207336Y-81265186D01*
X145091868Y-81188032D01*
X144963566Y-81134888D01*
X144827361Y-81107795D01*
X144688489Y-81107795D01*
X144552284Y-81134888D01*
X144423982Y-81188032D01*
X144308514Y-81265186D01*
X144210316Y-81363384D01*
X144133162Y-81478852D01*
X144080018Y-81607154D01*
X144052925Y-81743359D01*
X136878805Y-81743359D01*
X136864883Y-81734057D01*
X136736581Y-81680913D01*
X136600376Y-81653820D01*
X136461504Y-81653820D01*
X136325299Y-81680913D01*
X136196997Y-81734057D01*
X136081529Y-81811211D01*
X135983331Y-81909409D01*
X135906177Y-82024877D01*
X135853033Y-82153179D01*
X135825940Y-82289384D01*
X134612896Y-82289384D01*
X134708729Y-82193551D01*
X134785883Y-82078083D01*
X134839027Y-81949781D01*
X134866120Y-81813576D01*
X134866120Y-81674704D01*
X134839027Y-81538499D01*
X134785883Y-81410197D01*
X134708729Y-81294729D01*
X134634506Y-81220506D01*
X134676467Y-81119201D01*
X134703560Y-80982996D01*
X134703560Y-80844124D01*
X134695477Y-80803484D01*
X136191700Y-80803484D01*
X136191700Y-80942356D01*
X136218793Y-81078561D01*
X136271937Y-81206863D01*
X136349091Y-81322331D01*
X136447289Y-81420529D01*
X136562757Y-81497683D01*
X136691059Y-81550827D01*
X136827264Y-81577920D01*
X136966136Y-81577920D01*
X137102341Y-81550827D01*
X137230643Y-81497683D01*
X137346111Y-81420529D01*
X137444309Y-81322331D01*
X137521463Y-81206863D01*
X137574607Y-81078561D01*
X137601700Y-80942356D01*
X137601700Y-80803484D01*
X137574607Y-80667279D01*
X137521463Y-80538977D01*
X137444309Y-80423509D01*
X137346111Y-80325311D01*
X137230643Y-80248157D01*
X137102341Y-80195013D01*
X136966136Y-80167920D01*
X136827264Y-80167920D01*
X136691059Y-80195013D01*
X136562757Y-80248157D01*
X136447289Y-80325311D01*
X136349091Y-80423509D01*
X136271937Y-80538977D01*
X136218793Y-80667279D01*
X136191700Y-80803484D01*
X134695477Y-80803484D01*
X134676467Y-80707919D01*
X134623323Y-80579617D01*
X134546169Y-80464149D01*
X134447971Y-80365951D01*
X134332503Y-80288797D01*
X134204201Y-80235653D01*
X134067996Y-80208560D01*
X133929124Y-80208560D01*
X133792919Y-80235653D01*
X133664617Y-80288797D01*
X133549149Y-80365951D01*
X133450951Y-80464149D01*
X133373797Y-80579617D01*
X133320653Y-80707919D01*
X133293560Y-80844124D01*
X129634329Y-80844124D01*
X129634329Y-76624018D01*
X136211523Y-76624018D01*
X136211523Y-76762890D01*
X136238616Y-76899095D01*
X136291760Y-77027397D01*
X136368914Y-77142865D01*
X136467112Y-77241063D01*
X136582580Y-77318217D01*
X136710882Y-77371361D01*
X136847087Y-77398454D01*
X136985959Y-77398454D01*
X137122164Y-77371361D01*
X137250466Y-77318217D01*
X137365934Y-77241063D01*
X137464132Y-77142865D01*
X137541286Y-77027397D01*
X137594430Y-76899095D01*
X137621523Y-76762890D01*
X137621523Y-76624018D01*
X137594430Y-76487813D01*
X137541286Y-76359511D01*
X137510921Y-76314067D01*
X137542550Y-76266732D01*
X137595694Y-76138430D01*
X137622787Y-76002225D01*
X137622787Y-75863353D01*
X137595694Y-75727148D01*
X137542550Y-75598846D01*
X137465396Y-75483378D01*
X137367198Y-75385180D01*
X137251730Y-75308026D01*
X137123428Y-75254882D01*
X136987223Y-75227789D01*
X136848351Y-75227789D01*
X136712146Y-75254882D01*
X136583844Y-75308026D01*
X136468376Y-75385180D01*
X136370178Y-75483378D01*
X136293024Y-75598846D01*
X136239880Y-75727148D01*
X136212787Y-75863353D01*
X136212787Y-76002225D01*
X136239880Y-76138430D01*
X136293024Y-76266732D01*
X136323389Y-76312176D01*
X136291760Y-76359511D01*
X136238616Y-76487813D01*
X136211523Y-76624018D01*
X129634329Y-76624018D01*
X129634329Y-74489044D01*
X137034980Y-74489044D01*
X137034980Y-74627916D01*
X137062073Y-74764121D01*
X137115217Y-74892423D01*
X137192371Y-75007891D01*
X137290569Y-75106089D01*
X137406037Y-75183243D01*
X137534339Y-75236387D01*
X137670544Y-75263480D01*
X137809416Y-75263480D01*
X137945621Y-75236387D01*
X138073923Y-75183243D01*
X138189391Y-75106089D01*
X138287589Y-75007891D01*
X138364743Y-74892423D01*
X138417887Y-74764121D01*
X138444980Y-74627916D01*
X138444980Y-74489044D01*
X138417887Y-74352839D01*
X138364743Y-74224537D01*
X138287589Y-74109069D01*
X138189391Y-74010871D01*
X138073923Y-73933717D01*
X137945621Y-73880573D01*
X137809416Y-73853480D01*
X137670544Y-73853480D01*
X137534339Y-73880573D01*
X137406037Y-73933717D01*
X137290569Y-74010871D01*
X137192371Y-74109069D01*
X137115217Y-74224537D01*
X137062073Y-74352839D01*
X137034980Y-74489044D01*
X129634329Y-74489044D01*
X129634329Y-72512924D01*
X144436540Y-72512924D01*
X144436540Y-72651796D01*
X144463633Y-72788001D01*
X144516777Y-72916303D01*
X144593931Y-73031771D01*
X144692129Y-73129969D01*
X144807597Y-73207123D01*
X144935899Y-73260267D01*
X145072104Y-73287360D01*
X145210976Y-73287360D01*
X145347181Y-73260267D01*
X145475483Y-73207123D01*
X145590951Y-73129969D01*
X145689149Y-73031771D01*
X145766303Y-72916303D01*
X145819447Y-72788001D01*
X145846540Y-72651796D01*
X145846540Y-72512924D01*
X145846540Y-72512923D01*
X148441702Y-72512923D01*
X148441702Y-72651795D01*
X148468795Y-72788000D01*
X148521939Y-72916302D01*
X148599093Y-73031770D01*
X148697291Y-73129968D01*
X148812759Y-73207122D01*
X148941061Y-73260266D01*
X149077266Y-73287359D01*
X149216138Y-73287359D01*
X149352343Y-73260266D01*
X149480645Y-73207122D01*
X149596113Y-73129968D01*
X149694311Y-73031770D01*
X149771465Y-72916302D01*
X149824609Y-72788000D01*
X149851702Y-72651795D01*
X149851702Y-72525624D01*
X150027080Y-72525624D01*
X150027080Y-72664496D01*
X150054173Y-72800701D01*
X150107317Y-72929003D01*
X150184471Y-73044471D01*
X150282669Y-73142669D01*
X150398137Y-73219823D01*
X150526439Y-73272967D01*
X150662644Y-73300060D01*
X150801516Y-73300060D01*
X150937721Y-73272967D01*
X151066023Y-73219823D01*
X151181491Y-73142669D01*
X151279689Y-73044471D01*
X151356843Y-72929003D01*
X151409987Y-72800701D01*
X151437080Y-72664496D01*
X151437080Y-72525624D01*
X151409987Y-72389419D01*
X151356843Y-72261117D01*
X151279689Y-72145649D01*
X151181491Y-72047451D01*
X151066023Y-71970297D01*
X150937721Y-71917153D01*
X150801516Y-71890060D01*
X150662644Y-71890060D01*
X150526439Y-71917153D01*
X150398137Y-71970297D01*
X150282669Y-72047451D01*
X150184471Y-72145649D01*
X150107317Y-72261117D01*
X150054173Y-72389419D01*
X150027080Y-72525624D01*
X149851702Y-72525624D01*
X149851702Y-72512923D01*
X149824609Y-72376718D01*
X149771465Y-72248416D01*
X149694311Y-72132948D01*
X149596113Y-72034750D01*
X149480645Y-71957596D01*
X149352343Y-71904452D01*
X149216138Y-71877359D01*
X149077266Y-71877359D01*
X148941061Y-71904452D01*
X148812759Y-71957596D01*
X148697291Y-72034750D01*
X148599093Y-72132948D01*
X148521939Y-72248416D01*
X148468795Y-72376718D01*
X148441702Y-72512923D01*
X145846540Y-72512923D01*
X145819447Y-72376719D01*
X145766303Y-72248417D01*
X145689149Y-72132949D01*
X145590951Y-72034751D01*
X145475483Y-71957597D01*
X145347181Y-71904453D01*
X145210976Y-71877360D01*
X145072104Y-71877360D01*
X144935899Y-71904453D01*
X144807597Y-71957597D01*
X144692129Y-72034751D01*
X144593931Y-72132949D01*
X144516777Y-72248417D01*
X144463633Y-72376719D01*
X144436540Y-72512924D01*
X129634329Y-72512924D01*
X129634329Y-71329284D01*
X145561760Y-71329284D01*
X145561760Y-71468156D01*
X145588853Y-71604361D01*
X145641997Y-71732663D01*
X145719151Y-71848131D01*
X145817349Y-71946329D01*
X145932817Y-72023483D01*
X146061119Y-72076627D01*
X146197324Y-72103720D01*
X146336196Y-72103720D01*
X146472401Y-72076627D01*
X146600703Y-72023483D01*
X146716171Y-71946329D01*
X146814369Y-71848131D01*
X146891523Y-71732663D01*
X146944667Y-71604361D01*
X146971760Y-71468156D01*
X146971760Y-71329284D01*
X146944667Y-71193079D01*
X146891523Y-71064777D01*
X146814369Y-70949309D01*
X146716171Y-70851111D01*
X146600703Y-70773957D01*
X146472401Y-70720813D01*
X146336196Y-70693720D01*
X146197324Y-70693720D01*
X146061119Y-70720813D01*
X145932817Y-70773957D01*
X145817349Y-70851111D01*
X145719151Y-70949309D01*
X145641997Y-71064777D01*
X145588853Y-71193079D01*
X145561760Y-71329284D01*
X129634329Y-71329284D01*
X129634329Y-70689204D01*
X152435000Y-70689204D01*
X152435000Y-70828076D01*
X152462093Y-70964281D01*
X152515237Y-71092583D01*
X152592391Y-71208051D01*
X152690589Y-71306249D01*
X152806057Y-71383403D01*
X152934359Y-71436547D01*
X153070564Y-71463640D01*
X153209436Y-71463640D01*
X153345641Y-71436547D01*
X153473943Y-71383403D01*
X153589411Y-71306249D01*
X153687609Y-71208051D01*
X153764763Y-71092583D01*
X153817907Y-70964281D01*
X153845000Y-70828076D01*
X153845000Y-70689204D01*
X153817907Y-70552999D01*
X153764763Y-70424697D01*
X153687609Y-70309229D01*
X153589411Y-70211031D01*
X153473943Y-70133877D01*
X153345641Y-70080733D01*
X153209436Y-70053640D01*
X153070564Y-70053640D01*
X152934359Y-70080733D01*
X152806057Y-70133877D01*
X152690589Y-70211031D01*
X152592391Y-70309229D01*
X152515237Y-70424697D01*
X152462093Y-70552999D01*
X152435000Y-70689204D01*
X129634329Y-70689204D01*
X129634329Y-69431904D01*
X132823660Y-69431904D01*
X132823660Y-69570776D01*
X132850753Y-69706981D01*
X132903897Y-69835283D01*
X132981051Y-69950751D01*
X133079249Y-70048949D01*
X133194717Y-70126103D01*
X133323019Y-70179247D01*
X133459224Y-70206340D01*
X133598096Y-70206340D01*
X133734301Y-70179247D01*
X133862603Y-70126103D01*
X133978071Y-70048949D01*
X134076269Y-69950751D01*
X134153423Y-69835283D01*
X134206567Y-69706981D01*
X134233660Y-69570776D01*
X134233660Y-69431904D01*
X134206567Y-69295699D01*
X134153423Y-69167397D01*
X134076269Y-69051929D01*
X133978071Y-68953731D01*
X133862603Y-68876577D01*
X133734301Y-68823433D01*
X133598096Y-68796340D01*
X133459224Y-68796340D01*
X133323019Y-68823433D01*
X133194717Y-68876577D01*
X133079249Y-68953731D01*
X132981051Y-69051929D01*
X132903897Y-69167397D01*
X132850753Y-69295699D01*
X132823660Y-69431904D01*
X129634329Y-69431904D01*
X129634329Y-67806304D01*
X135183320Y-67806304D01*
X135183320Y-67945176D01*
X135210413Y-68081381D01*
X135263557Y-68209683D01*
X135274286Y-68225740D01*
X135263557Y-68241797D01*
X135210413Y-68370099D01*
X135183320Y-68506304D01*
X135183320Y-68645176D01*
X135210413Y-68781381D01*
X135263557Y-68909683D01*
X135340711Y-69025151D01*
X135438909Y-69123349D01*
X135554377Y-69200503D01*
X135682679Y-69253647D01*
X135818884Y-69280740D01*
X135957756Y-69280740D01*
X136093961Y-69253647D01*
X136222263Y-69200503D01*
X136337731Y-69123349D01*
X136435929Y-69025151D01*
X136488320Y-68946743D01*
X136540711Y-69025151D01*
X136638909Y-69123349D01*
X136754377Y-69200503D01*
X136882679Y-69253647D01*
X137018884Y-69280740D01*
X137157756Y-69280740D01*
X137293961Y-69253647D01*
X137422263Y-69200503D01*
X137537731Y-69123349D01*
X137635929Y-69025151D01*
X137688320Y-68946743D01*
X137740711Y-69025151D01*
X137838909Y-69123349D01*
X137954377Y-69200503D01*
X138082679Y-69253647D01*
X138218884Y-69280740D01*
X138357756Y-69280740D01*
X138493961Y-69253647D01*
X138622263Y-69200503D01*
X138737731Y-69123349D01*
X138835929Y-69025151D01*
X138913083Y-68909683D01*
X138966227Y-68781381D01*
X138993320Y-68645176D01*
X138993320Y-68506304D01*
X138966227Y-68370099D01*
X138913083Y-68241797D01*
X138902354Y-68225740D01*
X138913083Y-68209683D01*
X138966227Y-68081381D01*
X138993320Y-67945176D01*
X138993320Y-67806304D01*
X138966227Y-67670099D01*
X138913083Y-67541797D01*
X138835929Y-67426329D01*
X138737731Y-67328131D01*
X138622263Y-67250977D01*
X138493961Y-67197833D01*
X138357756Y-67170740D01*
X138218884Y-67170740D01*
X138082679Y-67197833D01*
X137954377Y-67250977D01*
X137838909Y-67328131D01*
X137740711Y-67426329D01*
X137688320Y-67504737D01*
X137635929Y-67426329D01*
X137537731Y-67328131D01*
X137422263Y-67250977D01*
X137293961Y-67197833D01*
X137157756Y-67170740D01*
X137018884Y-67170740D01*
X136882679Y-67197833D01*
X136754377Y-67250977D01*
X136638909Y-67328131D01*
X136540711Y-67426329D01*
X136488320Y-67504737D01*
X136435929Y-67426329D01*
X136337731Y-67328131D01*
X136222263Y-67250977D01*
X136093961Y-67197833D01*
X135957756Y-67170740D01*
X135818884Y-67170740D01*
X135682679Y-67197833D01*
X135554377Y-67250977D01*
X135438909Y-67328131D01*
X135340711Y-67426329D01*
X135263557Y-67541797D01*
X135210413Y-67670099D01*
X135183320Y-67806304D01*
X129634329Y-67806304D01*
X129634329Y-66955460D01*
X139561960Y-66955460D01*
X139561960Y-68015440D01*
G37*
X139561960Y-68015440D02*
X139562921Y-68025195D01*
X139565766Y-68034574D01*
X139570387Y-68043219D01*
X139576605Y-68050795D01*
X139584181Y-68057013D01*
X139592826Y-68061634D01*
X139602205Y-68064479D01*
X139611960Y-68065440D01*
X152101140Y-68065440D01*
X152110895Y-68064479D01*
X152120274Y-68061634D01*
X152128919Y-68057013D01*
X152136495Y-68050795D01*
X152142713Y-68043219D01*
X152147334Y-68034574D01*
X152150179Y-68025195D01*
X152151140Y-68015440D01*
X152151140Y-66955460D01*
X160029943Y-66955460D01*
X159868502Y-67063331D01*
X159655391Y-67276442D01*
X159487952Y-67527033D01*
X159372617Y-67805475D01*
X159313820Y-68101068D01*
X159313820Y-68402452D01*
X159372617Y-68698045D01*
X159487952Y-68976487D01*
X159655391Y-69227078D01*
X159868502Y-69440189D01*
X160119093Y-69607628D01*
X160397535Y-69722963D01*
X160693128Y-69781760D01*
X160994512Y-69781760D01*
X161290105Y-69722963D01*
X161568547Y-69607628D01*
X161819138Y-69440189D01*
X162032249Y-69227078D01*
X162109829Y-69110971D01*
X162109829Y-74250416D01*
X162038803Y-74202957D01*
X161910501Y-74149813D01*
X161774296Y-74122720D01*
X161635424Y-74122720D01*
X161499219Y-74149813D01*
X161370917Y-74202957D01*
X161255449Y-74280111D01*
X161157251Y-74378309D01*
X161080097Y-74493777D01*
X161026953Y-74622079D01*
X160999860Y-74758284D01*
X160999860Y-74897156D01*
X161026953Y-75033361D01*
X161080097Y-75161663D01*
X161157251Y-75277131D01*
X161255449Y-75375329D01*
X161370917Y-75452483D01*
X161499219Y-75505627D01*
X161635424Y-75532720D01*
X161774296Y-75532720D01*
X161910501Y-75505627D01*
X162038803Y-75452483D01*
X162109829Y-75405024D01*
X162109829Y-93695530D01*
X162078161Y-93682413D01*
X161941956Y-93655320D01*
X161803084Y-93655320D01*
X161666879Y-93682413D01*
X161538577Y-93735557D01*
X161423109Y-93812711D01*
X161324911Y-93910909D01*
X161247757Y-94026377D01*
X161194613Y-94154679D01*
X161167520Y-94290884D01*
X161167520Y-94429756D01*
X161194613Y-94565961D01*
X161247757Y-94694263D01*
X161324911Y-94809731D01*
X161423109Y-94907929D01*
X161538577Y-94985083D01*
X161666879Y-95038227D01*
X161803084Y-95065320D01*
X161941956Y-95065320D01*
X162078161Y-95038227D01*
X162109829Y-95025110D01*
X162109829Y-113602400D01*
X162032669Y-113486922D01*
X161819558Y-113273811D01*
X161568967Y-113106372D01*
X161290525Y-112991037D01*
X160994932Y-112932240D01*
X160693548Y-112932240D01*
X160397955Y-112991037D01*
X160119513Y-113106372D01*
X159868922Y-113273811D01*
X159655811Y-113486922D01*
X159488372Y-113737513D01*
X159373037Y-114015955D01*
X159314240Y-114311548D01*
X159314240Y-114612932D01*
X159373037Y-114908525D01*
X159488372Y-115186967D01*
X159655811Y-115437558D01*
X159868922Y-115650669D01*
X159976455Y-115722520D01*
X152329064Y-115722520D01*
X152359947Y-115647961D01*
X152387040Y-115511756D01*
X152387040Y-115372884D01*
X152359947Y-115236679D01*
X152306803Y-115108377D01*
X152229649Y-114992909D01*
X152131451Y-114894711D01*
X152015983Y-114817557D01*
X151887681Y-114764413D01*
X151751476Y-114737320D01*
X151612604Y-114737320D01*
X151476399Y-114764413D01*
X151348097Y-114817557D01*
X151232629Y-114894711D01*
X151134431Y-114992909D01*
X151057277Y-115108377D01*
X151004133Y-115236679D01*
X150977040Y-115372884D01*
X150977040Y-115511756D01*
X151004133Y-115647961D01*
X151035016Y-115722520D01*
X150868440Y-115722520D01*
X150868440Y-113267224D01*
X152838860Y-113267224D01*
X152838860Y-113406096D01*
X152865953Y-113542301D01*
X152919097Y-113670603D01*
X152996251Y-113786071D01*
X153094449Y-113884269D01*
X153209917Y-113961423D01*
X153338219Y-114014567D01*
X153474424Y-114041660D01*
X153613296Y-114041660D01*
X153749501Y-114014567D01*
X153877803Y-113961423D01*
X153993271Y-113884269D01*
X154091469Y-113786071D01*
X154168623Y-113670603D01*
X154221767Y-113542301D01*
X154248860Y-113406096D01*
X154248860Y-113267224D01*
X154221767Y-113131019D01*
X154168623Y-113002717D01*
X154091469Y-112887249D01*
X153993271Y-112789051D01*
X153877803Y-112711897D01*
X153749501Y-112658753D01*
X153613296Y-112631660D01*
X153474424Y-112631660D01*
X153338219Y-112658753D01*
X153209917Y-112711897D01*
X153094449Y-112789051D01*
X152996251Y-112887249D01*
X152919097Y-113002717D01*
X152865953Y-113131019D01*
X152838860Y-113267224D01*
X150868440Y-113267224D01*
X150868440Y-110841524D01*
X155249320Y-110841524D01*
X155249320Y-110980396D01*
X155276413Y-111116601D01*
X155329557Y-111244903D01*
X155406711Y-111360371D01*
X155504909Y-111458569D01*
X155620377Y-111535723D01*
X155748679Y-111588867D01*
X155884884Y-111615960D01*
X156023756Y-111615960D01*
X156159961Y-111588867D01*
X156288263Y-111535723D01*
X156403731Y-111458569D01*
X156501929Y-111360371D01*
X156579083Y-111244903D01*
X156632227Y-111116601D01*
X156659320Y-110980396D01*
X156659320Y-110841524D01*
X156632227Y-110705319D01*
X156579083Y-110577017D01*
X156501929Y-110461549D01*
X156403731Y-110363351D01*
X156288263Y-110286197D01*
X156159961Y-110233053D01*
X156023756Y-110205960D01*
X155884884Y-110205960D01*
X155748679Y-110233053D01*
X155620377Y-110286197D01*
X155504909Y-110363351D01*
X155406711Y-110461549D01*
X155329557Y-110577017D01*
X155276413Y-110705319D01*
X155249320Y-110841524D01*
X150868440Y-110841524D01*
X150868440Y-108375184D01*
X157555640Y-108375184D01*
X157555640Y-108514056D01*
X157582733Y-108650261D01*
X157635877Y-108778563D01*
X157713031Y-108894031D01*
X157811229Y-108992229D01*
X157926697Y-109069383D01*
X158054999Y-109122527D01*
X158191204Y-109149620D01*
X158330076Y-109149620D01*
X158466281Y-109122527D01*
X158594583Y-109069383D01*
X158710051Y-108992229D01*
X158808249Y-108894031D01*
X158885403Y-108778563D01*
X158938547Y-108650261D01*
X158965640Y-108514056D01*
X158965640Y-108375184D01*
X158938547Y-108238979D01*
X158885403Y-108110677D01*
X158808249Y-107995209D01*
X158710051Y-107897011D01*
X158594583Y-107819857D01*
X158466281Y-107766713D01*
X158330076Y-107739620D01*
X158191204Y-107739620D01*
X158054999Y-107766713D01*
X157926697Y-107819857D01*
X157811229Y-107897011D01*
X157713031Y-107995209D01*
X157635877Y-108110677D01*
X157582733Y-108238979D01*
X157555640Y-108375184D01*
X150868440Y-108375184D01*
X150868440Y-107564924D01*
X154860700Y-107564924D01*
X154860700Y-107703796D01*
X154887793Y-107840001D01*
X154940937Y-107968303D01*
X155018091Y-108083771D01*
X155116289Y-108181969D01*
X155231757Y-108259123D01*
X155360059Y-108312267D01*
X155496264Y-108339360D01*
X155635136Y-108339360D01*
X155771341Y-108312267D01*
X155899643Y-108259123D01*
X156015111Y-108181969D01*
X156113309Y-108083771D01*
X156190463Y-107968303D01*
X156243607Y-107840001D01*
X156270700Y-107703796D01*
X156270700Y-107564924D01*
X156243607Y-107428719D01*
X156190463Y-107300417D01*
X156113309Y-107184949D01*
X156015111Y-107086751D01*
X155899643Y-107009597D01*
X155771341Y-106956453D01*
X155635136Y-106929360D01*
X155496264Y-106929360D01*
X155360059Y-106956453D01*
X155231757Y-107009597D01*
X155116289Y-107086751D01*
X155018091Y-107184949D01*
X154940937Y-107300417D01*
X154887793Y-107428719D01*
X154860700Y-107564924D01*
X150868440Y-107564924D01*
X150868440Y-107309240D01*
X150867479Y-107299485D01*
X150864634Y-107290106D01*
X150860013Y-107281461D01*
X150853795Y-107273885D01*
X150846219Y-107267667D01*
X150837574Y-107263046D01*
X150828195Y-107260201D01*
X150818440Y-107259240D01*
X149508696Y-107259240D01*
X149571223Y-107165663D01*
X149624367Y-107037361D01*
X149651460Y-106901156D01*
X149651460Y-106762284D01*
X149624367Y-106626079D01*
X149571223Y-106497777D01*
X149494069Y-106382309D01*
X149395871Y-106284111D01*
X149280403Y-106206957D01*
X149152101Y-106153813D01*
X149015896Y-106126720D01*
X148877024Y-106126720D01*
X148740819Y-106153813D01*
X148612517Y-106206957D01*
X148497049Y-106284111D01*
X148398851Y-106382309D01*
X148321697Y-106497777D01*
X148268553Y-106626079D01*
X148241460Y-106762284D01*
X148241460Y-106901156D01*
X148268553Y-107037361D01*
X148321697Y-107165663D01*
X148384224Y-107259240D01*
X129634329Y-107259240D01*
X129634329Y-106038678D01*
X129699677Y-106082343D01*
X129827979Y-106135487D01*
X129964184Y-106162580D01*
X130103056Y-106162580D01*
X130239261Y-106135487D01*
X130367563Y-106082343D01*
X130483031Y-106005189D01*
X130581229Y-105906991D01*
X130658383Y-105791523D01*
X130711527Y-105663221D01*
X130738620Y-105527016D01*
X130738620Y-105388144D01*
X130711527Y-105251939D01*
X130658383Y-105123637D01*
X130581229Y-105008169D01*
X130483031Y-104909971D01*
X130367563Y-104832817D01*
X130239261Y-104779673D01*
X130103056Y-104752580D01*
X129964184Y-104752580D01*
X129827979Y-104779673D01*
X129699677Y-104832817D01*
X129634329Y-104876482D01*
X129634329Y-99833164D01*
X151982880Y-99833164D01*
X151982880Y-99972036D01*
X152009973Y-100108241D01*
X152063117Y-100236543D01*
X152140271Y-100352011D01*
X152238469Y-100450209D01*
X152353937Y-100527363D01*
X152482239Y-100580507D01*
X152618444Y-100607600D01*
X152757316Y-100607600D01*
X152893521Y-100580507D01*
X153021823Y-100527363D01*
X153137291Y-100450209D01*
X153235489Y-100352011D01*
X153308927Y-100242104D01*
X160364880Y-100242104D01*
X160364880Y-100380976D01*
X160391973Y-100517181D01*
X160445117Y-100645483D01*
X160522271Y-100760951D01*
X160620469Y-100859149D01*
X160735937Y-100936303D01*
X160864239Y-100989447D01*
X161000444Y-101016540D01*
X161139316Y-101016540D01*
X161275521Y-100989447D01*
X161403823Y-100936303D01*
X161519291Y-100859149D01*
X161617489Y-100760951D01*
X161694643Y-100645483D01*
X161747787Y-100517181D01*
X161774880Y-100380976D01*
X161774880Y-100242104D01*
X161747787Y-100105899D01*
X161694643Y-99977597D01*
X161617489Y-99862129D01*
X161519291Y-99763931D01*
X161403823Y-99686777D01*
X161275521Y-99633633D01*
X161139316Y-99606540D01*
X161000444Y-99606540D01*
X160864239Y-99633633D01*
X160735937Y-99686777D01*
X160620469Y-99763931D01*
X160522271Y-99862129D01*
X160445117Y-99977597D01*
X160391973Y-100105899D01*
X160364880Y-100242104D01*
X153308927Y-100242104D01*
X153312643Y-100236543D01*
X153365787Y-100108241D01*
X153392880Y-99972036D01*
X153392880Y-99833164D01*
X153365787Y-99696959D01*
X153312643Y-99568657D01*
X153235489Y-99453189D01*
X153137291Y-99354991D01*
X153021823Y-99277837D01*
X152893521Y-99224693D01*
X152757316Y-99197600D01*
X152618444Y-99197600D01*
X152482239Y-99224693D01*
X152353937Y-99277837D01*
X152238469Y-99354991D01*
X152140271Y-99453189D01*
X152063117Y-99568657D01*
X152009973Y-99696959D01*
X151982880Y-99833164D01*
X129634329Y-99833164D01*
X129634329Y-98862884D01*
X153298600Y-98862884D01*
X153298600Y-99001756D01*
X153325693Y-99137961D01*
X153378837Y-99266263D01*
X153455991Y-99381731D01*
X153554189Y-99479929D01*
X153669657Y-99557083D01*
X153797959Y-99610227D01*
X153934164Y-99637320D01*
X154073036Y-99637320D01*
X154209241Y-99610227D01*
X154337543Y-99557083D01*
X154453011Y-99479929D01*
X154551209Y-99381731D01*
X154628363Y-99266263D01*
X154681507Y-99137961D01*
X154708600Y-99001756D01*
X154708600Y-98862884D01*
X154681507Y-98726679D01*
X154628363Y-98598377D01*
X154551209Y-98482909D01*
X154453011Y-98384711D01*
X154337543Y-98307557D01*
X154209241Y-98254413D01*
X154073036Y-98227320D01*
X153934164Y-98227320D01*
X153797959Y-98254413D01*
X153669657Y-98307557D01*
X153554189Y-98384711D01*
X153455991Y-98482909D01*
X153378837Y-98598377D01*
X153325693Y-98726679D01*
X153298600Y-98862884D01*
X129634329Y-98862884D01*
X129634329Y-97483664D01*
X130941520Y-97483664D01*
X130941520Y-97622536D01*
X130968613Y-97758741D01*
X131021757Y-97887043D01*
X131098911Y-98002511D01*
X131197109Y-98100709D01*
X131312577Y-98177863D01*
X131440879Y-98231007D01*
X131577084Y-98258100D01*
X131715956Y-98258100D01*
X131852161Y-98231007D01*
X131980463Y-98177863D01*
X132095931Y-98100709D01*
X132194129Y-98002511D01*
X132271283Y-97887043D01*
X132324427Y-97758741D01*
X132351520Y-97622536D01*
X132351520Y-97483664D01*
X132324427Y-97347459D01*
X132271283Y-97219157D01*
X132194129Y-97103689D01*
X132095931Y-97005491D01*
X131980463Y-96928337D01*
X131852161Y-96875193D01*
X131715956Y-96848100D01*
X131577084Y-96848100D01*
X131440879Y-96875193D01*
X131312577Y-96928337D01*
X131197109Y-97005491D01*
X131098911Y-97103689D01*
X131021757Y-97219157D01*
X130968613Y-97347459D01*
X130941520Y-97483664D01*
X129634329Y-97483664D01*
X129634329Y-95161805D01*
X129708647Y-95147022D01*
X129868796Y-95080686D01*
X130012927Y-94984381D01*
X130135501Y-94861807D01*
X130167361Y-94814124D01*
X144980100Y-94814124D01*
X144980100Y-94952996D01*
X145007193Y-95089201D01*
X145060337Y-95217503D01*
X145115889Y-95300642D01*
X145064063Y-95425762D01*
X145036970Y-95561967D01*
X145036970Y-95700839D01*
X145064063Y-95837044D01*
X145117207Y-95965346D01*
X145194361Y-96080814D01*
X145292559Y-96179012D01*
X145408027Y-96256166D01*
X145536329Y-96309310D01*
X145672534Y-96336403D01*
X145811406Y-96336403D01*
X145947611Y-96309310D01*
X146075913Y-96256166D01*
X146191381Y-96179012D01*
X146289579Y-96080814D01*
X146362057Y-95972344D01*
X150212500Y-95972344D01*
X150212500Y-96111216D01*
X150239593Y-96247421D01*
X150292737Y-96375723D01*
X150369891Y-96491191D01*
X150468089Y-96589389D01*
X150583557Y-96666543D01*
X150711859Y-96719687D01*
X150848064Y-96746780D01*
X150986936Y-96746780D01*
X151123141Y-96719687D01*
X151251443Y-96666543D01*
X151366911Y-96589389D01*
X151465109Y-96491191D01*
X151542263Y-96375723D01*
X151595407Y-96247421D01*
X151622500Y-96111216D01*
X151622500Y-95972344D01*
X151595407Y-95836139D01*
X151542263Y-95707837D01*
X151465109Y-95592369D01*
X151366911Y-95494171D01*
X151251443Y-95417017D01*
X151202888Y-95396905D01*
X159175579Y-95396905D01*
X159175579Y-95535777D01*
X159202672Y-95671982D01*
X159255816Y-95800284D01*
X159332970Y-95915752D01*
X159431168Y-96013950D01*
X159546636Y-96091104D01*
X159674938Y-96144248D01*
X159811143Y-96171341D01*
X159950015Y-96171341D01*
X160086220Y-96144248D01*
X160214522Y-96091104D01*
X160329990Y-96013950D01*
X160428188Y-95915752D01*
X160505342Y-95800284D01*
X160558486Y-95671982D01*
X160585579Y-95535777D01*
X160585579Y-95396905D01*
X160558486Y-95260700D01*
X160505342Y-95132398D01*
X160428188Y-95016930D01*
X160329990Y-94918732D01*
X160214522Y-94841578D01*
X160086220Y-94788434D01*
X159950015Y-94761341D01*
X159811143Y-94761341D01*
X159674938Y-94788434D01*
X159546636Y-94841578D01*
X159431168Y-94918732D01*
X159332970Y-95016930D01*
X159255816Y-95132398D01*
X159202672Y-95260700D01*
X159175579Y-95396905D01*
X151202888Y-95396905D01*
X151123141Y-95363873D01*
X150986936Y-95336780D01*
X150848064Y-95336780D01*
X150711859Y-95363873D01*
X150583557Y-95417017D01*
X150468089Y-95494171D01*
X150369891Y-95592369D01*
X150292737Y-95707837D01*
X150239593Y-95836139D01*
X150212500Y-95972344D01*
X146362057Y-95972344D01*
X146366733Y-95965346D01*
X146419877Y-95837044D01*
X146446970Y-95700839D01*
X146446970Y-95561967D01*
X146419877Y-95425762D01*
X146366733Y-95297460D01*
X146311181Y-95214321D01*
X146363007Y-95089201D01*
X146390100Y-94952996D01*
X146390100Y-94814124D01*
X146363007Y-94677919D01*
X146309863Y-94549617D01*
X146232709Y-94434149D01*
X146134511Y-94335951D01*
X146019043Y-94258797D01*
X145890741Y-94205653D01*
X145846758Y-94196904D01*
X156679340Y-94196904D01*
X156679340Y-94335776D01*
X156706433Y-94471981D01*
X156759577Y-94600283D01*
X156836731Y-94715751D01*
X156934929Y-94813949D01*
X157050397Y-94891103D01*
X157178699Y-94944247D01*
X157314904Y-94971340D01*
X157453776Y-94971340D01*
X157589981Y-94944247D01*
X157718283Y-94891103D01*
X157833751Y-94813949D01*
X157931949Y-94715751D01*
X158009103Y-94600283D01*
X158062247Y-94471981D01*
X158089340Y-94335776D01*
X158089340Y-94196904D01*
X158062247Y-94060699D01*
X158009103Y-93932397D01*
X157931949Y-93816929D01*
X157833751Y-93718731D01*
X157718283Y-93641577D01*
X157589981Y-93588433D01*
X157453776Y-93561340D01*
X157314904Y-93561340D01*
X157178699Y-93588433D01*
X157050397Y-93641577D01*
X156934929Y-93718731D01*
X156836731Y-93816929D01*
X156759577Y-93932397D01*
X156706433Y-94060699D01*
X156679340Y-94196904D01*
X145846758Y-94196904D01*
X145754536Y-94178560D01*
X145615664Y-94178560D01*
X145479459Y-94205653D01*
X145351157Y-94258797D01*
X145235689Y-94335951D01*
X145137491Y-94434149D01*
X145060337Y-94549617D01*
X145007193Y-94677919D01*
X144980100Y-94814124D01*
X130167361Y-94814124D01*
X130231806Y-94717676D01*
X130298142Y-94557527D01*
X130331960Y-94387512D01*
X130331960Y-94214168D01*
X130298142Y-94044153D01*
X130231806Y-93884004D01*
X130135501Y-93739873D01*
X130012927Y-93617299D01*
X129868796Y-93520994D01*
X129708647Y-93454658D01*
X129634329Y-93439875D01*
X129634329Y-93328224D01*
X133402780Y-93328224D01*
X133402780Y-93467096D01*
X133429873Y-93603301D01*
X133483017Y-93731603D01*
X133560171Y-93847071D01*
X133658369Y-93945269D01*
X133773837Y-94022423D01*
X133902139Y-94075567D01*
X134038344Y-94102660D01*
X134177216Y-94102660D01*
X134313421Y-94075567D01*
X134441723Y-94022423D01*
X134557191Y-93945269D01*
X134655389Y-93847071D01*
X134732543Y-93731603D01*
X134785687Y-93603301D01*
X134812780Y-93467096D01*
X134812780Y-93328224D01*
X134785687Y-93192019D01*
X134754781Y-93117404D01*
X143532300Y-93117404D01*
X143532300Y-93256276D01*
X143559393Y-93392481D01*
X143612537Y-93520783D01*
X143689691Y-93636251D01*
X143787889Y-93734449D01*
X143903357Y-93811603D01*
X144031659Y-93864747D01*
X144167864Y-93891840D01*
X144306736Y-93891840D01*
X144442941Y-93864747D01*
X144571243Y-93811603D01*
X144686711Y-93734449D01*
X144784909Y-93636251D01*
X144862063Y-93520783D01*
X144915207Y-93392481D01*
X144942300Y-93256276D01*
X144942300Y-93117404D01*
X144915207Y-92981199D01*
X144862063Y-92852897D01*
X144784909Y-92737429D01*
X144686711Y-92639231D01*
X144571243Y-92562077D01*
X144501537Y-92533204D01*
X151998120Y-92533204D01*
X151998120Y-92672076D01*
X152025213Y-92808281D01*
X152078357Y-92936583D01*
X152155511Y-93052051D01*
X152253709Y-93150249D01*
X152369177Y-93227403D01*
X152497479Y-93280547D01*
X152633684Y-93307640D01*
X152772556Y-93307640D01*
X152908761Y-93280547D01*
X153037063Y-93227403D01*
X153152531Y-93150249D01*
X153187916Y-93114864D01*
X157669940Y-93114864D01*
X157669940Y-93253736D01*
X157697033Y-93389941D01*
X157750177Y-93518243D01*
X157827331Y-93633711D01*
X157925529Y-93731909D01*
X158040997Y-93809063D01*
X158169299Y-93862207D01*
X158305504Y-93889300D01*
X158444376Y-93889300D01*
X158580581Y-93862207D01*
X158708883Y-93809063D01*
X158824351Y-93731909D01*
X158922549Y-93633711D01*
X158999703Y-93518243D01*
X159052847Y-93389941D01*
X159079940Y-93253736D01*
X159079940Y-93114864D01*
X159052847Y-92978659D01*
X158999703Y-92850357D01*
X158922549Y-92734889D01*
X158824351Y-92636691D01*
X158708883Y-92559537D01*
X158580581Y-92506393D01*
X158444376Y-92479300D01*
X158305504Y-92479300D01*
X158169299Y-92506393D01*
X158040997Y-92559537D01*
X157925529Y-92636691D01*
X157827331Y-92734889D01*
X157750177Y-92850357D01*
X157697033Y-92978659D01*
X157669940Y-93114864D01*
X153187916Y-93114864D01*
X153250729Y-93052051D01*
X153327883Y-92936583D01*
X153381027Y-92808281D01*
X153408120Y-92672076D01*
X153408120Y-92533204D01*
X153381027Y-92396999D01*
X153327883Y-92268697D01*
X153250729Y-92153229D01*
X153152531Y-92055031D01*
X153037063Y-91977877D01*
X152908761Y-91924733D01*
X152772556Y-91897640D01*
X152633684Y-91897640D01*
X152497479Y-91924733D01*
X152369177Y-91977877D01*
X152253709Y-92055031D01*
X152155511Y-92153229D01*
X152078357Y-92268697D01*
X152025213Y-92396999D01*
X151998120Y-92533204D01*
X144501537Y-92533204D01*
X144442941Y-92508933D01*
X144306736Y-92481840D01*
X144167864Y-92481840D01*
X144031659Y-92508933D01*
X143903357Y-92562077D01*
X143787889Y-92639231D01*
X143689691Y-92737429D01*
X143612537Y-92852897D01*
X143559393Y-92981199D01*
X143532300Y-93117404D01*
X134754781Y-93117404D01*
X134732543Y-93063717D01*
X134655389Y-92948249D01*
X134557191Y-92850051D01*
X134441723Y-92772897D01*
X134313421Y-92719753D01*
X134177216Y-92692660D01*
X134038344Y-92692660D01*
X133902139Y-92719753D01*
X133773837Y-92772897D01*
X133658369Y-92850051D01*
X133560171Y-92948249D01*
X133483017Y-93063717D01*
X133429873Y-93192019D01*
X133402780Y-93328224D01*
X129634329Y-93328224D01*
X129634329Y-91886724D01*
X137697940Y-91886724D01*
X137697940Y-92025596D01*
X137725033Y-92161801D01*
X137778177Y-92290103D01*
X137855331Y-92405571D01*
X137953529Y-92503769D01*
X138068997Y-92580923D01*
X138197299Y-92634067D01*
X138333504Y-92661160D01*
X138472376Y-92661160D01*
X138608581Y-92634067D01*
X138736883Y-92580923D01*
X138852351Y-92503769D01*
X138950549Y-92405571D01*
X139027703Y-92290103D01*
X139080847Y-92161801D01*
X139107940Y-92025596D01*
X139107940Y-91893124D01*
X140897260Y-91893124D01*
X140897260Y-92031996D01*
X140924353Y-92168201D01*
X140977497Y-92296503D01*
X141054651Y-92411971D01*
X141152849Y-92510169D01*
X141268317Y-92587323D01*
X141396619Y-92640467D01*
X141532824Y-92667560D01*
X141671696Y-92667560D01*
X141807901Y-92640467D01*
X141936203Y-92587323D01*
X142051671Y-92510169D01*
X142149869Y-92411971D01*
X142227023Y-92296503D01*
X142280167Y-92168201D01*
X142307260Y-92031996D01*
X142307260Y-91893124D01*
X142280167Y-91756919D01*
X142227023Y-91628617D01*
X142149869Y-91513149D01*
X142051671Y-91414951D01*
X141936203Y-91337797D01*
X141933951Y-91336864D01*
X142564560Y-91336864D01*
X142564560Y-91475736D01*
X142591653Y-91611941D01*
X142644797Y-91740243D01*
X142721951Y-91855711D01*
X142820149Y-91953909D01*
X142935617Y-92031063D01*
X143063919Y-92084207D01*
X143200124Y-92111300D01*
X143338996Y-92111300D01*
X143475201Y-92084207D01*
X143603503Y-92031063D01*
X143718971Y-91953909D01*
X143817169Y-91855711D01*
X143894323Y-91740243D01*
X143947467Y-91611941D01*
X143974560Y-91475736D01*
X143974560Y-91336864D01*
X143947467Y-91200659D01*
X143894323Y-91072357D01*
X143817169Y-90956889D01*
X143718971Y-90858691D01*
X143603503Y-90781537D01*
X143475201Y-90728393D01*
X143338996Y-90701300D01*
X143200124Y-90701300D01*
X143063919Y-90728393D01*
X142935617Y-90781537D01*
X142820149Y-90858691D01*
X142721951Y-90956889D01*
X142644797Y-91072357D01*
X142591653Y-91200659D01*
X142564560Y-91336864D01*
X141933951Y-91336864D01*
X141807901Y-91284653D01*
X141671696Y-91257560D01*
X141532824Y-91257560D01*
X141396619Y-91284653D01*
X141268317Y-91337797D01*
X141152849Y-91414951D01*
X141054651Y-91513149D01*
X140977497Y-91628617D01*
X140924353Y-91756919D01*
X140897260Y-91893124D01*
X139107940Y-91893124D01*
X139107940Y-91886724D01*
X139080847Y-91750519D01*
X139027703Y-91622217D01*
X138950549Y-91506749D01*
X138852351Y-91408551D01*
X138736883Y-91331397D01*
X138608581Y-91278253D01*
X138472376Y-91251160D01*
X138333504Y-91251160D01*
X138197299Y-91278253D01*
X138068997Y-91331397D01*
X137953529Y-91408551D01*
X137855331Y-91506749D01*
X137778177Y-91622217D01*
X137725033Y-91750519D01*
X137697940Y-91886724D01*
X129634329Y-91886724D01*
X129634329Y-88361805D01*
X129708647Y-88347022D01*
X129868796Y-88280686D01*
X130012927Y-88184381D01*
X130135501Y-88061807D01*
X130231806Y-87917676D01*
X130295840Y-87763084D01*
X134357820Y-87763084D01*
X134357820Y-87901956D01*
X134384913Y-88038161D01*
X134438057Y-88166463D01*
X134515211Y-88281931D01*
X134613409Y-88380129D01*
X134728877Y-88457283D01*
X134857179Y-88510427D01*
X134993384Y-88537520D01*
X135132256Y-88537520D01*
X135268461Y-88510427D01*
X135396763Y-88457283D01*
X135512231Y-88380129D01*
X135610429Y-88281931D01*
X135687583Y-88166463D01*
X135740727Y-88038161D01*
X135767820Y-87901956D01*
X135767820Y-87763084D01*
X135740727Y-87626879D01*
X135687583Y-87498577D01*
X135610429Y-87383109D01*
X135512231Y-87284911D01*
X135396763Y-87207757D01*
X135268461Y-87154613D01*
X135132256Y-87127520D01*
X134993384Y-87127520D01*
X134857179Y-87154613D01*
X134728877Y-87207757D01*
X134613409Y-87284911D01*
X134515211Y-87383109D01*
X134438057Y-87498577D01*
X134384913Y-87626879D01*
X134357820Y-87763084D01*
X130295840Y-87763084D01*
X130298142Y-87757527D01*
X130331960Y-87587512D01*
X130331960Y-87414168D01*
X130298142Y-87244153D01*
X130231806Y-87084004D01*
X130135501Y-86939873D01*
X130012927Y-86817299D01*
X129868796Y-86720994D01*
X129708647Y-86654658D01*
X129634329Y-86639875D01*
X129634329Y-85863164D01*
X133506920Y-85863164D01*
X133506920Y-86002036D01*
X133534013Y-86138241D01*
X133587157Y-86266543D01*
X133664311Y-86382011D01*
X133762509Y-86480209D01*
X133877977Y-86557363D01*
X134006279Y-86610507D01*
X134142484Y-86637600D01*
X134281356Y-86637600D01*
X134417561Y-86610507D01*
X134545863Y-86557363D01*
X134661331Y-86480209D01*
X134759529Y-86382011D01*
X134836683Y-86266543D01*
X134889827Y-86138241D01*
X134916920Y-86002036D01*
X134916920Y-85919064D01*
X138066220Y-85919064D01*
X138066220Y-86057936D01*
X138093313Y-86194141D01*
X138146457Y-86322443D01*
X138223611Y-86437911D01*
X138321809Y-86536109D01*
X138437277Y-86613263D01*
X138565579Y-86666407D01*
X138701784Y-86693500D01*
X138840656Y-86693500D01*
X138976861Y-86666407D01*
X139105163Y-86613263D01*
X139220631Y-86536109D01*
X139318829Y-86437911D01*
X139373611Y-86355924D01*
X140806880Y-86355924D01*
X140806880Y-86494796D01*
X140833973Y-86631001D01*
X140887117Y-86759303D01*
X140964271Y-86874771D01*
X141062469Y-86972969D01*
X141177937Y-87050123D01*
X141306239Y-87103267D01*
X141442444Y-87130360D01*
X141581316Y-87130360D01*
X141717521Y-87103267D01*
X141845823Y-87050123D01*
X141961291Y-86972969D01*
X142059489Y-86874771D01*
X142136643Y-86759303D01*
X142189787Y-86631001D01*
X142216880Y-86494796D01*
X142216880Y-86355924D01*
X142189787Y-86219719D01*
X142136643Y-86091417D01*
X142059489Y-85975949D01*
X141961291Y-85877751D01*
X141845823Y-85800597D01*
X141717521Y-85747453D01*
X141581316Y-85720360D01*
X141442444Y-85720360D01*
X141306239Y-85747453D01*
X141177937Y-85800597D01*
X141062469Y-85877751D01*
X140964271Y-85975949D01*
X140887117Y-86091417D01*
X140833973Y-86219719D01*
X140806880Y-86355924D01*
X139373611Y-86355924D01*
X139395983Y-86322443D01*
X139449127Y-86194141D01*
X139476220Y-86057936D01*
X139476220Y-85919064D01*
X139449127Y-85782859D01*
X139395983Y-85654557D01*
X139318829Y-85539089D01*
X139220631Y-85440891D01*
X139105163Y-85363737D01*
X138976861Y-85310593D01*
X138840656Y-85283500D01*
X138701784Y-85283500D01*
X138565579Y-85310593D01*
X138437277Y-85363737D01*
X138321809Y-85440891D01*
X138223611Y-85539089D01*
X138146457Y-85654557D01*
X138093313Y-85782859D01*
X138066220Y-85919064D01*
X134916920Y-85919064D01*
X134916920Y-85863164D01*
X134889827Y-85726959D01*
X134836683Y-85598657D01*
X134759529Y-85483189D01*
X134661331Y-85384991D01*
X134545863Y-85307837D01*
X134439046Y-85263592D01*
X139841548Y-85263592D01*
X139841548Y-85402464D01*
X139868641Y-85538669D01*
X139921785Y-85666971D01*
X139998939Y-85782439D01*
X140097137Y-85880637D01*
X140212605Y-85957791D01*
X140340907Y-86010935D01*
X140477112Y-86038028D01*
X140615984Y-86038028D01*
X140752189Y-86010935D01*
X140880491Y-85957791D01*
X140995959Y-85880637D01*
X141094157Y-85782439D01*
X141171311Y-85666971D01*
X141224455Y-85538669D01*
X141251548Y-85402464D01*
X141251548Y-85294204D01*
X157537860Y-85294204D01*
X157537860Y-85433076D01*
X157564953Y-85569281D01*
X157618097Y-85697583D01*
X157695251Y-85813051D01*
X157793449Y-85911249D01*
X157908917Y-85988403D01*
X158037219Y-86041547D01*
X158173424Y-86068640D01*
X158312296Y-86068640D01*
X158448501Y-86041547D01*
X158576803Y-85988403D01*
X158692271Y-85911249D01*
X158790469Y-85813051D01*
X158867623Y-85697583D01*
X158920767Y-85569281D01*
X158947860Y-85433076D01*
X158947860Y-85294204D01*
X158920767Y-85157999D01*
X158867623Y-85029697D01*
X158790469Y-84914229D01*
X158692271Y-84816031D01*
X158576803Y-84738877D01*
X158448501Y-84685733D01*
X158312296Y-84658640D01*
X158173424Y-84658640D01*
X158037219Y-84685733D01*
X157908917Y-84738877D01*
X157793449Y-84816031D01*
X157695251Y-84914229D01*
X157618097Y-85029697D01*
X157564953Y-85157999D01*
X157537860Y-85294204D01*
X141251548Y-85294204D01*
X141251548Y-85263592D01*
X141224455Y-85127387D01*
X141171311Y-84999085D01*
X141094157Y-84883617D01*
X140995959Y-84785419D01*
X140880491Y-84708265D01*
X140752189Y-84655121D01*
X140615984Y-84628028D01*
X140477112Y-84628028D01*
X140340907Y-84655121D01*
X140212605Y-84708265D01*
X140097137Y-84785419D01*
X139998939Y-84883617D01*
X139921785Y-84999085D01*
X139868641Y-85127387D01*
X139841548Y-85263592D01*
X134439046Y-85263592D01*
X134417561Y-85254693D01*
X134281356Y-85227600D01*
X134142484Y-85227600D01*
X134006279Y-85254693D01*
X133877977Y-85307837D01*
X133762509Y-85384991D01*
X133664311Y-85483189D01*
X133587157Y-85598657D01*
X133534013Y-85726959D01*
X133506920Y-85863164D01*
X129634329Y-85863164D01*
X129634329Y-84508966D01*
X132729680Y-84508966D01*
X132729680Y-84647838D01*
X132756773Y-84784043D01*
X132809917Y-84912345D01*
X132887071Y-85027813D01*
X132985269Y-85126011D01*
X133100737Y-85203165D01*
X133229039Y-85256309D01*
X133365244Y-85283402D01*
X133504116Y-85283402D01*
X133640321Y-85256309D01*
X133768623Y-85203165D01*
X133884091Y-85126011D01*
X133982289Y-85027813D01*
X134059443Y-84912345D01*
X134112587Y-84784043D01*
X134139680Y-84647838D01*
X134139680Y-84508966D01*
X134131382Y-84467245D01*
X145217779Y-84467245D01*
X145217779Y-84606117D01*
X145244872Y-84742322D01*
X145298016Y-84870624D01*
X145375170Y-84986092D01*
X145473368Y-85084290D01*
X145588836Y-85161444D01*
X145717138Y-85214588D01*
X145853343Y-85241681D01*
X145992215Y-85241681D01*
X146128420Y-85214588D01*
X146256722Y-85161444D01*
X146372190Y-85084290D01*
X146470388Y-84986092D01*
X146547542Y-84870624D01*
X146600686Y-84742322D01*
X146627779Y-84606117D01*
X146627779Y-84467245D01*
X146600686Y-84331040D01*
X146547542Y-84202738D01*
X146470388Y-84087270D01*
X146372190Y-83989072D01*
X146322133Y-83955624D01*
X151998120Y-83955624D01*
X151998120Y-84094496D01*
X152025213Y-84230701D01*
X152078357Y-84359003D01*
X152155511Y-84474471D01*
X152253709Y-84572669D01*
X152369177Y-84649823D01*
X152497479Y-84702967D01*
X152633684Y-84730060D01*
X152772556Y-84730060D01*
X152908761Y-84702967D01*
X153037063Y-84649823D01*
X153152531Y-84572669D01*
X153250729Y-84474471D01*
X153327883Y-84359003D01*
X153381027Y-84230701D01*
X153408120Y-84094496D01*
X153408120Y-83955624D01*
X153381027Y-83819419D01*
X153327883Y-83691117D01*
X153250729Y-83575649D01*
X153152531Y-83477451D01*
X153037063Y-83400297D01*
X152908761Y-83347153D01*
X152772556Y-83320060D01*
X152633684Y-83320060D01*
X152497479Y-83347153D01*
X152369177Y-83400297D01*
X152253709Y-83477451D01*
X152155511Y-83575649D01*
X152078357Y-83691117D01*
X152025213Y-83819419D01*
X151998120Y-83955624D01*
X146322133Y-83955624D01*
X146256722Y-83911918D01*
X146128420Y-83858774D01*
X145992215Y-83831681D01*
X145853343Y-83831681D01*
X145717138Y-83858774D01*
X145588836Y-83911918D01*
X145473368Y-83989072D01*
X145375170Y-84087270D01*
X145298016Y-84202738D01*
X145244872Y-84331040D01*
X145217779Y-84467245D01*
X134131382Y-84467245D01*
X134112587Y-84372761D01*
X134059443Y-84244459D01*
X133982289Y-84128991D01*
X133884091Y-84030793D01*
X133768623Y-83953639D01*
X133640321Y-83900495D01*
X133504116Y-83873402D01*
X133365244Y-83873402D01*
X133229039Y-83900495D01*
X133100737Y-83953639D01*
X132985269Y-84030793D01*
X132887071Y-84128991D01*
X132809917Y-84244459D01*
X132756773Y-84372761D01*
X132729680Y-84508966D01*
X129634329Y-84508966D01*
X129634329Y-83318064D01*
X143087176Y-83318064D01*
X143087176Y-83456936D01*
X143114269Y-83593141D01*
X143167413Y-83721443D01*
X143244567Y-83836911D01*
X143342765Y-83935109D01*
X143458233Y-84012263D01*
X143586535Y-84065407D01*
X143722740Y-84092500D01*
X143861612Y-84092500D01*
X143997817Y-84065407D01*
X144126119Y-84012263D01*
X144241587Y-83935109D01*
X144288966Y-83887730D01*
X144313450Y-83924372D01*
X144411648Y-84022570D01*
X144527116Y-84099724D01*
X144655418Y-84152868D01*
X144791623Y-84179961D01*
X144930495Y-84179961D01*
X145066700Y-84152868D01*
X145195002Y-84099724D01*
X145310470Y-84022570D01*
X145408668Y-83924372D01*
X145485822Y-83808904D01*
X145538966Y-83680602D01*
X145566059Y-83544397D01*
X145566059Y-83405525D01*
X145538966Y-83269320D01*
X145485822Y-83141018D01*
X145408668Y-83025550D01*
X145353222Y-82970104D01*
X157987440Y-82970104D01*
X157987440Y-83108976D01*
X158014533Y-83245181D01*
X158067677Y-83373483D01*
X158144831Y-83488951D01*
X158243029Y-83587149D01*
X158358497Y-83664303D01*
X158486799Y-83717447D01*
X158623004Y-83744540D01*
X158761876Y-83744540D01*
X158898081Y-83717447D01*
X159026383Y-83664303D01*
X159141851Y-83587149D01*
X159240049Y-83488951D01*
X159317203Y-83373483D01*
X159370347Y-83245181D01*
X159397440Y-83108976D01*
X159397440Y-82970104D01*
X159370347Y-82833899D01*
X159317203Y-82705597D01*
X159240049Y-82590129D01*
X159141851Y-82491931D01*
X159026383Y-82414777D01*
X158898081Y-82361633D01*
X158761876Y-82334540D01*
X158623004Y-82334540D01*
X158486799Y-82361633D01*
X158358497Y-82414777D01*
X158243029Y-82491931D01*
X158144831Y-82590129D01*
X158067677Y-82705597D01*
X158014533Y-82833899D01*
X157987440Y-82970104D01*
X145353222Y-82970104D01*
X145310470Y-82927352D01*
X145195002Y-82850198D01*
X145066700Y-82797054D01*
X144930495Y-82769961D01*
X144791623Y-82769961D01*
X144655418Y-82797054D01*
X144527116Y-82850198D01*
X144411648Y-82927352D01*
X144364269Y-82974731D01*
X144339785Y-82938089D01*
X144241587Y-82839891D01*
X144126119Y-82762737D01*
X143997817Y-82709593D01*
X143861612Y-82682500D01*
X143722740Y-82682500D01*
X143586535Y-82709593D01*
X143458233Y-82762737D01*
X143342765Y-82839891D01*
X143244567Y-82938089D01*
X143167413Y-83053557D01*
X143114269Y-83181859D01*
X143087176Y-83318064D01*
X129634329Y-83318064D01*
X129634329Y-80844124D01*
X133293560Y-80844124D01*
X133293560Y-80982996D01*
X133320653Y-81119201D01*
X133373797Y-81247503D01*
X133450951Y-81362971D01*
X133525174Y-81437194D01*
X133483213Y-81538499D01*
X133456120Y-81674704D01*
X133456120Y-81813576D01*
X133483213Y-81949781D01*
X133536357Y-82078083D01*
X133613511Y-82193551D01*
X133711709Y-82291749D01*
X133827177Y-82368903D01*
X133955479Y-82422047D01*
X134091684Y-82449140D01*
X134230556Y-82449140D01*
X134366761Y-82422047D01*
X134495063Y-82368903D01*
X134610531Y-82291749D01*
X134612896Y-82289384D01*
X135825940Y-82289384D01*
X135825940Y-82428256D01*
X135853033Y-82564461D01*
X135906177Y-82692763D01*
X135983331Y-82808231D01*
X136081529Y-82906429D01*
X136196997Y-82983583D01*
X136325299Y-83036727D01*
X136461504Y-83063820D01*
X136600376Y-83063820D01*
X136736581Y-83036727D01*
X136864883Y-82983583D01*
X136980351Y-82906429D01*
X137078549Y-82808231D01*
X137155703Y-82692763D01*
X137208847Y-82564461D01*
X137235940Y-82428256D01*
X137235940Y-82289384D01*
X137208847Y-82153179D01*
X137155703Y-82024877D01*
X137078549Y-81909409D01*
X136980351Y-81811211D01*
X136878805Y-81743359D01*
X144052925Y-81743359D01*
X144052925Y-81882231D01*
X144080018Y-82018436D01*
X144133162Y-82146738D01*
X144210316Y-82262206D01*
X144308514Y-82360404D01*
X144423982Y-82437558D01*
X144552284Y-82490702D01*
X144688489Y-82517795D01*
X144827361Y-82517795D01*
X144963566Y-82490702D01*
X145091868Y-82437558D01*
X145207336Y-82360404D01*
X145305534Y-82262206D01*
X145382688Y-82146738D01*
X145435832Y-82018436D01*
X145462925Y-81882231D01*
X145462925Y-81743359D01*
X145435832Y-81607154D01*
X145382688Y-81478852D01*
X145305534Y-81363384D01*
X145207336Y-81265186D01*
X145091868Y-81188032D01*
X144963566Y-81134888D01*
X144827361Y-81107795D01*
X144688489Y-81107795D01*
X144552284Y-81134888D01*
X144423982Y-81188032D01*
X144308514Y-81265186D01*
X144210316Y-81363384D01*
X144133162Y-81478852D01*
X144080018Y-81607154D01*
X144052925Y-81743359D01*
X136878805Y-81743359D01*
X136864883Y-81734057D01*
X136736581Y-81680913D01*
X136600376Y-81653820D01*
X136461504Y-81653820D01*
X136325299Y-81680913D01*
X136196997Y-81734057D01*
X136081529Y-81811211D01*
X135983331Y-81909409D01*
X135906177Y-82024877D01*
X135853033Y-82153179D01*
X135825940Y-82289384D01*
X134612896Y-82289384D01*
X134708729Y-82193551D01*
X134785883Y-82078083D01*
X134839027Y-81949781D01*
X134866120Y-81813576D01*
X134866120Y-81674704D01*
X134839027Y-81538499D01*
X134785883Y-81410197D01*
X134708729Y-81294729D01*
X134634506Y-81220506D01*
X134676467Y-81119201D01*
X134703560Y-80982996D01*
X134703560Y-80844124D01*
X134695477Y-80803484D01*
X136191700Y-80803484D01*
X136191700Y-80942356D01*
X136218793Y-81078561D01*
X136271937Y-81206863D01*
X136349091Y-81322331D01*
X136447289Y-81420529D01*
X136562757Y-81497683D01*
X136691059Y-81550827D01*
X136827264Y-81577920D01*
X136966136Y-81577920D01*
X137102341Y-81550827D01*
X137230643Y-81497683D01*
X137346111Y-81420529D01*
X137444309Y-81322331D01*
X137521463Y-81206863D01*
X137574607Y-81078561D01*
X137601700Y-80942356D01*
X137601700Y-80803484D01*
X137574607Y-80667279D01*
X137521463Y-80538977D01*
X137444309Y-80423509D01*
X137346111Y-80325311D01*
X137230643Y-80248157D01*
X137102341Y-80195013D01*
X136966136Y-80167920D01*
X136827264Y-80167920D01*
X136691059Y-80195013D01*
X136562757Y-80248157D01*
X136447289Y-80325311D01*
X136349091Y-80423509D01*
X136271937Y-80538977D01*
X136218793Y-80667279D01*
X136191700Y-80803484D01*
X134695477Y-80803484D01*
X134676467Y-80707919D01*
X134623323Y-80579617D01*
X134546169Y-80464149D01*
X134447971Y-80365951D01*
X134332503Y-80288797D01*
X134204201Y-80235653D01*
X134067996Y-80208560D01*
X133929124Y-80208560D01*
X133792919Y-80235653D01*
X133664617Y-80288797D01*
X133549149Y-80365951D01*
X133450951Y-80464149D01*
X133373797Y-80579617D01*
X133320653Y-80707919D01*
X133293560Y-80844124D01*
X129634329Y-80844124D01*
X129634329Y-76624018D01*
X136211523Y-76624018D01*
X136211523Y-76762890D01*
X136238616Y-76899095D01*
X136291760Y-77027397D01*
X136368914Y-77142865D01*
X136467112Y-77241063D01*
X136582580Y-77318217D01*
X136710882Y-77371361D01*
X136847087Y-77398454D01*
X136985959Y-77398454D01*
X137122164Y-77371361D01*
X137250466Y-77318217D01*
X137365934Y-77241063D01*
X137464132Y-77142865D01*
X137541286Y-77027397D01*
X137594430Y-76899095D01*
X137621523Y-76762890D01*
X137621523Y-76624018D01*
X137594430Y-76487813D01*
X137541286Y-76359511D01*
X137510921Y-76314067D01*
X137542550Y-76266732D01*
X137595694Y-76138430D01*
X137622787Y-76002225D01*
X137622787Y-75863353D01*
X137595694Y-75727148D01*
X137542550Y-75598846D01*
X137465396Y-75483378D01*
X137367198Y-75385180D01*
X137251730Y-75308026D01*
X137123428Y-75254882D01*
X136987223Y-75227789D01*
X136848351Y-75227789D01*
X136712146Y-75254882D01*
X136583844Y-75308026D01*
X136468376Y-75385180D01*
X136370178Y-75483378D01*
X136293024Y-75598846D01*
X136239880Y-75727148D01*
X136212787Y-75863353D01*
X136212787Y-76002225D01*
X136239880Y-76138430D01*
X136293024Y-76266732D01*
X136323389Y-76312176D01*
X136291760Y-76359511D01*
X136238616Y-76487813D01*
X136211523Y-76624018D01*
X129634329Y-76624018D01*
X129634329Y-74489044D01*
X137034980Y-74489044D01*
X137034980Y-74627916D01*
X137062073Y-74764121D01*
X137115217Y-74892423D01*
X137192371Y-75007891D01*
X137290569Y-75106089D01*
X137406037Y-75183243D01*
X137534339Y-75236387D01*
X137670544Y-75263480D01*
X137809416Y-75263480D01*
X137945621Y-75236387D01*
X138073923Y-75183243D01*
X138189391Y-75106089D01*
X138287589Y-75007891D01*
X138364743Y-74892423D01*
X138417887Y-74764121D01*
X138444980Y-74627916D01*
X138444980Y-74489044D01*
X138417887Y-74352839D01*
X138364743Y-74224537D01*
X138287589Y-74109069D01*
X138189391Y-74010871D01*
X138073923Y-73933717D01*
X137945621Y-73880573D01*
X137809416Y-73853480D01*
X137670544Y-73853480D01*
X137534339Y-73880573D01*
X137406037Y-73933717D01*
X137290569Y-74010871D01*
X137192371Y-74109069D01*
X137115217Y-74224537D01*
X137062073Y-74352839D01*
X137034980Y-74489044D01*
X129634329Y-74489044D01*
X129634329Y-72512924D01*
X144436540Y-72512924D01*
X144436540Y-72651796D01*
X144463633Y-72788001D01*
X144516777Y-72916303D01*
X144593931Y-73031771D01*
X144692129Y-73129969D01*
X144807597Y-73207123D01*
X144935899Y-73260267D01*
X145072104Y-73287360D01*
X145210976Y-73287360D01*
X145347181Y-73260267D01*
X145475483Y-73207123D01*
X145590951Y-73129969D01*
X145689149Y-73031771D01*
X145766303Y-72916303D01*
X145819447Y-72788001D01*
X145846540Y-72651796D01*
X145846540Y-72512924D01*
X145846540Y-72512923D01*
X148441702Y-72512923D01*
X148441702Y-72651795D01*
X148468795Y-72788000D01*
X148521939Y-72916302D01*
X148599093Y-73031770D01*
X148697291Y-73129968D01*
X148812759Y-73207122D01*
X148941061Y-73260266D01*
X149077266Y-73287359D01*
X149216138Y-73287359D01*
X149352343Y-73260266D01*
X149480645Y-73207122D01*
X149596113Y-73129968D01*
X149694311Y-73031770D01*
X149771465Y-72916302D01*
X149824609Y-72788000D01*
X149851702Y-72651795D01*
X149851702Y-72525624D01*
X150027080Y-72525624D01*
X150027080Y-72664496D01*
X150054173Y-72800701D01*
X150107317Y-72929003D01*
X150184471Y-73044471D01*
X150282669Y-73142669D01*
X150398137Y-73219823D01*
X150526439Y-73272967D01*
X150662644Y-73300060D01*
X150801516Y-73300060D01*
X150937721Y-73272967D01*
X151066023Y-73219823D01*
X151181491Y-73142669D01*
X151279689Y-73044471D01*
X151356843Y-72929003D01*
X151409987Y-72800701D01*
X151437080Y-72664496D01*
X151437080Y-72525624D01*
X151409987Y-72389419D01*
X151356843Y-72261117D01*
X151279689Y-72145649D01*
X151181491Y-72047451D01*
X151066023Y-71970297D01*
X150937721Y-71917153D01*
X150801516Y-71890060D01*
X150662644Y-71890060D01*
X150526439Y-71917153D01*
X150398137Y-71970297D01*
X150282669Y-72047451D01*
X150184471Y-72145649D01*
X150107317Y-72261117D01*
X150054173Y-72389419D01*
X150027080Y-72525624D01*
X149851702Y-72525624D01*
X149851702Y-72512923D01*
X149824609Y-72376718D01*
X149771465Y-72248416D01*
X149694311Y-72132948D01*
X149596113Y-72034750D01*
X149480645Y-71957596D01*
X149352343Y-71904452D01*
X149216138Y-71877359D01*
X149077266Y-71877359D01*
X148941061Y-71904452D01*
X148812759Y-71957596D01*
X148697291Y-72034750D01*
X148599093Y-72132948D01*
X148521939Y-72248416D01*
X148468795Y-72376718D01*
X148441702Y-72512923D01*
X145846540Y-72512923D01*
X145819447Y-72376719D01*
X145766303Y-72248417D01*
X145689149Y-72132949D01*
X145590951Y-72034751D01*
X145475483Y-71957597D01*
X145347181Y-71904453D01*
X145210976Y-71877360D01*
X145072104Y-71877360D01*
X144935899Y-71904453D01*
X144807597Y-71957597D01*
X144692129Y-72034751D01*
X144593931Y-72132949D01*
X144516777Y-72248417D01*
X144463633Y-72376719D01*
X144436540Y-72512924D01*
X129634329Y-72512924D01*
X129634329Y-71329284D01*
X145561760Y-71329284D01*
X145561760Y-71468156D01*
X145588853Y-71604361D01*
X145641997Y-71732663D01*
X145719151Y-71848131D01*
X145817349Y-71946329D01*
X145932817Y-72023483D01*
X146061119Y-72076627D01*
X146197324Y-72103720D01*
X146336196Y-72103720D01*
X146472401Y-72076627D01*
X146600703Y-72023483D01*
X146716171Y-71946329D01*
X146814369Y-71848131D01*
X146891523Y-71732663D01*
X146944667Y-71604361D01*
X146971760Y-71468156D01*
X146971760Y-71329284D01*
X146944667Y-71193079D01*
X146891523Y-71064777D01*
X146814369Y-70949309D01*
X146716171Y-70851111D01*
X146600703Y-70773957D01*
X146472401Y-70720813D01*
X146336196Y-70693720D01*
X146197324Y-70693720D01*
X146061119Y-70720813D01*
X145932817Y-70773957D01*
X145817349Y-70851111D01*
X145719151Y-70949309D01*
X145641997Y-71064777D01*
X145588853Y-71193079D01*
X145561760Y-71329284D01*
X129634329Y-71329284D01*
X129634329Y-70689204D01*
X152435000Y-70689204D01*
X152435000Y-70828076D01*
X152462093Y-70964281D01*
X152515237Y-71092583D01*
X152592391Y-71208051D01*
X152690589Y-71306249D01*
X152806057Y-71383403D01*
X152934359Y-71436547D01*
X153070564Y-71463640D01*
X153209436Y-71463640D01*
X153345641Y-71436547D01*
X153473943Y-71383403D01*
X153589411Y-71306249D01*
X153687609Y-71208051D01*
X153764763Y-71092583D01*
X153817907Y-70964281D01*
X153845000Y-70828076D01*
X153845000Y-70689204D01*
X153817907Y-70552999D01*
X153764763Y-70424697D01*
X153687609Y-70309229D01*
X153589411Y-70211031D01*
X153473943Y-70133877D01*
X153345641Y-70080733D01*
X153209436Y-70053640D01*
X153070564Y-70053640D01*
X152934359Y-70080733D01*
X152806057Y-70133877D01*
X152690589Y-70211031D01*
X152592391Y-70309229D01*
X152515237Y-70424697D01*
X152462093Y-70552999D01*
X152435000Y-70689204D01*
X129634329Y-70689204D01*
X129634329Y-69431904D01*
X132823660Y-69431904D01*
X132823660Y-69570776D01*
X132850753Y-69706981D01*
X132903897Y-69835283D01*
X132981051Y-69950751D01*
X133079249Y-70048949D01*
X133194717Y-70126103D01*
X133323019Y-70179247D01*
X133459224Y-70206340D01*
X133598096Y-70206340D01*
X133734301Y-70179247D01*
X133862603Y-70126103D01*
X133978071Y-70048949D01*
X134076269Y-69950751D01*
X134153423Y-69835283D01*
X134206567Y-69706981D01*
X134233660Y-69570776D01*
X134233660Y-69431904D01*
X134206567Y-69295699D01*
X134153423Y-69167397D01*
X134076269Y-69051929D01*
X133978071Y-68953731D01*
X133862603Y-68876577D01*
X133734301Y-68823433D01*
X133598096Y-68796340D01*
X133459224Y-68796340D01*
X133323019Y-68823433D01*
X133194717Y-68876577D01*
X133079249Y-68953731D01*
X132981051Y-69051929D01*
X132903897Y-69167397D01*
X132850753Y-69295699D01*
X132823660Y-69431904D01*
X129634329Y-69431904D01*
X129634329Y-67806304D01*
X135183320Y-67806304D01*
X135183320Y-67945176D01*
X135210413Y-68081381D01*
X135263557Y-68209683D01*
X135274286Y-68225740D01*
X135263557Y-68241797D01*
X135210413Y-68370099D01*
X135183320Y-68506304D01*
X135183320Y-68645176D01*
X135210413Y-68781381D01*
X135263557Y-68909683D01*
X135340711Y-69025151D01*
X135438909Y-69123349D01*
X135554377Y-69200503D01*
X135682679Y-69253647D01*
X135818884Y-69280740D01*
X135957756Y-69280740D01*
X136093961Y-69253647D01*
X136222263Y-69200503D01*
X136337731Y-69123349D01*
X136435929Y-69025151D01*
X136488320Y-68946743D01*
X136540711Y-69025151D01*
X136638909Y-69123349D01*
X136754377Y-69200503D01*
X136882679Y-69253647D01*
X137018884Y-69280740D01*
X137157756Y-69280740D01*
X137293961Y-69253647D01*
X137422263Y-69200503D01*
X137537731Y-69123349D01*
X137635929Y-69025151D01*
X137688320Y-68946743D01*
X137740711Y-69025151D01*
X137838909Y-69123349D01*
X137954377Y-69200503D01*
X138082679Y-69253647D01*
X138218884Y-69280740D01*
X138357756Y-69280740D01*
X138493961Y-69253647D01*
X138622263Y-69200503D01*
X138737731Y-69123349D01*
X138835929Y-69025151D01*
X138913083Y-68909683D01*
X138966227Y-68781381D01*
X138993320Y-68645176D01*
X138993320Y-68506304D01*
X138966227Y-68370099D01*
X138913083Y-68241797D01*
X138902354Y-68225740D01*
X138913083Y-68209683D01*
X138966227Y-68081381D01*
X138993320Y-67945176D01*
X138993320Y-67806304D01*
X138966227Y-67670099D01*
X138913083Y-67541797D01*
X138835929Y-67426329D01*
X138737731Y-67328131D01*
X138622263Y-67250977D01*
X138493961Y-67197833D01*
X138357756Y-67170740D01*
X138218884Y-67170740D01*
X138082679Y-67197833D01*
X137954377Y-67250977D01*
X137838909Y-67328131D01*
X137740711Y-67426329D01*
X137688320Y-67504737D01*
X137635929Y-67426329D01*
X137537731Y-67328131D01*
X137422263Y-67250977D01*
X137293961Y-67197833D01*
X137157756Y-67170740D01*
X137018884Y-67170740D01*
X136882679Y-67197833D01*
X136754377Y-67250977D01*
X136638909Y-67328131D01*
X136540711Y-67426329D01*
X136488320Y-67504737D01*
X136435929Y-67426329D01*
X136337731Y-67328131D01*
X136222263Y-67250977D01*
X136093961Y-67197833D01*
X135957756Y-67170740D01*
X135818884Y-67170740D01*
X135682679Y-67197833D01*
X135554377Y-67250977D01*
X135438909Y-67328131D01*
X135340711Y-67426329D01*
X135263557Y-67541797D01*
X135210413Y-67670099D01*
X135183320Y-67806304D01*
X129634329Y-67806304D01*
X129634329Y-66955460D01*
X139561960Y-66955460D01*
X139561960Y-68015440D01*
%TD*%
M02*
