M48
; DRILL file {KiCad (5.1.6)-1} date 07/04/20 15:59:11
; FORMAT={-:-/ absolute / inch / decimal}
; #@! TF.CreationDate,2020-07-04T15:59:11+08:00
; #@! TF.GenerationSoftware,Kicad,Pcbnew,(5.1.6)-1
; #@! TF.FileFunction,Plated,1,4,PTH
FMAT,2
INCH
T1C0.0079
T2C0.0118
%
G90
G05
T1
X5.2597Y-3.6153
X5.7123Y-3.4096
X5.7123Y-3.4598
X5.7123Y-3.51
X5.7123Y-3.5602
X5.7123Y-3.6104
X5.7624Y-3.4096
X5.7624Y-3.4598
X5.7624Y-3.51
X5.7624Y-3.5602
X5.7624Y-3.6104
X5.8126Y-3.4096
X5.8126Y-3.4598
X5.8126Y-3.51
X5.8126Y-3.5602
X5.8126Y-3.6104
X5.8628Y-3.4096
X5.8628Y-3.4598
X5.8628Y-3.51
X5.8628Y-3.5602
X5.8628Y-3.6104
X5.913Y-3.4096
X5.913Y-3.4598
X5.913Y-3.51
X5.913Y-3.5602
X5.913Y-3.6104
T2
X5.1194Y-4.1519
X5.1223Y-3.3781
X5.1232Y-2.9916
X5.1232Y-3.1711
X5.1505Y-2.7758
X5.1829Y-3.8407
X5.183Y-3.9656
X5.2056Y-3.4208
X5.2245Y-3.0349
X5.2245Y-3.3461
X5.2308Y-3.9482
X5.2377Y-3.8263
X5.2404Y-2.9852
X5.2515Y-2.9239
X5.2533Y-3.3299
X5.257Y-2.7363
X5.2729Y-2.7626
X5.2755Y-3.1856
X5.2798Y-3.6771
X5.2819Y-3.2183
X5.2839Y-3.3832
X5.3174Y-3.458
X5.3256Y-3.1226
X5.3361Y-2.8977
X5.3499Y-2.6723
X5.3499Y-2.6998
X5.3752Y-3.2425
X5.3814Y-2.8985
X5.3896Y-3.184
X5.3904Y-3.0194
X5.3905Y-2.9895
X5.3965Y-3.8566
X5.3972Y-2.6723
X5.3972Y-2.6998
X5.4066Y-2.9648
X5.4228Y-2.9354
X5.4444Y-2.6723
X5.4444Y-2.6998
X5.4489Y-3.6203
X5.4577Y-2.8423
X5.4634Y-3.3854
X5.4723Y-3.5479
X5.4843Y-3.342
X5.5333Y-3.3596
X5.5435Y-3.0237
X5.5556Y-2.8426
X5.5713Y-3.4026
X5.574Y-3.34
X5.5749Y-3.6206
X5.5999Y-2.8446
X5.6131Y-3.0133
X5.6405Y-3.5987
X5.6495Y-2.8453
X5.6611Y-3.283
X5.6633Y-4.1999
X5.6688Y-3.2533
X5.6786Y-3.6688
X5.6794Y-3.8063
X5.6991Y-3.221
X5.7032Y-3.2864
X5.7142Y-2.8576
X5.7154Y-2.9876
X5.7189Y-3.7015
X5.7356Y-3.7356
X5.7379Y-3.765
X5.745Y-3.3282
X5.7585Y-2.811
X5.8006Y-3.247
X5.8113Y-2.8597
X5.8371Y-4.262
X5.8408Y-2.8585
X5.8574Y-3.0199
X5.864Y-4.206
X5.8719Y-2.8576
X5.901Y-3.2103
X5.9014Y-2.8585
X5.9343Y-2.8581
X5.9416Y-3.7812
X5.9717Y-4.545
X5.9809Y-3.2191
X5.9809Y-3.2473
X5.9811Y-3.854
X6.0081Y-3.1923
X6.0081Y-3.2198
X6.0081Y-3.2474
X6.0096Y-2.8603
X6.0113Y-3.9332
X6.0119Y-3.3081
X6.0119Y-3.6458
X6.0252Y-3.1094
X6.0291Y-2.7858
X6.0357Y-3.1923
X6.0357Y-3.2198
X6.0357Y-3.2474
X6.045Y-4.4621
X6.0456Y-4.0823
X6.0631Y-3.895
X6.0633Y-3.1923
X6.0633Y-3.2198
X6.0633Y-3.2474
X6.0743Y-3.6683
X6.094Y-3.4873
X6.1106Y-3.3717
X6.1111Y-3.4282
X6.1111Y-3.4622
X6.1111Y-3.5084
X6.1111Y-3.5458
X6.1246Y-4.2376
X6.1399Y-4.3666
X6.1682Y-3.7988
X6.181Y-3.3594
X6.1962Y-3.7113
X6.2088Y-3.7993
X6.23Y-3.3608
X6.2307Y-4.2695
X6.2352Y-3.6687
X6.2408Y-3.8001
X6.2477Y-3.2693
X6.2553Y-4.093
X6.2683Y-2.9027
X6.2721Y-3.654
X6.2806Y-4.1403
X6.2945Y-3.7585
X6.3004Y-4.0481
X6.3413Y-3.9493
X6.3467Y-4.2275
X6.3663Y-2.946
X6.3729Y-3.715
X5.4884Y-3.0981
X5.4884Y-3.1414
X5.51Y-3.1197
X5.5317Y-3.0981
X5.5317Y-3.1414
T0
M30
