%TF.GenerationSoftware,KiCad,Pcbnew,(5.1.6)-1*%
%TF.CreationDate,2020-07-04T15:59:08+08:00*%
%TF.ProjectId,24RF_Remote_Control,32345246-5f52-4656-9d6f-74655f436f6e,rev?*%
%TF.SameCoordinates,Original*%
%TF.FileFunction,Soldermask,Top*%
%TF.FilePolarity,Negative*%
%FSLAX46Y46*%
G04 Gerber Fmt 4.6, Leading zero omitted, Abs format (unit mm)*
G04 Created by KiCad (PCBNEW (5.1.6)-1) date 2020-07-04 15:59:08*
%MOMM*%
%LPD*%
G01*
G04 APERTURE LIST*
%ADD10R,1.700000X1.100000*%
%ADD11O,1.800000X1.800000*%
%ADD12R,1.800000X1.800000*%
%ADD13C,2.300000*%
%ADD14R,1.900000X1.000000*%
%ADD15R,0.800000X0.700000*%
%ADD16R,0.900000X1.000000*%
%ADD17C,1.000000*%
%ADD18R,1.600000X1.600000*%
%ADD19R,4.000000X1.100000*%
%ADD20R,1.100000X4.000000*%
G04 APERTURE END LIST*
%TO.C,U1*%
G36*
G01*
X140854260Y-78605940D02*
X140854260Y-79876740D01*
G75*
G02*
X140589660Y-80141340I-264600J0D01*
G01*
X139318860Y-80141340D01*
G75*
G02*
X139054260Y-79876740I0J264600D01*
G01*
X139054260Y-78605940D01*
G75*
G02*
X139318860Y-78341340I264600J0D01*
G01*
X140589660Y-78341340D01*
G75*
G02*
X140854260Y-78605940I0J-264600D01*
G01*
G37*
G36*
G01*
X141854260Y-79903840D02*
X141854260Y-80078840D01*
G75*
G02*
X141766760Y-80166340I-87500J0D01*
G01*
X141041760Y-80166340D01*
G75*
G02*
X140954260Y-80078840I0J87500D01*
G01*
X140954260Y-79903840D01*
G75*
G02*
X141041760Y-79816340I87500J0D01*
G01*
X141766760Y-79816340D01*
G75*
G02*
X141854260Y-79903840I0J-87500D01*
G01*
G37*
G36*
G01*
X141854260Y-79403840D02*
X141854260Y-79578840D01*
G75*
G02*
X141766760Y-79666340I-87500J0D01*
G01*
X141041760Y-79666340D01*
G75*
G02*
X140954260Y-79578840I0J87500D01*
G01*
X140954260Y-79403840D01*
G75*
G02*
X141041760Y-79316340I87500J0D01*
G01*
X141766760Y-79316340D01*
G75*
G02*
X141854260Y-79403840I0J-87500D01*
G01*
G37*
G36*
G01*
X141854260Y-78903840D02*
X141854260Y-79078840D01*
G75*
G02*
X141766760Y-79166340I-87500J0D01*
G01*
X141041760Y-79166340D01*
G75*
G02*
X140954260Y-79078840I0J87500D01*
G01*
X140954260Y-78903840D01*
G75*
G02*
X141041760Y-78816340I87500J0D01*
G01*
X141766760Y-78816340D01*
G75*
G02*
X141854260Y-78903840I0J-87500D01*
G01*
G37*
G36*
G01*
X141854260Y-78403840D02*
X141854260Y-78578840D01*
G75*
G02*
X141766760Y-78666340I-87500J0D01*
G01*
X141041760Y-78666340D01*
G75*
G02*
X140954260Y-78578840I0J87500D01*
G01*
X140954260Y-78403840D01*
G75*
G02*
X141041760Y-78316340I87500J0D01*
G01*
X141766760Y-78316340D01*
G75*
G02*
X141854260Y-78403840I0J-87500D01*
G01*
G37*
G36*
G01*
X140879260Y-77428840D02*
X140879260Y-78153840D01*
G75*
G02*
X140791760Y-78241340I-87500J0D01*
G01*
X140616760Y-78241340D01*
G75*
G02*
X140529260Y-78153840I0J87500D01*
G01*
X140529260Y-77428840D01*
G75*
G02*
X140616760Y-77341340I87500J0D01*
G01*
X140791760Y-77341340D01*
G75*
G02*
X140879260Y-77428840I0J-87500D01*
G01*
G37*
G36*
G01*
X140379260Y-77428840D02*
X140379260Y-78153840D01*
G75*
G02*
X140291760Y-78241340I-87500J0D01*
G01*
X140116760Y-78241340D01*
G75*
G02*
X140029260Y-78153840I0J87500D01*
G01*
X140029260Y-77428840D01*
G75*
G02*
X140116760Y-77341340I87500J0D01*
G01*
X140291760Y-77341340D01*
G75*
G02*
X140379260Y-77428840I0J-87500D01*
G01*
G37*
G36*
G01*
X139879260Y-77428840D02*
X139879260Y-78153840D01*
G75*
G02*
X139791760Y-78241340I-87500J0D01*
G01*
X139616760Y-78241340D01*
G75*
G02*
X139529260Y-78153840I0J87500D01*
G01*
X139529260Y-77428840D01*
G75*
G02*
X139616760Y-77341340I87500J0D01*
G01*
X139791760Y-77341340D01*
G75*
G02*
X139879260Y-77428840I0J-87500D01*
G01*
G37*
G36*
G01*
X139379260Y-77428840D02*
X139379260Y-78153840D01*
G75*
G02*
X139291760Y-78241340I-87500J0D01*
G01*
X139116760Y-78241340D01*
G75*
G02*
X139029260Y-78153840I0J87500D01*
G01*
X139029260Y-77428840D01*
G75*
G02*
X139116760Y-77341340I87500J0D01*
G01*
X139291760Y-77341340D01*
G75*
G02*
X139379260Y-77428840I0J-87500D01*
G01*
G37*
G36*
G01*
X138954260Y-78403840D02*
X138954260Y-78578840D01*
G75*
G02*
X138866760Y-78666340I-87500J0D01*
G01*
X138141760Y-78666340D01*
G75*
G02*
X138054260Y-78578840I0J87500D01*
G01*
X138054260Y-78403840D01*
G75*
G02*
X138141760Y-78316340I87500J0D01*
G01*
X138866760Y-78316340D01*
G75*
G02*
X138954260Y-78403840I0J-87500D01*
G01*
G37*
G36*
G01*
X138954260Y-78903840D02*
X138954260Y-79078840D01*
G75*
G02*
X138866760Y-79166340I-87500J0D01*
G01*
X138141760Y-79166340D01*
G75*
G02*
X138054260Y-79078840I0J87500D01*
G01*
X138054260Y-78903840D01*
G75*
G02*
X138141760Y-78816340I87500J0D01*
G01*
X138866760Y-78816340D01*
G75*
G02*
X138954260Y-78903840I0J-87500D01*
G01*
G37*
G36*
G01*
X138954260Y-79403840D02*
X138954260Y-79578840D01*
G75*
G02*
X138866760Y-79666340I-87500J0D01*
G01*
X138141760Y-79666340D01*
G75*
G02*
X138054260Y-79578840I0J87500D01*
G01*
X138054260Y-79403840D01*
G75*
G02*
X138141760Y-79316340I87500J0D01*
G01*
X138866760Y-79316340D01*
G75*
G02*
X138954260Y-79403840I0J-87500D01*
G01*
G37*
G36*
G01*
X138954260Y-79903840D02*
X138954260Y-80078840D01*
G75*
G02*
X138866760Y-80166340I-87500J0D01*
G01*
X138141760Y-80166340D01*
G75*
G02*
X138054260Y-80078840I0J87500D01*
G01*
X138054260Y-79903840D01*
G75*
G02*
X138141760Y-79816340I87500J0D01*
G01*
X138866760Y-79816340D01*
G75*
G02*
X138954260Y-79903840I0J-87500D01*
G01*
G37*
G36*
G01*
X139379260Y-80328840D02*
X139379260Y-81053840D01*
G75*
G02*
X139291760Y-81141340I-87500J0D01*
G01*
X139116760Y-81141340D01*
G75*
G02*
X139029260Y-81053840I0J87500D01*
G01*
X139029260Y-80328840D01*
G75*
G02*
X139116760Y-80241340I87500J0D01*
G01*
X139291760Y-80241340D01*
G75*
G02*
X139379260Y-80328840I0J-87500D01*
G01*
G37*
G36*
G01*
X139879260Y-80328840D02*
X139879260Y-81053840D01*
G75*
G02*
X139791760Y-81141340I-87500J0D01*
G01*
X139616760Y-81141340D01*
G75*
G02*
X139529260Y-81053840I0J87500D01*
G01*
X139529260Y-80328840D01*
G75*
G02*
X139616760Y-80241340I87500J0D01*
G01*
X139791760Y-80241340D01*
G75*
G02*
X139879260Y-80328840I0J-87500D01*
G01*
G37*
G36*
G01*
X140379260Y-80328840D02*
X140379260Y-81053840D01*
G75*
G02*
X140291760Y-81141340I-87500J0D01*
G01*
X140116760Y-81141340D01*
G75*
G02*
X140029260Y-81053840I0J87500D01*
G01*
X140029260Y-80328840D01*
G75*
G02*
X140116760Y-80241340I87500J0D01*
G01*
X140291760Y-80241340D01*
G75*
G02*
X140379260Y-80328840I0J-87500D01*
G01*
G37*
G36*
G01*
X140879260Y-80328840D02*
X140879260Y-81053840D01*
G75*
G02*
X140791760Y-81141340I-87500J0D01*
G01*
X140616760Y-81141340D01*
G75*
G02*
X140529260Y-81053840I0J87500D01*
G01*
X140529260Y-80328840D01*
G75*
G02*
X140616760Y-80241340I87500J0D01*
G01*
X140791760Y-80241340D01*
G75*
G02*
X140879260Y-80328840I0J-87500D01*
G01*
G37*
%TD*%
%TO.C,U2*%
G36*
G01*
X135670470Y-72488600D02*
X135932970Y-72488600D01*
G75*
G02*
X136051720Y-72607350I0J-118750D01*
G01*
X136051720Y-72844850D01*
G75*
G02*
X135932970Y-72963600I-118750J0D01*
G01*
X135670470Y-72963600D01*
G75*
G02*
X135551720Y-72844850I0J118750D01*
G01*
X135551720Y-72607350D01*
G75*
G02*
X135670470Y-72488600I118750J0D01*
G01*
G37*
G36*
G01*
X135020470Y-72488600D02*
X135282970Y-72488600D01*
G75*
G02*
X135401720Y-72607350I0J-118750D01*
G01*
X135401720Y-72844850D01*
G75*
G02*
X135282970Y-72963600I-118750J0D01*
G01*
X135020470Y-72963600D01*
G75*
G02*
X134901720Y-72844850I0J118750D01*
G01*
X134901720Y-72607350D01*
G75*
G02*
X135020470Y-72488600I118750J0D01*
G01*
G37*
G36*
G01*
X134370470Y-72488600D02*
X134632970Y-72488600D01*
G75*
G02*
X134751720Y-72607350I0J-118750D01*
G01*
X134751720Y-72844850D01*
G75*
G02*
X134632970Y-72963600I-118750J0D01*
G01*
X134370470Y-72963600D01*
G75*
G02*
X134251720Y-72844850I0J118750D01*
G01*
X134251720Y-72607350D01*
G75*
G02*
X134370470Y-72488600I118750J0D01*
G01*
G37*
G36*
G01*
X134370470Y-74263600D02*
X134632970Y-74263600D01*
G75*
G02*
X134751720Y-74382350I0J-118750D01*
G01*
X134751720Y-74619850D01*
G75*
G02*
X134632970Y-74738600I-118750J0D01*
G01*
X134370470Y-74738600D01*
G75*
G02*
X134251720Y-74619850I0J118750D01*
G01*
X134251720Y-74382350D01*
G75*
G02*
X134370470Y-74263600I118750J0D01*
G01*
G37*
G36*
G01*
X135020470Y-74263600D02*
X135282970Y-74263600D01*
G75*
G02*
X135401720Y-74382350I0J-118750D01*
G01*
X135401720Y-74619850D01*
G75*
G02*
X135282970Y-74738600I-118750J0D01*
G01*
X135020470Y-74738600D01*
G75*
G02*
X134901720Y-74619850I0J118750D01*
G01*
X134901720Y-74382350D01*
G75*
G02*
X135020470Y-74263600I118750J0D01*
G01*
G37*
G36*
G01*
X135670470Y-74263600D02*
X135932970Y-74263600D01*
G75*
G02*
X136051720Y-74382350I0J-118750D01*
G01*
X136051720Y-74619850D01*
G75*
G02*
X135932970Y-74738600I-118750J0D01*
G01*
X135670470Y-74738600D01*
G75*
G02*
X135551720Y-74619850I0J118750D01*
G01*
X135551720Y-74382350D01*
G75*
G02*
X135670470Y-74263600I118750J0D01*
G01*
G37*
D10*
X135151720Y-73613600D03*
%TD*%
D11*
%TO.C,J5*%
X145989900Y-81180260D03*
D12*
X145989900Y-78640260D03*
%TD*%
D13*
%TO.C,REF\u002A\u002A*%
X160844240Y-114462240D03*
%TD*%
%TO.C,REF\u002A\u002A*%
X160843820Y-68251760D03*
%TD*%
%TO.C,REF\u002A\u002A*%
X130891760Y-114462240D03*
%TD*%
D14*
%TO.C,BZ1*%
X134335600Y-107205480D03*
X134335600Y-103605480D03*
%TD*%
%TO.C,C1*%
G36*
G01*
X134788580Y-81192270D02*
X134788580Y-80629770D01*
G75*
G02*
X135032330Y-80386020I243750J0D01*
G01*
X135519830Y-80386020D01*
G75*
G02*
X135763580Y-80629770I0J-243750D01*
G01*
X135763580Y-81192270D01*
G75*
G02*
X135519830Y-81436020I-243750J0D01*
G01*
X135032330Y-81436020D01*
G75*
G02*
X134788580Y-81192270I0J243750D01*
G01*
G37*
G36*
G01*
X136363580Y-81192270D02*
X136363580Y-80629770D01*
G75*
G02*
X136607330Y-80386020I243750J0D01*
G01*
X137094830Y-80386020D01*
G75*
G02*
X137338580Y-80629770I0J-243750D01*
G01*
X137338580Y-81192270D01*
G75*
G02*
X137094830Y-81436020I-243750J0D01*
G01*
X136607330Y-81436020D01*
G75*
G02*
X136363580Y-81192270I0J243750D01*
G01*
G37*
%TD*%
%TO.C,C2*%
G36*
G01*
X142703830Y-77024900D02*
X143266330Y-77024900D01*
G75*
G02*
X143510080Y-77268650I0J-243750D01*
G01*
X143510080Y-77756150D01*
G75*
G02*
X143266330Y-77999900I-243750J0D01*
G01*
X142703830Y-77999900D01*
G75*
G02*
X142460080Y-77756150I0J243750D01*
G01*
X142460080Y-77268650D01*
G75*
G02*
X142703830Y-77024900I243750J0D01*
G01*
G37*
G36*
G01*
X142703830Y-78599900D02*
X143266330Y-78599900D01*
G75*
G02*
X143510080Y-78843650I0J-243750D01*
G01*
X143510080Y-79331150D01*
G75*
G02*
X143266330Y-79574900I-243750J0D01*
G01*
X142703830Y-79574900D01*
G75*
G02*
X142460080Y-79331150I0J243750D01*
G01*
X142460080Y-78843650D01*
G75*
G02*
X142703830Y-78599900I243750J0D01*
G01*
G37*
%TD*%
%TO.C,C3*%
G36*
G01*
X135763580Y-77473398D02*
X135763580Y-78035898D01*
G75*
G02*
X135519830Y-78279648I-243750J0D01*
G01*
X135032330Y-78279648D01*
G75*
G02*
X134788580Y-78035898I0J243750D01*
G01*
X134788580Y-77473398D01*
G75*
G02*
X135032330Y-77229648I243750J0D01*
G01*
X135519830Y-77229648D01*
G75*
G02*
X135763580Y-77473398I0J-243750D01*
G01*
G37*
G36*
G01*
X137338580Y-77473398D02*
X137338580Y-78035898D01*
G75*
G02*
X137094830Y-78279648I-243750J0D01*
G01*
X136607330Y-78279648D01*
G75*
G02*
X136363580Y-78035898I0J243750D01*
G01*
X136363580Y-77473398D01*
G75*
G02*
X136607330Y-77229648I243750J0D01*
G01*
X137094830Y-77229648D01*
G75*
G02*
X137338580Y-77473398I0J-243750D01*
G01*
G37*
%TD*%
%TO.C,C4*%
G36*
G01*
X134712020Y-75559930D02*
X134712020Y-76122430D01*
G75*
G02*
X134468270Y-76366180I-243750J0D01*
G01*
X133980770Y-76366180D01*
G75*
G02*
X133737020Y-76122430I0J243750D01*
G01*
X133737020Y-75559930D01*
G75*
G02*
X133980770Y-75316180I243750J0D01*
G01*
X134468270Y-75316180D01*
G75*
G02*
X134712020Y-75559930I0J-243750D01*
G01*
G37*
G36*
G01*
X136287020Y-75559930D02*
X136287020Y-76122430D01*
G75*
G02*
X136043270Y-76366180I-243750J0D01*
G01*
X135555770Y-76366180D01*
G75*
G02*
X135312020Y-76122430I0J243750D01*
G01*
X135312020Y-75559930D01*
G75*
G02*
X135555770Y-75316180I243750J0D01*
G01*
X136043270Y-75316180D01*
G75*
G02*
X136287020Y-75559930I0J-243750D01*
G01*
G37*
%TD*%
%TO.C,C5*%
G36*
G01*
X136287020Y-71079370D02*
X136287020Y-71641870D01*
G75*
G02*
X136043270Y-71885620I-243750J0D01*
G01*
X135555770Y-71885620D01*
G75*
G02*
X135312020Y-71641870I0J243750D01*
G01*
X135312020Y-71079370D01*
G75*
G02*
X135555770Y-70835620I243750J0D01*
G01*
X136043270Y-70835620D01*
G75*
G02*
X136287020Y-71079370I0J-243750D01*
G01*
G37*
G36*
G01*
X134712020Y-71079370D02*
X134712020Y-71641870D01*
G75*
G02*
X134468270Y-71885620I-243750J0D01*
G01*
X133980770Y-71885620D01*
G75*
G02*
X133737020Y-71641870I0J243750D01*
G01*
X133737020Y-71079370D01*
G75*
G02*
X133980770Y-70835620I243750J0D01*
G01*
X134468270Y-70835620D01*
G75*
G02*
X134712020Y-71079370I0J-243750D01*
G01*
G37*
%TD*%
%TO.C,C19*%
G36*
G01*
X152115690Y-81030320D02*
X151553190Y-81030320D01*
G75*
G02*
X151309440Y-80786570I0J243750D01*
G01*
X151309440Y-80299070D01*
G75*
G02*
X151553190Y-80055320I243750J0D01*
G01*
X152115690Y-80055320D01*
G75*
G02*
X152359440Y-80299070I0J-243750D01*
G01*
X152359440Y-80786570D01*
G75*
G02*
X152115690Y-81030320I-243750J0D01*
G01*
G37*
G36*
G01*
X152115690Y-79455320D02*
X151553190Y-79455320D01*
G75*
G02*
X151309440Y-79211570I0J243750D01*
G01*
X151309440Y-78724070D01*
G75*
G02*
X151553190Y-78480320I243750J0D01*
G01*
X152115690Y-78480320D01*
G75*
G02*
X152359440Y-78724070I0J-243750D01*
G01*
X152359440Y-79211570D01*
G75*
G02*
X152115690Y-79455320I-243750J0D01*
G01*
G37*
%TD*%
%TO.C,C20*%
G36*
G01*
X131946520Y-92111730D02*
X131946520Y-91549230D01*
G75*
G02*
X132190270Y-91305480I243750J0D01*
G01*
X132677770Y-91305480D01*
G75*
G02*
X132921520Y-91549230I0J-243750D01*
G01*
X132921520Y-92111730D01*
G75*
G02*
X132677770Y-92355480I-243750J0D01*
G01*
X132190270Y-92355480D01*
G75*
G02*
X131946520Y-92111730I0J243750D01*
G01*
G37*
G36*
G01*
X130371520Y-92111730D02*
X130371520Y-91549230D01*
G75*
G02*
X130615270Y-91305480I243750J0D01*
G01*
X131102770Y-91305480D01*
G75*
G02*
X131346520Y-91549230I0J-243750D01*
G01*
X131346520Y-92111730D01*
G75*
G02*
X131102770Y-92355480I-243750J0D01*
G01*
X130615270Y-92355480D01*
G75*
G02*
X130371520Y-92111730I0J243750D01*
G01*
G37*
%TD*%
%TO.C,C21*%
G36*
G01*
X161364440Y-91549230D02*
X161364440Y-92111730D01*
G75*
G02*
X161120690Y-92355480I-243750J0D01*
G01*
X160633190Y-92355480D01*
G75*
G02*
X160389440Y-92111730I0J243750D01*
G01*
X160389440Y-91549230D01*
G75*
G02*
X160633190Y-91305480I243750J0D01*
G01*
X161120690Y-91305480D01*
G75*
G02*
X161364440Y-91549230I0J-243750D01*
G01*
G37*
G36*
G01*
X159789440Y-91549230D02*
X159789440Y-92111730D01*
G75*
G02*
X159545690Y-92355480I-243750J0D01*
G01*
X159058190Y-92355480D01*
G75*
G02*
X158814440Y-92111730I0J243750D01*
G01*
X158814440Y-91549230D01*
G75*
G02*
X159058190Y-91305480I243750J0D01*
G01*
X159545690Y-91305480D01*
G75*
G02*
X159789440Y-91549230I0J-243750D01*
G01*
G37*
%TD*%
%TO.C,D1*%
G36*
G01*
X156159711Y-113947903D02*
X156557459Y-113550156D01*
G75*
G02*
X156902173Y-113550156I172357J-172357D01*
G01*
X157246887Y-113894870D01*
G75*
G02*
X157246887Y-114239584I-172357J-172357D01*
G01*
X156849139Y-114637332D01*
G75*
G02*
X156504425Y-114637332I-172357J172357D01*
G01*
X156159711Y-114292618D01*
G75*
G02*
X156159711Y-113947904I172357J172357D01*
G01*
G37*
G36*
G01*
X155046017Y-112834209D02*
X155443765Y-112436462D01*
G75*
G02*
X155788479Y-112436462I172357J-172357D01*
G01*
X156133193Y-112781176D01*
G75*
G02*
X156133193Y-113125890I-172357J-172357D01*
G01*
X155735445Y-113523638D01*
G75*
G02*
X155390731Y-113523638I-172357J172357D01*
G01*
X155046017Y-113178924D01*
G75*
G02*
X155046017Y-112834210I172357J172357D01*
G01*
G37*
%TD*%
%TO.C,D2*%
G36*
G01*
X157461347Y-110418879D02*
X157859095Y-110021132D01*
G75*
G02*
X158203809Y-110021132I172357J-172357D01*
G01*
X158548523Y-110365846D01*
G75*
G02*
X158548523Y-110710560I-172357J-172357D01*
G01*
X158150775Y-111108308D01*
G75*
G02*
X157806061Y-111108308I-172357J172357D01*
G01*
X157461347Y-110763594D01*
G75*
G02*
X157461347Y-110418880I172357J172357D01*
G01*
G37*
G36*
G01*
X158575041Y-111532573D02*
X158972789Y-111134826D01*
G75*
G02*
X159317503Y-111134826I172357J-172357D01*
G01*
X159662217Y-111479540D01*
G75*
G02*
X159662217Y-111824254I-172357J-172357D01*
G01*
X159264469Y-112222002D01*
G75*
G02*
X158919755Y-112222002I-172357J172357D01*
G01*
X158575041Y-111877288D01*
G75*
G02*
X158575041Y-111532574I172357J172357D01*
G01*
G37*
%TD*%
%TO.C,D4*%
G36*
G01*
X160990370Y-109117243D02*
X161388118Y-108719496D01*
G75*
G02*
X161732832Y-108719496I172357J-172357D01*
G01*
X162077546Y-109064210D01*
G75*
G02*
X162077546Y-109408924I-172357J-172357D01*
G01*
X161679798Y-109806672D01*
G75*
G02*
X161335084Y-109806672I-172357J172357D01*
G01*
X160990370Y-109461958D01*
G75*
G02*
X160990370Y-109117244I172357J172357D01*
G01*
G37*
G36*
G01*
X159876676Y-108003549D02*
X160274424Y-107605802D01*
G75*
G02*
X160619138Y-107605802I172357J-172357D01*
G01*
X160963852Y-107950516D01*
G75*
G02*
X160963852Y-108295230I-172357J-172357D01*
G01*
X160566104Y-108692978D01*
G75*
G02*
X160221390Y-108692978I-172357J172357D01*
G01*
X159876676Y-108348264D01*
G75*
G02*
X159876676Y-108003550I172357J172357D01*
G01*
G37*
%TD*%
D15*
%TO.C,D6*%
X131311240Y-103830480D03*
X131311240Y-105230480D03*
%TD*%
D16*
%TO.C,Q1*%
X134718460Y-102288040D03*
X133768460Y-100288040D03*
X135668460Y-100288040D03*
%TD*%
%TO.C,R1*%
G36*
G01*
X142693670Y-81675840D02*
X143256170Y-81675840D01*
G75*
G02*
X143499920Y-81919590I0J-243750D01*
G01*
X143499920Y-82407090D01*
G75*
G02*
X143256170Y-82650840I-243750J0D01*
G01*
X142693670Y-82650840D01*
G75*
G02*
X142449920Y-82407090I0J243750D01*
G01*
X142449920Y-81919590D01*
G75*
G02*
X142693670Y-81675840I243750J0D01*
G01*
G37*
G36*
G01*
X142693670Y-80100840D02*
X143256170Y-80100840D01*
G75*
G02*
X143499920Y-80344590I0J-243750D01*
G01*
X143499920Y-80832090D01*
G75*
G02*
X143256170Y-81075840I-243750J0D01*
G01*
X142693670Y-81075840D01*
G75*
G02*
X142449920Y-80832090I0J243750D01*
G01*
X142449920Y-80344590D01*
G75*
G02*
X142693670Y-80100840I243750J0D01*
G01*
G37*
%TD*%
%TO.C,R2*%
G36*
G01*
X139933850Y-82663340D02*
X139371350Y-82663340D01*
G75*
G02*
X139127600Y-82419590I0J243750D01*
G01*
X139127600Y-81932090D01*
G75*
G02*
X139371350Y-81688340I243750J0D01*
G01*
X139933850Y-81688340D01*
G75*
G02*
X140177600Y-81932090I0J-243750D01*
G01*
X140177600Y-82419590D01*
G75*
G02*
X139933850Y-82663340I-243750J0D01*
G01*
G37*
G36*
G01*
X139933850Y-84238340D02*
X139371350Y-84238340D01*
G75*
G02*
X139127600Y-83994590I0J243750D01*
G01*
X139127600Y-83507090D01*
G75*
G02*
X139371350Y-83263340I243750J0D01*
G01*
X139933850Y-83263340D01*
G75*
G02*
X140177600Y-83507090I0J-243750D01*
G01*
X140177600Y-83994590D01*
G75*
G02*
X139933850Y-84238340I-243750J0D01*
G01*
G37*
%TD*%
%TO.C,R3*%
G36*
G01*
X134788580Y-79614084D02*
X134788580Y-79051584D01*
G75*
G02*
X135032330Y-78807834I243750J0D01*
G01*
X135519830Y-78807834D01*
G75*
G02*
X135763580Y-79051584I0J-243750D01*
G01*
X135763580Y-79614084D01*
G75*
G02*
X135519830Y-79857834I-243750J0D01*
G01*
X135032330Y-79857834D01*
G75*
G02*
X134788580Y-79614084I0J243750D01*
G01*
G37*
G36*
G01*
X136363580Y-79614084D02*
X136363580Y-79051584D01*
G75*
G02*
X136607330Y-78807834I243750J0D01*
G01*
X137094830Y-78807834D01*
G75*
G02*
X137338580Y-79051584I0J-243750D01*
G01*
X137338580Y-79614084D01*
G75*
G02*
X137094830Y-79857834I-243750J0D01*
G01*
X136607330Y-79857834D01*
G75*
G02*
X136363580Y-79614084I0J243750D01*
G01*
G37*
%TD*%
%TO.C,R4*%
G36*
G01*
X141734710Y-82665880D02*
X141172210Y-82665880D01*
G75*
G02*
X140928460Y-82422130I0J243750D01*
G01*
X140928460Y-81934630D01*
G75*
G02*
X141172210Y-81690880I243750J0D01*
G01*
X141734710Y-81690880D01*
G75*
G02*
X141978460Y-81934630I0J-243750D01*
G01*
X141978460Y-82422130D01*
G75*
G02*
X141734710Y-82665880I-243750J0D01*
G01*
G37*
G36*
G01*
X141734710Y-84240880D02*
X141172210Y-84240880D01*
G75*
G02*
X140928460Y-83997130I0J243750D01*
G01*
X140928460Y-83509630D01*
G75*
G02*
X141172210Y-83265880I243750J0D01*
G01*
X141734710Y-83265880D01*
G75*
G02*
X141978460Y-83509630I0J-243750D01*
G01*
X141978460Y-83997130D01*
G75*
G02*
X141734710Y-84240880I-243750J0D01*
G01*
G37*
%TD*%
%TO.C,R5*%
G36*
G01*
X156253682Y-111626544D02*
X156651430Y-111228797D01*
G75*
G02*
X156996144Y-111228797I172357J-172357D01*
G01*
X157340858Y-111573511D01*
G75*
G02*
X157340858Y-111918225I-172357J-172357D01*
G01*
X156943110Y-112315973D01*
G75*
G02*
X156598396Y-112315973I-172357J172357D01*
G01*
X156253682Y-111971259D01*
G75*
G02*
X156253682Y-111626545I172357J172357D01*
G01*
G37*
G36*
G01*
X157367376Y-112740238D02*
X157765124Y-112342491D01*
G75*
G02*
X158109838Y-112342491I172357J-172357D01*
G01*
X158454552Y-112687205D01*
G75*
G02*
X158454552Y-113031919I-172357J-172357D01*
G01*
X158056804Y-113429667D01*
G75*
G02*
X157712090Y-113429667I-172357J172357D01*
G01*
X157367376Y-113084953D01*
G75*
G02*
X157367376Y-112740239I172357J172357D01*
G01*
G37*
%TD*%
%TO.C,R7*%
G36*
G01*
X160869881Y-110616590D02*
X160472133Y-111014337D01*
G75*
G02*
X160127419Y-111014337I-172357J172357D01*
G01*
X159782705Y-110669623D01*
G75*
G02*
X159782705Y-110324909I172357J172357D01*
G01*
X160180453Y-109927161D01*
G75*
G02*
X160525167Y-109927161I172357J-172357D01*
G01*
X160869881Y-110271875D01*
G75*
G02*
X160869881Y-110616589I-172357J-172357D01*
G01*
G37*
G36*
G01*
X159756187Y-109502896D02*
X159358439Y-109900643D01*
G75*
G02*
X159013725Y-109900643I-172357J172357D01*
G01*
X158669011Y-109555929D01*
G75*
G02*
X158669011Y-109211215I172357J172357D01*
G01*
X159066759Y-108813467D01*
G75*
G02*
X159411473Y-108813467I172357J-172357D01*
G01*
X159756187Y-109158181D01*
G75*
G02*
X159756187Y-109502895I-172357J-172357D01*
G01*
G37*
%TD*%
%TO.C,R17*%
G36*
G01*
X135432210Y-96703620D02*
X135994710Y-96703620D01*
G75*
G02*
X136238460Y-96947370I0J-243750D01*
G01*
X136238460Y-97434870D01*
G75*
G02*
X135994710Y-97678620I-243750J0D01*
G01*
X135432210Y-97678620D01*
G75*
G02*
X135188460Y-97434870I0J243750D01*
G01*
X135188460Y-96947370D01*
G75*
G02*
X135432210Y-96703620I243750J0D01*
G01*
G37*
G36*
G01*
X135432210Y-98278620D02*
X135994710Y-98278620D01*
G75*
G02*
X136238460Y-98522370I0J-243750D01*
G01*
X136238460Y-99009870D01*
G75*
G02*
X135994710Y-99253620I-243750J0D01*
G01*
X135432210Y-99253620D01*
G75*
G02*
X135188460Y-99009870I0J243750D01*
G01*
X135188460Y-98522370D01*
G75*
G02*
X135432210Y-98278620I243750J0D01*
G01*
G37*
%TD*%
%TO.C,R18*%
G36*
G01*
X134394510Y-97678620D02*
X133832010Y-97678620D01*
G75*
G02*
X133588260Y-97434870I0J243750D01*
G01*
X133588260Y-96947370D01*
G75*
G02*
X133832010Y-96703620I243750J0D01*
G01*
X134394510Y-96703620D01*
G75*
G02*
X134638260Y-96947370I0J-243750D01*
G01*
X134638260Y-97434870D01*
G75*
G02*
X134394510Y-97678620I-243750J0D01*
G01*
G37*
G36*
G01*
X134394510Y-99253620D02*
X133832010Y-99253620D01*
G75*
G02*
X133588260Y-99009870I0J243750D01*
G01*
X133588260Y-98522370D01*
G75*
G02*
X133832010Y-98278620I243750J0D01*
G01*
X134394510Y-98278620D01*
G75*
G02*
X134638260Y-98522370I0J-243750D01*
G01*
X134638260Y-99009870D01*
G75*
G02*
X134394510Y-99253620I-243750J0D01*
G01*
G37*
%TD*%
%TO.C,R20*%
G36*
G01*
X150012570Y-112853780D02*
X149450070Y-112853780D01*
G75*
G02*
X149206320Y-112610030I0J243750D01*
G01*
X149206320Y-112122530D01*
G75*
G02*
X149450070Y-111878780I243750J0D01*
G01*
X150012570Y-111878780D01*
G75*
G02*
X150256320Y-112122530I0J-243750D01*
G01*
X150256320Y-112610030D01*
G75*
G02*
X150012570Y-112853780I-243750J0D01*
G01*
G37*
G36*
G01*
X150012570Y-114428780D02*
X149450070Y-114428780D01*
G75*
G02*
X149206320Y-114185030I0J243750D01*
G01*
X149206320Y-113697530D01*
G75*
G02*
X149450070Y-113453780I243750J0D01*
G01*
X150012570Y-113453780D01*
G75*
G02*
X150256320Y-113697530I0J-243750D01*
G01*
X150256320Y-114185030D01*
G75*
G02*
X150012570Y-114428780I-243750J0D01*
G01*
G37*
%TD*%
%TO.C,R21*%
G36*
G01*
X148317230Y-79996900D02*
X148879730Y-79996900D01*
G75*
G02*
X149123480Y-80240650I0J-243750D01*
G01*
X149123480Y-80728150D01*
G75*
G02*
X148879730Y-80971900I-243750J0D01*
G01*
X148317230Y-80971900D01*
G75*
G02*
X148073480Y-80728150I0J243750D01*
G01*
X148073480Y-80240650D01*
G75*
G02*
X148317230Y-79996900I243750J0D01*
G01*
G37*
G36*
G01*
X148317230Y-78421900D02*
X148879730Y-78421900D01*
G75*
G02*
X149123480Y-78665650I0J-243750D01*
G01*
X149123480Y-79153150D01*
G75*
G02*
X148879730Y-79396900I-243750J0D01*
G01*
X148317230Y-79396900D01*
G75*
G02*
X148073480Y-79153150I0J243750D01*
G01*
X148073480Y-78665650D01*
G75*
G02*
X148317230Y-78421900I243750J0D01*
G01*
G37*
%TD*%
%TO.C,R22*%
G36*
G01*
X150522470Y-80989500D02*
X149959970Y-80989500D01*
G75*
G02*
X149716220Y-80745750I0J243750D01*
G01*
X149716220Y-80258250D01*
G75*
G02*
X149959970Y-80014500I243750J0D01*
G01*
X150522470Y-80014500D01*
G75*
G02*
X150766220Y-80258250I0J-243750D01*
G01*
X150766220Y-80745750D01*
G75*
G02*
X150522470Y-80989500I-243750J0D01*
G01*
G37*
G36*
G01*
X150522470Y-79414500D02*
X149959970Y-79414500D01*
G75*
G02*
X149716220Y-79170750I0J243750D01*
G01*
X149716220Y-78683250D01*
G75*
G02*
X149959970Y-78439500I243750J0D01*
G01*
X150522470Y-78439500D01*
G75*
G02*
X150766220Y-78683250I0J-243750D01*
G01*
X150766220Y-79170750D01*
G75*
G02*
X150522470Y-79414500I-243750J0D01*
G01*
G37*
%TD*%
%TO.C,R23*%
G36*
G01*
X153838352Y-114041874D02*
X154236100Y-113644127D01*
G75*
G02*
X154580814Y-113644127I172357J-172357D01*
G01*
X154925528Y-113988841D01*
G75*
G02*
X154925528Y-114333555I-172357J-172357D01*
G01*
X154527780Y-114731303D01*
G75*
G02*
X154183066Y-114731303I-172357J172357D01*
G01*
X153838352Y-114386589D01*
G75*
G02*
X153838352Y-114041875I172357J172357D01*
G01*
G37*
G36*
G01*
X154952046Y-115155568D02*
X155349794Y-114757821D01*
G75*
G02*
X155694508Y-114757821I172357J-172357D01*
G01*
X156039222Y-115102535D01*
G75*
G02*
X156039222Y-115447249I-172357J-172357D01*
G01*
X155641474Y-115844997D01*
G75*
G02*
X155296760Y-115844997I-172357J172357D01*
G01*
X154952046Y-115500283D01*
G75*
G02*
X154952046Y-115155569I172357J172357D01*
G01*
G37*
%TD*%
%TO.C,R25*%
G36*
G01*
X155752940Y-98412410D02*
X155752940Y-97849910D01*
G75*
G02*
X155996690Y-97606160I243750J0D01*
G01*
X156484190Y-97606160D01*
G75*
G02*
X156727940Y-97849910I0J-243750D01*
G01*
X156727940Y-98412410D01*
G75*
G02*
X156484190Y-98656160I-243750J0D01*
G01*
X155996690Y-98656160D01*
G75*
G02*
X155752940Y-98412410I0J243750D01*
G01*
G37*
G36*
G01*
X157327940Y-98412410D02*
X157327940Y-97849910D01*
G75*
G02*
X157571690Y-97606160I243750J0D01*
G01*
X158059190Y-97606160D01*
G75*
G02*
X158302940Y-97849910I0J-243750D01*
G01*
X158302940Y-98412410D01*
G75*
G02*
X158059190Y-98656160I-243750J0D01*
G01*
X157571690Y-98656160D01*
G75*
G02*
X157327940Y-98412410I0J243750D01*
G01*
G37*
%TD*%
%TO.C,R26*%
G36*
G01*
X130826380Y-107003750D02*
X130826380Y-106441250D01*
G75*
G02*
X131070130Y-106197500I243750J0D01*
G01*
X131557630Y-106197500D01*
G75*
G02*
X131801380Y-106441250I0J-243750D01*
G01*
X131801380Y-107003750D01*
G75*
G02*
X131557630Y-107247500I-243750J0D01*
G01*
X131070130Y-107247500D01*
G75*
G02*
X130826380Y-107003750I0J243750D01*
G01*
G37*
G36*
G01*
X129251380Y-107003750D02*
X129251380Y-106441250D01*
G75*
G02*
X129495130Y-106197500I243750J0D01*
G01*
X129982630Y-106197500D01*
G75*
G02*
X130226380Y-106441250I0J-243750D01*
G01*
X130226380Y-107003750D01*
G75*
G02*
X129982630Y-107247500I-243750J0D01*
G01*
X129495130Y-107247500D01*
G75*
G02*
X129251380Y-107003750I0J243750D01*
G01*
G37*
%TD*%
D17*
%TO.C,S1*%
X129451960Y-94300840D03*
X129451960Y-87500840D03*
%TD*%
D18*
%TO.C,SW1*%
X131188220Y-88863760D03*
X138988220Y-88863760D03*
%TD*%
%TO.C,SW2*%
X152747340Y-88863760D03*
X160547340Y-88863760D03*
%TD*%
D19*
%TO.C,U8*%
X156548000Y-99960620D03*
X156548000Y-101960620D03*
X156548000Y-103960620D03*
D20*
X143868000Y-112640620D03*
X145868000Y-112640620D03*
X147868000Y-112640620D03*
%TD*%
%TO.C,R6*%
G36*
G01*
X137861980Y-76452630D02*
X137861980Y-75890130D01*
G75*
G02*
X138105730Y-75646380I243750J0D01*
G01*
X138593230Y-75646380D01*
G75*
G02*
X138836980Y-75890130I0J-243750D01*
G01*
X138836980Y-76452630D01*
G75*
G02*
X138593230Y-76696380I-243750J0D01*
G01*
X138105730Y-76696380D01*
G75*
G02*
X137861980Y-76452630I0J243750D01*
G01*
G37*
G36*
G01*
X139436980Y-76452630D02*
X139436980Y-75890130D01*
G75*
G02*
X139680730Y-75646380I243750J0D01*
G01*
X140168230Y-75646380D01*
G75*
G02*
X140411980Y-75890130I0J-243750D01*
G01*
X140411980Y-76452630D01*
G75*
G02*
X140168230Y-76696380I-243750J0D01*
G01*
X139680730Y-76696380D01*
G75*
G02*
X139436980Y-76452630I0J243750D01*
G01*
G37*
%TD*%
M02*
