%TF.GenerationSoftware,KiCad,Pcbnew,(5.1.6)-1*%
%TF.CreationDate,2020-07-04T15:59:08+08:00*%
%TF.ProjectId,24RF_Remote_Control,32345246-5f52-4656-9d6f-74655f436f6e,rev?*%
%TF.SameCoordinates,Original*%
%TF.FileFunction,Copper,L1,Top*%
%TF.FilePolarity,Positive*%
%FSLAX46Y46*%
G04 Gerber Fmt 4.6, Leading zero omitted, Abs format (unit mm)*
G04 Created by KiCad (PCBNEW (5.1.6)-1) date 2020-07-04 15:59:08*
%MOMM*%
%LPD*%
G01*
G04 APERTURE LIST*
%TA.AperFunction,ViaPad*%
%ADD10C,0.600000*%
%TD*%
%TA.AperFunction,Conductor*%
%ADD11R,5.600000X5.600000*%
%TD*%
%TA.AperFunction,ViaPad*%
%ADD12C,0.500000*%
%TD*%
%TA.AperFunction,SMDPad,CuDef*%
%ADD13R,1.600000X1.000000*%
%TD*%
%TA.AperFunction,SMDPad,CuDef*%
%ADD14O,1.700000X1.700000*%
%TD*%
%TA.AperFunction,SMDPad,CuDef*%
%ADD15R,1.700000X1.700000*%
%TD*%
%TA.AperFunction,SMDPad,CuDef*%
%ADD16R,1.800000X0.900000*%
%TD*%
%TA.AperFunction,SMDPad,CuDef*%
%ADD17R,0.700000X0.600000*%
%TD*%
%TA.AperFunction,SMDPad,CuDef*%
%ADD18R,0.800000X0.900000*%
%TD*%
%TA.AperFunction,SMDPad,CuDef*%
%ADD19R,1.500000X1.500000*%
%TD*%
%TA.AperFunction,SMDPad,CuDef*%
%ADD20R,3.900000X1.000000*%
%TD*%
%TA.AperFunction,SMDPad,CuDef*%
%ADD21R,1.000000X3.900000*%
%TD*%
%TA.AperFunction,ViaPad*%
%ADD22C,0.550000*%
%TD*%
%TA.AperFunction,ViaPad*%
%ADD23C,0.250000*%
%TD*%
%TA.AperFunction,Conductor*%
%ADD24C,0.250000*%
%TD*%
%TA.AperFunction,Conductor*%
%ADD25C,0.406400*%
%TD*%
%TA.AperFunction,Conductor*%
%ADD26C,0.152400*%
%TD*%
%TA.AperFunction,Conductor*%
%ADD27C,0.508000*%
%TD*%
%TA.AperFunction,Conductor*%
%ADD28C,0.254000*%
%TD*%
%TA.AperFunction,Conductor*%
%ADD29C,0.200000*%
%TD*%
G04 APERTURE END LIST*
%TO.P,U1,17*%
%TO.N,GND*%
%TA.AperFunction,SMDPad,CuDef*%
G36*
G01*
X140804260Y-78641240D02*
X140804260Y-79841440D01*
G75*
G02*
X140554360Y-80091340I-249900J0D01*
G01*
X139354160Y-80091340D01*
G75*
G02*
X139104260Y-79841440I0J249900D01*
G01*
X139104260Y-78641240D01*
G75*
G02*
X139354160Y-78391340I249900J0D01*
G01*
X140554360Y-78391340D01*
G75*
G02*
X140804260Y-78641240I0J-249900D01*
G01*
G37*
%TD.AperFunction*%
D10*
%TD*%
%TO.N,GND*%
%TO.C,U1*%
X140504260Y-79791340D03*
%TO.N,GND*%
%TO.C,U1*%
X139404260Y-79791340D03*
X139954260Y-79241340D03*
X140504260Y-78691340D03*
X139404260Y-78691340D03*
%TD*%
%TO.P,U1,1*%
%TO.N,Net-(R1-Pad1)*%
%TA.AperFunction,SMDPad,CuDef*%
G36*
G01*
X141804260Y-79928840D02*
X141804260Y-80053840D01*
G75*
G02*
X141741760Y-80116340I-62500J0D01*
G01*
X141066760Y-80116340D01*
G75*
G02*
X141004260Y-80053840I0J62500D01*
G01*
X141004260Y-79928840D01*
G75*
G02*
X141066760Y-79866340I62500J0D01*
G01*
X141741760Y-79866340D01*
G75*
G02*
X141804260Y-79928840I0J-62500D01*
G01*
G37*
%TD.AperFunction*%
%TO.P,U1,2*%
%TO.N,/BATT*%
%TA.AperFunction,SMDPad,CuDef*%
G36*
G01*
X141804260Y-79428840D02*
X141804260Y-79553840D01*
G75*
G02*
X141741760Y-79616340I-62500J0D01*
G01*
X141066760Y-79616340D01*
G75*
G02*
X141004260Y-79553840I0J62500D01*
G01*
X141004260Y-79428840D01*
G75*
G02*
X141066760Y-79366340I62500J0D01*
G01*
X141741760Y-79366340D01*
G75*
G02*
X141804260Y-79428840I0J-62500D01*
G01*
G37*
%TD.AperFunction*%
%TO.P,U1,3*%
%TA.AperFunction,SMDPad,CuDef*%
G36*
G01*
X141804260Y-78928840D02*
X141804260Y-79053840D01*
G75*
G02*
X141741760Y-79116340I-62500J0D01*
G01*
X141066760Y-79116340D01*
G75*
G02*
X141004260Y-79053840I0J62500D01*
G01*
X141004260Y-78928840D01*
G75*
G02*
X141066760Y-78866340I62500J0D01*
G01*
X141741760Y-78866340D01*
G75*
G02*
X141804260Y-78928840I0J-62500D01*
G01*
G37*
%TD.AperFunction*%
%TO.P,U1,4*%
%TO.N,GND*%
%TA.AperFunction,SMDPad,CuDef*%
G36*
G01*
X141804260Y-78428840D02*
X141804260Y-78553840D01*
G75*
G02*
X141741760Y-78616340I-62500J0D01*
G01*
X141066760Y-78616340D01*
G75*
G02*
X141004260Y-78553840I0J62500D01*
G01*
X141004260Y-78428840D01*
G75*
G02*
X141066760Y-78366340I62500J0D01*
G01*
X141741760Y-78366340D01*
G75*
G02*
X141804260Y-78428840I0J-62500D01*
G01*
G37*
%TD.AperFunction*%
%TO.P,U1,5*%
%TO.N,/BATT_OUT*%
%TA.AperFunction,SMDPad,CuDef*%
G36*
G01*
X140829260Y-77453840D02*
X140829260Y-78128840D01*
G75*
G02*
X140766760Y-78191340I-62500J0D01*
G01*
X140641760Y-78191340D01*
G75*
G02*
X140579260Y-78128840I0J62500D01*
G01*
X140579260Y-77453840D01*
G75*
G02*
X140641760Y-77391340I62500J0D01*
G01*
X140766760Y-77391340D01*
G75*
G02*
X140829260Y-77453840I0J-62500D01*
G01*
G37*
%TD.AperFunction*%
%TO.P,U1,6*%
%TO.N,GND*%
%TA.AperFunction,SMDPad,CuDef*%
G36*
G01*
X140329260Y-77453840D02*
X140329260Y-78128840D01*
G75*
G02*
X140266760Y-78191340I-62500J0D01*
G01*
X140141760Y-78191340D01*
G75*
G02*
X140079260Y-78128840I0J62500D01*
G01*
X140079260Y-77453840D01*
G75*
G02*
X140141760Y-77391340I62500J0D01*
G01*
X140266760Y-77391340D01*
G75*
G02*
X140329260Y-77453840I0J-62500D01*
G01*
G37*
%TD.AperFunction*%
%TO.P,U1,7*%
%TO.N,/PGOOD*%
%TA.AperFunction,SMDPad,CuDef*%
G36*
G01*
X139829260Y-77453840D02*
X139829260Y-78128840D01*
G75*
G02*
X139766760Y-78191340I-62500J0D01*
G01*
X139641760Y-78191340D01*
G75*
G02*
X139579260Y-78128840I0J62500D01*
G01*
X139579260Y-77453840D01*
G75*
G02*
X139641760Y-77391340I62500J0D01*
G01*
X139766760Y-77391340D01*
G75*
G02*
X139829260Y-77453840I0J-62500D01*
G01*
G37*
%TD.AperFunction*%
%TO.P,U1,8*%
%TO.N,GND*%
%TA.AperFunction,SMDPad,CuDef*%
G36*
G01*
X139329260Y-77453840D02*
X139329260Y-78128840D01*
G75*
G02*
X139266760Y-78191340I-62500J0D01*
G01*
X139141760Y-78191340D01*
G75*
G02*
X139079260Y-78128840I0J62500D01*
G01*
X139079260Y-77453840D01*
G75*
G02*
X139141760Y-77391340I62500J0D01*
G01*
X139266760Y-77391340D01*
G75*
G02*
X139329260Y-77453840I0J-62500D01*
G01*
G37*
%TD.AperFunction*%
%TO.P,U1,9*%
%TO.N,/CHARGE*%
%TA.AperFunction,SMDPad,CuDef*%
G36*
G01*
X138904260Y-78428840D02*
X138904260Y-78553840D01*
G75*
G02*
X138841760Y-78616340I-62500J0D01*
G01*
X138166760Y-78616340D01*
G75*
G02*
X138104260Y-78553840I0J62500D01*
G01*
X138104260Y-78428840D01*
G75*
G02*
X138166760Y-78366340I62500J0D01*
G01*
X138841760Y-78366340D01*
G75*
G02*
X138904260Y-78428840I0J-62500D01*
G01*
G37*
%TD.AperFunction*%
%TO.P,U1,10*%
%TO.N,/BATT_OUT*%
%TA.AperFunction,SMDPad,CuDef*%
G36*
G01*
X138904260Y-78928840D02*
X138904260Y-79053840D01*
G75*
G02*
X138841760Y-79116340I-62500J0D01*
G01*
X138166760Y-79116340D01*
G75*
G02*
X138104260Y-79053840I0J62500D01*
G01*
X138104260Y-78928840D01*
G75*
G02*
X138166760Y-78866340I62500J0D01*
G01*
X138841760Y-78866340D01*
G75*
G02*
X138904260Y-78928840I0J-62500D01*
G01*
G37*
%TD.AperFunction*%
%TO.P,U1,11*%
%TA.AperFunction,SMDPad,CuDef*%
G36*
G01*
X138904260Y-79428840D02*
X138904260Y-79553840D01*
G75*
G02*
X138841760Y-79616340I-62500J0D01*
G01*
X138166760Y-79616340D01*
G75*
G02*
X138104260Y-79553840I0J62500D01*
G01*
X138104260Y-79428840D01*
G75*
G02*
X138166760Y-79366340I62500J0D01*
G01*
X138841760Y-79366340D01*
G75*
G02*
X138904260Y-79428840I0J-62500D01*
G01*
G37*
%TD.AperFunction*%
%TO.P,U1,12*%
%TO.N,Net-(R3-Pad2)*%
%TA.AperFunction,SMDPad,CuDef*%
G36*
G01*
X138904260Y-79928840D02*
X138904260Y-80053840D01*
G75*
G02*
X138841760Y-80116340I-62500J0D01*
G01*
X138166760Y-80116340D01*
G75*
G02*
X138104260Y-80053840I0J62500D01*
G01*
X138104260Y-79928840D01*
G75*
G02*
X138166760Y-79866340I62500J0D01*
G01*
X138841760Y-79866340D01*
G75*
G02*
X138904260Y-79928840I0J-62500D01*
G01*
G37*
%TD.AperFunction*%
%TO.P,U1,13*%
%TO.N,Net-(C1-Pad2)*%
%TA.AperFunction,SMDPad,CuDef*%
G36*
G01*
X139329260Y-80353840D02*
X139329260Y-81028840D01*
G75*
G02*
X139266760Y-81091340I-62500J0D01*
G01*
X139141760Y-81091340D01*
G75*
G02*
X139079260Y-81028840I0J62500D01*
G01*
X139079260Y-80353840D01*
G75*
G02*
X139141760Y-80291340I62500J0D01*
G01*
X139266760Y-80291340D01*
G75*
G02*
X139329260Y-80353840I0J-62500D01*
G01*
G37*
%TD.AperFunction*%
%TO.P,U1,14*%
%TO.N,Net-(R2-Pad2)*%
%TA.AperFunction,SMDPad,CuDef*%
G36*
G01*
X139829260Y-80353840D02*
X139829260Y-81028840D01*
G75*
G02*
X139766760Y-81091340I-62500J0D01*
G01*
X139641760Y-81091340D01*
G75*
G02*
X139579260Y-81028840I0J62500D01*
G01*
X139579260Y-80353840D01*
G75*
G02*
X139641760Y-80291340I62500J0D01*
G01*
X139766760Y-80291340D01*
G75*
G02*
X139829260Y-80353840I0J-62500D01*
G01*
G37*
%TD.AperFunction*%
%TO.P,U1,15*%
%TO.N,Net-(S1-Pad2)*%
%TA.AperFunction,SMDPad,CuDef*%
G36*
G01*
X140329260Y-80353840D02*
X140329260Y-81028840D01*
G75*
G02*
X140266760Y-81091340I-62500J0D01*
G01*
X140141760Y-81091340D01*
G75*
G02*
X140079260Y-81028840I0J62500D01*
G01*
X140079260Y-80353840D01*
G75*
G02*
X140141760Y-80291340I62500J0D01*
G01*
X140266760Y-80291340D01*
G75*
G02*
X140329260Y-80353840I0J-62500D01*
G01*
G37*
%TD.AperFunction*%
%TO.P,U1,16*%
%TO.N,Net-(R4-Pad2)*%
%TA.AperFunction,SMDPad,CuDef*%
G36*
G01*
X140829260Y-80353840D02*
X140829260Y-81028840D01*
G75*
G02*
X140766760Y-81091340I-62500J0D01*
G01*
X140641760Y-81091340D01*
G75*
G02*
X140579260Y-81028840I0J62500D01*
G01*
X140579260Y-80353840D01*
G75*
G02*
X140641760Y-80291340I62500J0D01*
G01*
X140766760Y-80291340D01*
G75*
G02*
X140829260Y-80353840I0J-62500D01*
G01*
G37*
%TD.AperFunction*%
%TD*%
D11*
%TO.N,GND*%
%TO.C,U4*%
X147641200Y-89154200D03*
D12*
X145091200Y-91704200D03*
X146366200Y-91704200D03*
X147641200Y-91704200D03*
X148916200Y-91704200D03*
X150191200Y-91704200D03*
X145091200Y-90429200D03*
X146366200Y-90429200D03*
X147641200Y-90429200D03*
X148916200Y-90429200D03*
X150191200Y-90429200D03*
X145091200Y-89154200D03*
X146366200Y-89154200D03*
X147641200Y-89154200D03*
X148916200Y-89154200D03*
X150191200Y-89154200D03*
X145091200Y-87879200D03*
X146366200Y-87879200D03*
X147641200Y-87879200D03*
X148916200Y-87879200D03*
X150191200Y-87879200D03*
X145091200Y-86604200D03*
X146366200Y-86604200D03*
X147641200Y-86604200D03*
X148916200Y-86604200D03*
X150191200Y-86604200D03*
%TD*%
%TO.P,U2,1*%
%TO.N,+3V3*%
%TA.AperFunction,SMDPad,CuDef*%
G36*
G01*
X135695470Y-72538600D02*
X135907970Y-72538600D01*
G75*
G02*
X136001720Y-72632350I0J-93750D01*
G01*
X136001720Y-72819850D01*
G75*
G02*
X135907970Y-72913600I-93750J0D01*
G01*
X135695470Y-72913600D01*
G75*
G02*
X135601720Y-72819850I0J93750D01*
G01*
X135601720Y-72632350D01*
G75*
G02*
X135695470Y-72538600I93750J0D01*
G01*
G37*
%TD.AperFunction*%
%TO.P,U2,2*%
%TO.N,Net-(U2-Pad2)*%
%TA.AperFunction,SMDPad,CuDef*%
G36*
G01*
X135045470Y-72538600D02*
X135257970Y-72538600D01*
G75*
G02*
X135351720Y-72632350I0J-93750D01*
G01*
X135351720Y-72819850D01*
G75*
G02*
X135257970Y-72913600I-93750J0D01*
G01*
X135045470Y-72913600D01*
G75*
G02*
X134951720Y-72819850I0J93750D01*
G01*
X134951720Y-72632350D01*
G75*
G02*
X135045470Y-72538600I93750J0D01*
G01*
G37*
%TD.AperFunction*%
%TO.P,U2,3*%
%TO.N,Net-(U2-Pad3)*%
%TA.AperFunction,SMDPad,CuDef*%
G36*
G01*
X134395470Y-72538600D02*
X134607970Y-72538600D01*
G75*
G02*
X134701720Y-72632350I0J-93750D01*
G01*
X134701720Y-72819850D01*
G75*
G02*
X134607970Y-72913600I-93750J0D01*
G01*
X134395470Y-72913600D01*
G75*
G02*
X134301720Y-72819850I0J93750D01*
G01*
X134301720Y-72632350D01*
G75*
G02*
X134395470Y-72538600I93750J0D01*
G01*
G37*
%TD.AperFunction*%
%TO.P,U2,4*%
%TO.N,/BATT_OUT*%
%TA.AperFunction,SMDPad,CuDef*%
G36*
G01*
X134395470Y-74313600D02*
X134607970Y-74313600D01*
G75*
G02*
X134701720Y-74407350I0J-93750D01*
G01*
X134701720Y-74594850D01*
G75*
G02*
X134607970Y-74688600I-93750J0D01*
G01*
X134395470Y-74688600D01*
G75*
G02*
X134301720Y-74594850I0J93750D01*
G01*
X134301720Y-74407350D01*
G75*
G02*
X134395470Y-74313600I93750J0D01*
G01*
G37*
%TD.AperFunction*%
%TO.P,U2,5*%
%TO.N,GND*%
%TA.AperFunction,SMDPad,CuDef*%
G36*
G01*
X135045470Y-74313600D02*
X135257970Y-74313600D01*
G75*
G02*
X135351720Y-74407350I0J-93750D01*
G01*
X135351720Y-74594850D01*
G75*
G02*
X135257970Y-74688600I-93750J0D01*
G01*
X135045470Y-74688600D01*
G75*
G02*
X134951720Y-74594850I0J93750D01*
G01*
X134951720Y-74407350D01*
G75*
G02*
X135045470Y-74313600I93750J0D01*
G01*
G37*
%TD.AperFunction*%
%TO.P,U2,6*%
%TO.N,/BATT_OUT*%
%TA.AperFunction,SMDPad,CuDef*%
G36*
G01*
X135695470Y-74313600D02*
X135907970Y-74313600D01*
G75*
G02*
X136001720Y-74407350I0J-93750D01*
G01*
X136001720Y-74594850D01*
G75*
G02*
X135907970Y-74688600I-93750J0D01*
G01*
X135695470Y-74688600D01*
G75*
G02*
X135601720Y-74594850I0J93750D01*
G01*
X135601720Y-74407350D01*
G75*
G02*
X135695470Y-74313600I93750J0D01*
G01*
G37*
%TD.AperFunction*%
D13*
%TO.P,U2,7*%
%TO.N,GND*%
X135151720Y-73613600D03*
%TD*%
D14*
%TO.P,J5,2*%
%TO.N,GND*%
X145989900Y-81180260D03*
D15*
%TO.P,J5,1*%
%TO.N,/BATT*%
X145989900Y-78640260D03*
%TD*%
D16*
%TO.P,BZ1,1*%
%TO.N,Net-(BZ1-Pad1)*%
X134335600Y-107205480D03*
%TO.P,BZ1,2*%
%TO.N,Net-(BZ1-Pad2)*%
X134335600Y-103605480D03*
%TD*%
%TO.P,C1,1*%
%TO.N,GND*%
%TA.AperFunction,SMDPad,CuDef*%
G36*
G01*
X134838580Y-81167270D02*
X134838580Y-80654770D01*
G75*
G02*
X135057330Y-80436020I218750J0D01*
G01*
X135494830Y-80436020D01*
G75*
G02*
X135713580Y-80654770I0J-218750D01*
G01*
X135713580Y-81167270D01*
G75*
G02*
X135494830Y-81386020I-218750J0D01*
G01*
X135057330Y-81386020D01*
G75*
G02*
X134838580Y-81167270I0J218750D01*
G01*
G37*
%TD.AperFunction*%
%TO.P,C1,2*%
%TO.N,Net-(C1-Pad2)*%
%TA.AperFunction,SMDPad,CuDef*%
G36*
G01*
X136413580Y-81167270D02*
X136413580Y-80654770D01*
G75*
G02*
X136632330Y-80436020I218750J0D01*
G01*
X137069830Y-80436020D01*
G75*
G02*
X137288580Y-80654770I0J-218750D01*
G01*
X137288580Y-81167270D01*
G75*
G02*
X137069830Y-81386020I-218750J0D01*
G01*
X136632330Y-81386020D01*
G75*
G02*
X136413580Y-81167270I0J218750D01*
G01*
G37*
%TD.AperFunction*%
%TD*%
%TO.P,C2,1*%
%TO.N,GND*%
%TA.AperFunction,SMDPad,CuDef*%
G36*
G01*
X142728830Y-77074900D02*
X143241330Y-77074900D01*
G75*
G02*
X143460080Y-77293650I0J-218750D01*
G01*
X143460080Y-77731150D01*
G75*
G02*
X143241330Y-77949900I-218750J0D01*
G01*
X142728830Y-77949900D01*
G75*
G02*
X142510080Y-77731150I0J218750D01*
G01*
X142510080Y-77293650D01*
G75*
G02*
X142728830Y-77074900I218750J0D01*
G01*
G37*
%TD.AperFunction*%
%TO.P,C2,2*%
%TO.N,/BATT*%
%TA.AperFunction,SMDPad,CuDef*%
G36*
G01*
X142728830Y-78649900D02*
X143241330Y-78649900D01*
G75*
G02*
X143460080Y-78868650I0J-218750D01*
G01*
X143460080Y-79306150D01*
G75*
G02*
X143241330Y-79524900I-218750J0D01*
G01*
X142728830Y-79524900D01*
G75*
G02*
X142510080Y-79306150I0J218750D01*
G01*
X142510080Y-78868650D01*
G75*
G02*
X142728830Y-78649900I218750J0D01*
G01*
G37*
%TD.AperFunction*%
%TD*%
%TO.P,C3,2*%
%TO.N,GND*%
%TA.AperFunction,SMDPad,CuDef*%
G36*
G01*
X135713580Y-77498398D02*
X135713580Y-78010898D01*
G75*
G02*
X135494830Y-78229648I-218750J0D01*
G01*
X135057330Y-78229648D01*
G75*
G02*
X134838580Y-78010898I0J218750D01*
G01*
X134838580Y-77498398D01*
G75*
G02*
X135057330Y-77279648I218750J0D01*
G01*
X135494830Y-77279648D01*
G75*
G02*
X135713580Y-77498398I0J-218750D01*
G01*
G37*
%TD.AperFunction*%
%TO.P,C3,1*%
%TO.N,/BATT_OUT*%
%TA.AperFunction,SMDPad,CuDef*%
G36*
G01*
X137288580Y-77498398D02*
X137288580Y-78010898D01*
G75*
G02*
X137069830Y-78229648I-218750J0D01*
G01*
X136632330Y-78229648D01*
G75*
G02*
X136413580Y-78010898I0J218750D01*
G01*
X136413580Y-77498398D01*
G75*
G02*
X136632330Y-77279648I218750J0D01*
G01*
X137069830Y-77279648D01*
G75*
G02*
X137288580Y-77498398I0J-218750D01*
G01*
G37*
%TD.AperFunction*%
%TD*%
%TO.P,C4,2*%
%TO.N,GND*%
%TA.AperFunction,SMDPad,CuDef*%
G36*
G01*
X134662020Y-75584930D02*
X134662020Y-76097430D01*
G75*
G02*
X134443270Y-76316180I-218750J0D01*
G01*
X134005770Y-76316180D01*
G75*
G02*
X133787020Y-76097430I0J218750D01*
G01*
X133787020Y-75584930D01*
G75*
G02*
X134005770Y-75366180I218750J0D01*
G01*
X134443270Y-75366180D01*
G75*
G02*
X134662020Y-75584930I0J-218750D01*
G01*
G37*
%TD.AperFunction*%
%TO.P,C4,1*%
%TO.N,/BATT_OUT*%
%TA.AperFunction,SMDPad,CuDef*%
G36*
G01*
X136237020Y-75584930D02*
X136237020Y-76097430D01*
G75*
G02*
X136018270Y-76316180I-218750J0D01*
G01*
X135580770Y-76316180D01*
G75*
G02*
X135362020Y-76097430I0J218750D01*
G01*
X135362020Y-75584930D01*
G75*
G02*
X135580770Y-75366180I218750J0D01*
G01*
X136018270Y-75366180D01*
G75*
G02*
X136237020Y-75584930I0J-218750D01*
G01*
G37*
%TD.AperFunction*%
%TD*%
%TO.P,C5,1*%
%TO.N,+3V3*%
%TA.AperFunction,SMDPad,CuDef*%
G36*
G01*
X136237020Y-71104370D02*
X136237020Y-71616870D01*
G75*
G02*
X136018270Y-71835620I-218750J0D01*
G01*
X135580770Y-71835620D01*
G75*
G02*
X135362020Y-71616870I0J218750D01*
G01*
X135362020Y-71104370D01*
G75*
G02*
X135580770Y-70885620I218750J0D01*
G01*
X136018270Y-70885620D01*
G75*
G02*
X136237020Y-71104370I0J-218750D01*
G01*
G37*
%TD.AperFunction*%
%TO.P,C5,2*%
%TO.N,GND*%
%TA.AperFunction,SMDPad,CuDef*%
G36*
G01*
X134662020Y-71104370D02*
X134662020Y-71616870D01*
G75*
G02*
X134443270Y-71835620I-218750J0D01*
G01*
X134005770Y-71835620D01*
G75*
G02*
X133787020Y-71616870I0J218750D01*
G01*
X133787020Y-71104370D01*
G75*
G02*
X134005770Y-70885620I218750J0D01*
G01*
X134443270Y-70885620D01*
G75*
G02*
X134662020Y-71104370I0J-218750D01*
G01*
G37*
%TD.AperFunction*%
%TD*%
%TO.P,C19,1*%
%TO.N,/ADC_BATT*%
%TA.AperFunction,SMDPad,CuDef*%
G36*
G01*
X152090690Y-80980320D02*
X151578190Y-80980320D01*
G75*
G02*
X151359440Y-80761570I0J218750D01*
G01*
X151359440Y-80324070D01*
G75*
G02*
X151578190Y-80105320I218750J0D01*
G01*
X152090690Y-80105320D01*
G75*
G02*
X152309440Y-80324070I0J-218750D01*
G01*
X152309440Y-80761570D01*
G75*
G02*
X152090690Y-80980320I-218750J0D01*
G01*
G37*
%TD.AperFunction*%
%TO.P,C19,2*%
%TO.N,GND*%
%TA.AperFunction,SMDPad,CuDef*%
G36*
G01*
X152090690Y-79405320D02*
X151578190Y-79405320D01*
G75*
G02*
X151359440Y-79186570I0J218750D01*
G01*
X151359440Y-78749070D01*
G75*
G02*
X151578190Y-78530320I218750J0D01*
G01*
X152090690Y-78530320D01*
G75*
G02*
X152309440Y-78749070I0J-218750D01*
G01*
X152309440Y-79186570D01*
G75*
G02*
X152090690Y-79405320I-218750J0D01*
G01*
G37*
%TD.AperFunction*%
%TD*%
%TO.P,C20,2*%
%TO.N,GND*%
%TA.AperFunction,SMDPad,CuDef*%
G36*
G01*
X131996520Y-92086730D02*
X131996520Y-91574230D01*
G75*
G02*
X132215270Y-91355480I218750J0D01*
G01*
X132652770Y-91355480D01*
G75*
G02*
X132871520Y-91574230I0J-218750D01*
G01*
X132871520Y-92086730D01*
G75*
G02*
X132652770Y-92305480I-218750J0D01*
G01*
X132215270Y-92305480D01*
G75*
G02*
X131996520Y-92086730I0J218750D01*
G01*
G37*
%TD.AperFunction*%
%TO.P,C20,1*%
%TO.N,/BUTTON__LEFT*%
%TA.AperFunction,SMDPad,CuDef*%
G36*
G01*
X130421520Y-92086730D02*
X130421520Y-91574230D01*
G75*
G02*
X130640270Y-91355480I218750J0D01*
G01*
X131077770Y-91355480D01*
G75*
G02*
X131296520Y-91574230I0J-218750D01*
G01*
X131296520Y-92086730D01*
G75*
G02*
X131077770Y-92305480I-218750J0D01*
G01*
X130640270Y-92305480D01*
G75*
G02*
X130421520Y-92086730I0J218750D01*
G01*
G37*
%TD.AperFunction*%
%TD*%
%TO.P,C21,1*%
%TO.N,/BUTTON_RIGHT*%
%TA.AperFunction,SMDPad,CuDef*%
G36*
G01*
X161314440Y-91574230D02*
X161314440Y-92086730D01*
G75*
G02*
X161095690Y-92305480I-218750J0D01*
G01*
X160658190Y-92305480D01*
G75*
G02*
X160439440Y-92086730I0J218750D01*
G01*
X160439440Y-91574230D01*
G75*
G02*
X160658190Y-91355480I218750J0D01*
G01*
X161095690Y-91355480D01*
G75*
G02*
X161314440Y-91574230I0J-218750D01*
G01*
G37*
%TD.AperFunction*%
%TO.P,C21,2*%
%TO.N,GND*%
%TA.AperFunction,SMDPad,CuDef*%
G36*
G01*
X159739440Y-91574230D02*
X159739440Y-92086730D01*
G75*
G02*
X159520690Y-92305480I-218750J0D01*
G01*
X159083190Y-92305480D01*
G75*
G02*
X158864440Y-92086730I0J218750D01*
G01*
X158864440Y-91574230D01*
G75*
G02*
X159083190Y-91355480I218750J0D01*
G01*
X159520690Y-91355480D01*
G75*
G02*
X159739440Y-91574230I0J-218750D01*
G01*
G37*
%TD.AperFunction*%
%TD*%
%TO.P,D1,2*%
%TO.N,Net-(D1-Pad2)*%
%TA.AperFunction,SMDPad,CuDef*%
G36*
G01*
X156212744Y-113965581D02*
X156575136Y-113603188D01*
G75*
G02*
X156884496Y-113603188I154680J-154680D01*
G01*
X157193855Y-113912547D01*
G75*
G02*
X157193855Y-114221907I-154680J-154680D01*
G01*
X156831462Y-114584300D01*
G75*
G02*
X156522102Y-114584300I-154680J154680D01*
G01*
X156212743Y-114274941D01*
G75*
G02*
X156212743Y-113965581I154680J154680D01*
G01*
G37*
%TD.AperFunction*%
%TO.P,D1,1*%
%TO.N,/USER_LED*%
%TA.AperFunction,SMDPad,CuDef*%
G36*
G01*
X155099050Y-112851887D02*
X155461442Y-112489494D01*
G75*
G02*
X155770802Y-112489494I154680J-154680D01*
G01*
X156080161Y-112798853D01*
G75*
G02*
X156080161Y-113108213I-154680J-154680D01*
G01*
X155717768Y-113470606D01*
G75*
G02*
X155408408Y-113470606I-154680J154680D01*
G01*
X155099049Y-113161247D01*
G75*
G02*
X155099049Y-112851887I154680J154680D01*
G01*
G37*
%TD.AperFunction*%
%TD*%
%TO.P,D2,1*%
%TO.N,/CHARGE*%
%TA.AperFunction,SMDPad,CuDef*%
G36*
G01*
X157514380Y-110436557D02*
X157876772Y-110074164D01*
G75*
G02*
X158186132Y-110074164I154680J-154680D01*
G01*
X158495491Y-110383523D01*
G75*
G02*
X158495491Y-110692883I-154680J-154680D01*
G01*
X158133098Y-111055276D01*
G75*
G02*
X157823738Y-111055276I-154680J154680D01*
G01*
X157514379Y-110745917D01*
G75*
G02*
X157514379Y-110436557I154680J154680D01*
G01*
G37*
%TD.AperFunction*%
%TO.P,D2,2*%
%TO.N,Net-(D2-Pad2)*%
%TA.AperFunction,SMDPad,CuDef*%
G36*
G01*
X158628074Y-111550251D02*
X158990466Y-111187858D01*
G75*
G02*
X159299826Y-111187858I154680J-154680D01*
G01*
X159609185Y-111497217D01*
G75*
G02*
X159609185Y-111806577I-154680J-154680D01*
G01*
X159246792Y-112168970D01*
G75*
G02*
X158937432Y-112168970I-154680J154680D01*
G01*
X158628073Y-111859611D01*
G75*
G02*
X158628073Y-111550251I154680J154680D01*
G01*
G37*
%TD.AperFunction*%
%TD*%
%TO.P,D4,2*%
%TO.N,Net-(D4-Pad2)*%
%TA.AperFunction,SMDPad,CuDef*%
G36*
G01*
X161043403Y-109134921D02*
X161405795Y-108772528D01*
G75*
G02*
X161715155Y-108772528I154680J-154680D01*
G01*
X162024514Y-109081887D01*
G75*
G02*
X162024514Y-109391247I-154680J-154680D01*
G01*
X161662121Y-109753640D01*
G75*
G02*
X161352761Y-109753640I-154680J154680D01*
G01*
X161043402Y-109444281D01*
G75*
G02*
X161043402Y-109134921I154680J154680D01*
G01*
G37*
%TD.AperFunction*%
%TO.P,D4,1*%
%TO.N,GND*%
%TA.AperFunction,SMDPad,CuDef*%
G36*
G01*
X159929709Y-108021227D02*
X160292101Y-107658834D01*
G75*
G02*
X160601461Y-107658834I154680J-154680D01*
G01*
X160910820Y-107968193D01*
G75*
G02*
X160910820Y-108277553I-154680J-154680D01*
G01*
X160548427Y-108639946D01*
G75*
G02*
X160239067Y-108639946I-154680J154680D01*
G01*
X159929708Y-108330587D01*
G75*
G02*
X159929708Y-108021227I154680J154680D01*
G01*
G37*
%TD.AperFunction*%
%TD*%
D17*
%TO.P,D6,2*%
%TO.N,Net-(BZ1-Pad2)*%
X131311240Y-103830480D03*
%TO.P,D6,1*%
%TO.N,Net-(BZ1-Pad1)*%
X131311240Y-105230480D03*
%TD*%
D18*
%TO.P,Q1,3*%
%TO.N,Net-(BZ1-Pad2)*%
X134718460Y-102288040D03*
%TO.P,Q1,2*%
%TO.N,GND*%
X133768460Y-100288040D03*
%TO.P,Q1,1*%
%TO.N,Net-(Q1-Pad1)*%
X135668460Y-100288040D03*
%TD*%
%TO.P,R1,2*%
%TO.N,GND*%
%TA.AperFunction,SMDPad,CuDef*%
G36*
G01*
X142718670Y-81725840D02*
X143231170Y-81725840D01*
G75*
G02*
X143449920Y-81944590I0J-218750D01*
G01*
X143449920Y-82382090D01*
G75*
G02*
X143231170Y-82600840I-218750J0D01*
G01*
X142718670Y-82600840D01*
G75*
G02*
X142499920Y-82382090I0J218750D01*
G01*
X142499920Y-81944590D01*
G75*
G02*
X142718670Y-81725840I218750J0D01*
G01*
G37*
%TD.AperFunction*%
%TO.P,R1,1*%
%TO.N,Net-(R1-Pad1)*%
%TA.AperFunction,SMDPad,CuDef*%
G36*
G01*
X142718670Y-80150840D02*
X143231170Y-80150840D01*
G75*
G02*
X143449920Y-80369590I0J-218750D01*
G01*
X143449920Y-80807090D01*
G75*
G02*
X143231170Y-81025840I-218750J0D01*
G01*
X142718670Y-81025840D01*
G75*
G02*
X142499920Y-80807090I0J218750D01*
G01*
X142499920Y-80369590D01*
G75*
G02*
X142718670Y-80150840I218750J0D01*
G01*
G37*
%TD.AperFunction*%
%TD*%
%TO.P,R2,2*%
%TO.N,Net-(R2-Pad2)*%
%TA.AperFunction,SMDPad,CuDef*%
G36*
G01*
X139908850Y-82613340D02*
X139396350Y-82613340D01*
G75*
G02*
X139177600Y-82394590I0J218750D01*
G01*
X139177600Y-81957090D01*
G75*
G02*
X139396350Y-81738340I218750J0D01*
G01*
X139908850Y-81738340D01*
G75*
G02*
X140127600Y-81957090I0J-218750D01*
G01*
X140127600Y-82394590D01*
G75*
G02*
X139908850Y-82613340I-218750J0D01*
G01*
G37*
%TD.AperFunction*%
%TO.P,R2,1*%
%TO.N,GND*%
%TA.AperFunction,SMDPad,CuDef*%
G36*
G01*
X139908850Y-84188340D02*
X139396350Y-84188340D01*
G75*
G02*
X139177600Y-83969590I0J218750D01*
G01*
X139177600Y-83532090D01*
G75*
G02*
X139396350Y-83313340I218750J0D01*
G01*
X139908850Y-83313340D01*
G75*
G02*
X140127600Y-83532090I0J-218750D01*
G01*
X140127600Y-83969590D01*
G75*
G02*
X139908850Y-84188340I-218750J0D01*
G01*
G37*
%TD.AperFunction*%
%TD*%
%TO.P,R3,1*%
%TO.N,GND*%
%TA.AperFunction,SMDPad,CuDef*%
G36*
G01*
X134838580Y-79589084D02*
X134838580Y-79076584D01*
G75*
G02*
X135057330Y-78857834I218750J0D01*
G01*
X135494830Y-78857834D01*
G75*
G02*
X135713580Y-79076584I0J-218750D01*
G01*
X135713580Y-79589084D01*
G75*
G02*
X135494830Y-79807834I-218750J0D01*
G01*
X135057330Y-79807834D01*
G75*
G02*
X134838580Y-79589084I0J218750D01*
G01*
G37*
%TD.AperFunction*%
%TO.P,R3,2*%
%TO.N,Net-(R3-Pad2)*%
%TA.AperFunction,SMDPad,CuDef*%
G36*
G01*
X136413580Y-79589084D02*
X136413580Y-79076584D01*
G75*
G02*
X136632330Y-78857834I218750J0D01*
G01*
X137069830Y-78857834D01*
G75*
G02*
X137288580Y-79076584I0J-218750D01*
G01*
X137288580Y-79589084D01*
G75*
G02*
X137069830Y-79807834I-218750J0D01*
G01*
X136632330Y-79807834D01*
G75*
G02*
X136413580Y-79589084I0J218750D01*
G01*
G37*
%TD.AperFunction*%
%TD*%
%TO.P,R4,2*%
%TO.N,Net-(R4-Pad2)*%
%TA.AperFunction,SMDPad,CuDef*%
G36*
G01*
X141709710Y-82615880D02*
X141197210Y-82615880D01*
G75*
G02*
X140978460Y-82397130I0J218750D01*
G01*
X140978460Y-81959630D01*
G75*
G02*
X141197210Y-81740880I218750J0D01*
G01*
X141709710Y-81740880D01*
G75*
G02*
X141928460Y-81959630I0J-218750D01*
G01*
X141928460Y-82397130D01*
G75*
G02*
X141709710Y-82615880I-218750J0D01*
G01*
G37*
%TD.AperFunction*%
%TO.P,R4,1*%
%TO.N,GND*%
%TA.AperFunction,SMDPad,CuDef*%
G36*
G01*
X141709710Y-84190880D02*
X141197210Y-84190880D01*
G75*
G02*
X140978460Y-83972130I0J218750D01*
G01*
X140978460Y-83534630D01*
G75*
G02*
X141197210Y-83315880I218750J0D01*
G01*
X141709710Y-83315880D01*
G75*
G02*
X141928460Y-83534630I0J-218750D01*
G01*
X141928460Y-83972130D01*
G75*
G02*
X141709710Y-84190880I-218750J0D01*
G01*
G37*
%TD.AperFunction*%
%TD*%
%TO.P,R5,1*%
%TO.N,+3V3*%
%TA.AperFunction,SMDPad,CuDef*%
G36*
G01*
X156306715Y-111644222D02*
X156669107Y-111281829D01*
G75*
G02*
X156978467Y-111281829I154680J-154680D01*
G01*
X157287826Y-111591188D01*
G75*
G02*
X157287826Y-111900548I-154680J-154680D01*
G01*
X156925433Y-112262941D01*
G75*
G02*
X156616073Y-112262941I-154680J154680D01*
G01*
X156306714Y-111953582D01*
G75*
G02*
X156306714Y-111644222I154680J154680D01*
G01*
G37*
%TD.AperFunction*%
%TO.P,R5,2*%
%TO.N,Net-(D2-Pad2)*%
%TA.AperFunction,SMDPad,CuDef*%
G36*
G01*
X157420409Y-112757916D02*
X157782801Y-112395523D01*
G75*
G02*
X158092161Y-112395523I154680J-154680D01*
G01*
X158401520Y-112704882D01*
G75*
G02*
X158401520Y-113014242I-154680J-154680D01*
G01*
X158039127Y-113376635D01*
G75*
G02*
X157729767Y-113376635I-154680J154680D01*
G01*
X157420408Y-113067276D01*
G75*
G02*
X157420408Y-112757916I154680J154680D01*
G01*
G37*
%TD.AperFunction*%
%TD*%
%TO.P,R7,1*%
%TO.N,Net-(D4-Pad2)*%
%TA.AperFunction,SMDPad,CuDef*%
G36*
G01*
X160816848Y-110598912D02*
X160454456Y-110961305D01*
G75*
G02*
X160145096Y-110961305I-154680J154680D01*
G01*
X159835737Y-110651946D01*
G75*
G02*
X159835737Y-110342586I154680J154680D01*
G01*
X160198130Y-109980193D01*
G75*
G02*
X160507490Y-109980193I154680J-154680D01*
G01*
X160816849Y-110289552D01*
G75*
G02*
X160816849Y-110598912I-154680J-154680D01*
G01*
G37*
%TD.AperFunction*%
%TO.P,R7,2*%
%TO.N,+3V3*%
%TA.AperFunction,SMDPad,CuDef*%
G36*
G01*
X159703154Y-109485218D02*
X159340762Y-109847611D01*
G75*
G02*
X159031402Y-109847611I-154680J154680D01*
G01*
X158722043Y-109538252D01*
G75*
G02*
X158722043Y-109228892I154680J154680D01*
G01*
X159084436Y-108866499D01*
G75*
G02*
X159393796Y-108866499I154680J-154680D01*
G01*
X159703155Y-109175858D01*
G75*
G02*
X159703155Y-109485218I-154680J-154680D01*
G01*
G37*
%TD.AperFunction*%
%TD*%
%TO.P,R17,1*%
%TO.N,/Buzzer*%
%TA.AperFunction,SMDPad,CuDef*%
G36*
G01*
X135457210Y-96753620D02*
X135969710Y-96753620D01*
G75*
G02*
X136188460Y-96972370I0J-218750D01*
G01*
X136188460Y-97409870D01*
G75*
G02*
X135969710Y-97628620I-218750J0D01*
G01*
X135457210Y-97628620D01*
G75*
G02*
X135238460Y-97409870I0J218750D01*
G01*
X135238460Y-96972370D01*
G75*
G02*
X135457210Y-96753620I218750J0D01*
G01*
G37*
%TD.AperFunction*%
%TO.P,R17,2*%
%TO.N,Net-(Q1-Pad1)*%
%TA.AperFunction,SMDPad,CuDef*%
G36*
G01*
X135457210Y-98328620D02*
X135969710Y-98328620D01*
G75*
G02*
X136188460Y-98547370I0J-218750D01*
G01*
X136188460Y-98984870D01*
G75*
G02*
X135969710Y-99203620I-218750J0D01*
G01*
X135457210Y-99203620D01*
G75*
G02*
X135238460Y-98984870I0J218750D01*
G01*
X135238460Y-98547370D01*
G75*
G02*
X135457210Y-98328620I218750J0D01*
G01*
G37*
%TD.AperFunction*%
%TD*%
%TO.P,R18,2*%
%TO.N,GND*%
%TA.AperFunction,SMDPad,CuDef*%
G36*
G01*
X134369510Y-97628620D02*
X133857010Y-97628620D01*
G75*
G02*
X133638260Y-97409870I0J218750D01*
G01*
X133638260Y-96972370D01*
G75*
G02*
X133857010Y-96753620I218750J0D01*
G01*
X134369510Y-96753620D01*
G75*
G02*
X134588260Y-96972370I0J-218750D01*
G01*
X134588260Y-97409870D01*
G75*
G02*
X134369510Y-97628620I-218750J0D01*
G01*
G37*
%TD.AperFunction*%
%TO.P,R18,1*%
%TO.N,Net-(Q1-Pad1)*%
%TA.AperFunction,SMDPad,CuDef*%
G36*
G01*
X134369510Y-99203620D02*
X133857010Y-99203620D01*
G75*
G02*
X133638260Y-98984870I0J218750D01*
G01*
X133638260Y-98547370D01*
G75*
G02*
X133857010Y-98328620I218750J0D01*
G01*
X134369510Y-98328620D01*
G75*
G02*
X134588260Y-98547370I0J-218750D01*
G01*
X134588260Y-98984870D01*
G75*
G02*
X134369510Y-99203620I-218750J0D01*
G01*
G37*
%TD.AperFunction*%
%TD*%
%TO.P,R20,2*%
%TO.N,Net-(R20-Pad2)*%
%TA.AperFunction,SMDPad,CuDef*%
G36*
G01*
X149987570Y-112803780D02*
X149475070Y-112803780D01*
G75*
G02*
X149256320Y-112585030I0J218750D01*
G01*
X149256320Y-112147530D01*
G75*
G02*
X149475070Y-111928780I218750J0D01*
G01*
X149987570Y-111928780D01*
G75*
G02*
X150206320Y-112147530I0J-218750D01*
G01*
X150206320Y-112585030D01*
G75*
G02*
X149987570Y-112803780I-218750J0D01*
G01*
G37*
%TD.AperFunction*%
%TO.P,R20,1*%
%TO.N,/JY_Y*%
%TA.AperFunction,SMDPad,CuDef*%
G36*
G01*
X149987570Y-114378780D02*
X149475070Y-114378780D01*
G75*
G02*
X149256320Y-114160030I0J218750D01*
G01*
X149256320Y-113722530D01*
G75*
G02*
X149475070Y-113503780I218750J0D01*
G01*
X149987570Y-113503780D01*
G75*
G02*
X150206320Y-113722530I0J-218750D01*
G01*
X150206320Y-114160030D01*
G75*
G02*
X149987570Y-114378780I-218750J0D01*
G01*
G37*
%TD.AperFunction*%
%TD*%
%TO.P,R21,2*%
%TO.N,/ADC_BATT*%
%TA.AperFunction,SMDPad,CuDef*%
G36*
G01*
X148342230Y-80046900D02*
X148854730Y-80046900D01*
G75*
G02*
X149073480Y-80265650I0J-218750D01*
G01*
X149073480Y-80703150D01*
G75*
G02*
X148854730Y-80921900I-218750J0D01*
G01*
X148342230Y-80921900D01*
G75*
G02*
X148123480Y-80703150I0J218750D01*
G01*
X148123480Y-80265650D01*
G75*
G02*
X148342230Y-80046900I218750J0D01*
G01*
G37*
%TD.AperFunction*%
%TO.P,R21,1*%
%TO.N,/BATT*%
%TA.AperFunction,SMDPad,CuDef*%
G36*
G01*
X148342230Y-78471900D02*
X148854730Y-78471900D01*
G75*
G02*
X149073480Y-78690650I0J-218750D01*
G01*
X149073480Y-79128150D01*
G75*
G02*
X148854730Y-79346900I-218750J0D01*
G01*
X148342230Y-79346900D01*
G75*
G02*
X148123480Y-79128150I0J218750D01*
G01*
X148123480Y-78690650D01*
G75*
G02*
X148342230Y-78471900I218750J0D01*
G01*
G37*
%TD.AperFunction*%
%TD*%
%TO.P,R22,1*%
%TO.N,/ADC_BATT*%
%TA.AperFunction,SMDPad,CuDef*%
G36*
G01*
X150497470Y-80939500D02*
X149984970Y-80939500D01*
G75*
G02*
X149766220Y-80720750I0J218750D01*
G01*
X149766220Y-80283250D01*
G75*
G02*
X149984970Y-80064500I218750J0D01*
G01*
X150497470Y-80064500D01*
G75*
G02*
X150716220Y-80283250I0J-218750D01*
G01*
X150716220Y-80720750D01*
G75*
G02*
X150497470Y-80939500I-218750J0D01*
G01*
G37*
%TD.AperFunction*%
%TO.P,R22,2*%
%TO.N,GND*%
%TA.AperFunction,SMDPad,CuDef*%
G36*
G01*
X150497470Y-79364500D02*
X149984970Y-79364500D01*
G75*
G02*
X149766220Y-79145750I0J218750D01*
G01*
X149766220Y-78708250D01*
G75*
G02*
X149984970Y-78489500I218750J0D01*
G01*
X150497470Y-78489500D01*
G75*
G02*
X150716220Y-78708250I0J-218750D01*
G01*
X150716220Y-79145750D01*
G75*
G02*
X150497470Y-79364500I-218750J0D01*
G01*
G37*
%TD.AperFunction*%
%TD*%
%TO.P,R23,1*%
%TO.N,+3V3*%
%TA.AperFunction,SMDPad,CuDef*%
G36*
G01*
X153891385Y-114059552D02*
X154253777Y-113697159D01*
G75*
G02*
X154563137Y-113697159I154680J-154680D01*
G01*
X154872496Y-114006518D01*
G75*
G02*
X154872496Y-114315878I-154680J-154680D01*
G01*
X154510103Y-114678271D01*
G75*
G02*
X154200743Y-114678271I-154680J154680D01*
G01*
X153891384Y-114368912D01*
G75*
G02*
X153891384Y-114059552I154680J154680D01*
G01*
G37*
%TD.AperFunction*%
%TO.P,R23,2*%
%TO.N,Net-(D1-Pad2)*%
%TA.AperFunction,SMDPad,CuDef*%
G36*
G01*
X155005079Y-115173246D02*
X155367471Y-114810853D01*
G75*
G02*
X155676831Y-114810853I154680J-154680D01*
G01*
X155986190Y-115120212D01*
G75*
G02*
X155986190Y-115429572I-154680J-154680D01*
G01*
X155623797Y-115791965D01*
G75*
G02*
X155314437Y-115791965I-154680J154680D01*
G01*
X155005078Y-115482606D01*
G75*
G02*
X155005078Y-115173246I154680J154680D01*
G01*
G37*
%TD.AperFunction*%
%TD*%
%TO.P,R25,1*%
%TO.N,/JY_X*%
%TA.AperFunction,SMDPad,CuDef*%
G36*
G01*
X155802940Y-98387410D02*
X155802940Y-97874910D01*
G75*
G02*
X156021690Y-97656160I218750J0D01*
G01*
X156459190Y-97656160D01*
G75*
G02*
X156677940Y-97874910I0J-218750D01*
G01*
X156677940Y-98387410D01*
G75*
G02*
X156459190Y-98606160I-218750J0D01*
G01*
X156021690Y-98606160D01*
G75*
G02*
X155802940Y-98387410I0J218750D01*
G01*
G37*
%TD.AperFunction*%
%TO.P,R25,2*%
%TO.N,Net-(R25-Pad2)*%
%TA.AperFunction,SMDPad,CuDef*%
G36*
G01*
X157377940Y-98387410D02*
X157377940Y-97874910D01*
G75*
G02*
X157596690Y-97656160I218750J0D01*
G01*
X158034190Y-97656160D01*
G75*
G02*
X158252940Y-97874910I0J-218750D01*
G01*
X158252940Y-98387410D01*
G75*
G02*
X158034190Y-98606160I-218750J0D01*
G01*
X157596690Y-98606160D01*
G75*
G02*
X157377940Y-98387410I0J218750D01*
G01*
G37*
%TD.AperFunction*%
%TD*%
%TO.P,R26,2*%
%TO.N,Net-(BZ1-Pad1)*%
%TA.AperFunction,SMDPad,CuDef*%
G36*
G01*
X130876380Y-106978750D02*
X130876380Y-106466250D01*
G75*
G02*
X131095130Y-106247500I218750J0D01*
G01*
X131532630Y-106247500D01*
G75*
G02*
X131751380Y-106466250I0J-218750D01*
G01*
X131751380Y-106978750D01*
G75*
G02*
X131532630Y-107197500I-218750J0D01*
G01*
X131095130Y-107197500D01*
G75*
G02*
X130876380Y-106978750I0J218750D01*
G01*
G37*
%TD.AperFunction*%
%TO.P,R26,1*%
%TO.N,+3V3*%
%TA.AperFunction,SMDPad,CuDef*%
G36*
G01*
X129301380Y-106978750D02*
X129301380Y-106466250D01*
G75*
G02*
X129520130Y-106247500I218750J0D01*
G01*
X129957630Y-106247500D01*
G75*
G02*
X130176380Y-106466250I0J-218750D01*
G01*
X130176380Y-106978750D01*
G75*
G02*
X129957630Y-107197500I-218750J0D01*
G01*
X129520130Y-107197500D01*
G75*
G02*
X129301380Y-106978750I0J218750D01*
G01*
G37*
%TD.AperFunction*%
%TD*%
D19*
%TO.P,SW1,1*%
%TO.N,/BUTTON__LEFT*%
X131188220Y-88863760D03*
%TO.P,SW1,2*%
%TO.N,GND*%
X138988220Y-88863760D03*
%TD*%
%TO.P,SW2,2*%
%TO.N,GND*%
X152747340Y-88863760D03*
%TO.P,SW2,1*%
%TO.N,/BUTTON_RIGHT*%
X160547340Y-88863760D03*
%TD*%
D20*
%TO.P,U8,6*%
%TO.N,+3V3*%
X156548000Y-99960620D03*
%TO.P,U8,5*%
%TO.N,Net-(R25-Pad2)*%
X156548000Y-101960620D03*
%TO.P,U8,4*%
%TO.N,GND*%
X156548000Y-103960620D03*
D21*
%TO.P,U8,1*%
X143868000Y-112640620D03*
%TO.P,U8,2*%
%TO.N,Net-(R20-Pad2)*%
X145868000Y-112640620D03*
%TO.P,U8,3*%
%TO.N,+3V3*%
X147868000Y-112640620D03*
%TD*%
%TO.P,R6,1*%
%TO.N,+3V3*%
%TA.AperFunction,SMDPad,CuDef*%
G36*
G01*
X137911980Y-76427630D02*
X137911980Y-75915130D01*
G75*
G02*
X138130730Y-75696380I218750J0D01*
G01*
X138568230Y-75696380D01*
G75*
G02*
X138786980Y-75915130I0J-218750D01*
G01*
X138786980Y-76427630D01*
G75*
G02*
X138568230Y-76646380I-218750J0D01*
G01*
X138130730Y-76646380D01*
G75*
G02*
X137911980Y-76427630I0J218750D01*
G01*
G37*
%TD.AperFunction*%
%TO.P,R6,2*%
%TO.N,/PGOOD*%
%TA.AperFunction,SMDPad,CuDef*%
G36*
G01*
X139486980Y-76427630D02*
X139486980Y-75915130D01*
G75*
G02*
X139705730Y-75696380I218750J0D01*
G01*
X140143230Y-75696380D01*
G75*
G02*
X140361980Y-75915130I0J-218750D01*
G01*
X140361980Y-76427630D01*
G75*
G02*
X140143230Y-76646380I-218750J0D01*
G01*
X139705730Y-76646380D01*
G75*
G02*
X139486980Y-76427630I0J218750D01*
G01*
G37*
%TD.AperFunction*%
%TD*%
D22*
%TO.N,GND*%
X149886260Y-81540940D03*
X151915720Y-81764460D03*
X143848680Y-106676780D03*
X153559100Y-103689740D03*
X160031020Y-102821060D03*
X151919455Y-97892265D03*
X138626440Y-72193740D03*
X141113100Y-72201360D03*
X142238320Y-72252160D03*
X143498160Y-72269940D03*
X145172040Y-75884360D03*
X147607880Y-72635700D03*
X148357180Y-72605220D03*
X149896420Y-72605220D03*
X152644700Y-72650940D03*
X159215680Y-73727920D03*
X153040940Y-78978080D03*
X148778820Y-76704780D03*
X147336100Y-82473120D03*
X151915720Y-82480740D03*
X156998260Y-85328080D03*
X142573600Y-76537140D03*
X132223100Y-86887640D03*
X144257620Y-96679340D03*
X132703160Y-84990260D03*
X130130140Y-80545260D03*
X130107280Y-85803060D03*
X130130140Y-75985960D03*
X132703160Y-77085780D03*
X154288080Y-93174140D03*
X133107020Y-75823400D03*
X136688420Y-73621220D03*
X133932520Y-70169360D03*
X130823560Y-70504640D03*
X139302080Y-84886100D03*
X141580460Y-84835320D03*
X133038440Y-97187340D03*
X143988380Y-82633140D03*
X135271100Y-79313360D03*
X137328500Y-75305240D03*
X140805760Y-76801300D03*
X145260920Y-94017420D03*
D23*
X133597240Y-91827940D03*
D22*
X152606600Y-81083740D03*
X153306600Y-81083740D03*
X154006600Y-81083740D03*
X152606600Y-81783740D03*
X153306600Y-81783740D03*
X154006600Y-81783740D03*
X152606600Y-82483740D03*
X153306600Y-82483740D03*
X154006600Y-82483740D03*
X155222800Y-87075620D03*
X155222800Y-90062620D03*
X154788460Y-88576740D03*
X155222800Y-89112680D03*
X155222800Y-87939200D03*
X159528100Y-105162940D03*
X161207040Y-107377820D03*
X158885480Y-103961520D03*
X132863180Y-100283600D03*
X137071960Y-97956960D03*
X159312200Y-92810920D03*
X156673140Y-96488840D03*
X157704380Y-96501520D03*
X158516206Y-96522727D03*
X131649060Y-100725560D03*
X133388960Y-74266380D03*
X135537800Y-73600900D03*
X138997280Y-90115980D03*
X155210100Y-85640500D03*
%TO.N,Net-(C1-Pad2)*%
X136896700Y-80872920D03*
%TO.N,+3V3*%
X135888320Y-67875740D03*
X158260640Y-108444620D03*
X153543860Y-113336660D03*
X133528660Y-69501340D03*
X152687880Y-99902600D03*
X161069880Y-100311540D03*
X131646520Y-97553100D03*
X134107780Y-93397660D03*
X161704860Y-74827720D03*
X151682040Y-115442320D03*
X155954320Y-110910960D03*
X149146702Y-72582359D03*
X150732080Y-72595060D03*
X158242860Y-85363640D03*
X152703120Y-92602640D03*
X158374940Y-93184300D03*
X152703120Y-84025060D03*
X141511880Y-86425360D03*
X136530940Y-82358820D03*
X144237300Y-93186840D03*
X136917787Y-75932789D03*
X137088320Y-67875740D03*
X138288320Y-67875740D03*
X135888320Y-68575740D03*
X137088320Y-68575740D03*
X138288320Y-68575740D03*
X155565700Y-107634360D03*
X154003600Y-98932320D03*
X130033620Y-105457580D03*
X138402940Y-91956160D03*
%TO.N,/ADC_BATT*%
X157384340Y-94266340D03*
%TO.N,/BUTTON__LEFT*%
X145685100Y-94883560D03*
%TO.N,/BUTTON_RIGHT*%
X159880579Y-95466341D03*
%TO.N,Net-(J1-Pad2)*%
X134211920Y-85932600D03*
X134161120Y-81744140D03*
%TO.N,Net-(J1-Pad3)*%
X133998560Y-80913560D03*
X133434680Y-84578402D03*
%TO.N,/SWDCLK*%
X140546548Y-85333028D03*
X138771220Y-85988500D03*
%TO.N,/RF_SCK*%
X143269560Y-91406300D03*
X141602260Y-91962560D03*
%TO.N,/OLED_FLASH_SCK*%
X144861059Y-83474961D03*
X145141540Y-72582360D03*
X146266760Y-71398720D03*
X144757925Y-81812795D03*
%TO.N,/Buzzer*%
X145741970Y-95631403D03*
%TO.N,/JY_Y*%
X148263200Y-108254120D03*
%TO.N,/JY_X*%
X150917500Y-96041780D03*
%TO.N,Net-(S1-Pad2)*%
X135062820Y-87832520D03*
%TO.N,/OLED_FLASH_MISO*%
X145922779Y-84536681D03*
X158692440Y-83039540D03*
%TO.N,/USER_LED*%
X148946460Y-106831720D03*
%TO.N,/CHARGE*%
X136916523Y-76693454D03*
X143792176Y-83387500D03*
%TO.N,/PGOOD*%
X137739980Y-74558480D03*
X153140000Y-70758640D03*
X161872520Y-94360320D03*
%TD*%
D24*
%TO.N,Net-(BZ1-Pad1)*%
X134240440Y-107430180D02*
X134358460Y-107312160D01*
X131336740Y-105339800D02*
X131334100Y-105337160D01*
D25*
X132578700Y-106722500D02*
X133061680Y-107205480D01*
X131313880Y-106722500D02*
X132578700Y-106722500D01*
X133061680Y-107205480D02*
X134335600Y-107205480D01*
X131313880Y-105233120D02*
X131311240Y-105230480D01*
X131313880Y-106722500D02*
X131313880Y-105233120D01*
D24*
%TO.N,Net-(BZ1-Pad2)*%
X134718460Y-103352160D02*
X134358460Y-103712160D01*
X134718460Y-102288040D02*
X134718460Y-103352160D01*
D25*
X132201740Y-103830480D02*
X132426740Y-103605480D01*
X131311240Y-103830480D02*
X132201740Y-103830480D01*
X132426740Y-103605480D02*
X134335600Y-103605480D01*
X134718460Y-103222620D02*
X134335600Y-103605480D01*
X134718460Y-102288040D02*
X134718460Y-103222620D01*
D24*
%TO.N,GND*%
X143868000Y-112640620D02*
X143868000Y-106696100D01*
X143868000Y-106696100D02*
X143848680Y-106676780D01*
X151793620Y-78927000D02*
X151834440Y-78967820D01*
X150241220Y-78927000D02*
X151793620Y-78927000D01*
X151834440Y-78967820D02*
X153030680Y-78967820D01*
X153030680Y-78967820D02*
X153040940Y-78978080D01*
X134224520Y-75841180D02*
X133124800Y-75841180D01*
X133124800Y-75841180D02*
X133107020Y-75823400D01*
X135151720Y-74501100D02*
X135151720Y-73613600D01*
X139652600Y-83750840D02*
X139652600Y-84535580D01*
X139652600Y-84535580D02*
X139302080Y-84886100D01*
X145989900Y-81180260D02*
X146043240Y-81180260D01*
X141453460Y-84708320D02*
X141580460Y-84835320D01*
X141453460Y-83753380D02*
X141453460Y-84708320D01*
X142974920Y-82163340D02*
X143518580Y-82163340D01*
X143518580Y-82163340D02*
X143988380Y-82633140D01*
X142985080Y-76948620D02*
X142573600Y-76537140D01*
X142985080Y-77512400D02*
X142985080Y-76948620D01*
X135276080Y-80911020D02*
X135276080Y-79332834D01*
X135276080Y-79332834D02*
X135276080Y-77754648D01*
X133372028Y-77754648D02*
X132703160Y-77085780D01*
X135276080Y-77754648D02*
X133372028Y-77754648D01*
D26*
X139204260Y-77791340D02*
X139204260Y-75851178D01*
X138658322Y-75305240D02*
X137328500Y-75305240D01*
X139204260Y-75851178D02*
X138658322Y-75305240D01*
D24*
X160420264Y-108149390D02*
X160435470Y-108149390D01*
X160435470Y-108149390D02*
X161207040Y-107377820D01*
X156548000Y-103960620D02*
X158884580Y-103960620D01*
X158884580Y-103960620D02*
X158885480Y-103961520D01*
X159301940Y-91830480D02*
X159301940Y-92800660D01*
X159301940Y-92800660D02*
X159312200Y-92810920D01*
X132434020Y-91830480D02*
X133594700Y-91830480D01*
X133594700Y-91830480D02*
X133597240Y-91827940D01*
X154501440Y-88863760D02*
X154788460Y-88576740D01*
X152747340Y-88863760D02*
X154501440Y-88863760D01*
X161207040Y-107377820D02*
X161207040Y-107377820D01*
X158885480Y-103961520D02*
X158885480Y-103961520D01*
X132863180Y-100283600D02*
X132863180Y-100283600D01*
X159312200Y-92810920D02*
X159312200Y-92810920D01*
D25*
X132867620Y-100288040D02*
X132863180Y-100283600D01*
X133768460Y-100288040D02*
X132867620Y-100288040D01*
X133042220Y-97191120D02*
X133038440Y-97187340D01*
X134113260Y-97191120D02*
X133042220Y-97191120D01*
X136680800Y-73613600D02*
X136688420Y-73621220D01*
X135151720Y-73613600D02*
X136680800Y-73613600D01*
X135151720Y-73613600D02*
X133991421Y-73613600D01*
X134224520Y-70461360D02*
X133932520Y-70169360D01*
X134224520Y-71360620D02*
X134224520Y-70461360D01*
D27*
X135151720Y-73613600D02*
X134041740Y-73613600D01*
X134041740Y-73613600D02*
X133388960Y-74266380D01*
D24*
X140746278Y-76801300D02*
X140805760Y-76801300D01*
X140204260Y-77343318D02*
X140746278Y-76801300D01*
X140204260Y-77791340D02*
X140204260Y-77343318D01*
X142006140Y-78491340D02*
X142985080Y-77512400D01*
X141404260Y-78491340D02*
X142006140Y-78491340D01*
X138988220Y-90106920D02*
X138997280Y-90115980D01*
X138988220Y-88863760D02*
X138988220Y-90106920D01*
X138997280Y-90115980D02*
X138997280Y-90115980D01*
%TO.N,Net-(C1-Pad2)*%
X139204260Y-80691340D02*
X139204260Y-81112980D01*
X138725500Y-81591740D02*
X139204260Y-81112980D01*
D25*
X136989700Y-80911020D02*
X137670420Y-81591740D01*
X136851080Y-80911020D02*
X136989700Y-80911020D01*
X137670420Y-81591740D02*
X138725500Y-81591740D01*
D24*
%TO.N,/BATT*%
X146259040Y-78909400D02*
X145989900Y-78640260D01*
X148598480Y-78909400D02*
X146259040Y-78909400D01*
X142581140Y-79491340D02*
X142985080Y-79087400D01*
X141404260Y-79491340D02*
X142581140Y-79491340D01*
X142889020Y-78991340D02*
X142985080Y-79087400D01*
X141404260Y-78991340D02*
X142889020Y-78991340D01*
X145542760Y-79087400D02*
X145989900Y-78640260D01*
%TO.N,/BATT_OUT*%
X135799520Y-74503300D02*
X135801720Y-74501100D01*
X135799520Y-75841180D02*
X135799520Y-74503300D01*
X138056238Y-78991340D02*
X138053138Y-78988240D01*
X138504260Y-78991340D02*
X138056238Y-78991340D01*
X134501720Y-74688600D02*
X134501720Y-74501100D01*
X135654300Y-75841180D02*
X134501720Y-74688600D01*
X135799520Y-75841180D02*
X135654300Y-75841180D01*
D26*
X140704260Y-77413340D02*
X140704260Y-77791340D01*
X140765099Y-77352501D02*
X140704260Y-77413340D01*
X141070337Y-77352501D02*
X140765099Y-77352501D01*
X141356961Y-77065877D02*
X141070337Y-77352501D01*
X139396039Y-73941239D02*
X141356961Y-75902161D01*
X136745800Y-74501100D02*
X137305661Y-73941239D01*
X135801720Y-74501100D02*
X136745800Y-74501100D01*
X137305661Y-73941239D02*
X139396039Y-73941239D01*
X141356961Y-75902161D02*
X141356961Y-77065877D01*
D25*
X135799520Y-76703088D02*
X135799520Y-75841180D01*
X136851080Y-77754648D02*
X135799520Y-76703088D01*
X135799520Y-74519001D02*
X135801720Y-74516801D01*
X135799520Y-75841180D02*
X135799520Y-74519001D01*
X134501720Y-74753910D02*
X134501720Y-74516801D01*
X135799520Y-75841180D02*
X135588990Y-75841180D01*
X135588990Y-75841180D02*
X134501720Y-74753910D01*
D24*
X138504260Y-78991340D02*
X137958004Y-78991340D01*
X138504260Y-79491340D02*
X137976990Y-79491340D01*
X137613590Y-79127940D02*
X137613590Y-78646926D01*
X137976990Y-79491340D02*
X137613590Y-79127940D01*
X137613590Y-78646926D02*
X137279752Y-78313088D01*
X137958004Y-78991340D02*
X137279752Y-78313088D01*
D25*
X136851080Y-77884416D02*
X137279752Y-78313088D01*
X136851080Y-77754648D02*
X136851080Y-77884416D01*
D24*
%TO.N,+3V3*%
X135801720Y-71362820D02*
X135799520Y-71360620D01*
X135801720Y-72726100D02*
X135801720Y-71362820D01*
X159212599Y-109357055D02*
X159173075Y-109357055D01*
X159173075Y-109357055D02*
X158260640Y-108444620D01*
X154381940Y-114187715D02*
X154381940Y-114174740D01*
X154381940Y-114174740D02*
X153543860Y-113336660D01*
X147868000Y-112640620D02*
X147868000Y-115158880D01*
X147868000Y-115158880D02*
X148151440Y-115442320D01*
X148151440Y-115442320D02*
X151682040Y-115442320D01*
X156797270Y-111772385D02*
X156797270Y-111753910D01*
X156797270Y-111753910D02*
X155954320Y-110910960D01*
D26*
X138349480Y-76171380D02*
X137156378Y-76171380D01*
X137156378Y-76171380D02*
X136917787Y-75932789D01*
D24*
X152745900Y-99960620D02*
X152687880Y-99902600D01*
X156548000Y-99960620D02*
X152745900Y-99960620D01*
D25*
X129738880Y-106722500D02*
X129738880Y-105752320D01*
X129738880Y-105752320D02*
X130033620Y-105457580D01*
X135799520Y-72708199D02*
X135801720Y-72710399D01*
X135799520Y-71360620D02*
X135799520Y-72708199D01*
D24*
%TO.N,/ADC_BATT*%
X150223620Y-80484400D02*
X150241220Y-80502000D01*
X148598480Y-80484400D02*
X150223620Y-80484400D01*
X151793620Y-80502000D02*
X151834440Y-80542820D01*
X150241220Y-80502000D02*
X151793620Y-80502000D01*
X151834440Y-80542820D02*
X158563000Y-80542820D01*
X159292441Y-81272261D02*
X159292441Y-89386439D01*
X158563000Y-80542820D02*
X159292441Y-81272261D01*
X159292441Y-89386439D02*
X157384340Y-91294540D01*
X157384340Y-91294540D02*
X157384340Y-94266340D01*
%TO.N,/BUTTON__LEFT*%
X145685100Y-94883560D02*
X131712560Y-94883560D01*
X130859020Y-94030020D02*
X130859020Y-91830480D01*
X131712560Y-94883560D02*
X130859020Y-94030020D01*
X130859020Y-89192960D02*
X131188220Y-88863760D01*
X130859020Y-91830480D02*
X130859020Y-89192960D01*
%TO.N,/BUTTON_RIGHT*%
X160876940Y-89193360D02*
X160547340Y-88863760D01*
X160876940Y-91830480D02*
X160876940Y-89193360D01*
X160876940Y-94445418D02*
X160876940Y-94350060D01*
X159880579Y-95441779D02*
X160876940Y-94445418D01*
X160876940Y-91830480D02*
X160876940Y-94350060D01*
%TO.N,Net-(D1-Pad2)*%
X156703299Y-114093744D02*
X155495634Y-115301409D01*
%TO.N,Net-(D2-Pad2)*%
X159118629Y-111678414D02*
X157910964Y-112886079D01*
%TO.N,Net-(D4-Pad2)*%
X161533958Y-109263084D02*
X160326293Y-110470749D01*
D26*
%TO.N,Net-(J1-Pad2)*%
X134211087Y-85931767D02*
X134211920Y-85932600D01*
X134161120Y-81744140D02*
X134211087Y-85931767D01*
%TO.N,Net-(J1-Pad3)*%
X133998560Y-80913560D02*
X133434680Y-81477440D01*
X133434680Y-81477440D02*
X133434680Y-84578402D01*
%TO.N,/SWDCLK*%
X138680430Y-85789710D02*
X138608660Y-85861480D01*
X140546548Y-85333028D02*
X140089866Y-85789710D01*
X140089866Y-85789710D02*
X138680430Y-85789710D01*
%TO.N,/RF_SCK*%
X142158520Y-91406300D02*
X143269560Y-91406300D01*
X141602260Y-91962560D02*
X142158520Y-91406300D01*
%TO.N,/OLED_FLASH_SCK*%
X144742999Y-83356901D02*
X144861059Y-83474961D01*
X145141540Y-72523940D02*
X145141540Y-72582360D01*
X146266760Y-71398720D02*
X145141540Y-72523940D01*
X144861059Y-83474961D02*
X144861059Y-81915929D01*
X144861059Y-81915929D02*
X144757925Y-81812795D01*
D24*
%TO.N,Net-(Q1-Pad1)*%
X135713460Y-98766120D02*
X134113260Y-98766120D01*
D25*
X135668460Y-98811120D02*
X135713460Y-98766120D01*
X135668460Y-100288040D02*
X135668460Y-98811120D01*
D24*
%TO.N,Net-(R1-Pad1)*%
X142974920Y-80588340D02*
X142639540Y-80588340D01*
X142042540Y-79991340D02*
X141404260Y-79991340D01*
X142639540Y-80588340D02*
X142042540Y-79991340D01*
%TO.N,Net-(R2-Pad2)*%
X139711020Y-80698100D02*
X139704260Y-80691340D01*
X139711020Y-82191080D02*
X139711020Y-80698100D01*
%TO.N,Net-(R3-Pad2)*%
X137509586Y-79991340D02*
X136851080Y-79332834D01*
X138504260Y-79991340D02*
X137509586Y-79991340D01*
%TO.N,Net-(R4-Pad2)*%
X141250260Y-82191080D02*
X141250260Y-82028620D01*
X140704260Y-81482620D02*
X140704260Y-80691340D01*
X141250260Y-82028620D02*
X140704260Y-81482620D01*
D25*
%TO.N,/Buzzer*%
X135713460Y-97191120D02*
X135713460Y-95924560D01*
X135713460Y-95924560D02*
X135974680Y-95663340D01*
X135974680Y-95663340D02*
X136006617Y-95631403D01*
X136006617Y-95631403D02*
X145741970Y-95631403D01*
D24*
%TO.N,Net-(R20-Pad2)*%
X145868000Y-112640620D02*
X145868000Y-109960980D01*
X145868000Y-109960980D02*
X146571560Y-109257420D01*
X146571560Y-109257420D02*
X149218240Y-109257420D01*
X149731320Y-109770500D02*
X149731320Y-112366280D01*
X149218240Y-109257420D02*
X149731320Y-109770500D01*
%TO.N,/JY_Y*%
X149731320Y-113941280D02*
X150724360Y-113941280D01*
X150724360Y-113941280D02*
X151085140Y-113580500D01*
X151085140Y-113580500D02*
X151085140Y-109381880D01*
X151085140Y-109381880D02*
X149987860Y-108284600D01*
X149987860Y-108284600D02*
X148293680Y-108284600D01*
X148293680Y-108284600D02*
X148263200Y-108254120D01*
%TO.N,/JY_X*%
X156240440Y-98131160D02*
X154909320Y-98131160D01*
X154909320Y-98131160D02*
X154907840Y-98129680D01*
X154907840Y-98129680D02*
X153005400Y-98129680D01*
X153005400Y-98129680D02*
X150917500Y-96041780D01*
%TO.N,Net-(R25-Pad2)*%
X156548000Y-101960620D02*
X159098220Y-101960620D01*
X159098220Y-101960620D02*
X159825280Y-101233560D01*
X159825280Y-101233560D02*
X159825280Y-98886600D01*
X159069840Y-98131160D02*
X157815440Y-98131160D01*
X159825280Y-98886600D02*
X159069840Y-98131160D01*
D26*
%TO.N,Net-(S1-Pad2)*%
X140204260Y-81552518D02*
X140526360Y-81874618D01*
X140204260Y-80691340D02*
X140204260Y-81552518D01*
X140526360Y-81874618D02*
X140526360Y-84573700D01*
X140526360Y-84573700D02*
X139662760Y-85437300D01*
X139662760Y-85437300D02*
X135710520Y-85437300D01*
X135710520Y-85437300D02*
X135062820Y-86085000D01*
X135062820Y-86085000D02*
X135062820Y-87832520D01*
%TO.N,/OLED_FLASH_MISO*%
X145922779Y-84536681D02*
X145922779Y-83802621D01*
X145922779Y-83802621D02*
X146685860Y-83039540D01*
X146685860Y-83039540D02*
X158692440Y-83039540D01*
D24*
%TO.N,/USER_LED*%
X155589605Y-112980050D02*
X153507815Y-110898260D01*
X153507815Y-110898260D02*
X153507815Y-109576975D01*
X153507815Y-109576975D02*
X151339140Y-107408300D01*
X151339140Y-107408300D02*
X149523040Y-107408300D01*
X149523040Y-107408300D02*
X148946460Y-106831720D01*
%TO.N,/CHARGE*%
X158004935Y-110564720D02*
X156568095Y-109127880D01*
X156568095Y-109127880D02*
X154516680Y-109127880D01*
X154516680Y-109127880D02*
X151425500Y-106036700D01*
X151425500Y-106036700D02*
X149723700Y-106036700D01*
X149723700Y-106036700D02*
X147811080Y-104124080D01*
X143869561Y-91738059D02*
X143869561Y-83464885D01*
X143869561Y-83464885D02*
X143792176Y-83387500D01*
X147811080Y-95679578D02*
X143869561Y-91738059D01*
X147811080Y-104124080D02*
X147811080Y-95679578D01*
X138094414Y-78491340D02*
X137883707Y-78280633D01*
X138504260Y-78491340D02*
X138094414Y-78491340D01*
X137883707Y-77277767D02*
X137299394Y-76693454D01*
X137883707Y-78280633D02*
X137883707Y-77277767D01*
X137299394Y-76693454D02*
X136916523Y-76693454D01*
D26*
%TO.N,/PGOOD*%
X139704260Y-75958780D02*
X139703500Y-75958020D01*
X139703500Y-75958020D02*
X139703500Y-75838740D01*
D24*
X139924480Y-76171380D02*
X139924480Y-75539020D01*
X139924480Y-75539020D02*
X138943940Y-74558480D01*
X138943940Y-74558480D02*
X137739980Y-74558480D01*
X153140000Y-70758640D02*
X158522260Y-70758640D01*
X161104859Y-87336277D02*
X161872520Y-88103938D01*
X158522260Y-70758640D02*
X161104859Y-73341239D01*
X161104859Y-73341239D02*
X161104859Y-87336277D01*
X161872520Y-88103938D02*
X161872520Y-94360320D01*
X161872520Y-94360320D02*
X161872520Y-94494940D01*
X139704260Y-76391600D02*
X139924480Y-76171380D01*
X139704260Y-77791340D02*
X139704260Y-76391600D01*
%TD*%
D28*
%TO.N,/BATT*%
G36*
X146762060Y-79445440D02*
G01*
X142591380Y-79445440D01*
X142591380Y-78799882D01*
X142669722Y-78721540D01*
X143510860Y-78721540D01*
X143535636Y-78719100D01*
X143559461Y-78711873D01*
X143581417Y-78700137D01*
X143600663Y-78684343D01*
X144424526Y-77860480D01*
X146762060Y-77860480D01*
X146762060Y-79445440D01*
G37*
X146762060Y-79445440D02*
X142591380Y-79445440D01*
X142591380Y-78799882D01*
X142669722Y-78721540D01*
X143510860Y-78721540D01*
X143535636Y-78719100D01*
X143559461Y-78711873D01*
X143581417Y-78700137D01*
X143600663Y-78684343D01*
X144424526Y-77860480D01*
X146762060Y-77860480D01*
X146762060Y-79445440D01*
%TO.N,GND*%
G36*
X147614027Y-80703150D02*
G01*
X147628019Y-80845215D01*
X147669458Y-80981821D01*
X147736751Y-81107718D01*
X147827313Y-81218067D01*
X147937662Y-81308629D01*
X148063559Y-81375922D01*
X148200165Y-81417361D01*
X148342230Y-81431353D01*
X148854730Y-81431353D01*
X148996795Y-81417361D01*
X149133401Y-81375922D01*
X149259298Y-81308629D01*
X149369647Y-81218067D01*
X149412628Y-81165695D01*
X149470053Y-81235667D01*
X149580402Y-81326229D01*
X149706299Y-81393522D01*
X149842905Y-81434961D01*
X149984970Y-81448953D01*
X150497470Y-81448953D01*
X150639535Y-81434961D01*
X150776141Y-81393522D01*
X150902038Y-81326229D01*
X151012387Y-81235667D01*
X151021080Y-81225075D01*
X151063273Y-81276487D01*
X151173622Y-81367049D01*
X151299519Y-81434342D01*
X151436125Y-81475781D01*
X151578190Y-81489773D01*
X152090690Y-81489773D01*
X152232755Y-81475781D01*
X152369361Y-81434342D01*
X152495258Y-81367049D01*
X152605607Y-81276487D01*
X152689044Y-81174820D01*
X154272840Y-81174820D01*
X154272840Y-82456340D01*
X146744546Y-82456340D01*
X146356563Y-82068357D01*
X146337317Y-82052563D01*
X146315361Y-82040827D01*
X146291536Y-82033600D01*
X146266760Y-82031160D01*
X145511810Y-82031160D01*
X145539925Y-81889815D01*
X145539925Y-81735775D01*
X145509873Y-81584694D01*
X145450925Y-81442379D01*
X145365344Y-81314299D01*
X145256421Y-81205376D01*
X145197420Y-81165952D01*
X145197420Y-80397940D01*
X146988120Y-80397940D01*
X147012896Y-80395500D01*
X147029973Y-80390320D01*
X147614027Y-80390320D01*
X147614027Y-80703150D01*
G37*
X147614027Y-80703150D02*
X147628019Y-80845215D01*
X147669458Y-80981821D01*
X147736751Y-81107718D01*
X147827313Y-81218067D01*
X147937662Y-81308629D01*
X148063559Y-81375922D01*
X148200165Y-81417361D01*
X148342230Y-81431353D01*
X148854730Y-81431353D01*
X148996795Y-81417361D01*
X149133401Y-81375922D01*
X149259298Y-81308629D01*
X149369647Y-81218067D01*
X149412628Y-81165695D01*
X149470053Y-81235667D01*
X149580402Y-81326229D01*
X149706299Y-81393522D01*
X149842905Y-81434961D01*
X149984970Y-81448953D01*
X150497470Y-81448953D01*
X150639535Y-81434961D01*
X150776141Y-81393522D01*
X150902038Y-81326229D01*
X151012387Y-81235667D01*
X151021080Y-81225075D01*
X151063273Y-81276487D01*
X151173622Y-81367049D01*
X151299519Y-81434342D01*
X151436125Y-81475781D01*
X151578190Y-81489773D01*
X152090690Y-81489773D01*
X152232755Y-81475781D01*
X152369361Y-81434342D01*
X152495258Y-81367049D01*
X152605607Y-81276487D01*
X152689044Y-81174820D01*
X154272840Y-81174820D01*
X154272840Y-82456340D01*
X146744546Y-82456340D01*
X146356563Y-82068357D01*
X146337317Y-82052563D01*
X146315361Y-82040827D01*
X146291536Y-82033600D01*
X146266760Y-82031160D01*
X145511810Y-82031160D01*
X145539925Y-81889815D01*
X145539925Y-81735775D01*
X145509873Y-81584694D01*
X145450925Y-81442379D01*
X145365344Y-81314299D01*
X145256421Y-81205376D01*
X145197420Y-81165952D01*
X145197420Y-80397940D01*
X146988120Y-80397940D01*
X147012896Y-80395500D01*
X147029973Y-80390320D01*
X147614027Y-80390320D01*
X147614027Y-80703150D01*
D29*
%TO.N,+3V3*%
G36*
X138645820Y-67492589D02*
G01*
X138645820Y-69508020D01*
X137331040Y-69508020D01*
X137311531Y-69509941D01*
X137292772Y-69515632D01*
X137275483Y-69524873D01*
X137260329Y-69537309D01*
X136213849Y-70583789D01*
X136201413Y-70598943D01*
X136192172Y-70616232D01*
X136186481Y-70634991D01*
X136184560Y-70654500D01*
X136184560Y-71893238D01*
X135980169Y-72097629D01*
X135967733Y-72112783D01*
X135958492Y-72130072D01*
X135952801Y-72148831D01*
X135950880Y-72168340D01*
X135950880Y-72711665D01*
X135753655Y-72711665D01*
X135753655Y-72632350D01*
X135744131Y-72535647D01*
X135715923Y-72442660D01*
X135670117Y-72356962D01*
X135608472Y-72281848D01*
X135533358Y-72220203D01*
X135447660Y-72174397D01*
X135393960Y-72158107D01*
X135393960Y-67474643D01*
X138645820Y-67492589D01*
G37*
X138645820Y-67492589D02*
X138645820Y-69508020D01*
X137331040Y-69508020D01*
X137311531Y-69509941D01*
X137292772Y-69515632D01*
X137275483Y-69524873D01*
X137260329Y-69537309D01*
X136213849Y-70583789D01*
X136201413Y-70598943D01*
X136192172Y-70616232D01*
X136186481Y-70634991D01*
X136184560Y-70654500D01*
X136184560Y-71893238D01*
X135980169Y-72097629D01*
X135967733Y-72112783D01*
X135958492Y-72130072D01*
X135952801Y-72148831D01*
X135950880Y-72168340D01*
X135950880Y-72711665D01*
X135753655Y-72711665D01*
X135753655Y-72632350D01*
X135744131Y-72535647D01*
X135715923Y-72442660D01*
X135670117Y-72356962D01*
X135608472Y-72281848D01*
X135533358Y-72220203D01*
X135447660Y-72174397D01*
X135393960Y-72158107D01*
X135393960Y-67474643D01*
X138645820Y-67492589D01*
%TD*%
M02*
